<!-- Generated by IcoMoon.io -->
<svg version="1.1" xmlns="http://www.w3.org/2000/svg" width="32" height="32" viewBox="0 0 32 32">
<title>accessability</title>
<path fill="#09c" d="M16 5.23c-1.613 0-2.92 1.307-2.92 2.92s1.307 2.92 2.92 2.92c1.613 0 2.92-1.307 2.92-2.92v0c0-1.613-1.307-2.92-2.92-2.92v0z"></path>
<path fill="#09c" d="M23.74 11.78l-8 0.86-7.47-0.86c-0.034-0.004-0.074-0.007-0.115-0.007-0.556 0-1.007 0.451-1.007 1.007 0 0.515 0.387 0.94 0.887 1l0.005 0 7 0.8v2.72l-0.47 1.55-3.26 7.25c-0.054 0.119-0.086 0.259-0.086 0.405 0 0.406 0.242 0.755 0.589 0.912l0.006 0.003c0.117 0.055 0.255 0.088 0.399 0.090h0.001c0.001 0 0.002 0 0.003 0 0.408 0 0.758-0.244 0.914-0.594l0.003-0.006 2.86-6.38 2.86 6.47c0.16 0.351 0.508 0.59 0.912 0.59 0.003 0 0.006 0 0.008-0h-0c0.002 0 0.005 0 0.008 0 0.142 0 0.276-0.029 0.398-0.083l-0.006 0.003c0.354-0.159 0.596-0.509 0.596-0.915 0-0.147-0.032-0.286-0.088-0.412l0.003 0.006-3.22-7.19-0.47-1.58v-2.9l7-0.75c0.506-0.055 0.896-0.479 0.896-0.995 0-0.037-0.002-0.074-0.006-0.11l0 0.004c-0.052-0.509-0.477-0.902-0.995-0.902-0.055 0-0.108 0.004-0.161 0.013l0.006-0.001z"></path>
<path fill="#003359" d="M16 1.16c8.284 0 15 6.716 15 15s-6.716 15-15 15c-8.284 0-15-6.716-15-15v0c0-8.284 6.716-15 15-15v0zM16 0.16v0c-8.837 0-16 7.163-16 16v0 0c0 8.837 7.163 16 16 16v0 0c8.837 0 16-7.163 16-16v0 0c0-8.837-7.163-16-16-16v0z"></path>
</svg>
