<!-- Generated by IcoMoon.io -->
<svg version="1.1" xmlns="http://www.w3.org/2000/svg" width="32" height="32" viewBox="0 0 32 32">
<title>accrobat</title>
<path fill="#ee3f24" d="M31.49 20.52c-0.95-1-2.89-1.59-5.63-1.59-1.774 0.009-3.501 0.187-5.173 0.519l0.173-0.029c-1.103-1.094-2.111-2.28-3.014-3.547l-0.056-0.083c-0.623-0.853-1.252-1.833-1.823-2.851l-0.077-0.149c0.884-2.4 1.462-5.174 1.607-8.063l0.003-0.067c0-2.23-0.8-4.56-3.12-4.56-0.764 0.030-1.425 0.447-1.794 1.060l-0.005 0.010c-1 1.88-0.57 6 1.22 10.050-0.67 2-1.38 4-2.26 6.14-0.79 1.79-1.68 3.64-2.54 5.41-5.25 2.12-8.62 4.58-8.94 6.52-0.022 0.116-0.035 0.25-0.035 0.387 0 0.604 0.247 1.15 0.644 1.543l0 0c0.523 0.454 1.21 0.73 1.962 0.73 0.013 0 0.027-0 0.040-0l-0.002 0c3.45 0 7.090-5.71 8.94-9.15 1.42-0.48 2.84-0.92 4.26-1.35 1.177-0.344 2.708-0.692 4.266-0.961l0.274-0.039c3.64 3.33 6.86 3.86 8.47 3.86 2 0 2.7-0.82 2.94-1.49 0.108-0.258 0.171-0.557 0.171-0.871 0-0.551-0.193-1.056-0.514-1.453l0.003 0.004zM29.64 21.93c-0.213 0.713-0.863 1.224-1.632 1.224-0.077 0-0.153-0.005-0.227-0.015l0.009 0.001c-0.293-0.025-0.562-0.075-0.821-0.147l0.031 0.007c-2.026-0.533-3.779-1.508-5.22-2.819l0.010 0.009c1.197-0.21 2.575-0.33 3.981-0.33 0.007 0 0.013 0 0.020 0h-0.001c0.113-0.004 0.245-0.007 0.378-0.007 0.719 0 1.421 0.072 2.1 0.208l-0.068-0.011c0.65 0.14 1.69 0.58 1.46 1.84zM19.64 19.65c-1.23 0.26-2.55 0.55-3.92 0.93-1.090 0.29-2.23 0.63-3.36 1 0.61-1.2 1.13-2.36 1.61-3.47 0.57-1.36 1-2.76 1.51-4.060 0.47 0.81 1 1.64 1.51 2.37 0.873 1.202 1.739 2.255 2.662 3.254l-0.022-0.024zM13.44 1.65c0.162-0.343 0.503-0.577 0.9-0.58h0c1 0 1.19 1.16 1.19 2.080-0.148 2.414-0.605 4.671-1.334 6.801l0.054-0.181c-1.45-3.77-1.55-6.88-0.84-8.1zM8.21 24.2c-2.42 4.060-4.73 6.58-6.15 6.58-0 0-0.001 0-0.001 0-0.269 0-0.517-0.094-0.711-0.252l0.002 0.002c-0.219-0.185-0.358-0.459-0.358-0.766 0-0.083 0.010-0.163 0.029-0.24l-0.001 0.007c0.28-1.46 2.98-3.53 7.19-5.33z"></path>
</svg>
