<!-- Generated by IcoMoon.io -->
<svg version="1.1" xmlns="http://www.w3.org/2000/svg" width="32" height="32" viewBox="0 0 32 32">
<title>ambulance</title>
<path fill="#09c" d="M11.62 11.27h-2.62v-2.6c0-0.276-0.224-0.5-0.5-0.5v0c-0.274 0.005-0.495 0.226-0.5 0.499v2.601h-2.61c-0.276 0-0.5 0.224-0.5 0.5v0c0 0.276 0.224 0.5 0.5 0.5v0h2.61v2.6c0 0.276 0.224 0.5 0.5 0.5v0c0.276 0 0.5-0.224 0.5-0.5v0-2.6h2.62c0.276 0 0.5-0.224 0.5-0.5v0c-0.005-0.274-0.226-0.495-0.499-0.5h-0.001z"></path>
<path fill="#003359" d="M32 17.93c-0.241-0.827-0.738-1.516-1.399-1.992l-0.011-0.008c-1.141-0.724-2.458-1.396-3.838-1.943l-0.162-0.057c-0.027-0.005-0.058-0.007-0.090-0.007s-0.063 0.003-0.093 0.008l0.003-0h-0.14c0.035-0.067 0.056-0.146 0.056-0.23s-0.021-0.163-0.057-0.233l0.001 0.003-2.72-5.24c-0.093-0.139-0.249-0.23-0.426-0.23-0.005 0-0.010 0-0.014 0h-2.449v-1.62c-0.006-0.274-0.226-0.495-0.499-0.5h-0.001c-0.276 0-0.5 0.224-0.5 0.5v0 1.62h-2.66v-3.86c0-0.276-0.224-0.5-0.5-0.5v0h-16c-0.276 0-0.5 0.224-0.5 0.5v0 18.59c0 0.276 0.224 0.5 0.5 0.5v0h4c0 1.933 1.567 3.5 3.5 3.5s3.5-1.567 3.5-3.5v0h10.63c0 1.933 1.567 3.5 3.5 3.5s3.5-1.567 3.5-3.5v0h2.37c0.276 0 0.5-0.224 0.5-0.5v0-4.67c0.003-0.020 0.004-0.042 0.004-0.065s-0.002-0.045-0.004-0.068l0 0.003zM17 9h5.8l2.54 4.91h-8.34v-4.91zM8 25.59c-0.003 0-0.006 0-0.010 0-1.375 0-2.49-1.115-2.49-2.49 0 0 0 0 0-0v0c0-0.1 0-0.2 0-0.3v0c0.050-0.471 0.23-0.891 0.504-1.235l-0.004 0.005c0.082-0.108 0.17-0.203 0.268-0.288l0.002-0.002c0.019-0.022 0.042-0.039 0.069-0.050l0.001-0c0.097-0.085 0.205-0.161 0.321-0.225l0.010-0.005 0.12-0.070c0.077-0.047 0.166-0.091 0.259-0.126l0.011-0.004 0.22-0.070c0.061-0.023 0.135-0.044 0.211-0.059l0.009-0.001c0.143-0.032 0.307-0.050 0.475-0.050s0.332 0.018 0.49 0.053l-0.015-0.003c0.085 0.016 0.159 0.037 0.23 0.063l-0.010-0.003 0.22 0.070c0.104 0.039 0.193 0.083 0.277 0.134l-0.007-0.004 0.13 0.070c0.105 0.065 0.197 0.134 0.281 0.211l-0.001-0.001 0.060 0.050c0.1 0.087 0.188 0.182 0.267 0.285l0.003 0.005c0.267 0.337 0.45 0.753 0.509 1.208l0.001 0.012c0 0.1 0 0.2 0 0.3 0 0.009 0 0.020 0 0.031 0 1.347-1.070 2.444-2.406 2.489l-0.004 0zM25.63 25.59c-1.375 0-2.49-1.115-2.49-2.49v0c0-0.1 0-0.2 0-0.3v0c0.062-0.47 0.245-0.889 0.514-1.236l-0.004 0.006c0.090-0.104 0.182-0.198 0.278-0.288l0.002-0.002 0.070-0.080c0.088-0.072 0.186-0.139 0.29-0.195l0.010-0.005 0.12-0.070c0.080-0.049 0.173-0.093 0.27-0.127l0.010-0.003 0.21-0.070c0.061-0.021 0.138-0.042 0.217-0.058l0.013-0.002c0.141-0.030 0.303-0.049 0.469-0.050h0.001c0.171 0.002 0.337 0.020 0.497 0.053l-0.017-0.003 0.22 0.060 0.22 0.070c0.104 0.039 0.193 0.083 0.277 0.134l-0.007-0.004 0.12 0.070c0.105 0.065 0.197 0.134 0.281 0.211l-0.001-0.001 0.070 0.050c0.094 0.091 0.182 0.185 0.265 0.284l0.005 0.006c0.267 0.337 0.45 0.753 0.509 1.208l0.001 0.012c0.005 0.045 0.007 0.097 0.007 0.15s-0.003 0.105-0.008 0.156l0.001-0.006c0 0.012 0 0.026 0 0.040 0 1.356-1.088 2.457-2.438 2.48l-0.002 0zM31 22.23h-2c-0.146-0.555-0.41-1.035-0.763-1.434l0.003 0.004-0.070-0.080c-0.086-0.094-0.177-0.179-0.275-0.256l-0.005-0.004-0.19-0.16c-0.082-0.065-0.173-0.125-0.271-0.176l-0.009-0.004c-0.077-0.053-0.166-0.103-0.259-0.145l-0.011-0.005c-0.090 0-0.18-0.090-0.27-0.12s-0.24-0.080-0.37-0.12l-0.23-0.060c-0.194-0.038-0.416-0.060-0.644-0.060-0.002 0-0.004 0-0.006 0h0c-0.002 0-0.003 0-0.005 0-0.225 0-0.444 0.022-0.656 0.064l0.021-0.003-0.24 0.060c-0.12 0-0.25 0.070-0.36 0.12-0.112 0.040-0.204 0.080-0.293 0.126l0.013-0.006-0.26 0.14-0.29 0.19-0.18 0.15c-0.105 0.088-0.199 0.176-0.289 0.269l-0.001 0.001-0.050 0.060c-0.362 0.398-0.633 0.886-0.775 1.426l-0.005 0.024h-10.91c-0.15-0.555-0.416-1.035-0.773-1.433l0.003 0.003-0.060-0.080c-0.088-0.093-0.183-0.179-0.284-0.256l-0.006-0.004-0.18-0.16c-0.084-0.065-0.179-0.125-0.28-0.175l-0.010-0.005c-0.078-0.048-0.167-0.089-0.262-0.118l-0.008-0.002c-0.076-0.043-0.165-0.084-0.258-0.116l-0.012-0.004c-0.12-0.050-0.24-0.080-0.36-0.12l-0.24-0.060c-0.182-0.046-0.394-0.078-0.612-0.090l-0.008-0c-0.002 0-0.004 0-0.006 0-0.228 0-0.451 0.022-0.666 0.064l0.022-0.004-0.23 0.060c-0.13 0-0.25 0.070-0.37 0.12s-0.18 0.080-0.27 0.12c-0.104 0.047-0.193 0.097-0.276 0.154l0.006-0.004c-0.107 0.055-0.198 0.115-0.283 0.183l0.003-0.003-0.19 0.16c-0.105 0.078-0.196 0.163-0.278 0.258l-0.002 0.002-0.070 0.080c-0.35 0.395-0.614 0.875-0.755 1.406l-0.005 0.024h-3.63v-17.59h15v9.73c0 0.276 0.224 0.5 0.5 0.5v0h9.75c1.448 0.574 2.682 1.205 3.846 1.937l-0.096-0.057c0.461 0.343 0.809 0.814 0.994 1.36l0.006 0.020z"></path>
</svg>
