<!-- Generated by IcoMoon.io -->
<svg version="1.1" xmlns="http://www.w3.org/2000/svg" width="32" height="32" viewBox="0 0 32 32">
<title>arrow-left-2</title>
<path fill="#003359" d="M31.58 15.16h-30.17l9.070-13.89c0.050-0.076 0.079-0.17 0.079-0.27 0-0.175-0.090-0.33-0.227-0.419l-0.002-0.001c-0.077-0.052-0.171-0.083-0.273-0.083-0.175 0-0.329 0.092-0.416 0.231l-0.001 0.002-9.56 14.63s0 0.050 0 0.080c-0.002 0.017-0.003 0.036-0.003 0.055s0.001 0.039 0.003 0.057l-0-0.002s0 0.060 0 0.090v0c-0.005 0.027-0.008 0.058-0.008 0.089 0 0.1 0.029 0.194 0.079 0.273l-0.001-0.002 9.48 15.26c0.089 0.145 0.247 0.24 0.427 0.24 0.001 0 0.002 0 0.003 0h-0c0.004 0 0.009 0 0.013 0 0.093 0 0.179-0.030 0.248-0.081l-0.001 0.001c0.142-0.087 0.235-0.242 0.235-0.419 0-0.097-0.028-0.187-0.077-0.263l0.001 0.002-9.060-14.58h30.16c0.276 0 0.5-0.224 0.5-0.5s-0.224-0.5-0.5-0.5v0z"></path>
</svg>
