<!-- Generated by IcoMoon.io -->
<svg version="1.1" xmlns="http://www.w3.org/2000/svg" width="32" height="32" viewBox="0 0 32 32">
<title>arrow-up</title>
<path fill="#003359" d="M0.5 22.41c-0.003 0-0.007 0-0.010 0-0.175 0-0.328-0.096-0.409-0.238l-0.001-0.002c-0.050-0.074-0.080-0.166-0.080-0.265 0-0.177 0.095-0.331 0.237-0.414l0.002-0.001 15.88-9.88c0.076-0.050 0.17-0.079 0.27-0.079s0.194 0.030 0.272 0.080l-0.002-0.001 15.11 9.87c0.139 0.090 0.229 0.245 0.229 0.42 0 0.1-0.029 0.194-0.080 0.272l0.001-0.002c-0.088 0.141-0.242 0.233-0.417 0.233-0.102 0-0.196-0.031-0.275-0.084l0.002 0.001-14.85-9.7-15.62 9.72c-0.071 0.044-0.157 0.070-0.25 0.070-0.004 0-0.007-0-0.011-0h0.001z"></path>
</svg>
