<!-- Generated by IcoMoon.io -->
<svg version="1.1" xmlns="http://www.w3.org/2000/svg" width="32" height="32" viewBox="0 0 32 32">
<title>arrow-up-2</title>
<path fill="#003359" d="M31.14 9.68l-14.63-9.56c-0.061-0.033-0.132-0.055-0.209-0.060l-0.002-0c-0.023-0.004-0.049-0.006-0.075-0.006-0.082 0-0.16 0.021-0.227 0.057l0.003-0.001-15.4 9.56c-0.148 0.089-0.245 0.248-0.245 0.43 0 0.276 0.224 0.5 0.5 0.5 0.002 0 0.003 0 0.005-0h-0c0.1-0.004 0.193-0.033 0.272-0.081l-0.002 0.001 14.6-9.080v30.19c0 0.276 0.224 0.5 0.5 0.5v0c0.274-0.005 0.494-0.226 0.5-0.499v-30.171l13.86 9.060c0.078 0.051 0.173 0.082 0.275 0.082 0.277 0 0.502-0.225 0.502-0.502 0-0.175-0.089-0.329-0.225-0.419l-0.002-0.001z"></path>
</svg>
