<!-- Generated by IcoMoon.io -->
<svg version="1.1" xmlns="http://www.w3.org/2000/svg" width="32" height="32" viewBox="0 0 32 32">
<title>arrow-down-2</title>
<path fill="#003359" d="M31.41 21.68c-0.087-0.145-0.243-0.24-0.421-0.24-0.1 0-0.193 0.030-0.27 0.081l0.002-0.001-14.6 9.080v-30.18c0-0.276-0.224-0.5-0.5-0.5s-0.5 0.224-0.5 0.5v0 30.16l-13.86-9.060c-0.076-0.047-0.168-0.075-0.267-0.075-0.175 0-0.33 0.089-0.422 0.224l-0.001 0.002c-0.051 0.077-0.082 0.172-0.082 0.274 0 0.172 0.087 0.325 0.22 0.414l0.002 0.001 14.63 9.56c0.063 0.036 0.138 0.061 0.217 0.070l0.003 0c0.089-0.002 0.172-0.028 0.242-0.071l-0.002 0.001 15.37-9.55c0.175-0.083 0.294-0.259 0.294-0.462 0-0.083-0.020-0.162-0.055-0.231l0.001 0.003z"></path>
</svg>
