<!-- Generated by IcoMoon.io -->
<svg version="1.1" xmlns="http://www.w3.org/2000/svg" width="32" height="32" viewBox="0 0 32 32">
<title>arrow-right-2</title>
<path fill="#003359" d="M32 16.11l-9.59-15.37c-0.087-0.145-0.243-0.24-0.421-0.24-0.1 0-0.193 0.030-0.27 0.081l0.002-0.001c-0.14 0.090-0.232 0.245-0.232 0.422 0 0.095 0.027 0.184 0.073 0.26l-0.001-0.002 9.090 14.63h-30.23c-0.276 0-0.5 0.224-0.5 0.5v0c0 0.276 0.224 0.5 0.5 0.5v0h30.19l-9 13.84c-0.051 0.077-0.082 0.172-0.082 0.274 0 0.172 0.087 0.325 0.22 0.414l0.002 0.001c0.080 0.048 0.176 0.078 0.279 0.080h0.001c0 0 0 0 0 0 0.173 0 0.324-0.091 0.409-0.228l0.001-0.002 9.56-14.63c0.049-0.075 0.078-0.167 0.078-0.265s-0.029-0.19-0.079-0.267l0.001 0.002z"></path>
</svg>
