<!-- Generated by IcoMoon.io -->
<svg version="1.1" xmlns="http://www.w3.org/2000/svg" width="32" height="32" viewBox="0 0 32 32">
<title>arrow-down</title>
<path fill="#003359" d="M31.48 11.54c0.276 0.001 0.499 0.224 0.499 0.5 0 0.175-0.090 0.33-0.227 0.419l-15.882 9.881c-0.076 0.050-0.17 0.079-0.27 0.079s-0.194-0.030-0.272-0.080l0.002 0.001-15.12-9.89c-0.114-0.092-0.186-0.232-0.186-0.389 0-0.276 0.224-0.5 0.5-0.5 0.087 0 0.168 0.022 0.239 0.061l-0.003-0.001 14.85 9.7 15.61-9.71c0.071-0.044 0.157-0.070 0.25-0.070 0.004 0 0.007 0 0.011 0h-0.001z"></path>
</svg>
