<!-- Generated by IcoMoon.io -->
<svg version="1.1" xmlns="http://www.w3.org/2000/svg" width="32" height="32" viewBox="0 0 32 32">
<title>arrow-left</title>
<path fill="#003359" d="M20.94 32c-0.001 0-0.002 0-0.003 0-0.18 0-0.338-0.095-0.426-0.238l-0.001-0.002-9.87-15.88c-0.047-0.077-0.076-0.17-0.076-0.27s0.028-0.193 0.077-0.272l-0.001 0.002 9.88-15.11c0.088-0.141 0.242-0.233 0.417-0.233 0.102 0 0.196 0.031 0.275 0.084l-0.002-0.001c0.139 0.090 0.229 0.245 0.229 0.42 0 0.1-0.029 0.194-0.080 0.272l0.001-0.002-9.7 14.85 9.7 15.62c0.050 0.074 0.079 0.166 0.079 0.265 0 0.177-0.095 0.331-0.237 0.414l-0.002 0.001c-0.068 0.050-0.154 0.080-0.247 0.080-0.005 0-0.009-0-0.014-0l0.001 0z"></path>
</svg>
