<!-- Generated by IcoMoon.io -->
<svg version="1.1" xmlns="http://www.w3.org/2000/svg" width="32" height="32" viewBox="0 0 32 32">
<title>arrow-right</title>
<path fill="#003359" d="M9.55 32c-0.1-0.002-0.193-0.032-0.272-0.081l0.002 0.001c-0.139-0.090-0.229-0.245-0.229-0.42 0-0.1 0.029-0.194 0.080-0.272l-0.001 0.002 9.7-14.85-9.7-15.62c-0.050-0.074-0.079-0.166-0.079-0.265 0-0.177 0.095-0.331 0.237-0.414l0.002-0.001c0.079-0.056 0.177-0.090 0.283-0.090 0.182 0 0.341 0.1 0.426 0.247l0.001 0.002 9.87 15.88c0.050 0.076 0.079 0.17 0.079 0.27s-0.030 0.194-0.080 0.272l0.001-0.002-9.87 15.11c-0.092 0.14-0.249 0.231-0.427 0.231-0.008 0-0.016-0-0.025-0.001l0.001 0z"></path>
</svg>
