<!-- Generated by IcoMoon.io -->
<svg version="1.1" xmlns="http://www.w3.org/2000/svg" width="32" height="32" viewBox="0 0 32 32">
<title>auth</title>
<path fill="#003359" d="M27.23 0h-22.46c-0.276 0-0.5 0.224-0.5 0.5v0 31c0 0.276 0.224 0.5 0.5 0.5v0h22.46c0.276 0 0.5-0.224 0.5-0.5v0-31c0-0.276-0.224-0.5-0.5-0.5v0zM26.73 31h-21.46v-30h21.46z"></path>
<path fill="#003359" d="M8.67 27.26h7.63c0.276 0 0.5-0.224 0.5-0.5v0c0-0.276-0.224-0.5-0.5-0.5v0h-7.63c-0.276 0-0.5 0.224-0.5 0.5v0c0 0.276 0.224 0.5 0.5 0.5v0z"></path>
<path fill="#003359" d="M8.67 22h14.58c0.276 0 0.5-0.224 0.5-0.5s-0.224-0.5-0.5-0.5v0h-14.58c-0.276 0-0.5 0.224-0.5 0.5s0.224 0.5 0.5 0.5v0z"></path>
<path fill="#003359" d="M15.47 18.070h1.060c3.739 0 6.77-3.031 6.77-6.77v0-1.050c0-3.739-3.031-6.77-6.77-6.77v0h-1.060c-3.739 0-6.77 3.031-6.77 6.77v0 1.050c0 3.739 3.031 6.77 6.77 6.77v0zM9.7 10.25c0.006-3.184 2.586-5.764 5.769-5.77h1.061c3.184 0.006 5.764 2.586 5.77 5.769v1.051c-0.006 3.184-2.586 5.764-5.769 5.77h-1.061c-3.184-0.006-5.764-2.586-5.77-5.769v-0.001z"></path>
<path fill="#09c" d="M15.85 13.27c-0.105-0.001-0.202-0.034-0.281-0.091l0.002 0.001-2.25-1.53c-0.133-0.089-0.219-0.239-0.219-0.408 0-0.106 0.033-0.203 0.090-0.283l-0.001 0.002c0.091-0.135 0.243-0.222 0.416-0.222 0.102 0 0.197 0.031 0.276 0.083l-0.002-0.001 1.91 1.3 3.41-3.52c0.091-0.094 0.219-0.152 0.36-0.152 0.277 0 0.502 0.225 0.502 0.502 0 0.136-0.054 0.26-0.142 0.35l0-0-3.71 3.82c-0.092 0.092-0.219 0.15-0.36 0.15h-0z"></path>
</svg>
