<!-- Generated by IcoMoon.io -->
<svg version="1.1" xmlns="http://www.w3.org/2000/svg" width="32" height="32" viewBox="0 0 32 32">
<title>award</title>
<path fill="#003359" d="M23.18 18.11c-0.046-0.238-0.253-0.416-0.501-0.416-0.028 0-0.055 0.002-0.082 0.006l0.003-0c-0.234 0.045-0.408 0.248-0.408 0.491 0 0.031 0.003 0.062 0.008 0.092l-0-0.003 2.17 12.24-6.27-3.9-1-5.69c-0.042-0.241-0.25-0.422-0.5-0.422-0.28 0-0.507 0.227-0.507 0.507 0 0.030 0.003 0.059 0.008 0.088l-0-0.003 1.060 5.9c0.022 0.143 0.104 0.264 0.218 0.339l0.002 0.001 7.41 4.66c0.068 0.050 0.154 0.080 0.247 0.080 0.005 0 0.009-0 0.014-0l-0.001 0c0.104-0.001 0.2-0.030 0.282-0.081l-0.002 0.001c0.137-0.095 0.226-0.252 0.226-0.429 0-0.029-0.002-0.057-0.007-0.084l0 0.003z"></path>
<path fill="#003359" d="M15.57 20.52c-0.026-0.005-0.056-0.008-0.087-0.008-0.247 0-0.452 0.179-0.493 0.415l-0 0.003-1 5.69-6.26 3.9 2.080-11.79c0.005-0.026 0.007-0.055 0.007-0.085 0-0.28-0.227-0.507-0.507-0.507-0.25 0-0.458 0.181-0.5 0.419l-0 0.003-2.27 12.89c-0.005 0.028-0.008 0.059-0.008 0.092 0 0.172 0.086 0.325 0.217 0.417l0.002 0.001c0.061 0.026 0.133 0.042 0.208 0.042 0.015 0 0.029-0.001 0.044-0.002l-0.002 0c0.043 0.016 0.093 0.026 0.145 0.026s0.102-0.009 0.148-0.027l-0.003 0.001 7.41-4.61c0.116-0.078 0.2-0.197 0.229-0.336l0.001-0.004 1-5.91c0.012-0.040 0.019-0.087 0.019-0.135 0-0.233-0.159-0.429-0.375-0.484l-0.003-0.001z"></path>
<path fill="#09c" d="M26.42 12.050c0.004-0.034 0.006-0.072 0.006-0.112 0-0.367-0.183-0.691-0.462-0.886l-0.003-0.002c0.289-0.19 0.477-0.513 0.477-0.88 0-0.042-0.003-0.084-0.007-0.125l0 0.005c-0.041-0.39-0.285-0.714-0.623-0.867l-0.007-0.003c0.198-0.191 0.321-0.459 0.321-0.755 0-0.499-0.348-0.916-0.814-1.023l-0.007-0.001c0.119-0.168 0.19-0.377 0.19-0.602 0-0.17-0.041-0.331-0.113-0.474l0.003 0.006c-0.162-0.343-0.503-0.577-0.9-0.58h-0c0.084-0.143 0.133-0.315 0.133-0.499 0-0.552-0.448-1-1-1-0.047 0-0.093 0.003-0.139 0.010l0.005-0.001h-0.14c0.016-0.069 0.024-0.147 0.024-0.228 0-0.302-0.124-0.575-0.324-0.772l-0-0c-0.182-0.158-0.419-0.255-0.679-0.26h-0.001c-0.051-0.007-0.11-0.011-0.17-0.011s-0.119 0.004-0.177 0.012l0.007-0.001c0.001-0.017 0.001-0.036 0.001-0.055 0-0.374-0.194-0.704-0.487-0.892l-0.004-0.003c-0.106-0.041-0.228-0.065-0.356-0.065-0.062 0-0.122 0.006-0.181 0.016l0.006-0.001c-0.194 0.004-0.376 0.052-0.537 0.133l0.007-0.003c-0.037-0.394-0.298-0.718-0.653-0.848l-0.007-0.002c-0.11-0.040-0.236-0.066-0.368-0.070l-0.002-0c-0.263 0.002-0.504 0.096-0.692 0.252l0.002-0.002c-0.119-0.363-0.421-0.635-0.793-0.709l-0.007-0.001c-0.029-0.004-0.061-0.007-0.095-0.007s-0.066 0.003-0.099 0.007l0.004-0c-0.327 0.004-0.62 0.149-0.819 0.379l-0.001 0.001c-0.176-0.349-0.53-0.586-0.939-0.59h-0.001c-0.397 0.006-0.742 0.224-0.927 0.545l-0.003 0.005c-0.194-0.239-0.488-0.391-0.817-0.391-0.012 0-0.023 0-0.035 0.001l0.002-0-0.22 0.020c-0.382 0.076-0.686 0.347-0.808 0.702l-0.002 0.008c-0.186-0.155-0.427-0.25-0.69-0.25h-0c-0.001 0-0.002 0-0.002 0-0.132 0-0.259 0.026-0.374 0.072l0.007-0.002c-0.352 0.145-0.607 0.462-0.659 0.844l-0.001 0.006c-0.135-0.063-0.292-0.1-0.458-0.1-0.004 0-0.008 0-0.012 0h0.001c-0.002 0-0.004-0-0.006-0-0.552 0-1 0.448-1 1 0 0.039 0.002 0.077 0.007 0.115l-0-0.005c-0.122-0.064-0.266-0.104-0.418-0.11l-0.002-0c-0.005-0-0.011-0-0.016-0-0.265 0-0.505 0.103-0.684 0.271l0.001-0.001c-0.206 0.194-0.335 0.468-0.335 0.773 0 0.080 0.009 0.159 0.026 0.234l-0.001-0.007h-0.15c-0.002-0-0.005-0-0.008-0-0.341 0-0.645 0.159-0.841 0.408l-0.002 0.002c-0.13 0.177-0.208 0.4-0.208 0.641 0 0.155 0.032 0.303 0.091 0.436l-0.003-0.007c-0.018-0.001-0.040-0.002-0.062-0.002-0.552 0-1 0.448-1 1 0 0.25 0.091 0.478 0.243 0.653l-0.001-0.001c-0.377 0.089-0.671 0.371-0.778 0.732l-0.002 0.008c-0.020 0.077-0.031 0.165-0.031 0.256 0 0.289 0.115 0.552 0.301 0.744l-0-0c-0.408 0.132-0.698 0.509-0.698 0.953 0 0.399 0.234 0.744 0.572 0.904l0.006 0.003c-0.283 0.195-0.466 0.518-0.466 0.883 0 0.041 0.002 0.082 0.007 0.121l-0-0.005c0.036 0.391 0.282 0.717 0.623 0.867l0.007 0.003c-0.191 0.193-0.309 0.459-0.309 0.752 0 0.088 0.011 0.173 0.031 0.255l-0.002-0.007c0.116 0.365 0.407 0.643 0.772 0.738l0.008 0.002c-0.15 0.174-0.242 0.402-0.242 0.652 0 0.552 0.448 1 1 1 0.022 0 0.043-0.001 0.065-0.002l-0.003 0c-0.056 0.127-0.088 0.274-0.088 0.429 0 0.241 0.078 0.463 0.21 0.644l-0.002-0.003c0.184 0.25 0.477 0.411 0.808 0.411 0.015 0 0.029-0 0.044-0.001l-0.002 0h0.14c-0.014 0.066-0.023 0.142-0.023 0.22 0 0.306 0.127 0.583 0.332 0.779l0 0c0.188 0.167 0.437 0.27 0.71 0.27h0c0.051 0.007 0.11 0.011 0.17 0.011s0.119-0.004 0.177-0.012l-0.007 0.001c-0.001 0.013-0.001 0.028-0.001 0.044 0 0.38 0.198 0.714 0.497 0.904l0.004 0.003c0.153 0.1 0.339 0.159 0.54 0.16h0c0.195-0.001 0.377-0.053 0.535-0.143l-0.005 0.003c0.057 0.386 0.31 0.702 0.653 0.847l0.007 0.003c0.109 0.044 0.235 0.070 0.368 0.070 0.001 0 0.002 0 0.003 0h-0c0.263-0 0.504-0.095 0.692-0.251l-0.002 0.001c0.121 0.365 0.426 0.638 0.803 0.709l0.007 0.001c0.029 0.005 0.061 0.008 0.095 0.008s0.066-0.003 0.098-0.008l-0.003 0c0.3-0.012 0.566-0.149 0.749-0.359l0.001-0.001c0.181 0.329 0.525 0.549 0.92 0.55h0c0.393-0.001 0.735-0.216 0.917-0.535l0.003-0.005c0.196 0.237 0.49 0.388 0.82 0.39h0.18c0.389-0.061 0.7-0.338 0.808-0.703l0.002-0.007c0.186 0.154 0.427 0.248 0.69 0.25h0c0.001 0 0.002 0 0.003 0 0.131 0 0.257-0.022 0.375-0.062l-0.008 0.002c0.371-0.143 0.639-0.475 0.689-0.875l0.001-0.005c0.152 0.088 0.335 0.14 0.53 0.14h0c0.201-0.001 0.387-0.060 0.544-0.162l-0.004 0.002c0.303-0.192 0.501-0.526 0.501-0.906 0-0.015-0-0.031-0.001-0.046l0 0.002c0.102 0.038 0.219 0.060 0.341 0.060 0.003 0 0.006 0 0.009-0h-0c0.005 0 0.011 0 0.016 0 0.265 0 0.505-0.103 0.684-0.271l-0.001 0-0.75-0.74c-0.089-0.030-0.192-0.049-0.299-0.050h-0.001c-0.552 0-1 0.448-1 1v0c0.005 0.012 0.008 0.026 0.008 0.040s-0.003 0.028-0.009 0.041l0-0.001h-0.060c-0.134-0.071-0.292-0.112-0.46-0.112s-0.326 0.041-0.465 0.115l0.005-0.003c-0.285 0.145-0.488 0.414-0.539 0.734l-0.001 0.006s0 0.070-0.050 0.070c-0.009 0.003-0.019 0.005-0.030 0.005s-0.021-0.002-0.031-0.005l0.001 0c-0.17-0.141-0.39-0.228-0.63-0.23h-0c-0.041-0.005-0.087-0.007-0.135-0.007s-0.095 0.003-0.141 0.008l0.006-0c-0.314 0.091-0.56 0.324-0.668 0.623l-0.002 0.007s0 0-0.050 0.060c-0.009 0.003-0.019 0.005-0.030 0.005s-0.021-0.002-0.031-0.005l0.001 0c-0.184-0.215-0.456-0.35-0.76-0.35-0 0-0 0-0 0h-0.090c-0.333 0.028-0.617 0.216-0.777 0.485l-0.003 0.005s0 0-0.050 0 0 0-0.060 0c-0.161-0.272-0.441-0.458-0.766-0.49l-0.004-0h-0.15c-0.3 0.003-0.568 0.138-0.749 0.349l-0.001 0.001s0 0-0.070 0v0s0 0 0-0.060c-0.108-0.304-0.35-0.536-0.653-0.628l-0.007-0.002c-0.042-0.007-0.091-0.011-0.14-0.011s-0.098 0.004-0.145 0.012l0.005-0.001c-0.236 0.001-0.452 0.084-0.622 0.221l0.002-0.002h-0.070s0-0.050 0-0.070c-0.052-0.326-0.255-0.595-0.534-0.737l-0.006-0.003c-0.131-0.068-0.286-0.109-0.45-0.11h-0c-0.172 0.001-0.334 0.045-0.475 0.123l0.005-0.003h-0.070s0-0.050 0-0.070c0-0.002 0-0.005 0-0.008 0-0.339-0.169-0.639-0.427-0.82l-0.003-0.002c-0.175-0.125-0.394-0.199-0.63-0.2h-0c-0.047-0.007-0.1-0.011-0.155-0.011s-0.108 0.004-0.161 0.012l0.006-0.001s0-0.050 0-0.070c0.016-0.066 0.025-0.142 0.025-0.22 0-0.552-0.448-1-1-1-0.009 0-0.017 0-0.026 0l0.001-0h-0.24s0 0-0.050 0 0-0.050 0-0.070c0.051-0.116 0.080-0.251 0.080-0.392 0-0.528-0.409-0.96-0.927-0.997l-0.003-0s-0.070 0-0.080 0c-0.004-0.010-0.006-0.022-0.006-0.035s0.002-0.025 0.006-0.036l-0 0.001c0.104-0.155 0.166-0.346 0.166-0.552 0-0.129-0.024-0.252-0.069-0.365l0.002 0.007c-0.119-0.302-0.372-0.528-0.683-0.608l-0.007-0.002s-0.060 0-0.070 0c-0.005-0.010-0.008-0.022-0.008-0.035s0.003-0.025 0.008-0.035l-0 0c0.186-0.182 0.302-0.435 0.302-0.716 0-0.381-0.213-0.712-0.527-0.881l-0.005-0.003c-0.024-0.011-0.045-0.028-0.060-0.050l-0-0s0-0.050 0-0.060c0.256-0.184 0.421-0.48 0.421-0.815s-0.165-0.631-0.418-0.813l-0.003-0.002s0 0 0-0.060 0-0.050 0-0.060c0.292-0.134 0.505-0.397 0.569-0.714l0.001-0.006c0.010-0.054 0.016-0.116 0.016-0.18 0-0.273-0.109-0.52-0.286-0.701l0 0s0 0 0-0.070 0 0 0.060 0c0.437-0.113 0.755-0.504 0.755-0.97 0-0.205-0.062-0.396-0.167-0.554l0.002 0.004s0 0 0-0.070 0 0 0.080 0c0.33-0.024 0.613-0.204 0.778-0.466l0.002-0.004c0.098-0.152 0.156-0.338 0.156-0.537 0-0.138-0.028-0.27-0.079-0.39l0.002 0.007s0-0.060 0-0.070 0 0 0.060 0h0.14c0.007 0 0.014 0 0.022 0 0.552 0 1-0.448 1-1 0-0.074-0.008-0.147-0.024-0.217l0.001 0.007c-0.002-0.012-0.004-0.026-0.004-0.040s0.001-0.028 0.004-0.041l-0 0.001h0.080c0.089 0.030 0.192 0.049 0.299 0.050h0.001c0.003 0 0.007 0 0.011 0 0.224 0 0.43-0.079 0.59-0.211l-0.002 0.001c0.244-0.184 0.4-0.474 0.4-0.8 0-0.007-0-0.014-0-0.021l0 0.001s0-0.070 0-0.080l0.050-0.070c0.136 0.075 0.298 0.119 0.47 0.12h0c0.016 0.001 0.034 0.001 0.052 0.001 0.175 0 0.34-0.045 0.483-0.124l-0.005 0.003c0.285-0.145 0.488-0.414 0.539-0.734l0.001-0.006s0-0.060 0-0.070c0.009-0.004 0.019-0.007 0.030-0.007s0.021 0.002 0.030 0.007l-0-0c0.17 0.137 0.388 0.22 0.626 0.22 0.001 0 0.003 0 0.004 0h-0c0.041 0.007 0.087 0.011 0.135 0.011s0.094-0.004 0.14-0.012l-0.005 0.001c0.314-0.091 0.56-0.324 0.668-0.623l0.002-0.007c0.012-0.027 0.033-0.048 0.059-0.060l0.001-0s0 0 0.060 0c0.182 0.212 0.45 0.347 0.749 0.35h0.101c0.331-0.034 0.611-0.224 0.767-0.495l0.003-0.005v-0.050h0.090s0 0 0 0c0.161 0.278 0.445 0.469 0.776 0.5l0.004 0h0.090c0.003 0 0.006 0 0.009 0 0.299 0 0.567-0.131 0.75-0.339l0.001-0.001c0.009-0.003 0.019-0.005 0.030-0.005s0.021 0.002 0.031 0.005l-0.001-0s0 0 0.050 0.060c0.11 0.306 0.356 0.539 0.663 0.628l0.007 0.002c0.041 0.007 0.087 0.011 0.135 0.011s0.094-0.004 0.14-0.012l-0.005 0.001c0.001 0 0.003 0 0.004 0 0.238 0 0.456-0.083 0.628-0.221l-0.002 0.002c0.009-0.003 0.019-0.005 0.030-0.005s0.021 0.002 0.031 0.005l-0.001-0s0 0.050 0 0.070c0.075 0.484 0.489 0.85 0.989 0.85 0.004 0 0.008-0 0.012-0h-0.001c0.041 0.005 0.089 0.009 0.138 0.009 0.148 0 0.29-0.029 0.42-0.081l-0.008 0.003c0.012-0.005 0.026-0.008 0.040-0.008s0.028 0.003 0.041 0.008l-0.001-0c0.002 0.012 0.003 0.026 0.003 0.040s-0.001 0.028-0.004 0.041l0-0.001c-0 0.002-0 0.005-0 0.008 0 0.339 0.169 0.639 0.427 0.82l0.003 0.002c0.173 0.125 0.389 0.2 0.623 0.2 0.003 0 0.005 0 0.007-0h-0c0.047 0.007 0.1 0.011 0.155 0.011s0.108-0.004 0.161-0.012l-0.006 0.001s0 0 0 0.070c-0.016 0.066-0.025 0.142-0.025 0.22 0 0.552 0.448 1 1 1 0.009 0 0.017-0 0.026-0l-0.001 0h0.12s0 0 0.060 0c0.005 0.010 0.008 0.022 0.008 0.035s-0.003 0.025-0.008 0.035l0-0c-0.051 0.116-0.080 0.251-0.080 0.393 0 0.195 0.056 0.378 0.153 0.531l-0.002-0.004c0.169 0.269 0.456 0.45 0.787 0.47l0.003 0s0.060 0 0.070 0 0 0.060 0 0.080c-0.104 0.155-0.167 0.347-0.167 0.553 0 0.462 0.314 0.851 0.74 0.966l0.007 0.002c0.010-0.004 0.022-0.006 0.035-0.006s0.025 0.002 0.036 0.007l-0.001-0c0.003 0.011 0.005 0.023 0.005 0.035s-0.002 0.024-0.005 0.036l0-0.001c-0.177 0.18-0.286 0.428-0.286 0.7 0 0.063 0.006 0.126 0.017 0.186l-0.001-0.006c0.063 0.321 0.272 0.583 0.554 0.717l0.006 0.003s0.060 0 0.060 0.060 0 0 0 0.060c-0.258 0.181-0.426 0.475-0.43 0.809v0.001c0 0.002 0 0.003 0 0.005 0 0.335 0.164 0.631 0.417 0.813l0.003 0.002s0.050 0 0.050 0.060c-0.009 0.002-0.019 0.003-0.030 0.003s-0.021-0.001-0.031-0.003l0.001 0c-0.292 0.134-0.505 0.397-0.569 0.714l-0.001 0.006c-0.010 0.054-0.016 0.116-0.016 0.18 0 0.273 0.109 0.52 0.286 0.701l-0-0s0 0.050 0 0.070c-0.010 0.004-0.022 0.006-0.035 0.006s-0.025-0.002-0.036-0.007l0.001 0c-0.314 0.085-0.563 0.31-0.678 0.603l-0.002 0.007c-0.044 0.109-0.070 0.235-0.070 0.367 0 0.202 0.060 0.389 0.162 0.546l-0.002-0.004s0 0.060 0 0.080-0.050 0-0.070 0c-0.332 0.018-0.619 0.195-0.788 0.456l-0.002 0.004c-0.094 0.15-0.15 0.332-0.15 0.527 0 0.142 0.030 0.277 0.083 0.399l-0.003-0.006s0 0.060 0 0.080h-0.2c-0.293 0.001-0.557 0.128-0.739 0.329l-0.001 0.001c-0.162 0.177-0.261 0.414-0.261 0.674 0 0.073 0.008 0.144 0.023 0.212l-0.001-0.007c0.005 0.012 0.008 0.026 0.008 0.040s-0.003 0.028-0.008 0.041l0-0.001 0.67 0.74c0.206-0.194 0.335-0.468 0.335-0.773 0-0.080-0.009-0.159-0.026-0.234l0.001 0.007h0.15c0.013 0.001 0.027 0.001 0.042 0.001 0.331 0 0.624-0.161 0.806-0.408l0.002-0.003c0.13-0.177 0.208-0.4 0.208-0.641 0-0.155-0.032-0.303-0.091-0.436l0.003 0.007c0.391-0.013 0.727-0.239 0.897-0.564l0.003-0.006c0.070-0.14 0.111-0.304 0.111-0.479 0-0.224-0.067-0.432-0.183-0.605l0.003 0.004c0.499-0.062 0.881-0.483 0.881-0.993 0-0.313-0.144-0.592-0.369-0.776l-0.002-0.001c0.301-0.143 0.521-0.415 0.589-0.743l0.001-0.007z"></path>
<path fill="#09c" d="M16 3.25c-0.015-0-0.032-0-0.050-0-4.269 0-7.73 3.461-7.73 7.73s3.461 7.73 7.73 7.73c4.262 0 7.719-3.449 7.73-7.709v-0.001c0-0.006 0-0.013 0-0.020 0-4.252-3.432-7.702-7.677-7.73h-0.003zM16 17.7c-0.015 0-0.032 0-0.050 0-3.717 0-6.73-3.013-6.73-6.73s3.013-6.73 6.73-6.73c3.717 0 6.73 3.013 6.73 6.73 0 0.010-0 0.021-0 0.031v-0.002c-0.017 3.687-2.995 6.672-6.677 6.7l-0.003 0z"></path>
</svg>
