<!-- Generated by IcoMoon.io -->
<svg version="1.1" xmlns="http://www.w3.org/2000/svg" width="32" height="32" viewBox="0 0 32 32">
<title>baby</title>
<path fill="#003359" d="M32 13.91c0-12.67-13.25-13-13.38-13-0.003-0-0.007-0-0.011-0-0.137 0-0.261 0.058-0.349 0.15l-0 0c-0.092 0.086-0.15 0.208-0.15 0.344 0 0.002 0 0.004 0 0.006v-0 12h-12.34c-0.1-1.8-0.15-3-0.13-3.23 0.004-0.026 0.007-0.055 0.007-0.085s-0.002-0.059-0.007-0.088l0 0.003c0.010-0.111 0.016-0.24 0.016-0.371 0-1.263-0.545-2.399-1.412-3.186l-0.004-0.003c-0.772-0.512-1.72-0.817-2.739-0.817-0.397 0-0.784 0.046-1.155 0.134l0.034-0.007c-0.221 0.055-0.383 0.251-0.383 0.486 0 0.040 0.005 0.080 0.014 0.117l-0.001-0.003c0.058 0.222 0.257 0.383 0.494 0.383 0.041 0 0.081-0.005 0.119-0.014l-0.003 0.001c0.264-0.062 0.568-0.098 0.88-0.098 0.786 0 1.518 0.226 2.136 0.618l-0.016-0.010c0.628 0.603 1.018 1.45 1.018 2.388 0 0.121-0.006 0.24-0.019 0.357l0.001-0.015c-0.080 0.52 0 2.070 0.35 7.92 0.101 3.041 1.42 5.755 3.484 7.684l0.006 0.006c-0.113 0.359-0.179 0.772-0.18 1.199v0.001c-0.007 0.090-0.011 0.195-0.011 0.3 0 2.375 1.925 4.3 4.3 4.3 2.049 0 3.763-1.433 4.195-3.352l0.005-0.029h4.060c0.274-0.006 0.494-0.226 0.5-0.499v-0.001c0-0.276-0.224-0.5-0.5-0.5v0h-4.45c-0.002-0-0.004-0-0.007-0-0.242 0-0.444 0.176-0.483 0.407l-0 0.003c-0.305 1.539-1.644 2.683-3.25 2.683-1.819 0-3.295-1.467-3.31-3.282v-0.001c0.006-0.426 0.090-0.831 0.238-1.203l-0.008 0.023c0.022-0.053 0.035-0.115 0.035-0.18 0-0.149-0.068-0.282-0.174-0.37l-0.001-0.001c-2.036-1.784-3.338-4.362-3.42-7.246l-0-0.014c-0.070-1.27-0.14-2.42-0.2-3.42h25c0.027 0.007 0.058 0.011 0.090 0.011s0.063-0.004 0.093-0.011l-0.003 0.001c-0.080 4.66-1.2 8.31-3.3 10.57-0.081 0.087-0.131 0.205-0.131 0.334 0 0.071 0.015 0.139 0.042 0.2l-0.001-0.003c0.171 0.385 0.27 0.835 0.27 1.307 0 0.001 0 0.002 0 0.003v-0c0 0.276 0.224 0.5 0.5 0.5v0c0.276 0 0.5-0.224 0.5-0.5v0c-0.001-0.501-0.085-0.982-0.239-1.431l0.009 0.031c2.24-2.58 3.37-6.41 3.37-11.5zM19.11 13.41v-11.47c2.111 0.18 4.053 0.732 5.817 1.593l-0.097-0.043c4 1.94 6 5.3 6.14 10-0.024-0.005-0.052-0.008-0.080-0.008s-0.056 0.003-0.083 0.008l0.003-0z"></path>
<path fill="#09c" d="M12.64 31.090c-2.359-0.028-4.26-1.947-4.26-4.31 0-2.38 1.93-4.31 4.31-4.31s4.31 1.93 4.31 4.31v0c-0.006 2.382-1.938 4.31-4.32 4.31-0.014 0-0.028-0-0.042-0l0.002 0zM12.64 23.47c-1.806 0.028-3.26 1.499-3.26 3.31 0 1.828 1.482 3.31 3.31 3.31s3.31-1.482 3.31-3.31v-0c-0.006-1.829-1.49-3.31-3.32-3.31-0.014 0-0.028 0-0.042 0l0.002-0z"></path>
<path fill="#09c" d="M24.57 31.090c-0.003 0-0.006 0-0.010 0-2.38 0-4.31-1.93-4.31-4.31s1.93-4.31 4.31-4.31c2.38 0 4.31 1.93 4.31 4.31v0c0 0 0 0 0 0 0 2.377-1.924 4.304-4.299 4.31h-0.001zM24.57 23.47c-0.003 0-0.006 0-0.010 0-1.828 0-3.31 1.482-3.31 3.31s1.482 3.31 3.31 3.31c1.828 0 3.31-1.482 3.31-3.31v0c0 0 0 0 0 0 0-1.825-1.476-3.304-3.299-3.31h-0.001z"></path>
</svg>
