<!-- Generated by IcoMoon.io -->
<svg version="1.1" xmlns="http://www.w3.org/2000/svg" width="32" height="32" viewBox="0 0 32 32">
<title>bell</title>
<path fill="#09c" d="M19.46 27.63c-0.276 0-0.5 0.224-0.5 0.5v0c0 1.58-1.6 2.87-3.55 2.87s-3.55-1.29-3.55-2.87c0-0.276-0.224-0.5-0.5-0.5v0c-0.276 0-0.5 0.224-0.5 0.5v0c0 2.13 2 3.87 4.55 3.87s4.59-1.74 4.59-3.87c0-0 0-0.001 0-0.002 0-0.276-0.224-0.5-0.5-0.5-0.014 0-0.028 0.001-0.042 0.002l0.002-0z"></path>
<path fill="#003359" d="M29.69 23.87c-0.050-0.156-0.172-0.275-0.327-0.319l-0.003-0.001c-0.11 0-2.69-0.86-2.69-5.24 0-4.76-0.080-7.38-1.81-10.37-2.27-3.91-4.78-4-4.77-4-0.9-0.19-2.090-0.68-2.090-1.18 0.006-0.063 0.009-0.137 0.009-0.212 0-1.376-1.090-2.498-2.454-2.548l-0.005-0h-0.29c-1.346 0.078-2.407 1.188-2.407 2.546 0 0.068 0.003 0.136 0.008 0.203l-0.001-0.009c0 0.5-1.24 1-2.060 1.15-0.1 0-2.59 0.14-4.84 4-1.73 3-1.82 5.61-1.82 10.37 0 4.38-2.58 5.2-2.68 5.24-0.162 0.042-0.289 0.162-0.339 0.317l-0.001 0.003c-0.015 0.046-0.024 0.099-0.024 0.154 0 0.116 0.039 0.222 0.105 0.307l-0.001-0.001c0.14 0.18 3.51 4.41 14.12 4.45h0.17c10.61 0 14-4.27 14.13-4.45 0.054-0.079 0.087-0.176 0.087-0.282 0-0.046-0.006-0.090-0.018-0.132l0.001 0.003zM15.41 27.78c-8 0-11.76-2.54-13-3.6 1-0.6 2.69-2.15 2.69-5.87 0-4.71 0.080-7.090 1.68-9.86 1.95-3.38 4-3.54 4.090-3.55 0.49-0.090 2.95-0.62 2.95-2.14-0.010-0.065-0.015-0.14-0.015-0.216 0-0.862 0.698-1.56 1.56-1.56s1.56 0.698 1.56 1.56c0 0.076-0.005 0.151-0.016 0.224l0.001-0.008c0 1.52 2.46 2.050 3 2.15 0 0 2.070 0.16 4 3.53 1.61 2.78 1.68 5.16 1.68 9.87 0 3.72 1.69 5.27 2.69 5.87-1.12 1.060-4.83 3.59-12.87 3.6z"></path>
</svg>
