<svg id="Layer_1" data-name="Layer 1" xmlns="http://www.w3.org/2000/svg" viewBox="0 0 32 32"><defs><style>.cls-1{fill:#003359;}</style></defs><path class="cls-1" d="M31.76,7A1,1,0,0,0,31,6.66H16.3L3.37,2.73a1.05,1.05,0,0,0-.94.16A1,1,0,0,0,2,3.72V6.66H1.1a1,1,0,0,0-1,1V26.86a1,1,0,0,0,1,1.05H31a1,1,0,0,0,1.05-1.05V7.71A1,1,0,0,0,31.76,7Zm-28-2.8a.12.12,0,0,1,.12-.12L16,7.79a.13.13,0,0,1,.08.12V26.58l-.15.08L3.81,22.91a.11.11,0,0,1-.08-.12ZM1.06,26.86l0-19.2H2.51a.54.54,0,0,0,.22,0V22.79a1.11,1.11,0,0,0,.79,1.08l9.77,3Zm30,.05-14,0s0,0,0,0a1.24,1.24,0,0,0,0-.33V7.92a1.09,1.09,0,0,0,0-.26l14,0Z"/><path class="cls-1" d="M19.92,22.47h8.54A.5.5,0,0,0,29,22a.5.5,0,0,0-.5-.5H19.92a.51.51,0,0,0-.5.5A.5.5,0,0,0,19.92,22.47Z"/><path class="cls-1" d="M19.92,17.06h8.54a.5.5,0,0,0,.5-.5.5.5,0,0,0-.5-.5H19.92a.51.51,0,0,0-.5.5A.5.5,0,0,0,19.92,17.06Z"/><path class="cls-1" d="M19.92,11.65h8.54a.5.5,0,0,0,.5-.5.5.5,0,0,0-.5-.5H19.92a.51.51,0,0,0-.5.5A.5.5,0,0,0,19.92,11.65Z"/><path class="cls-1" d="M6.08,19.93l7.28,2.36a.39.39,0,0,0,.15,0,.5.5,0,0,0,.16-1L6.39,19a.5.5,0,0,0-.63.32A.51.51,0,0,0,6.08,19.93Z"/><path class="cls-1" d="M6.08,14.47l7.28,2.36.15,0a.5.5,0,0,0,.16-1L6.39,13.52a.5.5,0,0,0-.63.32A.51.51,0,0,0,6.08,14.47Z"/><path class="cls-1" d="M6.08,9l7.28,2.36.15,0a.5.5,0,0,0,.16-1L6.39,8.06a.5.5,0,0,0-.63.32A.51.51,0,0,0,6.08,9Z"/></svg>