<!-- Generated by IcoMoon.io -->
<svg version="1.1" xmlns="http://www.w3.org/2000/svg" width="32" height="32" viewBox="0 0 32 32">
<title>book-open</title>
<path fill="#003359" d="M31.76 7c-0.184-0.209-0.452-0.34-0.751-0.34-0.003 0-0.006 0-0.009 0h-14.7l-12.93-3.93c-0.094-0.030-0.201-0.048-0.313-0.048-0.236 0-0.454 0.078-0.63 0.21l0.003-0.002c-0.261 0.183-0.43 0.483-0.43 0.822 0 0.003 0 0.006 0 0.009v-0 2.94h-0.9c-0.552 0-1 0.448-1 1v0 19.2c-0.001 0.015-0.001 0.032-0.001 0.050 0 0.552 0.448 1 1 1 0 0 0.001 0 0.001 0h29.9c0.015 0.001 0.033 0.001 0.051 0.001 0.552 0 1-0.448 1-1 0-0.018-0-0.036-0.001-0.054l0 0.003v-19.15c0-0.002 0-0.004 0-0.006 0-0.275-0.111-0.524-0.29-0.704l0 0zM3.76 4.2c0-0.066 0.054-0.12 0.12-0.12v0l12.12 3.71c0.047 0.020 0.080 0.066 0.080 0.12v18.67l-0.15 0.080-12.12-3.75c-0.047-0.013-0.081-0.056-0.081-0.106 0-0.005 0-0.010 0.001-0.014l-0 0.001zM1.060 26.86v-19.2h1.45c0.033 0.007 0.071 0.011 0.11 0.011s0.077-0.004 0.114-0.012l-0.004 0.001v15.13c-0 0.005-0 0.011-0 0.017 0 0.499 0.329 0.921 0.782 1.061l0.008 0.002 9.77 3zM31.060 26.91h-14s0 0 0 0c0.007-0.050 0.011-0.107 0.011-0.165s-0.004-0.115-0.012-0.172l0.001 0.006v-18.66c0.005-0.039 0.008-0.084 0.008-0.13s-0.003-0.091-0.008-0.135l0.001 0.005h14z"></path>
<path fill="#003359" d="M19.92 22.47h8.54c0.012 0.001 0.026 0.002 0.041 0.002 0.266 0 0.484-0.208 0.499-0.47l0-0.001c0-0.276-0.224-0.5-0.5-0.5v0h-8.58c-0.274 0.006-0.494 0.226-0.5 0.499v0.001c0.016 0.263 0.233 0.47 0.499 0.47 0 0 0.001 0 0.001 0h-0z"></path>
<path fill="#003359" d="M19.92 17.060h8.54c0.276 0 0.5-0.224 0.5-0.5v0c0-0.276-0.224-0.5-0.5-0.5v0h-8.54c-0.274 0.006-0.494 0.226-0.5 0.499v0.001c0 0.276 0.224 0.5 0.5 0.5v0z"></path>
<path fill="#003359" d="M19.92 11.65h8.54c0.276 0 0.5-0.224 0.5-0.5v0c0-0.276-0.224-0.5-0.5-0.5v0h-8.54c-0.274 0.005-0.494 0.226-0.5 0.499v0.001c0 0.276 0.224 0.5 0.5 0.5v0z"></path>
<path fill="#003359" d="M6.080 19.93l7.28 2.36c0.023 0.005 0.048 0.007 0.075 0.007s0.052-0.003 0.078-0.008l-0.002 0c0.024 0.004 0.052 0.006 0.080 0.006 0.28 0 0.506-0.227 0.506-0.506 0-0.251-0.183-0.46-0.423-0.5l-0.003-0-7.28-2.29c-0.046-0.016-0.099-0.025-0.155-0.025-0.221 0-0.408 0.143-0.474 0.341l-0.001 0.004c-0.011 0.039-0.017 0.084-0.017 0.13 0 0.22 0.139 0.407 0.333 0.479l0.004 0.001z"></path>
<path fill="#003359" d="M6.080 14.47l7.28 2.36h0.15c0.024 0.004 0.052 0.006 0.080 0.006 0.28 0 0.506-0.227 0.506-0.506 0-0.251-0.183-0.46-0.423-0.5l-0.003-0-7.28-2.31c-0.046-0.016-0.099-0.025-0.155-0.025-0.221 0-0.408 0.143-0.474 0.341l-0.001 0.004c-0.014 0.044-0.022 0.095-0.022 0.148 0 0.222 0.141 0.41 0.339 0.48l0.004 0.001z"></path>
<path fill="#003359" d="M6.080 9l7.28 2.36h0.15c0.024 0.004 0.052 0.006 0.080 0.006 0.28 0 0.506-0.227 0.506-0.506 0-0.251-0.183-0.46-0.423-0.5l-0.003-0-7.28-2.3c-0.046-0.016-0.099-0.025-0.155-0.025-0.221 0-0.408 0.143-0.474 0.341l-0.001 0.004c-0.012 0.042-0.019 0.090-0.019 0.139 0 0.22 0.14 0.408 0.336 0.479l0.004 0.001z"></path>
</svg>
