<!-- Generated by IcoMoon.io -->
<svg version="1.1" xmlns="http://www.w3.org/2000/svg" width="32" height="32" viewBox="0 0 32 32">
<title>bookmark</title>
<path fill="#003359" d="M23.74 0h-15.68c-0.276 0-0.5 0.224-0.5 0.5v0 31c-0 0.006-0 0.012-0 0.019 0 0.221 0.14 0.409 0.337 0.48l0.004 0.001c0.048 0.017 0.104 0.027 0.162 0.027 0.162 0 0.306-0.077 0.397-0.196l0.001-0.001 7.26-9.45h0.37l7.26 9.45c0.086 0.122 0.226 0.2 0.385 0.2 0.002 0 0.004 0 0.006-0h-0c0.026 0.005 0.055 0.007 0.085 0.007s0.059-0.003 0.088-0.008l-0.003 0c0.194-0.072 0.33-0.255 0.33-0.47v0-31.060c0-0.276-0.224-0.5-0.5-0.5v0zM23.24 30l-6.51-8.49c-0.092-0.116-0.234-0.19-0.392-0.19-0.003 0-0.005 0-0.008 0h-0.86c-0.001 0-0.002 0-0.003 0-0.157 0-0.297 0.074-0.387 0.189l-0.001 0.001-6.52 8.49v-29h14.68z"></path>
</svg>
