<svg id="Layer_1" data-name="Layer 1" xmlns="http://www.w3.org/2000/svg" viewBox="0 0 32 32"><defs><style>.cls-1{fill:#003359;}.cls-2{fill:#09c;}</style></defs><path class="cls-1" d="M25.47.78a.12.12,0,0,0,0-.05A2.67,2.67,0,0,0,23.59,0H7A1.48,1.48,0,0,0,5.56,1.48V28.17A1.48,1.48,0,0,0,7,29.65H23.59a2.63,2.63,0,0,0,1.79-.7c.34-.17.87-.94.87-5.12V2.67A2.69,2.69,0,0,0,25.47.78Zm-18.91.7A.48.48,0,0,1,7,1H23.58a1.58,1.58,0,0,1,1.18.49l0,0a1.65,1.65,0,0,1,.44,1.14V23a1.66,1.66,0,0,1-1.67,1.66H7a1.28,1.28,0,0,0-.48.09V1.48Zm18.2,26.69a1.66,1.66,0,0,1-1.18.48H7a.47.47,0,0,1-.48-.48V26.12A.48.48,0,0,1,7,25.63H23.58a2.63,2.63,0,0,0,1.65-.58,8,8,0,0,1-.41,3.07Z"/><path class="cls-2" d="M15.27,25.64v5.67a.49.49,0,0,1-.31.46.43.43,0,0,1-.19,0,.5.5,0,0,1-.35-.14l-2-2-2,2a.5.5,0,0,1-.55.1.49.49,0,0,1-.3-.46V25.64Z"/></svg>