<!-- Generated by IcoMoon.io -->
<svg version="1.1" xmlns="http://www.w3.org/2000/svg" width="32" height="32" viewBox="0 0 32 32">
<title>book-bookmark</title>
<path fill="#003359" d="M25.47 0.78c0.002-0.007 0.003-0.016 0.003-0.025s-0.001-0.017-0.003-0.026l0 0.001c-0.477-0.452-1.124-0.73-1.835-0.73-0.016 0-0.032 0-0.047 0l0.002-0h-16.59c-0.8 0.022-1.44 0.676-1.44 1.479 0 0 0 0 0 0.001v-0 26.69c0 0 0 0 0 0.001 0 0.803 0.64 1.457 1.438 1.479l0.002 0h16.59c0.001 0 0.002 0 0.003 0 0.691 0 1.319-0.266 1.788-0.702l-0.002 0.002c0.34-0.17 0.87-0.94 0.87-5.12v-21.16c-0.001-0.737-0.299-1.405-0.78-1.89l0 0zM6.56 1.48c0-0 0-0.001 0-0.002 0-0.251 0.193-0.457 0.438-0.478l0.002-0h16.58c0.011-0 0.023-0 0.036-0 0.45 0 0.856 0.188 1.144 0.49l0.001 0.001c0.273 0.293 0.44 0.688 0.44 1.122 0 0.006-0 0.013-0 0.019v-0.001 20.37c0 0 0 0 0 0 0 0.917-0.743 1.66-1.66 1.66-0.004 0-0.007 0-0.011-0h-16.529c-0.003-0-0.005-0-0.008-0-0.17 0-0.332 0.033-0.48 0.093l0.009-0.003v-23.27zM24.76 28.17c-0.3 0.297-0.712 0.48-1.168 0.48-0.004 0-0.009-0-0.013-0h-16.579c-0.003 0-0.007 0-0.010 0-0.26 0-0.47-0.21-0.47-0.47 0-0.004 0-0.007 0-0.011v0.001-2.050c-0-0.003-0-0.006-0-0.010 0-0.265 0.215-0.48 0.48-0.48 0 0 0 0 0 0h16.58c0.001 0 0.002 0 0.002 0 0.626 0 1.201-0.219 1.652-0.584l-0.005 0.004c0.010 0.148 0.015 0.322 0.015 0.496 0 0.921-0.156 1.806-0.442 2.63l0.017-0.056z"></path>
<path fill="#09c" d="M15.27 25.64v5.67c0 0.001 0 0.003 0 0.004 0 0.206-0.127 0.382-0.307 0.455l-0.003 0.001c-0.029 0.007-0.061 0.011-0.095 0.011s-0.066-0.004-0.098-0.011l0.003 0.001c-0.001 0-0.002 0-0.003 0-0.135 0-0.257-0.053-0.347-0.14l-2-2-2 2c-0.090 0.088-0.213 0.142-0.349 0.142-0.073 0-0.142-0.015-0.204-0.043l0.003 0.001c-0.178-0.076-0.3-0.25-0.3-0.452 0-0.003 0-0.006 0-0.009v0-5.63z"></path>
</svg>
