<!-- Generated by IcoMoon.io -->
<svg version="1.1" xmlns="http://www.w3.org/2000/svg" width="32" height="32" viewBox="0 0 32 32">
<title>box</title>
<path fill="#003359" d="M29.94 6.5s0 0 0-0.080c-0.006-0.063-0.024-0.121-0.051-0.173l0.001 0.003c-0.021-0.026-0.044-0.049-0.069-0.069l-0.001-0.001c-0.028-0.035-0.061-0.065-0.098-0.089l-0.002-0.001-13.61-6.090c-0.061-0.024-0.131-0.037-0.205-0.037s-0.144 0.014-0.209 0.039l0.004-0.001-13.53 6c-0.039 0.025-0.072 0.055-0.099 0.089l-0.001 0.001-0.070 0.16c-0.026 0.049-0.044 0.107-0.050 0.168l-0 0.002s0 0 0 0.080v0 18.89c0.005 0.203 0.125 0.377 0.297 0.459l0.003 0.001 13.45 6.15c0.030 0.007 0.065 0.011 0.1 0.011s0.070-0.004 0.103-0.012l-0.003 0.001c0.032 0.007 0.068 0.011 0.105 0.011s0.073-0.004 0.108-0.011l-0.003 0.001 13.53-6.11c0.175-0.083 0.295-0.257 0.3-0.459v-18.921zM15.94 1.050l12.36 5.51-12.4 6.61-12.39-6.61zM2.94 7.35l12.46 6.65v16.73l-12.53-5.66zM28.94 25.070l-12.54 5.66v-16.73l12.59-6.69z"></path>
</svg>
