<!-- Generated by IcoMoon.io -->
<svg version="1.1" xmlns="http://www.w3.org/2000/svg" width="32" height="32" viewBox="0 0 32 32">
<title>boxes</title>
<path fill="#003359" d="M10.83 0h-10.39c-0.276 0-0.5 0.224-0.5 0.5v0 10.35c0.005 0.274 0.226 0.495 0.499 0.5h10.391c0.276 0 0.5-0.224 0.5-0.5v0-10.39c-0.021-0.258-0.236-0.46-0.498-0.46-0.001 0-0.001 0-0.002 0h0zM10.33 10.39h-9.39v-9.39h9.39z"></path>
<path fill="#003359" d="M10.83 20.57h-10.39c-0.276 0-0.5 0.224-0.5 0.5v0 10.39c0 0.276 0.224 0.5 0.5 0.5v0h10.39c0.276 0 0.5-0.224 0.5-0.5v0-10.39c0-0.276-0.224-0.5-0.5-0.5v0zM10.33 31h-9.39v-9.43h9.39z"></path>
<path fill="#003359" d="M31.4 0h-10.4c-0.276 0-0.5 0.224-0.5 0.5v0 10.35c0 0.276 0.224 0.5 0.5 0.5v0h10.4c0.274-0.005 0.494-0.226 0.5-0.499v-10.391c-0.021-0.258-0.236-0.46-0.498-0.46-0.001 0-0.001 0-0.002 0h0zM30.9 10.39h-9.39v-9.39h9.39z"></path>
<path fill="#003359" d="M31.4 20.57h-10.4c-0.276 0-0.5 0.224-0.5 0.5v0 10.39c0 0.276 0.224 0.5 0.5 0.5v0h10.4c0.276 0 0.5-0.224 0.5-0.5v0-10.39c0-0.276-0.224-0.5-0.5-0.5v0zM30.9 31h-9.39v-9.43h9.39z"></path>
</svg>
