<!-- Generated by IcoMoon.io -->
<svg version="1.1" xmlns="http://www.w3.org/2000/svg" width="32" height="32" viewBox="0 0 32 32">
<title>briefcase</title>
<path fill="#003359" d="M27.29 7.22v0c-0.001 0-0.002 0-0.003 0-0.135 0-0.257 0.053-0.347 0.14l0-0c-0.093 0.088-0.15 0.211-0.15 0.349 0 0.004 0 0.008 0 0.012v-0.001 21.74c-0 0.002-0 0.004-0 0.006 0 0.136 0.058 0.258 0.15 0.344l0 0c0.090 0.090 0.213 0.147 0.349 0.15h0.001c2.64-0.017 4.774-2.158 4.78-4.799v-13.161c-0.011-2.635-2.145-4.769-4.779-4.78h-0.001zM31.070 25.16c-0.002 1.913-1.418 3.496-3.26 3.758l-0.020 0.002v-20.67c1.856 0.268 3.268 1.842 3.28 3.749v0.001z"></path>
<path fill="#003359" d="M5.36 7.21h-0.48c-2.647 0.006-4.793 2.144-4.81 4.788v13.162c-0 0.006-0 0.013-0 0.020 0 2.659 2.152 4.814 4.809 4.82h0.481c0.274-0.006 0.495-0.226 0.5-0.499v-21.791c-0.005-0.274-0.226-0.495-0.499-0.5h-0.001zM4.86 29c-2.092-0.011-3.784-1.707-3.79-3.799v-13.201c0.011-2.089 1.701-3.779 3.789-3.79h0.001z"></path>
<path fill="#003359" d="M24.55 7.21h-1.3v-1.21c-0.006-2.058-1.672-3.724-3.729-3.73h-6.331c-2.058 0.006-3.724 1.672-3.73 3.729v1.211h-1.37c-0.274 0.005-0.495 0.226-0.5 0.499v21.751c0.005 0.274 0.226 0.494 0.499 0.5h16.461c0.276 0 0.5-0.224 0.5-0.5v0-21.75c0-0.276-0.224-0.5-0.5-0.5v0zM10.46 6c0-1.508 1.222-2.73 2.73-2.73v0h6.33c1.508 0 2.73 1.222 2.73 2.73v1.21h-11.79zM24.050 29h-15.46v-20.79h15.46z"></path>
</svg>
