<!-- Generated by IcoMoon.io -->
<svg version="1.1" xmlns="http://www.w3.org/2000/svg" width="32" height="32" viewBox="0 0 32 32">
<title>callendar</title>
<path fill="#09c" d="M3.72 24.64h3.78v3.78h-3.78v-3.78z"></path>
<path fill="#09c" d="M10.6 24.64h3.78v3.78h-3.78v-3.78z"></path>
<path fill="#09c" d="M17.47 24.64h3.78v3.78h-3.78v-3.78z"></path>
<path fill="#09c" d="M24.35 24.64h3.78v3.78h-3.78v-3.78z"></path>
<path fill="#09c" d="M3.8 18.94h3.78v3.78h-3.78v-3.78z"></path>
<path fill="#09c" d="M10.67 18.94h3.78v3.78h-3.78v-3.78z"></path>
<path fill="#09c" d="M17.55 18.94h3.78v3.78h-3.78v-3.78z"></path>
<path fill="#09c" d="M24.42 18.94h3.78v3.78h-3.78v-3.78z"></path>
<path fill="#09c" d="M3.72 13.24h3.78v3.78h-3.78v-3.78z"></path>
<path fill="#09c" d="M10.6 13.24h3.78v3.78h-3.78v-3.78z"></path>
<path fill="#09c" d="M17.47 13.24h3.78v3.78h-3.78v-3.78z"></path>
<path fill="#09c" d="M24.35 13.24h3.78v3.78h-3.78v-3.78z"></path>
<path fill="#003359" d="M32 10.51v0-6.19h-6.58v-3.13c0-0.276-0.224-0.5-0.5-0.5s-0.5 0.224-0.5 0.5v0 3.13h-17v-3.13c0-0.276-0.224-0.5-0.5-0.5s-0.5 0.224-0.5 0.5v0 3.13h-6.42v27.5h32v-21.31zM6.46 5.32v2.38c0 0.276 0.224 0.5 0.5 0.5s0.5-0.224 0.5-0.5v0-2.38h17v2.38c0 0.276 0.224 0.5 0.5 0.5s0.5-0.224 0.5-0.5v0-2.38h5.54v4.68h-30v-4.68zM1 30.82v-19.82h30v19.82z"></path>
</svg>
