<!-- Generated by IcoMoon.io -->
<svg version="1.1" xmlns="http://www.w3.org/2000/svg" width="32" height="32" viewBox="0 0 32 32">
<title>cancer</title>
<path fill="#003359" d="M24.49 27.57l-4.86-8.31c0.162-0.022 0.297-0.121 0.369-0.257l0.001-0.003c1.4-2.62 3.19-6.060 3.33-6.39 0.004-0.029 0.007-0.061 0.007-0.095s-0.003-0.066-0.007-0.099l0 0.004v-0.060c0.307-0.958 0.484-2.060 0.484-3.204 0-1.3-0.229-2.546-0.648-3.702l0.024 0.075c-0.1-0.36-0.21-0.7-0.32-1-0.034-0.074-0.085-0.135-0.149-0.179l-0.001-0.001c-0.092-1.444-0.858-2.691-1.984-3.44l-0.016-0.010c-0.241-0.139-0.524-0.274-0.818-0.386l-0.042-0.014c-0.873-0.317-1.88-0.5-2.93-0.5h-0.43c-1.035 0.010-2.024 0.196-2.942 0.53l0.062-0.020c-0.331 0.124-0.614 0.265-0.88 0.432l0.020-0.012c-1.139 0.745-1.905 1.979-1.999 3.397l-0.001 0.013c-0.059 0.048-0.107 0.108-0.139 0.177l-0.001 0.003c-0.11 0.33-0.22 0.67-0.32 1-0.4 1.083-0.631 2.334-0.631 3.639 0 1.15 0.18 2.258 0.512 3.297l-0.021-0.077v0.060c-0.003 0.017-0.004 0.036-0.004 0.055s0.002 0.038 0.005 0.057l-0-0.002c0.4 0.95 0.826 1.755 1.311 2.518l-0.041-0.068c0.43 0.83 1.54 2.9 1.83 3.45l0.19 0.35c-0.047 0.033-0.087 0.073-0.119 0.118l-0.001 0.002c-2.28 4-4.6 8-5.44 9.36-0.052 0.077-0.082 0.173-0.082 0.275s0.031 0.198 0.084 0.277l-0.001-0.002 2.2 2.95c0.088 0.122 0.23 0.2 0.39 0.2 0.004 0 0.007-0 0.011-0h-0.001c0.172-0.010 0.321-0.102 0.409-0.238l5.121-8.452 5.11 8.43c0.089 0.138 0.238 0.23 0.409 0.24l0.001 0c0.002 0 0.004 0 0.006 0 0.172 0 0.323-0.087 0.413-0.218l0.001-0.002 2.45-3.65c0.073-0.089 0.117-0.203 0.117-0.328 0-0.069-0.013-0.135-0.038-0.195l0.001 0.003zM15.4 12c-0.87-1.47-1.34-2.28-1.61-2.71s-0.5-0.83-0.72-1.21c-0.287-0.498-0.592-1.109-0.863-1.738l-0.047-0.122c1.327-0.757 2.915-1.208 4.606-1.22l0.004-0c1.682 0.012 3.253 0.475 4.603 1.273l-0.043-0.023c-0.313 0.752-0.631 1.38-0.989 1.981l0.039-0.071q-0.31 0.55-0.69 1.17c-0.244 0.337-0.474 0.721-0.67 1.124l-0.020 0.046c-0.17 0.33-0.38 0.7-0.61 1.11l-1.55 2.87zM22.4 12.13c-0.005 0.024-0.007 0.052-0.007 0.080s0.003 0.056 0.008 0.083l-0-0.003c-0.24 0.49-1.44 2.81-2.84 5.43-0.25-0.44-0.51-0.87-0.75-1.28l-1-1.66 1.49-2.74 0.57-1.040c0.23-0.42 0.49-0.89 0.55-1 0.038-0.032 0.071-0.068 0.099-0.108l0.001-0.002 0.73-1.23c0.39-0.649 0.775-1.415 1.106-2.21l0.044-0.12c0.265 0.848 0.418 1.824 0.418 2.835 0 1.070-0.171 2.1-0.488 3.065l0.020-0.069zM13.29 1.77c0.2-0.114 0.434-0.222 0.678-0.31l0.032-0.010c0.743-0.273 1.6-0.437 2.494-0.45l0.006-0h0.42c0.017-0 0.038-0 0.058-0 0.908 0 1.778 0.161 2.584 0.457l-0.052-0.017c0.264 0.104 0.484 0.212 0.695 0.333l-0.025-0.013c0.95 0.62 1.568 1.678 1.568 2.881 0 0.223-0.021 0.44-0.062 0.651l0.003-0.021c-1.417-0.794-3.108-1.264-4.908-1.27h-0.002c-0.013-0-0.027-0-0.042-0-1.82 0-3.528 0.475-5.009 1.307l0.051-0.027c-0.036-0.188-0.057-0.404-0.057-0.625 0-1.204 0.618-2.263 1.554-2.877l0.013-0.008zM10.48 30.61l-1.56-2.080c0.9-1.49 2.86-4.85 4.86-8.36l1.52 2.49zM21.63 30.55l-6.55-10.81-0.93-1.74c-0.3-0.55-1.4-2.61-1.83-3.44-0.67-1.26-1.060-2-1.15-2.19v0c0.005-0.024 0.008-0.052 0.008-0.080s-0.003-0.056-0.008-0.083l0 0.003c-0.294-0.894-0.464-1.923-0.464-2.991 0-1.009 0.151-1.982 0.433-2.899l-0.018 0.070c0.354 0.894 0.724 1.644 1.144 2.361l-0.044-0.081c0.22 0.39 0.47 0.8 0.74 1.23s0.73 1.24 1.59 2.7l8.93 15.27z"></path>
</svg>
