<!-- Generated by IcoMoon.io -->
<svg version="1.1" xmlns="http://www.w3.org/2000/svg" width="32" height="32" viewBox="0 0 32 32">
<title>cancel</title>
<path fill="#09c" d="M26.62 27.12c-0.002 0-0.004 0-0.006 0-0.136 0-0.258-0.058-0.344-0.15l-0-0-21.27-21.25c-0.090-0.090-0.145-0.213-0.145-0.35 0-0.273 0.222-0.495 0.495-0.495 0.137 0 0.26 0.055 0.35 0.145v0l21.3 21.25c0.088 0.090 0.143 0.214 0.143 0.35 0 0.274-0.22 0.496-0.493 0.5h-0z"></path>
<path fill="#003359" d="M16 1c8.284 0 15 6.716 15 15s-6.716 15-15 15c-8.284 0-15-6.716-15-15v0c0-8.284 6.716-15 15-15v0zM16 0v0c-8.837 0-16 7.163-16 16v0 0c0 8.837 7.163 16 16 16v0 0c8.837 0 16-7.163 16-16v0 0c0-8.837-7.163-16-16-16v0z"></path>
</svg>
