<!-- Generated by IcoMoon.io -->
<svg version="1.1" xmlns="http://www.w3.org/2000/svg" width="32" height="32" viewBox="0 0 32 32">
<title>cell-phone</title>
<path fill="#003359" d="M22 32h-13c0 0 0 0-0 0-1.51 0-2.734-1.221-2.74-2.729v-26.541c0.005-1.485 1.19-2.691 2.666-2.73l0.004-0h13.070c1.508 0 2.73 1.222 2.73 2.73v0 26.54c0 1.508-1.222 2.73-2.73 2.73v0zM8.93 1c0 0-0 0-0 0-0.957 0-1.734 0.773-1.74 1.729v26.541c0.006 0.957 0.782 1.73 1.74 1.73 0 0 0 0 0 0h13.070c0.955 0 1.73-0.775 1.73-1.73v0-26.54c0-0.955-0.775-1.73-1.73-1.73v0z"></path>
<path fill="#09c" d="M17.21 26.53c0 0.978-0.792 1.77-1.77 1.77s-1.77-0.792-1.77-1.77c0-0.978 0.792-1.77 1.77-1.77s1.77 0.792 1.77 1.77z"></path>
</svg>
