<!-- Generated by IcoMoon.io -->
<svg version="1.1" xmlns="http://www.w3.org/2000/svg" width="32" height="32" viewBox="0 0 32 32">
<title>chat</title>
<path fill="#09c" d="M28 25h-0.12c-1.944-0.547-3.599-1.593-4.873-2.992l-0.007-0.008c-0.4 0.051-0.863 0.080-1.333 0.080-0.013 0-0.026-0-0.039-0h0.002c-0.001 0-0.002 0-0.003 0-1.148 0-2.259-0.153-3.316-0.44l0.088 0.020c-0.243-0.036-0.428-0.244-0.428-0.495 0-0.059 0.010-0.116 0.029-0.169l-0.001 0.003c0.057-0.218 0.252-0.376 0.484-0.376 0.045 0 0.088 0.006 0.129 0.017l-0.003-0.001c0.89 0.248 1.912 0.39 2.967 0.39 0.012 0 0.023-0 0.035-0h-0.002c0 0 0 0 0 0 0.536 0 1.063-0.040 1.578-0.117l-0.058 0.007c0.016-0.002 0.034-0.003 0.053-0.003 0.169 0 0.319 0.079 0.416 0.202l0.001 0.001c0.882 1.064 2.008 1.894 3.294 2.41l0.056 0.020c-0.398-0.868-0.708-1.876-0.881-2.931l-0.009-0.069c-0.004-0.024-0.007-0.053-0.007-0.082 0-0.2 0.116-0.374 0.284-0.457l0.003-0.001c2.86-1.35 4.66-3.86 4.66-6.53 0-4.17-4.22-7.56-9.42-7.56-0.048-0.001-0.105-0.001-0.162-0.001-2.473 0-4.748 0.848-6.55 2.268l0.023-0.017c-0.087 0.068-0.198 0.108-0.318 0.108-0.156 0-0.296-0.069-0.392-0.178l-0.001-0.001c-0.068-0.086-0.108-0.195-0.108-0.314 0-0.159 0.073-0.301 0.187-0.395l0.001-0.001c1.952-1.541 4.448-2.471 7.16-2.471 0.056 0 0.112 0 0.168 0.001l-0.008-0c5.75 0 10.42 3.84 10.42 8.56-0.143 3.232-2.098 5.974-4.868 7.249l-0.052 0.021c0.235 1.298 0.7 2.455 1.353 3.479l-0.023-0.039c0.056 0.078 0.090 0.175 0.090 0.28s-0.034 0.202-0.091 0.281l0.001-0.001c-0.083 0.146-0.234 0.244-0.409 0.25l-0.001 0z"></path>
<path fill="#09c" d="M11.44 15.56c0 0.619-0.501 1.12-1.12 1.12s-1.12-0.501-1.12-1.12c0-0.619 0.501-1.12 1.12-1.12s1.12 0.501 1.12 1.12z"></path>
<path fill="#09c" d="M6.92 15.5c0 0.619-0.501 1.12-1.12 1.12s-1.12-0.501-1.12-1.12c0-0.619 0.501-1.12 1.12-1.12s1.12 0.501 1.12 1.12z"></path>
<path fill="#09c" d="M15.96 15.63c0 0.619-0.501 1.12-1.12 1.12s-1.12-0.501-1.12-1.12c0-0.619 0.501-1.12 1.12-1.12s1.12 0.501 1.12 1.12z"></path>
<path fill="#003359" d="M4 27.080c-0 0-0.001 0-0.001 0-0.17 0-0.32-0.087-0.408-0.218l-0.001-0.002c-0.056-0.080-0.089-0.178-0.089-0.285s0.033-0.205 0.090-0.287l-0.001 0.002c0.632-0.982 1.097-2.135 1.321-3.372l0.009-0.058c-2.821-1.298-4.774-4.039-4.919-7.252l-0.001-0.018c0-4.72 4.67-8.59 10.42-8.59s10.42 3.84 10.42 8.56-4.68 8.56-10.42 8.56c-0.487-0.004-0.963-0.033-1.432-0.086l0.062 0.006c-1.294 1.415-2.967 2.462-4.858 2.983l-0.072 0.017zM10.42 8c-5.2 0-9.42 3.42-9.42 7.59 0 2.67 1.8 5.18 4.69 6.53 0.171 0.082 0.288 0.254 0.288 0.453 0 0.031-0.003 0.061-0.008 0.090l0-0.003c-0.182 1.124-0.492 2.132-0.921 3.075l0.031-0.075c1.34-0.539 2.466-1.369 3.339-2.417l0.011-0.013c0.092-0.14 0.249-0.232 0.427-0.232 0.015 0 0.030 0.001 0.044 0.002l-0.002-0c0.457 0.070 0.983 0.11 1.52 0.11 0 0 0 0 0.001 0v0c5.19 0 9.42-3.39 9.42-7.56s-4.23-7.55-9.42-7.55z"></path>
</svg>
