<!-- Generated by IcoMoon.io -->
<svg version="1.1" xmlns="http://www.w3.org/2000/svg" width="32" height="32" viewBox="0 0 32 32">
<title>check</title>
<path fill="#003359" d="M31.85 4.89c-0.092-0.089-0.217-0.144-0.355-0.144s-0.263 0.055-0.355 0.144l0-0-19.82 20.43-10.54-7.16c-0.078-0.056-0.176-0.089-0.282-0.089-0.17 0-0.319 0.086-0.407 0.217l-0.001 0.002c-0.062 0.081-0.099 0.184-0.099 0.295 0 0.174 0.091 0.327 0.227 0.413l0.002 0.001 10.89 7.4c0.077 0.056 0.173 0.090 0.277 0.090 0.001 0 0.002 0 0.004 0h-0c0.141-0 0.268-0.058 0.36-0.15v0l20.11-20.74c0.088-0.090 0.143-0.214 0.143-0.35 0-0.141-0.059-0.269-0.153-0.36l-0-0z"></path>
</svg>
