<!-- Generated by IcoMoon.io -->
<svg version="1.1" xmlns="http://www.w3.org/2000/svg" width="32" height="32" viewBox="0 0 32 32">
<title>check-circle</title>
<path fill="#09c" d="M14.12 22.86c-0.108-0.001-0.209-0.034-0.292-0.091l0.002 0.001-6.73-4.58c-0.161-0.085-0.269-0.252-0.269-0.443 0-0.276 0.224-0.5 0.5-0.5 0.126 0 0.241 0.047 0.329 0.124l-0.001-0 6.39 4.34 10.79-11.12c0.090-0.088 0.214-0.143 0.35-0.143s0.26 0.055 0.35 0.143l-0-0c0.091 0.091 0.148 0.216 0.148 0.355s-0.057 0.264-0.148 0.355l-0 0-11.070 11.4c-0.087 0.097-0.211 0.158-0.35 0.16h-0z"></path>
<path fill="#003359" d="M16 1c8.284 0 15 6.716 15 15s-6.716 15-15 15c-8.284 0-15-6.716-15-15v0c0-8.284 6.716-15 15-15v0zM16 0v0c-8.837 0-16 7.163-16 16v0 0c0 8.837 7.163 16 16 16v0 0c8.837 0 16-7.163 16-16v0 0c0-8.837-7.163-16-16-16v0z"></path>
</svg>
