<!-- Generated by IcoMoon.io -->
<svg version="1.1" xmlns="http://www.w3.org/2000/svg" width="32" height="32" viewBox="0 0 32 32">
<title>close</title>
<path fill="#003359" d="M16.71 16l15.14-15.15c0.093-0.088 0.152-0.212 0.152-0.35s-0.058-0.262-0.151-0.35l-0-0c-0.088-0.093-0.212-0.152-0.35-0.152s-0.262 0.058-0.35 0.151l-0 0-15.15 15.14-15.15-15.14c-0.088-0.093-0.212-0.152-0.35-0.152s-0.262 0.058-0.35 0.151l-0 0c-0.093 0.088-0.152 0.212-0.152 0.35s0.058 0.262 0.151 0.35l0 0 15.14 15.15-15.14 15.15c-0.093 0.088-0.152 0.212-0.152 0.35s0.058 0.262 0.151 0.35l0 0c0.086 0.092 0.208 0.15 0.344 0.15 0.002 0 0.004 0 0.006-0h-0c0.002 0 0.004 0 0.006 0 0.136 0 0.258-0.058 0.344-0.15l0-0 15.15-15.14 15.15 15.14c0.088 0.093 0.212 0.152 0.35 0.152s0.262-0.058 0.35-0.151l0-0c0.093-0.088 0.152-0.212 0.152-0.35s-0.058-0.262-0.151-0.35l-0-0z"></path>
</svg>
