<svg id="Layer_1" data-name="Layer 1" xmlns="http://www.w3.org/2000/svg" viewBox="0 0 32 32"><defs><style>.cls-1{fill:#003359;}.cls-2{fill:#09c;}</style></defs><path class="cls-1" d="M16,1A15,15,0,1,1,1,16,15,15,0,0,1,16,1m0-1h0A16,16,0,0,0,0,16H0A16,16,0,0,0,16,32h0A16,16,0,0,0,32,16h0A16,16,0,0,0,16,0Z"/><path class="cls-2" d="M16.71,16.07l6.4-6.4a.5.5,0,0,0,0-.7.5.5,0,0,0-.71,0L16,15.37,9.6,9a.5.5,0,0,0-.71,0,.5.5,0,0,0,0,.7l6.4,6.4-6.4,6.4a.51.51,0,0,0,0,.71.51.51,0,0,0,.36.15.49.49,0,0,0,.35-.15l6.4-6.4,6.4,6.4a.49.49,0,0,0,.35.15.51.51,0,0,0,.36-.15.51.51,0,0,0,0-.71Z"/></svg>