<!-- Generated by IcoMoon.io -->
<svg version="1.1" xmlns="http://www.w3.org/2000/svg" width="32" height="32" viewBox="0 0 32 32">
<title>close-circle</title>
<path fill="#003359" d="M16 1c8.284 0 15 6.716 15 15s-6.716 15-15 15c-8.284 0-15-6.716-15-15v0c0-8.284 6.716-15 15-15v0zM16 0v0c-8.837 0-16 7.163-16 16v0 0c0 8.837 7.163 16 16 16v0 0c8.837 0 16-7.163 16-16v0 0c0-8.837-7.163-16-16-16v0z"></path>
<path fill="#09c" d="M16.71 16.070l6.4-6.4c0.088-0.090 0.143-0.214 0.143-0.35s-0.055-0.26-0.143-0.35l0 0c-0.091-0.091-0.216-0.148-0.355-0.148s-0.264 0.057-0.355 0.148l-6.4 6.4-6.4-6.37c-0.091-0.091-0.216-0.148-0.355-0.148s-0.264 0.057-0.355 0.148l-0 0c-0.088 0.090-0.143 0.214-0.143 0.35s0.055 0.26 0.143 0.35l6.4 6.4-6.4 6.4c-0.089 0.092-0.144 0.217-0.144 0.355s0.055 0.263 0.144 0.355l-0-0c0.092 0.092 0.219 0.15 0.36 0.15h0c0.137-0.001 0.261-0.058 0.35-0.15l6.4-6.4 6.4 6.4c0.089 0.092 0.213 0.149 0.35 0.15h0c0.141-0 0.268-0.058 0.36-0.15v0c0.089-0.092 0.144-0.217 0.144-0.355s-0.055-0.263-0.144-0.355l0 0z"></path>
</svg>
