<svg id="Layer_1" data-name="Layer 1" xmlns="http://www.w3.org/2000/svg" viewBox="0 0 32 32"><defs><style>.cls-1{fill:#003359;}.cls-2{fill:#09c;}</style></defs><path class="cls-1" d="M23.16,17.31a.5.5,0,0,1-.5-.5.5.5,0,0,1,.5-.5,4.45,4.45,0,0,0,4.76-4.52A4.91,4.91,0,0,0,23,6.88a3.15,3.15,0,0,0-.44,0A.51.51,0,0,1,22,6.48a6.34,6.34,0,0,0-12.62.86v.28A.54.54,0,0,1,9.27,8a.51.51,0,0,1-.37.14H8.78a4.09,4.09,0,1,0,0,8.18.5.5,0,0,1,.5.5.5.5,0,0,1-.5.5A5.09,5.09,0,0,1,8.41,7.14,7.34,7.34,0,0,1,22.94,5.88H23a5.92,5.92,0,0,1,5.91,5.91A5.46,5.46,0,0,1,23.16,17.31Z"/><path class="cls-2" d="M24,20.91l-6.92-4.52s0,0-.08,0l-.12,0-.08,0h0a.51.51,0,0,0-.36.15L9.26,20.9a.5.5,0,1,0,.53.85l6.47-4V31.5a.5.5,0,0,0,1,0V17.71l6.17,4a.5.5,0,1,0,.55-.83Z"/></svg>