<!-- Generated by IcoMoon.io -->
<svg version="1.1" xmlns="http://www.w3.org/2000/svg" width="32" height="32" viewBox="0 0 32 32">
<title>cloud-download</title>
<path fill="#003359" d="M23 17.75c-0.276 0-0.5-0.224-0.5-0.5s0.224-0.5 0.5-0.5v0c0.099 0.008 0.214 0.012 0.331 0.012 2.529 0 4.58-2.051 4.58-4.58 0-0.029-0-0.058-0.001-0.086l0 0.004c0-0.009 0-0.020 0-0.030 0-2.786-2.247-5.047-5.028-5.070h-0.002c-0.067-0.005-0.146-0.007-0.225-0.007s-0.158 0.003-0.236 0.008l0.011-0.001c-0.008 0-0.018 0.001-0.028 0.001-0.256 0-0.468-0.184-0.512-0.428l-0-0.003c-0.45-3.206-3.175-5.647-6.47-5.647-3.606 0-6.53 2.924-6.53 6.53 0 0.002 0 0.005 0 0.007v-0 0.29c0.001 0.009 0.001 0.020 0.001 0.030 0 0.133-0.054 0.253-0.141 0.34v0c-0.088 0.087-0.21 0.141-0.344 0.141-0.009 0-0.018-0-0.028-0.001l0.001 0h-0.11c-2.241 0.113-4.015 1.957-4.015 4.215s1.774 4.102 4.005 4.215l0.010 0c0.276 0 0.5 0.224 0.5 0.5s-0.224 0.5-0.5 0.5v0c-2.691-0.23-4.787-2.471-4.787-5.202 0-2.6 1.9-4.755 4.388-5.154l0.030-0.004c0.112-4.071 3.439-7.329 7.527-7.329 3.617 0 6.638 2.55 7.364 5.949l0.009 0.049h0.080c3.345 0.006 6.054 2.715 6.060 6.059v0.001c0.001 0.033 0.001 0.072 0.001 0.111 0 3.087-2.503 5.59-5.59 5.59-0.124 0-0.246-0.004-0.368-0.012l0.017 0.001z"></path>
<path fill="#09c" d="M24.070 26.3c-0.092-0.141-0.249-0.233-0.428-0.233-0.097 0-0.187 0.027-0.264 0.074l0.002-0.001-7.090 4.41v-15.090c0-0.276-0.224-0.5-0.5-0.5v0c-0.276 0-0.5 0.224-0.5 0.5v0 15.17l-6.86-4.48c-0.077-0.051-0.172-0.082-0.274-0.082-0.173 0-0.325 0.087-0.414 0.22l-0.001 0.002c-0.050 0.078-0.080 0.172-0.080 0.274 0 0.177 0.091 0.334 0.228 0.425l0.002 0.001 7.55 4.93c0.077 0.049 0.17 0.078 0.269 0.080h0.081c0.16-0.002 0.301-0.079 0.389-0.199l0.001-0.001 7.73-4.8c0.143-0.092 0.237-0.25 0.237-0.431 0-0.1-0.029-0.193-0.078-0.271l0.001 0.002z"></path>
</svg>
