<!-- Generated by IcoMoon.io -->
<svg version="1.1" xmlns="http://www.w3.org/2000/svg" width="32" height="32" viewBox="0 0 32 32">
<title>cloud-upload</title>
<path fill="#003359" d="M23.16 17.31c-0.276 0-0.5-0.224-0.5-0.5v0c0-0.276 0.224-0.5 0.5-0.5v0c0.093 0.007 0.201 0.011 0.311 0.011 2.458 0 4.45-1.992 4.45-4.45 0-0.028-0-0.057-0.001-0.085l0 0.004c0 0 0 0 0 0 0-2.712-2.198-4.91-4.91-4.91-0.004 0-0.007 0-0.011 0h0.001c-0.066-0.005-0.143-0.008-0.22-0.008s-0.154 0.003-0.23 0.008l0.010-0.001c-0.018 0.002-0.040 0.004-0.061 0.004-0.244 0-0.448-0.171-0.498-0.4l-0.001-0.003c-0.443-3.107-3.085-5.47-6.28-5.47-3.498 0-6.334 2.833-6.34 6.329v0.281c0.002 0.015 0.002 0.033 0.002 0.050 0 0.125-0.042 0.24-0.113 0.331l0.001-0.001c-0.091 0.087-0.215 0.14-0.351 0.14-0.007 0-0.013-0-0.020-0l0.001 0h-0.12c-2.259 0-4.090 1.831-4.090 4.090s1.831 4.090 4.090 4.090v0c0.276 0 0.5 0.224 0.5 0.5v0c0 0.276-0.224 0.5-0.5 0.5v0c-0.055 0.002-0.12 0.003-0.185 0.003-2.813 0-5.093-2.28-5.093-5.093 0-2.748 2.176-4.988 4.899-5.090l0.009-0c0.113-3.966 3.355-7.137 7.337-7.137 3.536 0 6.488 2.5 7.184 5.83l0.008 0.048h0.060c3.262 0.006 5.904 2.648 5.91 5.909v0.001c0 0.020 0 0.044 0 0.068 0 3.015-2.445 5.46-5.46 5.46-0.102 0-0.204-0.003-0.304-0.008l0.014 0.001z"></path>
<path fill="#09c" d="M24 20.91l-6.92-4.52s0 0-0.080 0h-0.2c-0.141 0-0.268 0.058-0.36 0.15v0l-7.18 4.36c-0.143 0.090-0.236 0.247-0.236 0.425 0 0.277 0.224 0.501 0.501 0.501 0.098 0 0.19-0.028 0.267-0.077l-0.002 0.001 6.47-4v13.75c0 0.276 0.224 0.5 0.5 0.5s0.5-0.224 0.5-0.5v0-13.79l6.17 4c0.085 0.069 0.194 0.111 0.314 0.111 0.276 0 0.5-0.224 0.5-0.5 0-0.19-0.106-0.355-0.261-0.439l-0.003-0.001z"></path>
</svg>
