<!-- Generated by IcoMoon.io -->
<svg version="1.1" xmlns="http://www.w3.org/2000/svg" width="32" height="32" viewBox="0 0 32 32">
<title>cloud</title>
<path fill="#003359" d="M24.57 12.080h-0.19c-0.791-4.378-4.573-7.656-9.12-7.656-5.114 0-9.26 4.146-9.26 9.26 0 0.002 0 0.004 0 0.006v-0c-3.361 0.194-6.014 2.967-6.014 6.36 0 3.512 2.843 6.361 6.353 6.37h18.421c4.24 0 7.24-2.91 7.24-6.92-0.006-4.099-3.33-7.42-7.43-7.42v0zM24.76 25.42h-18.39c-2.966 0-5.37-2.404-5.37-5.37s2.404-5.37 5.37-5.37v0h0.14c0.003 0 0.006 0 0.009 0 0.141 0 0.269-0.057 0.361-0.15v0c0.093-0.095 0.15-0.226 0.15-0.369 0-0 0-0 0-0.001v0-0.16c-0.003-0.030-0.004-0.065-0.004-0.1s0.001-0.070 0.004-0.105l-0 0.005c-0-0.018-0-0.038-0-0.059 0-4.556 3.694-8.25 8.25-8.25 4.179 0 7.632 3.107 8.176 7.137l0.005 0.042c0.035 0.245 0.243 0.432 0.495 0.432 0.016 0 0.031-0.001 0.047-0.002l-0.002 0h0.57c0 0 0 0 0 0 3.541 0 6.413 2.862 6.43 6.398v0.002c0 3.5-2.56 5.92-6.24 5.92z"></path>
</svg>
