<svg id="Layer_1" data-name="Layer 1" xmlns="http://www.w3.org/2000/svg" viewBox="0 0 32 32"><defs><style>.cls-1{fill:#003359;}.cls-2{fill:#09c;}</style></defs><path class="cls-1" d="M23,17.75a.5.5,0,0,1,0-1,4.58,4.58,0,0,0,4.91-4.65A5.07,5.07,0,0,0,22.88,7a3.4,3.4,0,0,0-.45,0,.52.52,0,0,1-.54-.43,6.53,6.53,0,0,0-13,.89v.29a.48.48,0,0,1-.14.37.49.49,0,0,1-.37.14H8.27a4.22,4.22,0,0,0,0,8.43.5.5,0,0,1,0,1A5.22,5.22,0,0,1,7.9,7.33,7.53,7.53,0,0,1,22.8,6h.08a6.07,6.07,0,0,1,6.06,6.06A5.59,5.59,0,0,1,23,17.75Z"/><path class="cls-2" d="M24.07,26.3a.51.51,0,0,0-.69-.16l-7.09,4.41V15.46a.5.5,0,0,0-.5-.5.5.5,0,0,0-.5.5V30.63L8.43,26.15a.5.5,0,0,0-.69.14.51.51,0,0,0,.15.7l7.55,4.93a.53.53,0,0,0,.27.08h.08a.49.49,0,0,0,.39-.2L23.91,27A.51.51,0,0,0,24.07,26.3Z"/></svg>