<!-- Generated by IcoMoon.io -->
<svg version="1.1" xmlns="http://www.w3.org/2000/svg" width="32" height="32" viewBox="0 0 32 32">
<title>discount</title>
<path fill="#09c" d="M20.060 7.9h2.25l-10.53 16.2h-2.26l10.54-16.2z"></path>
<path fill="#09c" d="M11.67 7.9c-0.053-0.003-0.114-0.005-0.176-0.005-1.754 0-3.188 1.368-3.294 3.095l-0 0.009c0 0.15 0 0.3 0 0.45-0.009 0.090-0.014 0.194-0.014 0.3 0 1.716 1.321 3.123 3.002 3.259l0.012 0.001c0.073 0.007 0.159 0.011 0.245 0.011s0.172-0.004 0.256-0.012l-0.011 0.001c0.052 0.003 0.113 0.005 0.174 0.005 1.781 0 3.235-1.398 3.326-3.156l0-0.008c0.005-0.061 0.008-0.133 0.008-0.205s-0.003-0.144-0.008-0.214l0.001 0.009c0.005-0.071 0.009-0.154 0.009-0.238 0-1.747-1.353-3.177-3.068-3.301l-0.011-0.001c-0.067-0.005-0.146-0.008-0.225-0.008s-0.158 0.003-0.236 0.008l0.011-0.001zM11.67 13.35c-0.83 0-1.33-0.63-1.33-1.89s0.5-1.92 1.33-1.92 1.3 0.58 1.3 1.92-0.5 1.88-1.32 1.88z"></path>
<path fill="#09c" d="M20.14 17c-0.049-0.003-0.107-0.004-0.165-0.004-1.763 0-3.204 1.378-3.304 3.115l-0 0.009c0 0.14 0 0.29 0 0.44-0.008 0.087-0.013 0.188-0.013 0.291 0 1.718 1.32 3.127 3.001 3.268l0.012 0.001c0.073 0.007 0.159 0.011 0.245 0.011s0.172-0.004 0.256-0.012l-0.011 0.001c0.049 0.003 0.106 0.004 0.163 0.004 1.777 0 3.227-1.4 3.307-3.157l0-0.007c0.005-0.061 0.008-0.133 0.008-0.205s-0.003-0.144-0.008-0.214l0.001 0.009c0.007-0.081 0.011-0.176 0.011-0.272 0-1.719-1.318-3.13-2.999-3.277l-0.012-0.001c-0.073-0.008-0.159-0.013-0.245-0.013s-0.172 0.005-0.255 0.014l0.010-0.001zM20.14 22.46c-0.86 0-1.34-0.64-1.34-1.9s0.5-1.91 1.34-1.91 1.36 0.64 1.36 1.91-0.57 1.9-1.38 1.9z"></path>
<path fill="#003359" d="M0.42 3.5c-0.276 0-0.5-0.224-0.5-0.5v0-2.5c0-0.276 0.224-0.5 0.5-0.5v0h2.5c0.276 0 0.5 0.224 0.5 0.5s-0.224 0.5-0.5 0.5v0h-2v2c0 0.276-0.224 0.5-0.5 0.5v0z"></path>
<path fill="#003359" d="M26.32 1h-5.2c-0.276 0-0.5-0.224-0.5-0.5v0c0-0.276 0.224-0.5 0.5-0.5v0h5.2c0.276 0 0.5 0.224 0.5 0.5s-0.224 0.5-0.5 0.5v0zM18.52 1h-5.2c-0.276 0-0.5-0.224-0.5-0.5v0c0-0.276 0.224-0.5 0.5-0.5v0h5.2c0.276 0 0.5 0.224 0.5 0.5s-0.224 0.5-0.5 0.5v0zM10.72 1h-5.2c-0.006 0-0.013 0-0.020 0-0.276 0-0.5-0.224-0.5-0.5 0-0 0-0 0-0v0c0-0.276 0.224-0.5 0.5-0.5v0h5.2c0.276 0 0.5 0.224 0.5 0.5s-0.224 0.5-0.5 0.5v0z"></path>
<path fill="#003359" d="M31.42 3.5c-0.276 0-0.5-0.224-0.5-0.5v0-2h-2c-0.276 0-0.5-0.224-0.5-0.5v0c0-0.276 0.224-0.5 0.5-0.5v0h2.5c0.276 0 0.5 0.224 0.5 0.5v0 2.5c0 0.276-0.224 0.5-0.5 0.5v0z"></path>
<path fill="#003359" d="M31.42 26.9c-0.276 0-0.5-0.224-0.5-0.5v0-5.2c0-0.276 0.224-0.5 0.5-0.5v0c0.276 0 0.5 0.224 0.5 0.5v0 5.2c0 0.276-0.224 0.5-0.5 0.5v0zM31.42 19.1c-0.276 0-0.5-0.224-0.5-0.5v0-5.2c0-0.276 0.224-0.5 0.5-0.5v0c0.276 0 0.5 0.224 0.5 0.5v0 5.2c0 0.276-0.224 0.5-0.5 0.5v0zM31.42 11.3c-0.276 0-0.5-0.224-0.5-0.5v0-5.2c0-0.276 0.224-0.5 0.5-0.5v0c0.276 0 0.5 0.224 0.5 0.5v0 5.2c0 0.276-0.224 0.5-0.5 0.5v0z"></path>
<path fill="#003359" d="M31.42 32h-2.5c-0.276 0-0.5-0.224-0.5-0.5s0.224-0.5 0.5-0.5v0h2v-2c0-0.276 0.224-0.5 0.5-0.5v0c0.276 0 0.5 0.224 0.5 0.5v0 2.5c0 0.276-0.224 0.5-0.5 0.5v0z"></path>
<path fill="#003359" d="M26.32 32h-5.2c-0.276 0-0.5-0.224-0.5-0.5s0.224-0.5 0.5-0.5v0h5.2c0.276 0 0.5 0.224 0.5 0.5s-0.224 0.5-0.5 0.5v0zM18.52 32h-5.2c-0.276 0-0.5-0.224-0.5-0.5s0.224-0.5 0.5-0.5v0h5.2c0.276 0 0.5 0.224 0.5 0.5s-0.224 0.5-0.5 0.5v0zM10.72 32h-5.2c-0.276 0-0.5-0.224-0.5-0.5s0.224-0.5 0.5-0.5v0h5.2c0.276 0 0.5 0.224 0.5 0.5s-0.224 0.5-0.5 0.5v0z"></path>
<path fill="#003359" d="M2.92 32h-2.5c-0.276 0-0.5-0.224-0.5-0.5v0-2.5c0-0.276 0.224-0.5 0.5-0.5v0c0.276 0 0.5 0.224 0.5 0.5v0 2h2c0.276 0 0.5 0.224 0.5 0.5s-0.224 0.5-0.5 0.5v0z"></path>
<path fill="#003359" d="M0.42 26.9c-0.276 0-0.5-0.224-0.5-0.5v0-5.2c0-0.276 0.224-0.5 0.5-0.5v0c0.276 0 0.5 0.224 0.5 0.5v0 5.2c0 0.276-0.224 0.5-0.5 0.5v0zM0.42 19.1c-0.276 0-0.5-0.224-0.5-0.5v0-5.2c0-0.276 0.224-0.5 0.5-0.5v0c0.276 0 0.5 0.224 0.5 0.5v0 5.2c0 0.276-0.224 0.5-0.5 0.5v0zM0.42 11.3c-0.276 0-0.5-0.224-0.5-0.5v0-5.2c0-0.276 0.224-0.5 0.5-0.5v0c0.276 0 0.5 0.224 0.5 0.5v0 5.2c0 0.276-0.224 0.5-0.5 0.5v0z"></path>
</svg>
