<!-- Generated by IcoMoon.io -->
<svg version="1.1" xmlns="http://www.w3.org/2000/svg" width="32" height="32" viewBox="0 0 32 32">
<title>doctor-search</title>
<path fill="#09c" d="M10.46 11.35c2.077 0 3.76-1.683 3.76-3.76s-1.683-3.76-3.76-3.76c-2.077 0-3.76 1.683-3.76 3.76v0c0.006 2.074 1.686 3.754 3.759 3.76h0.001zM10.46 4.83c1.524 0 2.76 1.236 2.76 2.76s-1.236 2.76-2.76 2.76c-1.524 0-2.76-1.236-2.76-2.76v0c0-1.524 1.236-2.76 2.76-2.76v0z"></path>
<path fill="#09c" d="M13.86 13.89h-6.8c-2.24 0-3.74 1.33-3.74 3.31 0 0.276 0.224 0.5 0.5 0.5s0.5-0.224 0.5-0.5v0c0-1.7 1.41-2.31 2.74-2.31h6.8c1.32 0 2.74 0.61 2.74 2.31 0 0.276 0.224 0.5 0.5 0.5s0.5-0.224 0.5-0.5v0c0-1.98-1.5-3.31-3.74-3.31z"></path>
<path fill="#003359" d="M31.85 31.15l-13.66-13.67c1.686-1.849 2.718-4.319 2.718-7.030 0-5.771-4.678-10.449-10.448-10.45h-0c-5.777 0-10.46 4.683-10.46 10.46s4.683 10.46 10.46 10.46v0c2.704-0 5.165-1.038 7.007-2.736l-0.007 0.006 13.69 13.66c0.088 0.093 0.212 0.152 0.35 0.152s0.262-0.058 0.35-0.151l0-0c0.093-0.088 0.152-0.212 0.152-0.35s-0.058-0.262-0.151-0.35l-0-0zM3.77 17.15c-1.712-1.712-2.772-4.077-2.772-6.69s1.059-4.978 2.772-6.69l0-0c1.712-1.712 4.077-2.771 6.69-2.771 5.225 0 9.461 4.236 9.461 9.461 0 2.613-1.059 4.978-2.771 6.69v0c-1.712 1.712-4.077 2.772-6.69 2.772s-4.978-1.059-6.69-2.772l-0-0z"></path>
</svg>
