<!-- Generated by IcoMoon.io -->
<svg version="1.1" xmlns="http://www.w3.org/2000/svg" width="32" height="32" viewBox="0 0 32 32">
<title>doctor</title>
<path fill="#003359" d="M16 0c-8.837 0-16 7.163-16 16s7.163 16 16 16c8.837 0 16-7.163 16-16v0c0-8.837-7.163-16-16-16v0zM27.17 26v-5.76c0-3-2.29-5-5.71-5-0.276 0-0.5 0.224-0.5 0.5s0.224 0.5 0.5 0.5v0c2.17 0 4.71 1.050 4.71 4v6.76c-2.658 2.478-6.236 4-10.17 4s-7.512-1.521-10.179-4.008l0.009 0.008v-6.76c0-3 2.54-4 4.71-4 0.276 0 0.5-0.224 0.5-0.5s-0.224-0.5-0.5-0.5v0c-3.42 0-5.71 2-5.71 5v5.76c-2.377-2.643-3.83-6.158-3.83-10.012 0-8.284 6.716-15 15-15s15 6.716 15 15c0 3.854-1.453 7.369-3.842 10.025l0.012-0.014z"></path>
<path fill="#09c" d="M11.72 18.25s0 0 0-0.070c-0.27-2-0.23-4.070 0-4.34 0.039 0.012 0.084 0.018 0.131 0.018 0.229 0 0.421-0.16 0.468-0.375l0.001-0.003c0.010-0.037 0.015-0.079 0.015-0.123 0-0.236-0.163-0.433-0.382-0.486l-0.003-0.001c-0.066-0.017-0.142-0.027-0.221-0.027-0.235 0-0.449 0.090-0.61 0.238l0.001-0.001c-0.89 0.8-0.58 3.93-0.4 5.23-0.003 0.026-0.004 0.055-0.004 0.085s0.002 0.059 0.005 0.089l-0-0.004c-0.557 0.316-0.926 0.905-0.926 1.579 0 1 0.81 1.81 1.81 1.81s1.81-0.81 1.81-1.81c0-0.983-0.784-1.784-1.762-1.809l-0.002-0z"></path>
<path fill="#09c" d="M21.16 19.45c0.35-1.090 1.6-5.44-0.46-6.82-0.079-0.052-0.175-0.083-0.279-0.083-0.174 0-0.328 0.088-0.42 0.221l-0.001 0.002c-0.051 0.077-0.082 0.172-0.082 0.274 0 0.172 0.087 0.325 0.22 0.414l0.002 0.001c1.28 0.86 0.52 4.24 0.080 5.65-0.26-0.066-0.559-0.104-0.867-0.104-1.412 0-2.636 0.801-3.243 1.974l-0.010 0.020-1.21 3c-0.105 0.192-0.166 0.421-0.166 0.664 0 0.152 0.024 0.299 0.069 0.436l-0.003-0.010c0.060 0.161 0.142 0.3 0.242 0.423l-0.002-0.003c-0.002 0.025-0.003 0.053-0.003 0.082 0 0.409 0.245 0.76 0.597 0.915l0.006 0.003c0.128 0.064 0.279 0.101 0.438 0.101 0.552 0 1-0.448 1-1s-0.448-1-1-1c-0.121 0-0.238 0.022-0.345 0.061l0.007-0.002c0.011-0.082 0.032-0.156 0.062-0.226l-0.002 0.006 1.21-3.060c0.468-0.841 1.352-1.4 2.367-1.4 0.404 0 0.786 0.089 1.13 0.247l-0.017-0.007c1.030 0.347 1.759 1.304 1.759 2.431 0 0.263-0.040 0.518-0.114 0.757l0.005-0.018-1.24 3.1c-0.025 0.057-0.055 0.107-0.091 0.151l0.001-0.001c-0.108-0.172-0.261-0.306-0.444-0.387l-0.006-0.003c-0.149-0.093-0.33-0.149-0.525-0.149-0.552 0-1 0.448-1 1 0 0.48 0.338 0.88 0.788 0.977l0.007 0.001c0.102 0.038 0.219 0.060 0.342 0.060 0.331 0 0.624-0.16 0.806-0.408l0.002-0.003c0.036 0.005 0.078 0.007 0.12 0.007s0.084-0.003 0.125-0.008l-0.005 0c0.379-0.147 0.672-0.446 0.807-0.82l0.003-0.010 1.25-3.14c0.11-0.327 0.173-0.703 0.173-1.094 0-1.427-0.845-2.657-2.061-3.217l-0.022-0.009z"></path>
<path fill="#003359" d="M16 15.47c-3.17 0-5.74-2.57-5.74-5.74s2.57-5.74 5.74-5.74c3.17 0 5.74 2.57 5.74 5.74v0c-0.006 3.168-2.572 5.734-5.739 5.74h-0.001zM16 5c-2.618 0-4.74 2.122-4.74 4.74s2.122 4.74 4.74 4.74c2.618 0 4.74-2.122 4.74-4.74v0c0-2.618-2.122-4.74-4.74-4.74v0z"></path>
</svg>
