<svg id="Layer_1" data-name="Layer 1" xmlns="http://www.w3.org/2000/svg" viewBox="0 0 32 32"><defs><style>.cls-1{fill:#09c;}.cls-2{fill:#003359;}</style></defs><path class="cls-1" d="M10.46,11.35A3.76,3.76,0,1,0,6.7,7.59,3.77,3.77,0,0,0,10.46,11.35Zm0-6.52A2.76,2.76,0,1,1,7.7,7.59,2.76,2.76,0,0,1,10.46,4.83Z"/><path class="cls-1" d="M13.86,13.89H7.06c-2.24,0-3.74,1.33-3.74,3.31a.5.5,0,0,0,1,0c0-1.7,1.41-2.31,2.74-2.31h6.8c1.32,0,2.74.61,2.74,2.31a.5.5,0,0,0,1,0C17.6,15.22,16.1,13.89,13.86,13.89Z"/><path class="cls-2" d="M31.85,31.15,18.19,17.48A10.45,10.45,0,0,0,10.46,0a10.46,10.46,0,0,0,0,20.92,10.34,10.34,0,0,0,7-2.73L31.15,31.85a.48.48,0,0,0,.7,0A.48.48,0,0,0,31.85,31.15Zm-28.08-14a9.46,9.46,0,0,1,0-13.38A9.46,9.46,0,0,1,17.15,17.15a9.46,9.46,0,0,1-13.38,0Z"/></svg>