<!-- Generated by IcoMoon.io -->
<svg version="1.1" xmlns="http://www.w3.org/2000/svg" width="32" height="32" viewBox="0 0 32 32">
<title>download</title>
<path fill="#003359" d="M27.39 23.5c-0.276 0-0.5 0.224-0.5 0.5v0 7h-21.55v-7c0-0.276-0.224-0.5-0.5-0.5v0c-0.276 0-0.5 0.224-0.5 0.5v0 7.5c0 0.276 0.224 0.5 0.5 0.5v0h22.55c0.276 0 0.5-0.224 0.5-0.5v0-7.5c0-0.276-0.224-0.5-0.5-0.5v0z"></path>
<path fill="#003359" d="M5 16.53l10.62 6.94c0.076 0.050 0.17 0.080 0.27 0.080h0.060c0.157-0.002 0.297-0.076 0.389-0.189l0.001-0.001 11-6.82c0.145-0.087 0.24-0.243 0.24-0.421 0-0.1-0.030-0.193-0.081-0.27l0.001 0.002c-0.092-0.141-0.249-0.232-0.428-0.232-0.097 0-0.187 0.027-0.264 0.074l0.002-0.001-10.4 6.42v-21.61c0-0.276-0.224-0.5-0.5-0.5v0c-0.276 0-0.5 0.224-0.5 0.5v0 21.67l-9.9-6.47c-0.068-0.037-0.15-0.059-0.236-0.059-0.276 0-0.5 0.224-0.5 0.5 0 0.157 0.072 0.297 0.185 0.389l0.001 0.001z"></path>
</svg>
