<!-- Generated by IcoMoon.io -->
<svg version="1.1" xmlns="http://www.w3.org/2000/svg" width="32" height="32" viewBox="0 0 32 32">
<title>email</title>
<path fill="#09c" d="M21.3 11.090c0 0.005 0 0.011 0 0.017 0 0.923-0.292 1.778-0.789 2.477l0.009-0.013c-0.412 0.555-1.066 0.911-1.803 0.911-0.027 0-0.054-0-0.081-0.001l0.004 0c-0.041 0.004-0.090 0.007-0.138 0.007-0.679 0-1.251-0.46-1.419-1.086l-0.002-0.010c-0.207 0.334-0.479 0.609-0.8 0.814l-0.010 0.006c-0.264 0.167-0.585 0.268-0.929 0.27h-0.001c-0.021 0.001-0.046 0.002-0.071 0.002-0.561 0-1.053-0.298-1.325-0.745l-0.004-0.007c-0.249-0.448-0.395-0.982-0.395-1.551 0-0.191 0.016-0.377 0.048-0.559l-0.003 0.019c0.053-0.706 0.228-1.359 0.505-1.955l-0.014 0.035c0.233-0.527 0.573-0.969 0.994-1.315l0.006-0.005c0.354-0.295 0.809-0.478 1.307-0.49l0.003-0c0.010-0 0.022-0 0.034-0 0.324 0 0.635 0.051 0.928 0.146l-0.021-0.006c0.36 0.144 0.67 0.329 0.946 0.555l-0.006-0.005-0.34 3.61c-0.080 1 0.2 1.51 0.84 1.51 0.005 0 0.012 0 0.018 0 0.52 0 0.973-0.288 1.208-0.713l0.004-0.007c0.308-0.535 0.49-1.177 0.49-1.862 0-0.014-0-0.027-0-0.040l0 0.002c0.028-0.211 0.044-0.455 0.044-0.702 0-1.184-0.368-2.282-0.996-3.186l0.012 0.018c-0.721-0.825-1.775-1.343-2.949-1.343-0.113 0-0.225 0.005-0.335 0.014l0.014-0.001c-0.012-0-0.026-0-0.040-0-0.83 0-1.604 0.238-2.258 0.651l0.018-0.010c-0.697 0.464-1.244 1.102-1.589 1.852l-0.011 0.028c-0.39 0.826-0.63 1.792-0.66 2.81l-0 0.010c-0.011 0.146-0.018 0.315-0.018 0.487 0 0.83 0.149 1.625 0.423 2.36l-0.015-0.047c0.28 0.759 0.778 1.382 1.417 1.812l0.013 0.008c0.623 0.396 1.382 0.632 2.195 0.632 0.044 0 0.087-0.001 0.131-0.002l-0.006 0c0.401-0.008 0.786-0.058 1.157-0.147l-0.037 0.007c0.378-0.081 0.712-0.201 1.023-0.361l-0.023 0.011 0.24 0.74c-0.308 0.183-0.666 0.328-1.045 0.415l-0.025 0.005c-0.402 0.102-0.864 0.16-1.339 0.16-0.007 0-0.015 0-0.022-0h0.001c-0.042 0.001-0.092 0.002-0.143 0.002-0.981 0-1.898-0.272-2.681-0.745l0.023 0.013c-0.785-0.504-1.391-1.226-1.739-2.080l-0.011-0.030c-0.333-0.811-0.526-1.753-0.526-2.739 0-0.169 0.006-0.337 0.017-0.503l-0.001 0.023c0.033-1.193 0.328-2.31 0.83-3.305l-0.020 0.045c0.459-0.92 1.141-1.67 1.978-2.197l0.022-0.013c0.78-0.496 1.73-0.79 2.75-0.79 0 0 0 0 0 0h-0c0.045-0.001 0.099-0.002 0.152-0.002 0.971 0 1.878 0.272 2.65 0.745l-0.022-0.013c0.78 0.496 1.378 1.217 1.71 2.071l0.010 0.029c0.323 0.8 0.511 1.729 0.511 2.701 0 0.197-0.008 0.392-0.023 0.585l0.002-0.026zM14.62 11.64c-0.021 0.123-0.034 0.264-0.034 0.409 0 0.366 0.079 0.714 0.22 1.027l-0.006-0.016c0.144 0.293 0.441 0.491 0.783 0.491 0.016 0 0.033-0 0.049-0.001l-0.002 0c0.295-0.010 0.558-0.134 0.75-0.33l0-0c0.268-0.274 0.474-0.609 0.595-0.982l0.005-0.018v-0.060l0.3-3.27c-0.224-0.12-0.491-0.19-0.774-0.19-0.006 0-0.011 0-0.017 0h0.001c-0.541 0.017-1.008 0.32-1.256 0.762l-0.004 0.008c-0.356 0.626-0.578 1.369-0.61 2.161l-0 0.009z"></path>
<path fill="#003359" d="M31.88 15.77c0.002-0.012 0.004-0.026 0.004-0.040s-0.001-0.028-0.004-0.041l0 0.001c-0.014-0.034-0.031-0.064-0.051-0.091l0.001 0.001v-0.070l-0.080-0.060h-0.16c-0.017-0.003-0.036-0.004-0.055-0.004s-0.038 0.002-0.057 0.005l0.002-0h-0.17l-2.31 0.67v-13.89c-0.006-0.274-0.226-0.494-0.499-0.5h-25.191c-0.274 0.006-0.494 0.226-0.5 0.499v13.811l-2-0.68h-0.34c-0.036 0.011-0.067 0.032-0.090 0.060l-0 0h-0.070v0.070c-0.002 0.014-0.002 0.029-0.002 0.045s0.001 0.031 0.003 0.047l-0-0.002c-0.002 0.012-0.004 0.026-0.004 0.040s0.001 0.028 0.004 0.041l-0-0.001c-0.002 0.012-0.003 0.026-0.003 0.040s0.001 0.028 0.004 0.041l-0-0.001v15c0 0.276 0.224 0.5 0.5 0.5v0h30.59c0.276 0 0.5-0.224 0.5-0.5v0-14.91s-0.020-0.050-0.020-0.080zM3.81 2.75h24.19v13.73l-12 4.12-12.19-4.2zM1.16 30.3v-13.75l14.71 5.050c0.024 0.005 0.052 0.008 0.080 0.008s0.056-0.003 0.083-0.008l-0.003 0c0.024 0.005 0.052 0.007 0.080 0.007s0.056-0.003 0.083-0.008l-0.003 0 14.71-5.050v13.75z"></path>
</svg>
