<!-- Generated by IcoMoon.io -->
<svg version="1.1" xmlns="http://www.w3.org/2000/svg" width="32" height="32" viewBox="0 0 32 32">
<title>envelope</title>
<path fill="#003359" d="M31.35 26.61h-30.74c-0.276 0-0.5-0.224-0.5-0.5v0-14.95c0-0.276 0.224-0.5 0.5-0.5v0c0.276 0 0.5 0.224 0.5 0.5v0 14.45h29.74v-14.45c0-0.276 0.224-0.5 0.5-0.5v0c0.276 0 0.5 0.224 0.5 0.5v0 15c-0.026 0.254-0.239 0.45-0.497 0.45-0.001 0-0.002 0-0.003 0h0z"></path>
<path fill="#003359" d="M16 18.61c-0.123-0-0.235-0.046-0.321-0.12l0.001 0-15.55-13.35c-0.107-0.092-0.175-0.228-0.175-0.38 0-0.274 0.221-0.497 0.495-0.5h31c0.002-0 0.003-0 0.005-0 0.276 0 0.5 0.224 0.5 0.5 0 0.152-0.068 0.288-0.174 0.379l-0.001 0.001-15.5 13.35c-0.076 0.065-0.172 0.108-0.278 0.12l-0.002 0zM1.8 5.26l14.2 12.19 14.11-12.19z"></path>
</svg>
