<!-- Generated by IcoMoon.io -->
<svg version="1.1" xmlns="http://www.w3.org/2000/svg" width="32" height="32" viewBox="0 0 32 32">
<title>excel</title>
<path fill="#217346" d="M28.43 6.42h-8.65v1.58h2.55v2.54h-2.55v0.81h2.55v2.55h-2.55v0.83h2.55v2.4h-2.55v1h2.55v2.37h-2.55v1h2.55v2.42h-2.55v1.76h8.65c0.14 0 0.26-0.2 0.35-0.48 0.076-0.203 0.127-0.439 0.14-0.684l0-0.006v-17.79c0-0.14-0.050-0.23-0.14-0.25-0.053-0.009-0.113-0.014-0.175-0.014s-0.122 0.005-0.181 0.014l0.006-0.001zM27.31 23.87h-4.15v-2.41h4.15v2.42zM27.31 20.5h-4.15v-2.41h4.15zM27.31 17.13h-4.15v-2.39h4.15v2.39zM27.31 13.9h-4.15v-2.53h4.15v2.53zM27.31 10.54h-4.15v-2.54h4.15v2.51zM3.080 6v20l15.24 2.64v-25.32l-15.24 2.68zM12.080 21.15c-0.060-0.16-0.33-0.83-0.82-2s-0.77-1.86-0.86-2.060v0l-1.62 3.91-2.18-0.16 2.59-4.84-2.38-4.84 2.19-0.16 1.47 3.79 1.67-4 2.3-0.15-2.67 5.36 2.82 5.35-2.47-0.14z"></path>
</svg>
