<svg id="Layer_1" data-name="Layer 1" xmlns="http://www.w3.org/2000/svg" viewBox="0 0 32 32"><defs><style>.cls-1{fill:#003359;}.cls-2{fill:#09c;}</style></defs><path class="cls-1" d="M16,1A15,15,0,1,1,1,16,15,15,0,0,1,16,1m0-1h0A16,16,0,0,0,0,16H0A16,16,0,0,0,16,32h0A16,16,0,0,0,32,16h0A16,16,0,0,0,16,0Z"/><path class="cls-2" d="M14.87,24.41a1.4,1.4,0,0,1,.36-1A1.34,1.34,0,0,1,16.29,23a1.36,1.36,0,0,1,1.07.41,1.53,1.53,0,0,1,0,2,1.39,1.39,0,0,1-1.07.38,1.36,1.36,0,0,1-1.06-.38A1.39,1.39,0,0,1,14.87,24.41Zm2.44-4.15H15.13L15,6.67h2.53Z"/></svg>