<!-- Generated by IcoMoon.io -->
<svg version="1.1" xmlns="http://www.w3.org/2000/svg" width="32" height="32" viewBox="0 0 32 32">
<title>exclimation</title>
<path fill="#003359" d="M13.61 29.71c-0.001-0.021-0.001-0.046-0.001-0.071 0-0.61 0.228-1.168 0.603-1.591l-0.002 0.003c0.409-0.418 0.979-0.677 1.609-0.677 0.064 0 0.127 0.003 0.189 0.008l-0.008-0.001c0.048-0.004 0.105-0.006 0.162-0.006 0.636 0 1.212 0.258 1.628 0.676l0 0c0.379 0.424 0.611 0.987 0.611 1.603 0 0.020-0 0.040-0.001 0.060l0-0.003c0.001 0.020 0.001 0.044 0.001 0.067 0 0.607-0.232 1.16-0.613 1.575l0.002-0.002c-0.425 0.405-1.001 0.655-1.636 0.655-0.054 0-0.108-0.002-0.161-0.005l0.007 0c-0.067 0.007-0.146 0.012-0.225 0.012-1.193 0-2.16-0.967-2.16-2.16 0-0.050 0.002-0.099 0.005-0.148l-0 0.007zM17.69 22.76h-3.64l-0.29-22.76h4.24z"></path>
</svg>
