<!-- Generated by IcoMoon.io -->
<svg version="1.1" xmlns="http://www.w3.org/2000/svg" width="32" height="32" viewBox="0 0 32 32">
<title>exclimatino-circle</title>
<path fill="#003359" d="M16 1c8.284 0 15 6.716 15 15s-6.716 15-15 15c-8.284 0-15-6.716-15-15v0c0-8.284 6.716-15 15-15v0zM16 0v0c-8.837 0-16 7.163-16 16v0 0c0 8.837 7.163 16 16 16v0 0c8.837 0 16-7.163 16-16v0 0c0-8.837-7.163-16-16-16v0z"></path>
<path fill="#09c" d="M14.87 24.41c-0.001-0.018-0.001-0.040-0.001-0.061 0-0.362 0.137-0.691 0.362-0.94l-0.001 0.001c0.244-0.255 0.588-0.413 0.968-0.413 0.032 0 0.065 0.001 0.096 0.003l-0.004-0c0.028-0.002 0.061-0.003 0.094-0.003 0.383 0 0.729 0.158 0.976 0.413l0 0c0.231 0.267 0.372 0.617 0.372 1s-0.141 0.733-0.374 1.002l0.002-0.002c-0.249 0.238-0.587 0.384-0.96 0.384-0.039 0-0.077-0.002-0.115-0.005l0.005 0c-0.034 0.003-0.073 0.005-0.112 0.005-0.369 0-0.703-0.147-0.948-0.385l0 0c-0.224-0.246-0.362-0.574-0.362-0.935 0-0.023 0.001-0.046 0.002-0.068l-0 0.003zM17.31 20.26h-2.18l-0.13-13.59h2.53z"></path>
</svg>
