<!-- Generated by IcoMoon.io -->
<svg version="1.1" xmlns="http://www.w3.org/2000/svg" width="32" height="32" viewBox="0 0 32 32">
<title>export</title>
<path fill="#003359" d="M16.27 20.8c-0.276 0-0.5 0.224-0.5 0.5v0 4.6h-14.77v-21.55h14.77v4.72c0 0.276 0.224 0.5 0.5 0.5v0c0.276 0 0.5-0.224 0.5-0.5v0-5.22c0-0.276-0.224-0.5-0.5-0.5v0h-15.77c-0.276 0-0.5 0.224-0.5 0.5v0 22.55c0 0.276 0.224 0.5 0.5 0.5v0h15.77c0.274-0.006 0.494-0.226 0.5-0.499v-5.101c0-0.276-0.224-0.5-0.5-0.5v0z"></path>
<path fill="#003359" d="M31.93 15.16l-6.93-11.16c-0.090-0.143-0.246-0.236-0.425-0.236-0.098 0-0.19 0.028-0.267 0.077l0.002-0.001c-0.141 0.092-0.233 0.249-0.233 0.428 0 0.097 0.027 0.187 0.074 0.264l-0.001-0.002 6.45 10.37h-21.6c-0.276 0-0.5 0.224-0.5 0.5v0c0.005 0.274 0.226 0.495 0.499 0.5h21.571l-6.42 9.83c-0.051 0.077-0.082 0.172-0.082 0.274 0 0.172 0.087 0.325 0.22 0.414l0.002 0.001c0.078 0.056 0.175 0.089 0.28 0.090h0c0.175-0.002 0.329-0.092 0.419-0.228l0.001-0.002 6.93-10.61c0.050-0.067 0.081-0.152 0.081-0.244 0-0.009-0-0.018-0.001-0.027l0 0.001c-0.002-0.089-0.028-0.172-0.071-0.242l0.001 0.002z"></path>
</svg>
