<!-- Generated by IcoMoon.io -->
<svg version="1.1" xmlns="http://www.w3.org/2000/svg" width="32" height="32" viewBox="0 0 32 32">
<title>facebook</title>
<path fill="#1877f2" d="M31.91 16.1c0-0.002 0-0.003 0-0.005 0-8.837-7.163-16-16-16s-16 7.163-16 16c0 7.957 5.809 14.558 13.418 15.793l0.092 0.012v-11.18h-4.070v-4.62h4.070v-3.53c0-4 2.38-6.22 6-6.22 1.278 0.018 2.516 0.13 3.724 0.33l-0.144-0.020v3.94h-2c-0.090-0.012-0.194-0.020-0.3-0.020-1.276 0-2.31 1.034-2.31 2.31 0 0.074 0.003 0.147 0.010 0.219l-0.001-0.009v3h4.43l-0.71 4.62h-3.7v11.18c7.691-1.255 13.489-7.85 13.49-15.8v-0z"></path>
</svg>
