<!-- Generated by IcoMoon.io -->
<svg version="1.1" xmlns="http://www.w3.org/2000/svg" width="32" height="32" viewBox="0 0 32 32">
<title>glassdoor</title>
<path fill="#0caa41" d="M22.86 27.43h-18.29c0.006 2.522 2.048 4.564 4.569 4.57h13.721c2.522-0.006 4.564-2.048 4.57-4.569v-18.771c0-0.094-0.076-0.17-0.17-0.17v0h-4.26c-0 0-0 0-0 0-0.088 0-0.16 0.072-0.16 0.16 0 0.004 0 0.007 0 0.010l-0-0zM22.86 0c2.522 0.006 4.564 2.048 4.57 4.569v0.001h-18.29v18.77c0 0 0 0 0 0 0 0.090-0.070 0.164-0.16 0.17l-0 0h-4.24c-0.092-0.005-0.165-0.078-0.17-0.17l-0-0v-18.77c0.006-2.522 2.048-4.564 4.569-4.57h0.001z"></path>
</svg>
