<!-- Generated by IcoMoon.io -->
<svg version="1.1" xmlns="http://www.w3.org/2000/svg" width="32" height="32" viewBox="0 0 32 32">
<title>glasses</title>
<path fill="#09c" d="M10.74 5.56l-3.74 1.22c-0.138 0.039-0.247 0.138-0.299 0.267l-0.001 0.003-6.7 14.95c-0.038 0.069-0.060 0.152-0.060 0.24s0.022 0.171 0.061 0.243l-0.001-0.003c0.090 0.139 0.244 0.23 0.42 0.23h1.32c0.276 0 0.5-0.224 0.5-0.5v0c0-0.276-0.224-0.5-0.5-0.5v0h-0.47l6.28-14.050 3.5-1.15c0.203-0.063 0.347-0.249 0.347-0.469 0-0.058-0.010-0.113-0.028-0.165l0.001 0.003c-0.067-0.202-0.255-0.345-0.475-0.345-0.055 0-0.109 0.009-0.158 0.026l0.004-0.001z"></path>
<path fill="#09c" d="M32 22.070l-6.85-15.26c-0.068-0.137-0.189-0.239-0.336-0.279l-0.004-0.001-3.81-0.97c-0.040-0.012-0.086-0.018-0.133-0.018-0.231 0-0.425 0.16-0.476 0.375l-0.001 0.003c-0.008 0.034-0.013 0.073-0.013 0.114 0 0.235 0.162 0.432 0.38 0.485l0.003 0.001 3.59 0.92 6.4 14.34h-0.47c-0.276 0-0.5 0.224-0.5 0.5v0c0 0.276 0.224 0.5 0.5 0.5v0h1.22c0.176-0 0.33-0.091 0.419-0.228l0.001-0.002c0.067-0.086 0.108-0.195 0.108-0.314 0-0.060-0.010-0.117-0.029-0.17l0.001 0.004z"></path>
<path fill="#003359" d="M24.34 15.89c-0.009-0-0.019-0-0.029-0-3.324 0-6.049 2.561-6.31 5.818l-0.001 0.022h-4.1c-0.267-3.28-2.995-5.84-6.32-5.84-3.502 0-6.34 2.838-6.34 6.34s2.838 6.34 6.34 6.34c0 0 0 0 0 0v0c3.322-0.010 6.043-2.565 6.318-5.817l0.002-0.023h4.1c0.267 3.276 2.989 5.834 6.309 5.84h0.001c3.502 0 6.34-2.838 6.34-6.34s-2.838-6.34-6.34-6.34v0zM7.58 27.57c-2.945-0.006-5.33-2.394-5.33-5.34 0-2.949 2.391-5.34 5.34-5.34s5.34 2.391 5.34 5.34v0c-0.006 2.95-2.399 5.34-5.35 5.34 0 0 0 0 0 0v0zM24.34 27.57c-2.949 0-5.34-2.391-5.34-5.34s2.391-5.34 5.34-5.34c2.949 0 5.34 2.391 5.34 5.34v0c-0.006 2.947-2.393 5.334-5.339 5.34h-0.001z"></path>
</svg>
