<!-- Generated by IcoMoon.io -->
<svg version="1.1" xmlns="http://www.w3.org/2000/svg" width="32" height="32" viewBox="0 0 32 32">
<title>google</title>
<path fill="#4285f4" d="M16.32 13.71v5.49h9.070c-0.36 2.35-2.74 6.9-9.070 6.9-5.578 0-10.1-4.522-10.1-10.1s4.522-10.1 10.1-10.1v0c0.055-0.001 0.12-0.002 0.185-0.002 2.403 0 4.585 0.941 6.199 2.475l-0.004-0.004 4.3-4.19c-2.743-2.589-6.452-4.181-10.533-4.181-0.052 0-0.103 0-0.154 0.001l0.008-0c-8.837 0-16 7.163-16 16s7.163 16 16 16v0c9.23 0 15.36-6.49 15.36-15.64-0.002-0.938-0.093-1.854-0.265-2.741l0.015 0.091z"></path>
</svg>
