<!-- Generated by IcoMoon.io -->
<svg version="1.1" xmlns="http://www.w3.org/2000/svg" width="32" height="32" viewBox="0 0 32 32">
<title>government</title>
<path fill="#09c" d="M15.88 12.87c-0.274 0.005-0.495 0.226-0.5 0.499v8.631c-0.030 0.061-0.049 0.133-0.050 0.21v8.79c0 0.276 0.224 0.5 0.5 0.5v0c0.276 0 0.5-0.224 0.5-0.5v0-8.58c0.031-0.064 0.049-0.14 0.050-0.22v-8.83c0-0.276-0.224-0.5-0.5-0.5v0z"></path>
<path fill="#09c" d="M20.38 12.87c-0.276 0-0.5 0.224-0.5 0.5v0 8.37c-0.198 0.058-0.34 0.238-0.34 0.452 0 0.003 0 0.006 0 0.009v-0 8.8c0 0.276 0.224 0.5 0.5 0.5v0c0.276 0 0.5-0.224 0.5-0.5v0-8.33c0.196-0.071 0.335-0.254 0.34-0.469v-8.831c-0.006-0.274-0.226-0.495-0.499-0.5h-0.001z"></path>
<path fill="#09c" d="M24.86 12.87c-0.276 0-0.5 0.224-0.5 0.5v0 8.36c-0.017-0.002-0.036-0.003-0.055-0.003s-0.038 0.001-0.057 0.004l0.002-0c-0.276 0-0.5 0.224-0.5 0.5v0 8.77c0 0.276 0.224 0.5 0.5 0.5v0c0.276 0 0.5-0.224 0.5-0.5v0-8.32h0.11c0.276 0 0.5-0.224 0.5-0.5v0-8.81c-0.006-0.274-0.226-0.495-0.499-0.5h-0.001z"></path>
<path fill="#09c" d="M28.45 21.7c-0.276 0-0.5 0.224-0.5 0.5v0 8.8c0 0.276 0.224 0.5 0.5 0.5s0.5-0.224 0.5-0.5v0-8.8c0-0.276-0.224-0.5-0.5-0.5v0z"></path>
<path fill="#09c" d="M11.92 21.81v-8.44c-0.005-0.274-0.226-0.495-0.499-0.5h-0.001c-0.276 0-0.5 0.224-0.5 0.5v0 8.83c0 0.001 0 0.002 0 0.003 0 0.164 0.083 0.309 0.208 0.396l0.002 0.001v8.4c0 0.276 0.224 0.5 0.5 0.5v0c0.276 0 0.5-0.224 0.5-0.5v0-8.8c-0.006-0.161-0.087-0.302-0.209-0.389l-0.002-0.001z"></path>
<path fill="#09c" d="M7.44 21.71v-8.34c0-0.276-0.224-0.5-0.5-0.5s-0.5 0.224-0.5 0.5v0 8.83c0 0 0 0.001 0 0.001 0 0.266 0.207 0.483 0.469 0.499l0.001 0v8.3c0 0.276 0.224 0.5 0.5 0.5s0.5-0.224 0.5-0.5v0-8.8c0-0 0-0 0-0 0-0.264-0.208-0.479-0.469-0.49l-0.001-0z"></path>
<path fill="#09c" d="M3.21 21.7c-0.276 0-0.5 0.224-0.5 0.5v0 8.8c0 0.276 0.224 0.5 0.5 0.5v0c0.276 0 0.5-0.224 0.5-0.5v0-8.8c-0.006-0.274-0.226-0.494-0.499-0.5h-0.001z"></path>
<path fill="#003359" d="M30.25 31h-28.84c-0.276 0-0.5 0.224-0.5 0.5v0c0 0.276 0.224 0.5 0.5 0.5v0h28.84c0.274-0.006 0.494-0.226 0.5-0.499v-0.001c0-0.276-0.224-0.5-0.5-0.5v0z"></path>
<path fill="#003359" d="M1.41 22.7h28.84c0.276 0 0.5-0.224 0.5-0.5v0c-0.006-0.274-0.226-0.494-0.499-0.5h-28.841c-0.276 0-0.5 0.224-0.5 0.5v0c0 0.276 0.224 0.5 0.5 0.5v0z"></path>
<path fill="#003359" d="M5.27 13.46h21.39c0.276 0 0.5-0.224 0.5-0.5s-0.224-0.5-0.5-0.5v0h-4.24c0-0.81-0.55-7.65-6-8.060v0-3.95c-0.010-0.252-0.216-0.453-0.47-0.453-0.018 0-0.035 0.001-0.052 0.003l0.002-0c-0.276 0-0.5 0.224-0.5 0.5v0 4c-5.25 0.4-6 6.85-6.070 8.060h-4.060c-0.276 0-0.5 0.224-0.5 0.5s0.224 0.5 0.5 0.5v0zM15.92 5.36c5 0 5.46 6.19 5.5 7.1h-11.070c0.090-1.26 0.74-7.1 5.57-7.1z"></path>
</svg>
