<svg id="Layer_1" data-name="Layer 1" xmlns="http://www.w3.org/2000/svg" viewBox="0 0 32 32"><defs><style>.cls-1{fill:#09c;}.cls-2{fill:#003359;}</style></defs><path class="cls-1" d="M1.06,31.74A.5.5,0,0,1,.62,31l9.67-17.87a.49.49,0,0,1,.33-.25A.51.51,0,0,1,11,13l8.77,6.48L29.63,1.37a.5.5,0,1,1,.88.48L20.4,20.43a.49.49,0,0,1-.33.25.48.48,0,0,1-.4-.09L10.9,14.11,1.5,31.48A.52.52,0,0,1,1.06,31.74Z"/><path class="cls-2" d="M31.54,32H.46a.5.5,0,0,1-.5-.5V.48A.5.5,0,0,1,.46,0a.51.51,0,0,1,.5.5V31H31.54a.5.5,0,0,1,.5.5A.5.5,0,0,1,31.54,32Z"/></svg>