<!-- Generated by IcoMoon.io -->
<svg version="1.1" xmlns="http://www.w3.org/2000/svg" width="32" height="32" viewBox="0 0 32 32">
<title>graph-point</title>
<path fill="#003359" d="M2.9 28.5c-0.088-0.001-0.17-0.023-0.243-0.061l0.003 0.001c-0.155-0.084-0.258-0.246-0.258-0.431 0-0.092 0.025-0.177 0.069-0.251l-0.001 0.002 8.75-15.76c0.087-0.154 0.25-0.257 0.437-0.257 0.128 0 0.245 0.048 0.333 0.127l-0-0 8.29 7.48 8.45-15.29c0.077-0.183 0.255-0.309 0.462-0.309 0.276 0 0.5 0.224 0.5 0.5 0 0.109-0.035 0.209-0.093 0.291l0.001-0.002-8.75 15.8c-0.067 0.135-0.195 0.23-0.348 0.25l-0.002 0c-0.030 0.007-0.064 0.011-0.099 0.011-0.125 0-0.238-0.050-0.321-0.131l0 0-8.29-7.47-8.45 15.25c-0.088 0.151-0.249 0.25-0.433 0.25-0.002 0-0.005-0-0.007-0h0z"></path>
<path fill="#09c" d="M5.77 28c0 1.585-1.285 2.87-2.87 2.87s-2.87-1.285-2.87-2.87c0-1.585 1.285-2.87 2.87-2.87s2.87 1.285 2.87 2.87z"></path>
<path fill="#09c" d="M14.53 12.2c0 1.585-1.285 2.87-2.87 2.87s-2.87-1.285-2.87-2.87c0-1.585 1.285-2.87 2.87-2.87s2.87 1.285 2.87 2.87z"></path>
<path fill="#09c" d="M23.28 20.1c0 1.585-1.285 2.87-2.87 2.87s-2.87-1.285-2.87-2.87c0-1.585 1.285-2.87 2.87-2.87s2.87 1.285 2.87 2.87z"></path>
<path fill="#09c" d="M32.040 4.3c0 1.585-1.285 2.87-2.87 2.87s-2.87-1.285-2.87-2.87c0-1.585 1.285-2.87 2.87-2.87s2.87 1.285 2.87 2.87z"></path>
</svg>
