<!-- Generated by IcoMoon.io -->
<svg version="1.1" xmlns="http://www.w3.org/2000/svg" width="32" height="32" viewBox="0 0 32 32">
<title>graph-line</title>
<path fill="#09c" d="M1.060 31.74c-0 0-0.001 0-0.001 0-0.276 0-0.5-0.224-0.5-0.5 0-0.088 0.023-0.171 0.063-0.243l-0.001 0.003 9.67-17.87c0.068-0.126 0.186-0.218 0.327-0.249l0.003-0.001c0.015-0.001 0.031-0.002 0.049-0.002 0.127 0 0.243 0.046 0.332 0.123l-0.001-0.001 8.77 6.48 9.86-18.11c0.087-0.157 0.251-0.261 0.44-0.261 0.277 0 0.501 0.224 0.501 0.501 0 0.088-0.023 0.171-0.063 0.243l0.001-0.003-10.11 18.58c-0.068 0.126-0.186 0.218-0.327 0.249l-0.003 0.001c-0.031 0.007-0.068 0.012-0.105 0.012-0.112 0-0.215-0.038-0.296-0.102l0.001 0.001-8.77-6.48-9.4 17.37c-0.090 0.154-0.253 0.256-0.439 0.26h-0.001z"></path>
<path fill="#003359" d="M31.54 32h-31.080c-0.276 0-0.5-0.224-0.5-0.5v0-31.020c0.011-0.267 0.231-0.48 0.5-0.48 0 0 0 0 0 0h-0c0.274 0.005 0.494 0.226 0.5 0.499v30.501h30.58c0.276 0 0.5 0.224 0.5 0.5v0c0 0.276-0.224 0.5-0.5 0.5v0z"></path>
</svg>
