<svg id="Layer_1" data-name="Layer 1" xmlns="http://www.w3.org/2000/svg" viewBox="0 0 32 32"><defs><style>.cls-1{fill:#003359;}.cls-2{fill:#09c;}</style></defs><path class="cls-1" d="M2.9,28.5a.53.53,0,0,1-.24-.06.49.49,0,0,1-.19-.68L11.22,12a.5.5,0,0,1,.77-.13l8.29,7.48L28.73,4.06a.5.5,0,1,1,.87.48l-8.75,15.8a.45.45,0,0,1-.35.25.46.46,0,0,1-.42-.12L11.79,13,3.34,28.25A.5.5,0,0,1,2.9,28.5Z"/><circle class="cls-2" cx="2.9" cy="28" r="2.87"/><circle class="cls-2" cx="11.66" cy="12.2" r="2.87"/><circle class="cls-2" cx="20.41" cy="20.1" r="2.87"/><circle class="cls-2" cx="29.17" cy="4.3" r="2.87"/></svg>