<!-- Generated by IcoMoon.io -->
<svg version="1.1" xmlns="http://www.w3.org/2000/svg" width="32" height="32" viewBox="0 0 32 32">
<title>guage</title>
<path fill="#09c" d="M16 6.91c-2.95 0.004-5.71 0.814-8.073 2.22l0.073-0.040c-0.114 0.008-0.215 0.056-0.29 0.13l0-0c-0.025 0.022-0.045 0.049-0.059 0.079l-0.001 0.001c-2.067 1.29-3.774 2.965-5.062 4.938l-0.038 0.062c-0.023 0.018-0.042 0.037-0.059 0.059l-0.001 0.001v0.12c-1.543 2.386-2.468 5.298-2.49 8.424l-0 0.006c0 0.276 0.224 0.5 0.5 0.5v0h3.79c0.276 0 0.5-0.224 0.5-0.5v0c0-0.276-0.224-0.5-0.5-0.5v0h-3.29c0.078-2.59 0.811-4.992 2.038-7.069l-0.038 0.069 2.5 1.73c0.078 0.055 0.175 0.088 0.279 0.090h0c0.008 0 0.018 0.001 0.028 0.001 0.179 0 0.337-0.091 0.431-0.229l0.001-0.002c0.054-0.080 0.086-0.178 0.086-0.283 0-0.171-0.085-0.323-0.214-0.416l-0.002-0.001-2.54-1.77c1.182-1.722 2.658-3.15 4.369-4.244l0.061-0.036 2.27 2.36c0.088 0.093 0.211 0.15 0.349 0.15 0.004 0 0.008-0 0.012-0h-0.001c0.002 0 0.003 0 0.005 0 0.131 0 0.249-0.054 0.335-0.14l0-0c0.091-0.089 0.147-0.213 0.147-0.35s-0.056-0.261-0.147-0.35l-0-0-2.11-2.2c1.92-1.059 4.195-1.713 6.617-1.789l0.023-0.001v2.7c0 0.276 0.224 0.5 0.5 0.5s0.5-0.224 0.5-0.5v0-2.7c2.441 0.078 4.713 0.732 6.707 1.829l-0.077-0.039-2.21 2.14c-0.094 0.091-0.153 0.219-0.153 0.36 0 0.276 0.224 0.5 0.5 0.5 0.001 0 0.002 0 0.003 0h-0c0.135-0.003 0.258-0.056 0.35-0.14l-0 0 2.38-2.34c1.757 1.129 3.223 2.549 4.367 4.209l0.033 0.051-2.59 1.78c-0.131 0.093-0.216 0.245-0.216 0.417 0 0.106 0.032 0.204 0.087 0.285l-0.001-0.002c0.094 0.133 0.247 0.218 0.42 0.22h0c0.105-0.002 0.202-0.035 0.282-0.091l-0.002 0.001 2.56-1.77c1.2 2.028 1.934 4.456 2 7.051l0 0.019h-2.8c-0.276 0-0.5 0.224-0.5 0.5v0c0 0.276 0.224 0.5 0.5 0.5v0h3.36c0.276 0 0.5-0.224 0.5-0.5v0c0-8.837-7.163-16-16-16v0z"></path>
<path fill="#003359" d="M23.22 15.8c-0.088-0.093-0.212-0.152-0.35-0.152s-0.262 0.058-0.35 0.151l-0 0-4.28 4.28c-0.403-0.322-0.918-0.517-1.479-0.52h-0.001c-1.342 0-2.43 1.088-2.43 2.43s1.088 2.43 2.43 2.43c1.339 0 2.424-1.082 2.43-2.419v-0.001c0-0 0-0.001 0-0.001 0-0.422-0.111-0.818-0.306-1.16l0.006 0.012 4.33-4.33c0.094-0.091 0.153-0.219 0.153-0.36s-0.059-0.269-0.153-0.36l-0-0zM18.22 21.99c0 0.79-0.64 1.43-1.43 1.43s-1.43-0.64-1.43-1.43c0-0.79 0.64-1.43 1.43-1.43v0c0.286 0.003 0.552 0.088 0.776 0.233l-0.006-0.003-1 1c-0.089 0.092-0.144 0.217-0.144 0.355s0.055 0.263 0.144 0.355l-0-0c0.090 0.087 0.212 0.14 0.347 0.14 0.005 0 0.009-0 0.014-0h-0.001c0.005 0 0.010 0 0.015 0 0.131 0 0.25-0.054 0.335-0.14l0.88-0.88c0.026 0.095 0.042 0.204 0.042 0.317 0 0.022-0.001 0.044-0.002 0.066l0-0.003z"></path>
</svg>
