<!-- Generated by IcoMoon.io -->
<svg version="1.1" xmlns="http://www.w3.org/2000/svg" width="32" height="32" viewBox="0 0 32 32">
<title>gym</title>
<path fill="#003359" d="M30.21 9.6h-0.87c-0.292 0-0.567 0.070-0.81 0.195l0.010-0.005v-0.56c0-0.989-0.801-1.79-1.79-1.79v0h-0.87c-0.989 0-1.79 0.801-1.79 1.79v0 4.27h-16.18v-4.27c0-0.989-0.801-1.79-1.79-1.79h-0.87c-0.989 0-1.79 0.801-1.79 1.79v0 0.56c-0.233-0.12-0.508-0.19-0.8-0.19h-0.87c-0.989 0-1.79 0.801-1.79 1.79v0 8.72c0 0.989 0.801 1.79 1.79 1.79v0h0.87c0.292-0 0.567-0.070 0.81-0.195l-0.010 0.005v0.56c0 0.989 0.801 1.79 1.79 1.79v0h0.87c0.989 0 1.79-0.801 1.79-1.79v0-4.27h16.18v4.27c0 0.989 0.801 1.79 1.79 1.79v0h0.87c0.989 0 1.79-0.801 1.79-1.79v0-0.56c0.233 0.12 0.508 0.19 0.8 0.19h0.87c0.989 0 1.79-0.801 1.79-1.79v-8.72c0-0.989-0.801-1.79-1.79-1.79v0zM2.66 20.9h-0.87c-0.436 0-0.79-0.354-0.79-0.79v0-8.72c0.006-0.434 0.356-0.784 0.789-0.79h0.871c0 0 0 0 0 0 0.438 0 0.794 0.352 0.8 0.789v8.721c0 0 0 0 0 0 0 0.436-0.354 0.79-0.79 0.79-0.004 0-0.007-0-0.011-0h0.001zM6.91 22.27c0 0.436-0.354 0.79-0.79 0.79h-0.87c-0.436 0-0.79-0.354-0.79-0.79v0-13c0-0.436 0.354-0.79 0.79-0.79v0h0.87c0.436 0 0.79 0.354 0.79 0.79v0zM7.91 17v-2.5h16.18v2.5zM27.54 22.27c0 0.436-0.354 0.79-0.79 0.79v0h-0.87c-0.436 0-0.79-0.354-0.79-0.79v0-13c0-0.436 0.354-0.79 0.79-0.79v0h0.87c0.436 0 0.79 0.354 0.79 0.79v0 13zM31 20.11c0 0.436-0.354 0.79-0.79 0.79v0h-0.87c-0.003 0-0.006 0-0.010 0-0.436 0-0.79-0.354-0.79-0.79 0-0 0-0 0-0v0-8.72c0.006-0.438 0.362-0.79 0.8-0.79 0 0 0 0 0 0h0.87c0.434 0.006 0.784 0.356 0.79 0.789v0.001z"></path>
</svg>
