<!-- Generated by IcoMoon.io -->
<svg version="1.1" xmlns="http://www.w3.org/2000/svg" width="32" height="32" viewBox="0 0 32 32">
<title>heart-beat</title>
<path fill="#09c" d="M16.27 21.46v0c-0.215-0.011-0.394-0.152-0.459-0.346l-0.001-0.004-2.46-7.43-1.59 3.73c-0.081 0.177-0.256 0.298-0.46 0.3h-3.75c-0.276 0-0.5-0.224-0.5-0.5v0c0-0.276 0.224-0.5 0.5-0.5v0h3.45l2-4.64c0.076-0.178 0.25-0.301 0.452-0.301 0.010 0 0.020 0 0.029 0.001l-0.001-0c0.211 0.004 0.389 0.144 0.449 0.337l0.001 0.003 2.44 7.37 2.33-6c0.073-0.175 0.235-0.3 0.428-0.32l0.002-0c0.013-0.001 0.027-0.002 0.042-0.002 0.183 0 0.343 0.101 0.427 0.249l0.001 0.002 1.75 3.090h10.15c0.276 0 0.5 0.224 0.5 0.5v0c0 0.276-0.224 0.5-0.5 0.5v0h-10.5c-0.004 0-0.008 0-0.013 0-0.183 0-0.342-0.1-0.426-0.248l-0.001-0.002-1.37-2.42-2.45 6.32c-0.080 0.184-0.26 0.31-0.469 0.31-0 0-0.001 0-0.001 0h0z"></path>
<path fill="#003359" d="M14.82 30.7c-0.002 0-0.004 0-0.006 0-0.136 0-0.258-0.058-0.344-0.15l-0-0-12.090-12.090c-1.451-1.474-2.346-3.497-2.346-5.73s0.896-4.256 2.347-5.731l0.109-0.109c1.477-1.485 3.521-2.404 5.78-2.404 2.234 0 4.258 0.899 5.731 2.355l0.819 0.819 0.83-0.82c1.472-1.47 3.505-2.378 5.75-2.378s4.278 0.909 5.75 2.378l-0-0 0.12 0.13c1.463 1.473 2.367 3.502 2.367 5.743 0 0.444-0.035 0.879-0.104 1.303l0.006-0.047c-0.038 0.245-0.247 0.431-0.5 0.431-0.279 0-0.506-0.226-0.506-0.506 0-0.026 0.002-0.052 0.006-0.078l-0 0.003c0.056-0.337 0.088-0.725 0.088-1.12 0-1.971-0.798-3.757-2.088-5.050l0 0-0.12-0.13c-1.292-1.284-3.073-2.078-5.040-2.078s-3.748 0.794-5.040 2.079l0-0-1.16 1.2c-0.091 0.091-0.216 0.148-0.355 0.148s-0.264-0.057-0.355-0.148l-1.18-1.18c-1.293-1.287-3.076-2.083-5.045-2.083s-3.752 0.796-5.045 2.084l0-0-0.11 0.12c-1.287 1.293-2.083 3.076-2.083 5.045s0.796 3.752 2.084 5.045l11.73 11.74 9.65-9.65c0.091-0.091 0.216-0.148 0.355-0.148s0.264 0.057 0.355 0.148l0 0c0.089 0.092 0.144 0.217 0.144 0.355s-0.055 0.263-0.144 0.355l-10 10c-0.089 0.093-0.214 0.15-0.353 0.15-0.002 0-0.005-0-0.007-0h0z"></path>
</svg>
