<!-- Generated by IcoMoon.io -->
<svg version="1.1" xmlns="http://www.w3.org/2000/svg" width="32" height="32" viewBox="0 0 32 32">
<title>heart</title>
<path fill="#09c" d="M20.24 15.13h-3.72v-3.73c0-0.276-0.224-0.5-0.5-0.5v0c-0.274 0.005-0.495 0.226-0.5 0.499v3.731h-3.72c-0.276 0-0.5 0.224-0.5 0.5s0.224 0.5 0.5 0.5v0h3.72v3.72c0 0.276 0.224 0.5 0.5 0.5v0c0.276 0 0.5-0.224 0.5-0.5v0-3.72h3.72c0.276 0 0.5-0.224 0.5-0.5s-0.224-0.5-0.5-0.5v0z"></path>
<path fill="#003359" d="M29.44 5.17l-0.13-0.17c-1.585-1.586-3.776-2.567-6.195-2.567s-4.61 0.981-6.195 2.566v0l-0.92 1-0.92-1c-1.585-1.586-3.776-2.567-6.195-2.567s-4.61 0.981-6.195 2.566v0l-0.13 0.12c-1.581 1.588-2.558 3.777-2.558 6.195s0.977 4.607 2.559 6.195l-0-0 13.090 13.13c0.088 0.093 0.212 0.152 0.35 0.152s0.262-0.058 0.35-0.151l0-0 13.090-13.090c1.583-1.585 2.562-3.773 2.562-6.19s-0.979-4.605-2.562-6.19l0 0zM28.72 16.85l-12.72 12.73-12.73-12.73c-1.405-1.409-2.273-3.353-2.273-5.5s0.869-4.091 2.273-5.5l0.13-0.13c1.407-1.41 3.352-2.282 5.5-2.282s4.093 0.872 5.5 2.281l0 0 1.25 1.28c0.090 0.088 0.214 0.143 0.35 0.143s0.26-0.055 0.35-0.143l1.28-1.28c1.407-1.41 3.352-2.282 5.5-2.282s4.093 0.872 5.5 2.281l0 0 0.13 0.14c1.414 1.404 2.29 3.35 2.29 5.5s-0.875 4.096-2.289 5.5l-0 0z"></path>
</svg>
