<!-- Generated by IcoMoon.io -->
<svg version="1.1" xmlns="http://www.w3.org/2000/svg" width="32" height="32" viewBox="0 0 32 32">
<title>hear</title>
<path fill="#003359" d="M25.76 26.87c-0.356-1.3-1.031-2.413-1.938-3.288l-0.002-0.002c-0.876-0.916-1.994-1.593-3.251-1.929l-0.049-0.011c-0.284-0.096-0.61-0.152-0.95-0.152-0.79 0-1.511 0.301-2.053 0.794l0.002-0.002c-0.025 0.029-0.049 0.062-0.068 0.097l-0.002 0.003-0.1 0.070c-1.22 1.22-4 0.5-6.050-1.57s-2.78-4.83-1.57-6c0.025-0.029 0.049-0.062 0.068-0.097l0.002-0.003 0.1-0.070c1.4-1.4 0.83-4.16-1.29-6.29s-4.87-2.73-6.27-1.33c0 0 0 0 0 0v0c-4 4-2.12 12.34 4.16 18.61 2.651 2.805 6.031 4.893 9.838 5.964l0.152 0.036c0.874 0.213 1.88 0.34 2.914 0.35l0.006 0c0.082 0.003 0.178 0.005 0.275 0.005 2.062 0 3.935-0.809 5.318-2.128l-0.003 0.003s0 0 0 0h0.050c0.526-0.557 0.849-1.311 0.849-2.139 0-0.329-0.051-0.645-0.145-0.943l0.006 0.022zM16.76 30.72c-3.786-1.027-7.025-2.996-9.563-5.643l-0.007-0.007c-5.94-5.89-7.81-13.61-4.19-17.2 0 0 0 0 0 0s0 0 0 0c1-1 3.2-0.38 4.87 1.29s2.31 3.84 1.34 4.84c-0.022 0.029-0.042 0.062-0.059 0.097l-0.001 0.003c-0.043 0.024-0.079 0.047-0.113 0.072l0.003-0.002c-1.65 1.65-1 4.93 1.57 7.46 1.050 1.088 2.383 1.897 3.88 2.306l0.060 0.014c0.353 0.084 0.759 0.135 1.177 0.14l0.003 0c0.039 0.002 0.085 0.003 0.131 0.003 0.859 0 1.638-0.34 2.21-0.894l-0.001 0.001c0.025-0.029 0.049-0.062 0.068-0.097l0.002-0.003 0.1-0.070c0.369-0.307 0.848-0.494 1.371-0.494 0.247 0 0.484 0.042 0.704 0.118l-0.015-0.005c1.111 0.31 2.061 0.891 2.808 1.668l0.002 0.002c0.786 0.748 1.369 1.703 1.66 2.778l0.010 0.042c0.066 0.197 0.105 0.424 0.105 0.66 0 0.51-0.179 0.978-0.478 1.344l0.003-0.004v0.050s0 0 0 0c-1.78 1.75-4.49 2.28-7.7 1.53z"></path>
<path fill="#09c" d="M25 19.11c-0.252-0.002-0.46-0.186-0.5-0.427l-0-0.003c0-0.050-0.73-5.11-3.61-8.15s-7.67-3.2-7.72-3.2c-0.276 0-0.5-0.224-0.5-0.5s0.224-0.5 0.5-0.5v0 0c0.22 0 5.27 0.2 8.42 3.51s3.84 8.48 3.87 8.7c0.004 0.023 0.006 0.049 0.006 0.076 0 0.25-0.183 0.457-0.423 0.494l-0.003 0z"></path>
<path fill="#09c" d="M31.22 19.11c-0.001 0-0.002 0-0.004 0-0.249 0-0.455-0.186-0.486-0.428l-0-0.002c0-0.080-1.2-8.19-5.61-12.78-3.89-4.050-11.66-4.85-11.74-4.85-0.255-0.026-0.453-0.24-0.453-0.5 0-0.278 0.225-0.502 0.502-0.502 0.018 0 0.035 0.001 0.052 0.003l-0.002-0c0.34 0 8.22 0.84 12.36 5.15 4.64 4.84 5.83 13 5.88 13.34 0.002 0.017 0.003 0.037 0.003 0.057 0 0.256-0.186 0.47-0.43 0.512l-0.003 0z"></path>
</svg>
