<svg id="Layer_1" data-name="Layer 1" xmlns="http://www.w3.org/2000/svg" viewBox="0 0 32 32"><defs><style>.cls-1{fill:#09c;}.cls-2{fill:#003359;}</style></defs><path class="cls-1" d="M16.27,21.46h0a.51.51,0,0,1-.46-.35l-2.46-7.43-1.59,3.73a.51.51,0,0,1-.46.3H7.55a.5.5,0,0,1-.5-.5.5.5,0,0,1,.5-.5H11l2-4.64a.49.49,0,0,1,.48-.3.48.48,0,0,1,.45.34l2.44,7.37,2.33-6a.52.52,0,0,1,.43-.32.49.49,0,0,1,.47.25l1.75,3.09H31.5a.5.5,0,0,1,.5.5.5.5,0,0,1-.5.5H21a.49.49,0,0,1-.44-.25l-1.37-2.42-2.45,6.32A.51.51,0,0,1,16.27,21.46Z"/><path class="cls-2" d="M14.82,30.7a.47.47,0,0,1-.35-.15L2.38,18.46A8.17,8.17,0,0,1,2.38,7l.11-.11A8.15,8.15,0,0,1,14,6.84l.82.82.83-.82a8.14,8.14,0,0,1,11.5,0l.12.13a8.15,8.15,0,0,1,2.27,7,.5.5,0,0,1-1-.15,7.15,7.15,0,0,0-2-6.17l-.12-.13a7.15,7.15,0,0,0-10.08,0L15.18,8.72a.5.5,0,0,1-.71,0L13.29,7.54a7.15,7.15,0,0,0-10.09,0l-.11.12a7.15,7.15,0,0,0,0,10.09L14.82,29.49l9.65-9.65a.5.5,0,0,1,.71,0,.51.51,0,0,1,0,.71l-10,10A.49.49,0,0,1,14.82,30.7Z"/></svg>