<!-- Generated by IcoMoon.io -->
<svg version="1.1" xmlns="http://www.w3.org/2000/svg" width="32" height="32" viewBox="0 0 32 32">
<title>home</title>
<path fill="#09c" d="M18.060 22.42c0-0.017 0.001-0.036 0.001-0.056 0-0.61-0.245-1.162-0.641-1.565l0 0c-0.596-0.522-1.312-0.924-2.1-1.16l-0.040-0.010c-1.411-0.425-2.631-1.112-3.662-2.010l0.012 0.010c-0.729-0.756-1.178-1.786-1.178-2.921 0-0.091 0.003-0.182 0.009-0.271l-0.001 0.012c-0.002-0.046-0.003-0.099-0.003-0.153 0-1.155 0.446-2.206 1.175-2.989l-0.002 0.003c0.813-0.828 1.916-1.37 3.144-1.459l0.016-0.001v-2.52h1.83v2.53c1.248 0.147 2.328 0.767 3.074 1.672l0.006 0.008c0.697 0.943 1.116 2.128 1.116 3.411 0 0.095-0.002 0.189-0.007 0.282l0-0.013h-2.81c0.005-0.071 0.008-0.153 0.008-0.237 0-0.785-0.242-1.514-0.656-2.116l0.008 0.013c-0.392-0.536-1.018-0.881-1.725-0.881-0.023 0-0.045 0-0.068 0.001l0.003-0c-0.044-0.003-0.095-0.005-0.146-0.005-0.624 0-1.192 0.241-1.615 0.636l0.001-0.001c-0.369 0.409-0.595 0.954-0.595 1.551 0 0.052 0.002 0.104 0.005 0.156l-0-0.007c-0.003 0.041-0.004 0.090-0.004 0.139 0 0.596 0.238 1.137 0.625 1.532l-0-0c0.619 0.521 1.358 0.923 2.168 1.159l0.042 0.011c1.393 0.442 2.597 1.126 3.623 2.011l-0.013-0.011c0.729 0.75 1.178 1.775 1.178 2.904 0 0.090-0.003 0.179-0.008 0.268l0.001-0.012c0.005 0.076 0.008 0.166 0.008 0.255 0 1.136-0.449 2.167-1.179 2.926l0.001-0.001c-0.875 0.805-2.026 1.324-3.295 1.399l-0.015 0.001v2.24h-1.83v-2.15c-1.318-0.105-2.493-0.648-3.394-1.483l0.004 0.003c-0.811-0.862-1.309-2.026-1.309-3.307 0-0.153 0.007-0.303 0.021-0.452l-0.001 0.019h2.71c-0.008 0.083-0.013 0.179-0.013 0.277 0 0.795 0.309 1.518 0.814 2.055l-0.001-0.002c0.501 0.436 1.16 0.702 1.881 0.702 0.042 0 0.083-0.001 0.125-0.003l-0.006 0c0.044 0.002 0.096 0.004 0.149 0.004 0.707 0 1.354-0.255 1.856-0.677l-0.004 0.004c0.439-0.4 0.713-0.974 0.713-1.612 0-0.038-0.001-0.076-0.003-0.113l0 0.005z"></path>
<path fill="#003359" d="M31.81 14.68l-4-3.19v-9.91c0-0.276-0.224-0.5-0.5-0.5v0h-4.65c-0.274 0.006-0.494 0.226-0.5 0.499v5.421l-6.1-4.87c-0.085-0.070-0.195-0.112-0.315-0.112s-0.23 0.042-0.316 0.112l0.001-0.001-15.25 12.55c-0.11 0.096-0.178 0.236-0.178 0.392 0 0.12 0.041 0.231 0.109 0.319l-0.001-0.001c0.094 0.108 0.232 0.176 0.386 0.176 0.124 0 0.237-0.044 0.325-0.117l-0.001 0.001 14.94-12.31 15.43 12.32c0.084 0.069 0.193 0.112 0.311 0.112 0.158 0 0.298-0.075 0.388-0.191l0.001-0.001c0.069-0.084 0.112-0.193 0.112-0.311 0-0.158-0.075-0.298-0.191-0.388l-0.001-0.001zM23.16 7.68v-5.6h3.66v8.61l-3.67-2.92c0.007-0.012 0.010-0.027 0.010-0.042 0-0.003-0-0.006-0-0.008l0 0z"></path>
</svg>
