<!-- Generated by IcoMoon.io -->
<svg version="1.1" xmlns="http://www.w3.org/2000/svg" width="32" height="32" viewBox="0 0 32 32">
<title>hospital</title>
<path fill="#003359" d="M16 10.69v0c-0.069 0.003-0.15 0.005-0.231 0.005-2.955 0-5.35-2.395-5.35-5.35s2.395-5.35 5.35-5.35c0.081 0 0.162 0.002 0.243 0.005l-0.011-0c2.94 0.017 5.319 2.399 5.33 5.339v0.001c0 0.003 0 0.006 0 0.010 0 2.946-2.385 5.334-5.329 5.34h-0.001zM16 1c-2.311 0.114-4.142 2.016-4.142 4.345s1.83 4.231 4.131 4.345l0.010 0c2.311-0.114 4.142-2.016 4.142-4.345s-1.83-4.231-4.131-4.345l-0.010-0z"></path>
<path fill="#003359" d="M24.28 21v-4.42c0-2-1.14-3.53-2.6-3.53h-11.34c-1.46 0-2.6 1.55-2.6 3.53v4.42c-1.214 0.201-2.138 1.214-2.2 2.454l-0 0.006v3.54c0 0.276 0.224 0.5 0.5 0.5v0h1.49v4c0 0 0 0.001 0 0.001 0 0.266 0.207 0.483 0.469 0.499l0.001 0c0.276 0 0.5-0.224 0.5-0.5v0-4h14.78v4c0 0.276 0.224 0.5 0.5 0.5s0.5-0.224 0.5-0.5v0-4h1.66c0.276 0 0.5-0.224 0.5-0.5v0-3.51c-0.028-1.253-0.946-2.284-2.145-2.488l-0.015-0.002zM8.74 16.58c0-1.37 0.73-2.53 1.6-2.53h11.34c0.87 0 1.6 1.16 1.6 2.53v4.42h-14.54zM25.44 26.51h-18.9v-3c0.047-0.825 0.712-1.479 1.537-1.51l0.003-0h15.81c0.842 0.027 1.518 0.699 1.55 1.537l0 0.003z"></path>
<path fill="#09c" d="M18.41 4.85h-1.93v-1.93c0-0.276-0.224-0.5-0.5-0.5s-0.5 0.224-0.5 0.5v0 1.93h-1.93c-0.276 0-0.5 0.224-0.5 0.5s0.224 0.5 0.5 0.5v0h1.93v1.93c0 0.276 0.224 0.5 0.5 0.5s0.5-0.224 0.5-0.5v0-1.93h1.93c0.276 0 0.5-0.224 0.5-0.5s-0.224-0.5-0.5-0.5v0z"></path>
</svg>
