<svg id="Layer_1" data-name="Layer 1" xmlns="http://www.w3.org/2000/svg" viewBox="0 0 32 32"><defs><style>.cls-1{fill:#09c;}.cls-2{fill:#003359;}</style></defs><polygon class="cls-1" points="7.91 17.29 7.91 15.69 9.54 15.69 9.54 13.1 7.91 13.1 7.91 11.5 5.36 11.5 5.36 13.1 3.72 13.1 3.72 15.69 5.36 15.69 5.36 17.29 7.91 17.29"/><path class="cls-1" d="M12.71,17.35a4.46,4.46,0,0,0,2.13-2.68,4.61,4.61,0,0,0-.13-3.27,4.2,4.2,0,0,1-2,.49,4.3,4.3,0,0,1-2-.49,4.61,4.61,0,0,0-.15,3.27,4.88,4.88,0,0,0,2.19,2.68Z"/><path class="cls-2" d="M29.76,6.74H2.24A2.23,2.23,0,0,0,0,9V24.69a2.23,2.23,0,0,0,2.24,2.23H29.76A2.23,2.23,0,0,0,32,24.69V9A2.23,2.23,0,0,0,29.76,6.74Zm1.24,18a1.23,1.23,0,0,1-1.24,1.23H2.24A1.23,1.23,0,0,1,1,24.69V9A1.23,1.23,0,0,1,2.24,7.74H29.76A1.23,1.23,0,0,1,31,9Z"/><path class="cls-2" d="M27.72,20.29h-24a.5.5,0,1,0,0,1h24a.5.5,0,0,0,0-1Z"/></svg>