<!-- Generated by IcoMoon.io -->
<svg version="1.1" xmlns="http://www.w3.org/2000/svg" width="32" height="32" viewBox="0 0 32 32">
<title>ID-Card</title>
<path fill="#09c" d="M7.91 17.29v-1.6h1.63v-2.59h-1.63v-1.6h-2.55v1.6h-1.64v2.59h1.64v1.6h2.55z"></path>
<path fill="#09c" d="M12.71 17.35c1.028-0.576 1.792-1.52 2.122-2.648l0.008-0.032c0.151-0.437 0.239-0.94 0.239-1.464 0-0.653-0.136-1.273-0.38-1.836l0.012 0.030c-0.57 0.309-1.248 0.49-1.969 0.49-0.011 0-0.022-0-0.033-0h0.002c-0.002 0-0.004 0-0.007 0-0.729 0-1.415-0.181-2.017-0.501l0.023 0.011c-0.24 0.54-0.38 1.17-0.38 1.832 0 0.514 0.084 1.008 0.239 1.47l-0.009-0.033c0.392 1.149 1.166 2.082 2.167 2.668l0.023 0.012z"></path>
<path fill="#003359" d="M29.76 6.74h-27.52c-0.003 0-0.007-0-0.010-0-1.232 0-2.23 0.998-2.23 2.23 0 0.011 0 0.021 0 0.032l-0-0.002v15.69c0 0 0 0 0 0 0 1.232 0.998 2.23 2.23 2.23 0.003 0 0.007 0 0.011-0h27.519c0.003 0 0.006 0 0.010 0 1.232 0 2.23-0.998 2.23-2.23 0 0 0-0 0-0v0-15.69c0-0.009 0-0.019 0-0.030 0-1.232-0.998-2.23-2.23-2.23-0.004 0-0.007 0-0.011 0h0.001zM31 24.74c0 0 0 0 0 0 0 0.679-0.551 1.23-1.23 1.23-0.004 0-0.007 0-0.011-0h-27.519c-0.003 0-0.007 0-0.011 0-0.679 0-1.23-0.551-1.23-1.23 0-0.018 0-0.035 0.001-0.053l-0 0.003v-15.69c-0-0.009-0-0.019-0-0.030 0-0.679 0.551-1.23 1.23-1.23 0.004 0 0.007 0 0.011 0h27.519c0.003-0 0.007-0 0.010-0 0.679 0 1.23 0.551 1.23 1.23 0 0.011-0 0.021-0 0.032l0-0.002z"></path>
<path fill="#003359" d="M27.72 20.29h-24c-0.276 0-0.5 0.224-0.5 0.5s0.224 0.5 0.5 0.5v0h24c0.276 0 0.5-0.224 0.5-0.5s-0.224-0.5-0.5-0.5v0z"></path>
</svg>
