<!-- Generated by IcoMoon.io -->
<svg version="1.1" xmlns="http://www.w3.org/2000/svg" width="32" height="32" viewBox="0 0 32 32">
<title>idea</title>
<path fill="#003359" d="M16.21 6.36h-0.36c-3.849 0.023-6.96 3.148-6.96 7 0 0.618 0.080 1.218 0.231 1.789l-0.011-0.049s0.050 0.12 0.060 0.13 2.83 5.77 2.75 9.080c0.178 0.937 0.991 1.636 1.967 1.636 0.089 0 0.177-0.006 0.264-0.017l-0.010 0.001h3.79c0.072 0.009 0.156 0.015 0.24 0.015 1.004 0 1.835-0.74 1.978-1.704l0.001-0.011c-0.11-3.28 2.72-8.94 2.76-9l0.090-0.23c0.13-0.504 0.205-1.084 0.205-1.68 0-3.854-3.114-6.98-6.963-7h-0.002zM22 14.78c-0.12 0.24-3 6-2.84 9.4 0 0.12-0.18 0.75-1.23 0.75h-3.79c-1.060 0-1.21-0.63-1.23-0.66 0.12-3.54-2.73-9.25-2.85-9.48-0.114-0.434-0.18-0.933-0.18-1.446 0-0.005 0-0.010 0-0.014v0.001c0-3.314 2.686-6 6-6v0h0.36c3.314 0 6 2.686 6 6v0c-0.020 0.524-0.106 1.020-0.251 1.491l0.011-0.041z"></path>
<path fill="#003359" d="M19.79 28h-7.38c-0.276 0-0.5 0.224-0.5 0.5v0c0 0.276 0.224 0.5 0.5 0.5v0h7.38c0.276 0 0.5-0.224 0.5-0.5v0c0-0.276-0.224-0.5-0.5-0.5v0z"></path>
<path fill="#003359" d="M18.57 31h-5.090c-0.276 0-0.5 0.224-0.5 0.5s0.224 0.5 0.5 0.5v0h5.090c0.276 0 0.5-0.224 0.5-0.5s-0.224-0.5-0.5-0.5v0z"></path>
<path fill="#09c" d="M6 1.26c-0.092-0.089-0.217-0.144-0.355-0.144s-0.263 0.055-0.355 0.144l0-0c-0.091 0.091-0.148 0.216-0.148 0.355s0.057 0.264 0.148 0.355l0 0 3.76 3.77c0.088 0.093 0.212 0.152 0.35 0.152s0.262-0.058 0.35-0.151l0-0c0.093-0.088 0.152-0.212 0.152-0.35s-0.058-0.262-0.151-0.35l-0-0z"></path>
<path fill="#09c" d="M6.44 18.89l-3.77 3.77c-0.091 0.091-0.148 0.216-0.148 0.355s0.057 0.264 0.148 0.355l0 0c0.088 0.093 0.212 0.152 0.35 0.152s0.262-0.058 0.35-0.151l0-0 3.78-3.78c0.088-0.090 0.143-0.214 0.143-0.35s-0.055-0.26-0.143-0.35l0 0c-0.091-0.091-0.216-0.148-0.355-0.148s-0.264 0.057-0.355 0.148l-0 0z"></path>
<path fill="#09c" d="M5.62 12.11c0.276 0 0.5-0.224 0.5-0.5v0c0-0.276-0.224-0.5-0.5-0.5v0h-3c-0.276 0-0.5 0.224-0.5 0.5v0c0 0.276 0.224 0.5 0.5 0.5v0z"></path>
<path fill="#09c" d="M16 0c-0.276 0-0.5 0.224-0.5 0.5v0 3c0 0.276 0.224 0.5 0.5 0.5s0.5-0.224 0.5-0.5v0-3c0-0.276-0.224-0.5-0.5-0.5v0z"></path>
<path fill="#09c" d="M26.86 1.26c-0.090-0.088-0.214-0.143-0.35-0.143s-0.26 0.055-0.35 0.143l0-0-3.78 3.74c-0.088 0.090-0.143 0.214-0.143 0.35 0 0.274 0.22 0.496 0.493 0.5h0c0.141-0 0.268-0.058 0.36-0.15v0l3.77-3.7c0.101-0.092 0.164-0.224 0.164-0.37s-0.063-0.278-0.163-0.37l-0-0z"></path>
<path fill="#09c" d="M25.69 18.89c-0.091-0.091-0.216-0.148-0.355-0.148s-0.264 0.057-0.355 0.148l-0 0c-0.088 0.090-0.143 0.214-0.143 0.35s0.055 0.26 0.143 0.35l3.78 3.78c0.089 0.091 0.213 0.148 0.35 0.15h0c0.141-0 0.268-0.058 0.36-0.15v0c0.089-0.092 0.144-0.217 0.144-0.355s-0.055-0.263-0.144-0.355l0 0z"></path>
<path fill="#09c" d="M29.51 11.11h-3c-0.276 0-0.5 0.224-0.5 0.5v0c0 0.276 0.224 0.5 0.5 0.5v0h3c0.276 0 0.5-0.224 0.5-0.5v0c0-0.276-0.224-0.5-0.5-0.5v0z"></path>
</svg>
