<!-- Generated by IcoMoon.io -->
<svg version="1.1" xmlns="http://www.w3.org/2000/svg" width="32" height="32" viewBox="0 0 32 32">
<title>info-2</title>
<path fill="#09c" d="M16 7.33c1.105 0 2 0.895 2 2s-0.895 2-2 2c-1.105 0-2-0.895-2-2v0c0-1.105 0.895-2 2-2v0z"></path>
<path fill="#09c" d="M19.57 24.66h-7.14v-3.050h1.53v-6.11h-1.53v-3.070h5.61v9.18h1.53v3.050z"></path>
<path fill="#003359" d="M16 32c-0.003 0-0.008 0-0.012 0-8.837 0-16-7.163-16-16s7.163-16 16-16c8.837 0 16 7.163 16 16 0 3.147-0.908 6.081-2.477 8.555l0.039-0.065-0.050 0.080 1.5 5.89c0.010 0.038 0.016 0.081 0.016 0.126 0 0.276-0.224 0.5-0.5 0.5-0.045 0-0.088-0.006-0.13-0.017l0.003 0.001-5.92-1.51-0.080 0.050c-2.385 1.496-5.283 2.386-8.389 2.39h-0.001zM16 1c-0.005 0-0.010 0-0.016 0-8.284 0-15 6.716-15 15s6.716 15 15 15c2.919 0 5.644-0.834 7.948-2.277l-0.063 0.037 0.27-0.17c0.069-0.044 0.154-0.070 0.245-0.070 0.048 0 0.095 0.007 0.139 0.021l-0.003-0.001 5.31 1.35-1.35-5.28c-0.013-0.041-0.020-0.087-0.020-0.135 0-0.091 0.026-0.175 0.072-0.246l-0.001 0.002 0.17-0.23c1.45-2.268 2.311-5.033 2.311-8 0-8.284-6.716-15-15-15-0.004 0-0.008 0-0.012 0h0.001z"></path>
</svg>
