<!-- Generated by IcoMoon.io -->
<svg version="1.1" xmlns="http://www.w3.org/2000/svg" width="32" height="32" viewBox="0 0 32 32">
<title>info</title>
<path fill="#003359" d="M15.92 4.6c0.062 0.006 0.133 0.009 0.205 0.009 0.607 0 1.161-0.231 1.576-0.611l-0.002 0.002c0.373-0.411 0.601-0.96 0.601-1.562 0-0.024-0-0.048-0.001-0.072l0 0.003c0.002-0.033 0.003-0.071 0.003-0.11 0-0.611-0.228-1.169-0.605-1.593l0.002 0.002c-0.413-0.417-0.986-0.676-1.62-0.676-0.056 0-0.112 0.002-0.167 0.006l0.007-0c-0.050-0.004-0.108-0.006-0.166-0.006-0.629 0-1.197 0.259-1.603 0.676l-0 0c-0.373 0.421-0.601 0.978-0.601 1.588 0 0.022 0 0.043 0.001 0.065l-0-0.003c-0.002 0.035-0.003 0.075-0.003 0.116 0 0.603 0.229 1.152 0.605 1.566l-0.002-0.002c0.409 0.378 0.957 0.61 1.56 0.61 0.074 0 0.147-0.003 0.22-0.010l-0.009 0.001z"></path>
<path fill="#003359" d="M13.88 8.54h4.010v23.46h-4.010v-23.46z"></path>
</svg>
