<!-- Generated by IcoMoon.io -->
<svg version="1.1" xmlns="http://www.w3.org/2000/svg" width="32" height="32" viewBox="0 0 32 32">
<title>info-circle</title>
<path fill="#003359" d="M16 1c8.284 0 15 6.716 15 15s-6.716 15-15 15c-8.284 0-15-6.716-15-15v0c0-8.284 6.716-15 15-15v0zM16 0v0c-8.837 0-16 7.163-16 16v0 0c0 8.837 7.163 16 16 16v0 0c8.837 0 16-7.163 16-16v0 0c0-8.837-7.163-16-16-16v0z"></path>
<path fill="#09c" d="M15 8.61c-0.001-0.014-0.001-0.031-0.001-0.049 0-0.327 0.122-0.625 0.322-0.853l-0.001 0.001c0.218-0.224 0.523-0.363 0.86-0.363 0.032 0 0.063 0.001 0.094 0.004l-0.004-0c0.036-0.004 0.078-0.006 0.12-0.006 0.344 0 0.655 0.14 0.879 0.366l0 0c0.205 0.229 0.33 0.533 0.33 0.866 0 0.012-0 0.024-0 0.036l0-0.002c0 0.012 0.001 0.025 0.001 0.039 0 0.322-0.126 0.615-0.331 0.832l0.001-0.001c-0.225 0.226-0.536 0.366-0.88 0.366-0.042 0-0.084-0.002-0.126-0.006l0.005 0c-0.030 0.003-0.066 0.004-0.102 0.004-0.646 0-1.17-0.524-1.17-1.17 0-0.023 0.001-0.045 0.002-0.068l-0 0.003zM17.34 24.61h-2.15v-12.61h2.17z"></path>
</svg>
