<svg id="Layer_1" data-name="Layer 1" xmlns="http://www.w3.org/2000/svg" viewBox="0 0 32 32"><defs><style>.cls-1{fill:#09c;}.cls-2{fill:#003359;}</style></defs><path class="cls-1" d="M16,7.33a2,2,0,1,1-2,2,2,2,0,0,1,2-2Z"/><polygon class="cls-1" points="19.57 24.66 12.43 24.66 12.43 21.61 13.96 21.61 13.96 15.5 12.43 15.5 12.43 12.43 18.04 12.43 18.04 15.5 18.04 21.61 19.57 21.61 19.57 24.66 19.57 24.66 19.57 24.66"/><path class="cls-2" d="M16,32a16,16,0,1,1,13.55-7.51l-.05.08L31,30.46a.5.5,0,0,1-.61.61l-5.92-1.51-.08.05A16,16,0,0,1,16,32ZM16,1a15,15,0,1,0,7.87,27.76l.27-.17a.46.46,0,0,1,.38-.05l5.31,1.35-1.35-5.28a.46.46,0,0,1,.05-.38L28.7,24A15,15,0,0,0,16,1Z"/></svg>