<svg id="Layer_1" data-name="Layer 1" xmlns="http://www.w3.org/2000/svg" viewBox="0 0 32 32"><defs><style>.cls-1{fill:#003359;}.cls-2{fill:#09c;}</style></defs><path class="cls-1" d="M16,1A15,15,0,1,1,1,16,15,15,0,0,1,16,1m0-1h0A16,16,0,0,0,0,16H0A16,16,0,0,0,16,32h0A16,16,0,0,0,32,16h0A16,16,0,0,0,16,0Z"/><path class="cls-2" d="M15,8.61a1.29,1.29,0,0,1,.32-.9,1.2,1.2,0,0,1,.95-.36,1.24,1.24,0,0,1,1,.36,1.3,1.3,0,0,1,.33.9,1.21,1.21,0,0,1-.33.87,1.24,1.24,0,0,1-1,.36A1.17,1.17,0,0,1,15,8.61Zm2.34,16H15.19V12h2.17Z"/></svg>