<!-- Generated by IcoMoon.io -->
<svg version="1.1" xmlns="http://www.w3.org/2000/svg" width="32" height="32" viewBox="0 0 32 32">
<title>instagram</title>
<path fill="#e4405f" d="M16 0c-4.35 0-4.89 0-6.6 0.1-1.41 0.023-2.751 0.293-3.99 0.767l0.080-0.027c-1.108 0.424-2.053 1.054-2.829 1.848l-0.002 0.002c-0.796 0.777-1.426 1.722-1.832 2.777l-0.018 0.053c-0.444 1.15-0.713 2.479-0.74 3.868l-0 0.012c-0.070 1.71-0.070 2.25-0.070 6.6s0 4.89 0.1 6.6c0.027 1.401 0.296 2.73 0.767 3.96l-0.027-0.080c0.427 1.107 1.056 2.051 1.849 2.829l0.001 0.001c0.777 0.796 1.722 1.426 2.777 1.832l0.053 0.018c1.15 0.438 2.478 0.707 3.866 0.74l0.014 0c1.71 0.080 2.25 0.1 6.6 0.1s4.89 0 6.6-0.1c1.402-0.033 2.73-0.302 3.963-0.767l-0.083 0.027c2.151-0.857 3.823-2.529 4.66-4.624l0.020-0.056c0.438-1.15 0.707-2.478 0.74-3.866l0-0.014c0.080-1.71 0.1-2.25 0.1-6.6s0-4.89-0.1-6.6c-0.033-1.402-0.302-2.73-0.767-3.963l0.027 0.083c-0.424-1.108-1.054-2.053-1.848-2.829l-0.002-0.002c-0.787-0.797-1.741-1.427-2.806-1.832l-0.054-0.018c-1.15-0.449-2.48-0.718-3.871-0.74l-0.009-0c-1.71-0.1-2.25-0.1-6.57-0.1zM16 2.88c4.27 0 4.78 0 6.47 0.090 1.081 0.016 2.11 0.22 3.062 0.581l-0.062-0.021c0.721 0.27 1.335 0.675 1.839 1.189l0.001 0.001c0.517 0.503 0.923 1.118 1.179 1.806l0.011 0.034c0.34 0.891 0.541 1.921 0.55 2.996l0 0.004c0.080 1.69 0.1 2.2 0.1 6.47s0 4.78-0.1 6.47c-0.013 1.081-0.218 2.11-0.58 3.061l0.020-0.061c-0.278 0.723-0.686 1.34-1.2 1.85l-0 0c-0.505 0.515-1.119 0.92-1.806 1.179l-0.034 0.011c-0.891 0.34-1.921 0.541-2.996 0.55l-0.004 0c-1.7 0.080-2.2 0.1-6.48 0.1s-4.78 0-6.48-0.1c-1.081-0.016-2.11-0.22-3.062-0.581l0.062 0.021c-0.721-0.273-1.336-0.682-1.839-1.199l-0.001-0.001c-0.521-0.502-0.931-1.117-1.189-1.806l-0.011-0.034c-0.34-0.89-0.544-1.919-0.56-2.993l-0-0.007c-0.060-1.68-0.080-2.2-0.080-6.46s0-4.78 0.080-6.48c0.016-1.081 0.22-2.11 0.581-3.062l-0.021 0.062c0.264-0.724 0.674-1.34 1.198-1.838l0.002-0.002c0.5-0.526 1.116-0.936 1.807-1.189l0.033-0.011c0.89-0.342 1.919-0.547 2.994-0.56l0.006-0c1.7-0.060 2.2-0.080 6.48-0.080zM16 7.78c-0.009-0-0.019-0-0.030-0-4.54 0-8.22 3.68-8.22 8.22s3.68 8.22 8.22 8.22c4.54 0 8.22-3.68 8.22-8.22v0c0 0 0-0 0-0 0-4.529-3.663-8.203-8.188-8.22h-0.002zM16 21.33c-0.009 0-0.019 0-0.030 0-2.944 0-5.33-2.386-5.33-5.33s2.386-5.33 5.33-5.33c2.944 0 5.33 2.386 5.33 5.33v0c0 0.003 0 0.006 0 0.010 0 2.931-2.37 5.309-5.299 5.32h-0.001zM26.43 7.46c0 1.060-0.86 1.92-1.92 1.92s-1.92-0.86-1.92-1.92c0-1.060 0.86-1.92 1.92-1.92v0c1.060 0 1.92 0.86 1.92 1.92v0z"></path>
</svg>
