<!-- Generated by IcoMoon.io -->
<svg version="1.1" xmlns="http://www.w3.org/2000/svg" width="32" height="32" viewBox="0 0 32 32">
<title>laptop</title>
<path fill="#003359" d="M31.85 26.87l-2-3.57c-0.041-0.071-0.099-0.129-0.168-0.169l-0.002-0.001v-15.56c-0.017-0.724-0.605-1.305-1.329-1.31h-24.611c-0.729 0.006-1.319 0.592-1.33 1.319v15.531c-0.078 0.048-0.142 0.112-0.189 0.188l-0.001 0.002-2 3.56c-0.103 0.185-0.163 0.406-0.163 0.64 0 0.032 0.001 0.063 0.003 0.094l-0-0.004c-0 0.005-0 0.011-0 0.017 0 0.32 0.134 0.609 0.35 0.813l0.001 0c0.116 0.097 0.265 0.16 0.428 0.17l0.002 0h30.27c0.027 0.004 0.059 0.006 0.091 0.006 0.302 0 0.562-0.181 0.677-0.441l0.002-0.005c0.087-0.179 0.138-0.389 0.138-0.61 0-0.245-0.062-0.476-0.172-0.677l0.004 0.007zM3.41 7.58c0-0 0-0 0-0 0-0.177 0.143-0.32 0.32-0.32 0.004 0 0.007 0 0.010 0h24.569c0.003-0 0.006-0 0.010-0 0.177 0 0.32 0.143 0.32 0.32 0 0 0 0 0 0v0 15.47h-25.23zM0.79 27.58v0zM1.020 27.58v0c-0.010-0.027-0.016-0.058-0.016-0.090s0.006-0.063 0.017-0.092l-0.001 0.002 1.89-3.32h26.18l1.91 3.29c0.008 0.033 0.013 0.071 0.013 0.11s-0.005 0.077-0.013 0.113l0.001-0.003zM31.14 27.58v0z"></path>
<path fill="#09c" d="M15.64 18.46l-3.2-6.61 6.64 2.41-1.44 1.28 1.97 1.5-0.94 1.27-1.98-1.57-1.050 1.72z"></path>
</svg>
