<!-- Generated by IcoMoon.io -->
<svg version="1.1" xmlns="http://www.w3.org/2000/svg" width="32" height="32" viewBox="0 0 32 32">
<title>lightning</title>
<path fill="#003359" d="M7.36 32c-0.001 0-0.002 0-0.003 0-0.091 0-0.177-0.026-0.249-0.071l0.002 0.001c-0.152-0.085-0.254-0.245-0.254-0.429 0-0.054 0.009-0.106 0.025-0.154l-0.001 0.003 4.38-14.28h-3.9c-0.275-0.002-0.496-0.225-0.496-0.5 0-0.057 0.010-0.112 0.027-0.164l-0.001 0.003 5.3-16.070c0.072-0.2 0.26-0.34 0.48-0.34h9c0.135 0.017 0.252 0.087 0.329 0.189l0.001 0.001c0.069 0.085 0.111 0.195 0.111 0.314 0 0.037-0.004 0.074-0.012 0.109l0.001-0.003-2.020 8.75h6.82c0.201 0.003 0.372 0.124 0.449 0.297l0.001 0.003c0.028 0.061 0.044 0.132 0.044 0.207 0 0.128-0.047 0.244-0.124 0.334l0.001-0.001-19.54 21.63c-0.091 0.103-0.223 0.168-0.37 0.17h-0zM8.050 16.070h3.89c0.003-0 0.007-0 0.010-0 0.16 0 0.302 0.078 0.389 0.199l0.001 0.001c0.061 0.085 0.097 0.191 0.097 0.306 0 0.048-0.006 0.094-0.018 0.138l0.001-0.004-3.92 12.78 17.27-19.13h-6.32c-0.001 0-0.002 0-0.003 0-0.16 0-0.303-0.074-0.396-0.189l-0.001-0.001c-0.048-0.074-0.076-0.165-0.076-0.262 0-0.056 0.010-0.111 0.027-0.161l-0.001 0.003 2-8.75h-8z"></path>
</svg>
