<!-- Generated by IcoMoon.io -->
<svg version="1.1" xmlns="http://www.w3.org/2000/svg" width="32" height="32" viewBox="0 0 32 32">
<title>linkedin</title>
<path fill="#0077b5" d="M27.26 27.27h-4.74v-7.43c0-1.77 0-4.050-2.47-4.050s-2.84 1.93-2.84 3.92v7.56h-4.74v-15.27h4.53v2.080h0.060c0.884-1.49 2.484-2.473 4.314-2.473 0.062 0 0.123 0.001 0.184 0.003l-0.009-0c4.81 0 5.69 3.16 5.69 7.28zM7.12 9.91c-1.519 0-2.75-1.231-2.75-2.75s1.231-2.75 2.75-2.75c1.519 0 2.75 1.231 2.75 2.75v0c0 0.003 0 0.006 0 0.010 0 1.513-1.227 2.74-2.74 2.74-0.004 0-0.007 0-0.011-0h0.001zM9.49 27.27h-4.75v-15.27h4.75zM29.63 0h-27.27c-0.009-0-0.019-0-0.030-0-1.28 0-2.319 1.032-2.33 2.309v27.381c0.011 1.278 1.050 2.31 2.33 2.31 0.011 0 0.021-0 0.032-0l-0.002 0h27.27c0.009 0 0.020 0 0.030 0 1.282 0 2.323-1.031 2.34-2.309l0-0.002v-27.38c-0.017-1.279-1.058-2.31-2.34-2.31-0.011 0-0.021 0-0.032 0l0.002-0z"></path>
</svg>
