<!-- Generated by IcoMoon.io -->
<svg version="1.1" xmlns="http://www.w3.org/2000/svg" width="32" height="32" viewBox="0 0 32 32">
<title>list-bullet</title>
<path fill="#003359" d="M31.55 26.78h-18.55c-0.276 0-0.5 0.224-0.5 0.5v0c0.005 0.274 0.226 0.494 0.499 0.5h18.551c0.276 0 0.5-0.224 0.5-0.5v0c0-0.276-0.224-0.5-0.5-0.5v0z"></path>
<path fill="#003359" d="M31.55 15.53h-18.55c-0.276 0-0.5 0.224-0.5 0.5v0c0.005 0.274 0.226 0.494 0.499 0.5h18.551c0.276 0 0.5-0.224 0.5-0.5v0c0-0.276-0.224-0.5-0.5-0.5v0z"></path>
<path fill="#003359" d="M13 5.28h18.55c0.276 0 0.5-0.224 0.5-0.5s-0.224-0.5-0.5-0.5v0h-18.55c-0.276 0-0.5 0.224-0.5 0.5s0.224 0.5 0.5 0.5v0z"></path>
<path fill="#09c" d="M3.22 7.57c1.751 0 3.17-1.419 3.17-3.17s-1.419-3.17-3.17-3.17c-1.751 0-3.17 1.419-3.17 3.17v0c0.006 1.748 1.422 3.164 3.169 3.17h0.001zM3.22 2.23c1.198 0 2.17 0.972 2.17 2.17s-0.972 2.17-2.17 2.17c-1.198 0-2.17-0.972-2.17-2.17v0c0.006-1.196 0.974-2.164 2.169-2.17h0.001z"></path>
<path fill="#09c" d="M3.22 12.86c-1.746 0.006-3.16 1.423-3.16 3.17 0 1.751 1.419 3.17 3.17 3.17s3.17-1.419 3.17-3.17c0-0.011-0-0.021-0-0.032v0.002c-0.023-1.739-1.438-3.14-3.18-3.14-0 0-0 0-0 0v0zM3.22 18.2c-1.194-0.006-2.16-0.975-2.16-2.17 0-1.198 0.972-2.17 2.17-2.17 1.188 0 2.153 0.954 2.17 2.138l0 0.002c0 0.009 0 0.019 0 0.030 0 1.198-0.972 2.17-2.17 2.17-0.004 0-0.007 0-0.011-0h0.001z"></path>
<path fill="#09c" d="M3.22 24.11c-1.746 0.006-3.16 1.423-3.16 3.17 0 1.751 1.419 3.17 3.17 3.17s3.17-1.419 3.17-3.17v0c-0.006-1.752-1.427-3.17-3.18-3.17 0 0 0 0-0 0v0zM3.22 29.45c-1.194-0.006-2.16-0.975-2.16-2.17 0-1.198 0.972-2.17 2.17-2.17s2.17 0.972 2.17 2.17v0c0 0 0 0 0 0 0 1.198-0.972 2.17-2.17 2.17-0.003 0-0.007 0-0.011-0h0.001z"></path>
</svg>
