<svg id="Layer_1" data-name="Layer 1" xmlns="http://www.w3.org/2000/svg" viewBox="0 0 32 32"><defs><style>.cls-1{fill:#003359;}.cls-2{fill:#09c;}</style></defs><path class="cls-1" d="M31.55,26.78H13a.5.5,0,0,0-.5.5.51.51,0,0,0,.5.5H31.55a.5.5,0,0,0,.5-.5A.5.5,0,0,0,31.55,26.78Z"/><path class="cls-1" d="M31.55,15.53H13a.5.5,0,0,0-.5.5.51.51,0,0,0,.5.5H31.55a.5.5,0,0,0,.5-.5A.5.5,0,0,0,31.55,15.53Z"/><path class="cls-1" d="M13,5.28H31.55a.5.5,0,0,0,0-1H13a.5.5,0,0,0,0,1Z"/><path class="cls-2" d="M3.22,7.57A3.17,3.17,0,1,0,.05,4.4,3.18,3.18,0,0,0,3.22,7.57Zm0-5.34A2.17,2.17,0,1,1,1.05,4.4,2.18,2.18,0,0,1,3.22,2.23Z"/><path class="cls-2" d="M3.22,12.86A3.17,3.17,0,1,0,6.4,16,3.18,3.18,0,0,0,3.22,12.86Zm0,5.34A2.17,2.17,0,1,1,5.4,16,2.17,2.17,0,0,1,3.22,18.2Z"/><path class="cls-2" d="M3.22,24.11A3.17,3.17,0,1,0,6.4,27.28,3.18,3.18,0,0,0,3.22,24.11Zm0,5.34A2.17,2.17,0,1,1,5.4,27.28,2.17,2.17,0,0,1,3.22,29.45Z"/></svg>