<!-- Generated by IcoMoon.io -->
<svg version="1.1" xmlns="http://www.w3.org/2000/svg" width="32" height="32" viewBox="0 0 32 32">
<title>list-check</title>
<path fill="#003359" d="M31.5 26.85h-17.89c-0.276 0-0.5 0.224-0.5 0.5v0c0 0.276 0.224 0.5 0.5 0.5v0h17.89c0.276 0 0.5-0.224 0.5-0.5v0c0-0.276-0.224-0.5-0.5-0.5v0z"></path>
<path fill="#003359" d="M31.5 16h-17.89c-0.276 0-0.5 0.224-0.5 0.5v0c0 0.276 0.224 0.5 0.5 0.5v0h17.89c0.276 0 0.5-0.224 0.5-0.5v0c0-0.276-0.224-0.5-0.5-0.5v0z"></path>
<path fill="#003359" d="M13.61 6.17h17.89c0.276 0 0.5-0.224 0.5-0.5v0c0-0.276-0.224-0.5-0.5-0.5v0h-17.89c-0.276 0-0.5 0.224-0.5 0.5v0c0 0.276 0.224 0.5 0.5 0.5v0z"></path>
<path fill="#09c" d="M7 24.67l-4 4.4-2.27-1.17c-0.067-0.037-0.147-0.059-0.233-0.059-0.19 0-0.355 0.108-0.436 0.266l-0.001 0.003c-0.037 0.068-0.059 0.15-0.059 0.236 0 0.192 0.108 0.358 0.267 0.442l0.003 0.001 2.59 1.35c0.068 0.029 0.146 0.047 0.229 0.050l0.001 0c0.151-0.003 0.285-0.076 0.369-0.189l0.001-0.001 4.28-4.69c0.089-0.092 0.144-0.217 0.144-0.355s-0.055-0.263-0.144-0.355l0 0c-0.088-0.085-0.208-0.137-0.34-0.137-0.165 0-0.31 0.081-0.399 0.206l-0.001 0.002z"></path>
<path fill="#09c" d="M7 13.83l-4 4.4-2.27-1.17c-0.067-0.037-0.147-0.059-0.233-0.059-0.19 0-0.355 0.108-0.436 0.266l-0.001 0.003c-0.052 0.077-0.082 0.173-0.082 0.275 0 0.201 0.118 0.374 0.289 0.454l0.003 0.001 2.59 1.34c0.066 0.037 0.146 0.059 0.23 0.060h0c0.146-0 0.277-0.062 0.37-0.16l0-0 4.28-4.74c0.091-0.091 0.148-0.216 0.148-0.355s-0.057-0.264-0.148-0.355l-0-0c-0.089-0.092-0.214-0.15-0.353-0.15-0.157 0-0.297 0.074-0.386 0.189l-0.001 0.001z"></path>
<path fill="#09c" d="M0.27 7.1l2.59 1.35c0.066 0.037 0.146 0.059 0.23 0.060h0c0.146-0 0.277-0.062 0.37-0.16l0-0 4.28-4.69c0.066-0.084 0.106-0.191 0.106-0.307 0-0.138-0.056-0.262-0.146-0.353l0 0c-0.089-0.091-0.213-0.147-0.35-0.147s-0.261 0.056-0.35 0.147l-0 0-4 4.39-2.27-1.17c-0.068-0.039-0.15-0.063-0.237-0.063-0.19 0-0.354 0.11-0.432 0.27l-0.001 0.003c-0.039 0.068-0.063 0.15-0.063 0.237 0 0.19 0.11 0.354 0.27 0.432l0.003 0.001z"></path>
</svg>
