<svg id="Layer_1" data-name="Layer 1" xmlns="http://www.w3.org/2000/svg" viewBox="0 0 32 32"><defs><style>.cls-1{fill:#003359;}.cls-2{fill:#09c;}</style></defs><path class="cls-1" d="M31.5,26.85H13.61a.5.5,0,0,0-.5.5.5.5,0,0,0,.5.5H31.5a.5.5,0,0,0,.5-.5A.5.5,0,0,0,31.5,26.85Z"/><path class="cls-1" d="M31.5,16H13.61a.5.5,0,0,0-.5.5.5.5,0,0,0,.5.5H31.5a.5.5,0,0,0,.5-.5A.5.5,0,0,0,31.5,16Z"/><path class="cls-1" d="M13.61,6.17H31.5a.5.5,0,0,0,.5-.5.5.5,0,0,0-.5-.5H13.61a.5.5,0,0,0-.5.5A.5.5,0,0,0,13.61,6.17Z"/><path class="cls-2" d="M7,24.67l-4,4.4L.73,27.9a.49.49,0,0,0-.67.21.5.5,0,0,0,.21.68l2.59,1.35a.64.64,0,0,0,.23.05A.47.47,0,0,0,3.46,30l4.28-4.69a.51.51,0,0,0,0-.71A.49.49,0,0,0,7,24.67Z"/><path class="cls-2" d="M7,13.83l-4,4.4L.73,17.06a.49.49,0,0,0-.67.21A.5.5,0,0,0,.27,18l2.59,1.34a.49.49,0,0,0,.23.06.51.51,0,0,0,.37-.16L7.74,14.5a.5.5,0,0,0,0-.71A.49.49,0,0,0,7,13.83Z"/><path class="cls-2" d="M.27,7.1,2.86,8.45a.49.49,0,0,0,.23.06.51.51,0,0,0,.37-.16L7.74,3.66A.5.5,0,0,0,7.7,3,.49.49,0,0,0,7,3L3,7.39.73,6.22a.48.48,0,0,0-.67.21A.48.48,0,0,0,.27,7.1Z"/></svg>