<!-- Generated by IcoMoon.io -->
<svg version="1.1" xmlns="http://www.w3.org/2000/svg" width="32" height="32" viewBox="0 0 32 32">
<title>location</title>
<path fill="#003359" d="M31.46 29.88h-31c-0.011 0.001-0.025 0.002-0.038 0.002-0.181 0-0.339-0.101-0.421-0.249l-0.001-0.003c-0.042-0.072-0.067-0.158-0.067-0.25s0.025-0.178 0.068-0.252l-0.001 0.002 6.42-10.64c0.083-0.15 0.241-0.25 0.421-0.25 0.003 0 0.006 0 0.009 0h5.86c0.276 0 0.5 0.224 0.5 0.5v0c0 0.276-0.224 0.5-0.5 0.5v0h-5.58l-5.79 9.64h29.24l-5.79-9.64h-5.58c-0.276 0-0.5-0.224-0.5-0.5v0c0.006-0.274 0.226-0.494 0.499-0.5h5.871c0.18 0 0.337 0.1 0.419 0.248l0.001 0.002 6.39 10.64c0.040 0.072 0.064 0.158 0.064 0.25s-0.024 0.178-0.065 0.253l0.001-0.003c-0.088 0.15-0.247 0.249-0.43 0.25h-0z"></path>
<path fill="#09c" d="M23.53 7.65c-0.932-3.349-3.946-5.769-7.528-5.79h-0.002c-4.33 0.007-7.837 3.519-7.837 7.85 0 1.435 0.385 2.78 1.057 3.938l-0.020-0.038 6.37 11c0.085 0.153 0.246 0.255 0.43 0.255s0.345-0.102 0.429-0.253l0.001-0.003 6.37-11c0.641-1.109 1.019-2.438 1.019-3.857 0-0.749-0.105-1.473-0.302-2.159l0.014 0.055zM21.9 13.11l-5.9 10.25-6-10.25c-0.573-0.979-0.911-2.155-0.911-3.41 0-3.778 3.062-6.84 6.84-6.84 0.025 0 0.050 0 0.075 0l-0.004-0c3.139 0.004 5.783 2.119 6.588 5.002l0.012 0.048c0.146 0.527 0.23 1.132 0.23 1.757 0 1.268-0.345 2.456-0.947 3.475l0.017-0.032z"></path>
<path fill="#09c" d="M16 5.45c-2.347 0-4.25 1.903-4.25 4.25s1.903 4.25 4.25 4.25c2.347 0 4.25-1.903 4.25-4.25 0-0.004 0-0.007 0-0.011v0.001c-0.006-2.343-1.906-4.24-4.25-4.24 0 0 0 0 0 0v0zM16 12.94c-1.795 0-3.25-1.455-3.25-3.25s1.455-3.25 3.25-3.25c1.795 0 3.25 1.455 3.25 3.25v0c-0.006 1.793-1.457 3.244-3.249 3.25h-0.001z"></path>
</svg>
