<!-- Generated by IcoMoon.io -->
<svg version="1.1" xmlns="http://www.w3.org/2000/svg" width="32" height="32" viewBox="0 0 32 32">
<title>money</title>
<path fill="#003359" d="M19.45 22.21c0.001-0.026 0.001-0.056 0.001-0.086 0-0.897-0.359-1.711-0.942-2.304l0 0c-0.876-0.762-1.926-1.35-3.081-1.695l-0.059-0.015c-2.076-0.62-3.871-1.626-5.387-2.945l0.017 0.015c-1.066-1.106-1.722-2.612-1.722-4.272 0-0.136 0.004-0.272 0.013-0.406l-0.001 0.018c-0.002-0.067-0.004-0.145-0.004-0.224 0-1.695 0.652-3.237 1.718-4.391l-0.004 0.004c1.197-1.207 2.809-2.001 4.604-2.148l0.026-0.002v-3.68h2.69v3.7c1.827 0.22 3.409 1.131 4.501 2.458l0.009 0.012c1.025 1.372 1.641 3.101 1.641 4.974 0 0.15-0.004 0.299-0.012 0.446l0.001-0.021h-4.11c0.008-0.108 0.012-0.234 0.012-0.362 0-1.147-0.356-2.21-0.964-3.086l0.012 0.018c-0.568-0.747-1.457-1.224-2.458-1.224-0.054 0-0.107 0.001-0.16 0.004l0.007-0c-0.071-0.005-0.153-0.008-0.236-0.008-0.911 0-1.739 0.353-2.356 0.93l0.002-0.002c-0.532 0.601-0.857 1.397-0.857 2.268 0 0.078 0.003 0.155 0.008 0.232l-0.001-0.010c-0.002 0.042-0.003 0.091-0.003 0.14 0 0.864 0.345 1.647 0.904 2.221l-0.001-0.001c0.91 0.761 1.992 1.351 3.176 1.704l0.064 0.016c2.050 0.664 3.818 1.69 5.316 3.014l-0.016-0.014c1.065 1.106 1.721 2.611 1.721 4.27 0 0.127-0.004 0.252-0.011 0.377l0.001-0.017c0.007 0.107 0.010 0.232 0.010 0.358 0 1.669-0.655 3.185-1.723 4.305l0.002-0.003c-1.275 1.154-2.941 1.898-4.778 2.009l-0.022 0.001v3.29h-2.74v-3.19c-1.946-0.143-3.681-0.946-5.005-2.184l0.005 0.004c-1.172-1.257-1.892-2.949-1.892-4.81 0-0.236 0.012-0.469 0.034-0.699l-0.002 0.029h4c-0.013 0.128-0.021 0.276-0.021 0.427 0 1.162 0.449 2.218 1.183 3.006l-0.002-0.003c0.743 0.624 1.709 1.003 2.764 1.003 0.058 0 0.116-0.001 0.174-0.003l-0.008 0c0.079 0.005 0.17 0.008 0.263 0.008 1.047 0 2.005-0.381 2.743-1.013l-0.006 0.005c0.596-0.568 0.966-1.367 0.966-2.253 0-0.069-0.002-0.138-0.007-0.206l0 0.009z"></path>
</svg>
