<!-- Generated by IcoMoon.io -->
<svg version="1.1" xmlns="http://www.w3.org/2000/svg" width="32" height="32" viewBox="0 0 32 32">
<title>money-bold</title>
<path fill="#003359" d="M21.49 16.94c-1.49-1.314-3.269-2.34-5.225-2.971l-0.105-0.029c-1.12-0.325-2.093-0.85-2.923-1.541l0.013 0.011c-0.461-0.476-0.745-1.126-0.745-1.842 0-0.056 0.002-0.111 0.005-0.166l-0 0.008c-0.003-0.050-0.005-0.107-0.005-0.166 0-0.702 0.255-1.344 0.678-1.838l-0.003 0.004c0.518-0.476 1.212-0.768 1.974-0.768 0.076 0 0.152 0.003 0.226 0.009l-0.010-0.001c0.018-0 0.039-0.001 0.060-0.001 0.824 0 1.558 0.39 2.026 0.995l0.004 0.006c0.52 0.754 0.83 1.686 0.83 2.692 0 0.108-0.004 0.216-0.011 0.323l0.001-0.014c-0.001 0.011-0.001 0.023-0.001 0.036 0 0.134 0.054 0.256 0.141 0.344l-0-0c0.088 0.098 0.216 0.16 0.358 0.16 0.001 0 0.002 0 0.002 0h4c0 0 0 0 0 0 0.269 0 0.489-0.213 0.5-0.479l0-0.001c0.007-0.127 0.011-0.276 0.011-0.426 0-1.938-0.639-3.726-1.717-5.166l0.016 0.023c-1.052-1.282-2.525-2.184-4.206-2.493l-0.044-0.007v-3.14c0-0.276-0.224-0.5-0.5-0.5v0h-2.61c-0.276 0-0.5 0.224-0.5 0.5v0 3.12c-1.717 0.246-3.216 1.037-4.349 2.189l-0.001 0.001c-1.111 1.186-1.794 2.785-1.794 4.543 0 0.080 0.001 0.159 0.004 0.238l-0-0.011c-0.007 0.116-0.012 0.252-0.012 0.389 0 1.766 0.702 3.369 1.843 4.543l-0.002-0.002c1.499 1.307 3.294 2.316 5.268 2.913l0.102 0.027c1.092 0.325 2.035 0.858 2.828 1.557l-0.008-0.007c0.476 0.479 0.771 1.139 0.771 1.869 0 0.025-0 0.050-0.001 0.075l0-0.004c0.003 0.043 0.004 0.094 0.004 0.145 0 0.735-0.317 1.396-0.822 1.853l-0.002 0.002c-0.614 0.533-1.421 0.859-2.304 0.859-0.087 0-0.173-0.003-0.258-0.009l0.011 0.001c-0.063 0.004-0.136 0.006-0.21 0.006-0.852 0-1.635-0.3-2.247-0.801l0.006 0.005c-0.63-0.668-1.018-1.571-1.018-2.565 0-0.129 0.007-0.256 0.019-0.381l-0.001 0.016c0.001-0.013 0.002-0.028 0.002-0.044 0-0.133-0.050-0.255-0.132-0.347l0 0c-0.093-0.098-0.224-0.16-0.37-0.16h-3.85c-0.258 0.003-0.469 0.198-0.5 0.448l-0 0.002c-0.018 0.194-0.029 0.42-0.029 0.648 0 1.971 0.773 3.761 2.031 5.085l-0.003-0.003c1.246 1.151 2.844 1.939 4.615 2.185l0.045 0.005v2.61c0 0.276 0.224 0.5 0.5 0.5v0h2.61c0.276 0 0.5-0.224 0.5-0.5v0-2.73c1.776-0.219 3.343-0.978 4.566-2.105l-0.006 0.005c1.119-1.17 1.808-2.76 1.808-4.511 0-0.116-0.003-0.231-0.009-0.345l0.001 0.016c0.006-0.1 0.009-0.217 0.009-0.335 0-1.774-0.709-3.382-1.86-4.556l0.001 0.001z"></path>
</svg>
