<svg id="Layer_1" data-name="Layer 1" xmlns="http://www.w3.org/2000/svg" viewBox="0 0 32 32"><defs><style>.cls-1{fill:#09c;}.cls-2{fill:#003359;}</style></defs><path class="cls-1" d="M18.05,19.7a1.94,1.94,0,0,0-.57-1.44,4.85,4.85,0,0,0-1.89-1,8.88,8.88,0,0,1-3.23-1.77,3.74,3.74,0,0,1-1-2.82,3.85,3.85,0,0,1,1-2.78,4.39,4.39,0,0,1,2.8-1.3V6.34h1.62V8.57a4.15,4.15,0,0,1,2.72,1.49,5,5,0,0,1,1,3.26H18a3.26,3.26,0,0,0-.57-2.07,1.86,1.86,0,0,0-1.57-.74,2,2,0,0,0-1.56.56,2,2,0,0,0-.52,1.5A2,2,0,0,0,14.32,14a5.39,5.39,0,0,0,1.95,1,9,9,0,0,1,3.2,1.79,3.73,3.73,0,0,1,1,2.8,3.75,3.75,0,0,1-1,2.81,4.77,4.77,0,0,1-2.93,1.25v2H14.92V23.74a5,5,0,0,1-3-1.32,4.21,4.21,0,0,1-1.14-3.31h2.4a2.64,2.64,0,0,0,.7,2.07,2.61,2.61,0,0,0,1.77.62,2.51,2.51,0,0,0,1.78-.6A1.89,1.89,0,0,0,18.05,19.7Z"/><path class="cls-2" d="M16,1A15,15,0,1,1,1,16,15,15,0,0,1,16,1m0-1h0A16,16,0,0,0,0,16H0A16,16,0,0,0,16,32h0A16,16,0,0,0,32,16h0A16,16,0,0,0,16,0Z"/></svg>