<!-- Generated by IcoMoon.io -->
<svg version="1.1" xmlns="http://www.w3.org/2000/svg" width="32" height="32" viewBox="0 0 32 32">
<title>money-bill</title>
<path fill="#09c" d="M16.86 12c0.001-0.012 0.001-0.026 0.001-0.040 0-0.185-0.077-0.352-0.201-0.47l-0-0c-0.19-0.165-0.417-0.292-0.667-0.367l-0.013-0.003c-0.446-0.134-0.831-0.354-1.153-0.643l0.003 0.002c-0.231-0.232-0.374-0.551-0.374-0.904 0-0.034 0.001-0.067 0.004-0.101l-0 0.004c-0.001-0.019-0.001-0.040-0.001-0.062 0-0.363 0.141-0.693 0.372-0.939l-0.001 0.001c0.258-0.261 0.607-0.431 0.995-0.46l0.005-0v-0.8h0.58v0.78c0.405 0.043 0.757 0.243 0.998 0.537l0.002 0.003c0.221 0.286 0.354 0.65 0.354 1.045 0 0.040-0.001 0.081-0.004 0.12l0-0.005h-0.89c0.002-0.026 0.003-0.056 0.003-0.087 0-0.244-0.076-0.47-0.206-0.657l0.002 0.004c-0.119-0.165-0.311-0.271-0.528-0.271-0.011 0-0.023 0-0.034 0.001l0.002-0c-0.022-0.002-0.047-0.004-0.073-0.004-0.376 0-0.68 0.304-0.68 0.68 0 0.023 0.001 0.045 0.003 0.067l-0-0.003c-0 0.002-0 0.005-0 0.008 0 0.195 0.076 0.371 0.2 0.502l-0-0c0.195 0.167 0.43 0.295 0.687 0.367l0.013 0.003c0.441 0.14 0.822 0.359 1.143 0.643l-0.003-0.003c0.23 0.239 0.372 0.564 0.372 0.923 0 0.027-0.001 0.054-0.002 0.081l0-0.004c0.001 0.022 0.002 0.048 0.002 0.073 0 0.36-0.142 0.686-0.372 0.927l0-0c-0.279 0.253-0.643 0.416-1.045 0.44l-0.005 0v0.71h-0.58v-0.68c-0.422-0.011-0.805-0.168-1.102-0.422l0.002 0.002c-0.258-0.273-0.416-0.643-0.416-1.049 0-0.050 0.002-0.099 0.007-0.147l-0 0.006h0.86c-0.002 0.023-0.003 0.049-0.003 0.075 0 0.256 0.096 0.489 0.254 0.666l-0.001-0.001c0.161 0.137 0.372 0.221 0.602 0.221 0.014 0 0.027-0 0.040-0.001l-0.002 0c0.020 0.002 0.044 0.003 0.068 0.003 0.216 0 0.413-0.081 0.563-0.213l-0.001 0.001c0.137-0.125 0.222-0.304 0.222-0.503 0-0.020-0.001-0.040-0.003-0.060l0 0.003z"></path>
<path fill="#003359" d="M27.23 0h-22.46c-0.276 0-0.5 0.224-0.5 0.5v0 31c0 0.276 0.224 0.5 0.5 0.5v0h22.46c0.276 0 0.5-0.224 0.5-0.5v0-31c0-0.276-0.224-0.5-0.5-0.5v0zM26.73 31h-21.46v-30h21.46z"></path>
<path fill="#003359" d="M8.67 27.26h7.63c0.276 0 0.5-0.224 0.5-0.5v0c0-0.276-0.224-0.5-0.5-0.5v0h-7.63c-0.276 0-0.5 0.224-0.5 0.5v0c0 0.276 0.224 0.5 0.5 0.5v0z"></path>
<path fill="#003359" d="M8.67 22h14.58c0.276 0 0.5-0.224 0.5-0.5s-0.224-0.5-0.5-0.5v0h-14.58c-0.276 0-0.5 0.224-0.5 0.5s0.224 0.5 0.5 0.5v0z"></path>
<path fill="#003359" d="M15.47 18.070h1.060c3.739 0 6.77-3.031 6.77-6.77v0-1.050c0-3.739-3.031-6.77-6.77-6.77v0h-1.060c-3.739 0-6.77 3.031-6.77 6.77v0 1.050c0 3.739 3.031 6.77 6.77 6.77v0zM9.7 10.25c0.006-3.184 2.586-5.764 5.769-5.77h1.061c3.184 0.006 5.764 2.586 5.77 5.769v1.051c-0.006 3.184-2.586 5.764-5.769 5.77h-1.061c-3.184-0.006-5.764-2.586-5.77-5.769v-0.001z"></path>
</svg>
