<svg id="Layer_1" data-name="Layer 1" xmlns="http://www.w3.org/2000/svg" viewBox="0 0 32 32"><defs><style>.cls-1{fill:#09c;}.cls-2{fill:#003359;}</style></defs><path class="cls-1" d="M16.86,12a.65.65,0,0,0-.2-.51,1.81,1.81,0,0,0-.68-.37,3,3,0,0,1-1.15-.64,1.28,1.28,0,0,1-.37-1,1.37,1.37,0,0,1,.37-1,1.56,1.56,0,0,1,1-.46v-.8h.58V8a1.49,1.49,0,0,1,1,.54,1.72,1.72,0,0,1,.35,1.16h-.89a1.15,1.15,0,0,0-.2-.74.65.65,0,0,0-.56-.27.68.68,0,0,0-.75.74.73.73,0,0,0,.2.51,1.82,1.82,0,0,0,.7.37,3.14,3.14,0,0,1,1.14.64,1.33,1.33,0,0,1,.37,1,1.34,1.34,0,0,1-.37,1,1.71,1.71,0,0,1-1.05.44v.71h-.58v-.68A1.77,1.77,0,0,1,14.67,13a1.53,1.53,0,0,1-.41-1.19h.86a1,1,0,0,0,.25.74.93.93,0,0,0,.64.22.85.85,0,0,0,.63-.21A.68.68,0,0,0,16.86,12Z"/><path class="cls-2" d="M27.23,0H4.77a.5.5,0,0,0-.5.5v31a.5.5,0,0,0,.5.5H27.23a.5.5,0,0,0,.5-.5V.5A.5.5,0,0,0,27.23,0Zm-.5,31H5.27V1H26.73Z"/><path class="cls-2" d="M8.67,27.26H16.3a.5.5,0,0,0,.5-.5.5.5,0,0,0-.5-.5H8.67a.5.5,0,0,0-.5.5A.5.5,0,0,0,8.67,27.26Z"/><path class="cls-2" d="M8.67,22H23.25a.5.5,0,0,0,0-1H8.67a.5.5,0,1,0,0,1Z"/><path class="cls-2" d="M15.47,18.07h1.06A6.77,6.77,0,0,0,23.3,11.3V10.25a6.77,6.77,0,0,0-6.77-6.77H15.47A6.77,6.77,0,0,0,8.7,10.25V11.3A6.77,6.77,0,0,0,15.47,18.07ZM9.7,10.25a5.78,5.78,0,0,1,5.77-5.77h1.06a5.78,5.78,0,0,1,5.77,5.77V11.3a5.78,5.78,0,0,1-5.77,5.77H15.47A5.78,5.78,0,0,1,9.7,11.3Z"/></svg>