<!-- Generated by IcoMoon.io -->
<svg version="1.1" xmlns="http://www.w3.org/2000/svg" width="32" height="32" viewBox="0 0 32 32">
<title>money-circle</title>
<path fill="#09c" d="M18.050 19.7c0.001-0.019 0.001-0.042 0.001-0.065 0-0.537-0.218-1.023-0.571-1.375l-0-0c-0.526-0.453-1.16-0.798-1.856-0.992l-0.034-0.008c-1.247-0.382-2.326-0.989-3.241-1.78l0.011 0.010c-0.625-0.667-1.009-1.566-1.009-2.556 0-0.093 0.003-0.185 0.010-0.277l-0.001 0.012c-0.003-0.056-0.005-0.121-0.005-0.187 0-1 0.382-1.912 1.007-2.596l-0.003 0.003c0.721-0.733 1.698-1.214 2.785-1.299l0.015-0.001v-2.25h1.62v2.23c1.102 0.134 2.055 0.683 2.714 1.483l0.006 0.007c0.628 0.827 1.006 1.873 1.006 3.008 0 0.088-0.002 0.176-0.007 0.264l0-0.012h-2.5c0.005-0.065 0.007-0.141 0.007-0.218 0-0.693-0.216-1.335-0.584-1.863l0.007 0.011c-0.343-0.453-0.881-0.742-1.486-0.742-0.029 0-0.059 0.001-0.088 0.002l0.004-0c-0.049-0.004-0.107-0.007-0.165-0.007-0.543 0-1.035 0.216-1.395 0.567l0-0c-0.326 0.355-0.526 0.83-0.526 1.351 0 0.052 0.002 0.104 0.006 0.156l-0-0.007c-0.001 0.018-0.001 0.040-0.001 0.062 0 0.53 0.206 1.011 0.542 1.369l-0.001-0.001c0.549 0.446 1.201 0.789 1.912 0.991l0.038 0.009c1.236 0.396 2.303 1.008 3.211 1.799l-0.011-0.009c0.625 0.665 1.008 1.563 1.008 2.551 0 0.088-0.003 0.175-0.009 0.261l0.001-0.012c0.005 0.075 0.008 0.163 0.008 0.251 0 0.99-0.384 1.89-1.010 2.561l0.002-0.002c-0.775 0.715-1.792 1.176-2.916 1.249l-0.014 0.001v2h-1.62v-1.91c-1.168-0.097-2.206-0.581-3.003-1.323l0.003 0.003c-0.718-0.754-1.16-1.776-1.16-2.902 0-0.144 0.007-0.286 0.021-0.426l-0.001 0.018h2.4c-0.008 0.079-0.013 0.172-0.013 0.265 0 0.699 0.271 1.334 0.715 1.806l-0.001-0.001c0.452 0.386 1.044 0.621 1.69 0.621 0.028 0 0.056-0 0.084-0.001l-0.004 0c0.044 0.003 0.095 0.004 0.146 0.004 0.625 0 1.197-0.229 1.637-0.607l-0.003 0.003c0.383-0.347 0.623-0.847 0.623-1.402 0-0.034-0.001-0.069-0.003-0.103l0 0.005z"></path>
<path fill="#003359" d="M16 1c8.284 0 15 6.716 15 15s-6.716 15-15 15c-8.284 0-15-6.716-15-15v0c0-8.284 6.716-15 15-15v0zM16 0v0c-8.837 0-16 7.163-16 16v0 0c0 8.837 7.163 16 16 16v0 0c8.837 0 16-7.163 16-16v0 0c0-8.837-7.163-16-16-16v0z"></path>
</svg>
