<svg id="Layer_1" data-name="Layer 1" xmlns="http://www.w3.org/2000/svg" viewBox="0 0 32 32"><defs><style>.cls-1{fill:#003359;}</style></defs><path class="cls-1" d="M21.49,16.94a14.81,14.81,0,0,0-5.33-3,8,8,0,0,1-2.91-1.53,2.65,2.65,0,0,1-.74-2,2.83,2.83,0,0,1,.67-2,2.92,2.92,0,0,1,2.19-.76,2.56,2.56,0,0,1,2.09,1,4.78,4.78,0,0,1,.82,3,.49.49,0,0,0,.14.38.48.48,0,0,0,.36.16h4a.5.5,0,0,0,.5-.48,8.63,8.63,0,0,0-1.69-5.57,7.1,7.1,0,0,0-4.25-2.5V.5a.5.5,0,0,0-.5-.5H14.23a.5.5,0,0,0-.5.5V3.62A7.57,7.57,0,0,0,9.38,5.81a6.65,6.65,0,0,0-1.79,4.77,6.52,6.52,0,0,0,1.83,4.93,14.41,14.41,0,0,0,5.37,2.94A7.44,7.44,0,0,1,17.61,20a2.65,2.65,0,0,1,.77,1.94v0a2.5,2.5,0,0,1-.82,2,3.52,3.52,0,0,1-2.55.85A3.55,3.55,0,0,1,12.56,24a3.74,3.74,0,0,1-1-2.93.52.52,0,0,0-.13-.39.51.51,0,0,0-.37-.16H7.21a.51.51,0,0,0-.5.45,7.38,7.38,0,0,0,2,5.73,8.57,8.57,0,0,0,4.66,2.19V31.5a.5.5,0,0,0,.5.5h2.61a.5.5,0,0,0,.5-.5V28.77a8.18,8.18,0,0,0,4.56-2.1,6.53,6.53,0,0,0,1.8-4.84A6.51,6.51,0,0,0,21.49,16.94Z"/></svg>