<svg id="Layer_1" data-name="Layer 1" xmlns="http://www.w3.org/2000/svg" viewBox="0 0 32 32"><defs><style>.cls-1{fill:#09c;}.cls-2{fill:#003359;}</style></defs><path class="cls-1" d="M22.55,14.82H5a.51.51,0,0,0-.5.5v3.75a.5.5,0,0,0,.5.5H22.55a.5.5,0,0,0,.5-.5V15.32A.5.5,0,0,0,22.55,14.82Zm-.5,3.75H5.5V15.82H22.05Z"/><path class="cls-1" d="M24.85,14.82a.5.5,0,0,0-.5.5v3.75a.5.5,0,0,0,.5.5.5.5,0,0,0,.5-.5V15.32A.51.51,0,0,0,24.85,14.82Z"/><path class="cls-1" d="M27.34,14.82a.51.51,0,0,0-.5.5v3.75a.5.5,0,0,0,.5.5.5.5,0,0,0,.5-.5V15.32A.5.5,0,0,0,27.34,14.82Z"/><path class="cls-2" d="M16,0h0a16,16,0,0,0,0,32h0A16,16,0,0,0,16,0Zm0,31A15,15,0,0,1,5.05,5.78L26.23,26.94A14.93,14.93,0,0,1,16,31Zm10.94-4.77L5.76,5.07A15,15,0,0,1,26.94,26.23Z"/></svg>