<!-- Generated by IcoMoon.io -->
<svg version="1.1" xmlns="http://www.w3.org/2000/svg" width="32" height="32" viewBox="0 0 32 32">
<title>no-smoking</title>
<path fill="#09c" d="M22.55 14.82h-17.55c-0.274 0.005-0.495 0.226-0.5 0.499v3.751c0 0.276 0.224 0.5 0.5 0.5v0h17.55c0.276 0 0.5-0.224 0.5-0.5v0-3.75c0-0.276-0.224-0.5-0.5-0.5v0zM22.050 18.57h-16.55v-2.75h16.55z"></path>
<path fill="#09c" d="M24.85 14.82c-0.276 0-0.5 0.224-0.5 0.5v0 3.75c0 0.276 0.224 0.5 0.5 0.5v0c0.276 0 0.5-0.224 0.5-0.5v0-3.75c-0.006-0.274-0.226-0.495-0.499-0.5h-0.001z"></path>
<path fill="#09c" d="M27.34 14.82c-0.274 0.005-0.494 0.226-0.5 0.499v3.751c0 0.276 0.224 0.5 0.5 0.5v0c0.276 0 0.5-0.224 0.5-0.5v0-3.75c0-0.276-0.224-0.5-0.5-0.5v0z"></path>
<path fill="#003359" d="M16 0v0c-8.837 0-16 7.163-16 16s7.163 16 16 16v0 0c8.837 0 16-7.163 16-16s-7.163-16-16-16v0zM16 31c-8.272-0.017-14.97-6.726-14.97-15 0-3.953 1.529-7.549 4.029-10.229l-0.008 0.009 21.18 21.16c-2.665 2.514-6.267 4.059-10.23 4.060h-0zM26.94 26.23l-21.18-21.16c2.629-2.324 6.106-3.743 9.914-3.743 8.284 0 15 6.716 15 15 0 3.803-1.415 7.275-3.748 9.919l0.014-0.016z"></path>
</svg>
