<!-- Generated by IcoMoon.io -->
<svg version="1.1" xmlns="http://www.w3.org/2000/svg" width="32" height="32" viewBox="0 0 32 32">
<title>open</title>
<path fill="#09c" d="M3.63 20.53c-0.011-0.094-0.017-0.203-0.017-0.313 0-1.596 1.294-2.89 2.89-2.89 0.045 0 0.089 0.001 0.133 0.003l-0.006-0c0.041-0.002 0.090-0.003 0.138-0.003 1.591 0 2.88 1.289 2.88 2.88 0 0.114-0.007 0.226-0.019 0.337l0.001-0.013v0.86c0.010 0.091 0.016 0.197 0.016 0.305 0 1.574-1.276 2.85-2.85 2.85-0.059 0-0.117-0.002-0.174-0.005l0.008 0c-0.053 0.004-0.115 0.006-0.178 0.006-1.569 0-2.84-1.271-2.84-2.84 0-0.111 0.006-0.221 0.019-0.329l-0.001 0.013zM5.13 21.4c0 1.31 0.66 2 1.52 2s1.52-0.65 1.52-2v-0.88c0-1.31-0.66-2-1.52-2s-1.52 0.66-1.52 2z"></path>
<path fill="#09c" d="M13.66 17.46c0.032-0.002 0.069-0.003 0.106-0.003 1.178 0 2.144 0.91 2.233 2.065l0 0.008v0.28c0.002 0.034 0.003 0.073 0.003 0.113 0 1.185-0.928 2.153-2.097 2.217l-0.006 0h-1.6v2.27h-1.47v-6.95zM12.29 21h0.78c0.91 0 1.47-0.29 1.47-1.18 0.003-0.031 0.005-0.067 0.005-0.103 0-0.572-0.441-1.041-1.001-1.086l-0.004-0c-0.033-0.005-0.071-0.008-0.11-0.008s-0.077 0.003-0.114 0.008l0.004-0h-1z"></path>
<path fill="#09c" d="M21.52 24.41h-4.52v-6.95h4.54v1.22h-3.1v1.7h2.89v1.11h-2.89v1.76h3.070z"></path>
<path fill="#09c" d="M22.75 24.41v-6.95h1.25l3 4.54v-4.54h1.36v7h-1.19l-3-4.49h-0.050v4.49z"></path>
<path fill="#003359" d="M29.81 11.84h-1.76l-11.71-11.15c-0.089-0.083-0.209-0.133-0.34-0.133s-0.251 0.051-0.34 0.134l0-0-11.66 11.070c-0.025 0.022-0.045 0.049-0.059 0.079l-0.001 0.001h-1.75c-0 0-0 0-0 0-1.199 0-2.173 0.963-2.19 2.158l-0 0.002v13.84c0.022 1.194 0.993 2.155 2.189 2.16h27.621c1.197-0.005 2.168-0.966 2.19-2.158l0-0.002v-13.84c-0.017-1.197-0.991-2.16-2.19-2.16-0 0-0 0-0 0v0zM16 1.74l10.6 10.1h-21.22zM31 27.84c-0.022 0.642-0.545 1.155-1.189 1.16h-27.62c-0.645-0.005-1.168-0.518-1.19-1.158l-0-0.002v-13.84c0-0.657 0.533-1.19 1.19-1.19v0h27.62c0.657 0 1.19 0.533 1.19 1.19v0z"></path>
</svg>
