<!-- Generated by IcoMoon.io -->
<svg version="1.1" xmlns="http://www.w3.org/2000/svg" width="32" height="32" viewBox="0 0 32 32">
<title>outside</title>
<path fill="#09c" d="M6.1 29c-0.276 0-0.5-0.224-0.5-0.5v0-6.69c0-0.276 0.224-0.5 0.5-0.5v0c0.274 0.006 0.495 0.226 0.5 0.499v6.661c0.001 0.009 0.001 0.019 0.001 0.030 0 0.276-0.224 0.5-0.5 0.5-0 0-0.001 0-0.001 0h0z"></path>
<path fill="#09c" d="M9.69 17.46h0.13c0.366-0.002 0.685-0.201 0.857-0.495l0.003-0.005c0.084-0.143 0.134-0.316 0.134-0.5s-0.050-0.357-0.137-0.505l0.003 0.005-1.74-3h0.060c0.55-0.003 0.994-0.45 0.994-1 0-0.184-0.050-0.357-0.137-0.505l0.003 0.005-1.43-2.56-1.43-2.54c-0.175-0.299-0.494-0.498-0.86-0.5h-0c-0.001 0-0.003 0-0.004 0-0.368 0-0.69 0.199-0.863 0.495l-0.003 0.005-1.51 2.54-1.46 2.54c-0.084 0.143-0.134 0.316-0.134 0.5s0.050 0.357 0.137 0.505l-0.003-0.005c0.175 0.299 0.494 0.498 0.86 0.5h0.090l-1.74 3.060c-0.084 0.143-0.134 0.316-0.134 0.5s0.050 0.357 0.137 0.505l-0.003-0.005c0.176 0.301 0.498 0.5 0.866 0.5 0.001 0 0.003 0 0.004 0h0.13l-1.65 2.81c-0.084 0.143-0.134 0.316-0.134 0.5 0 0.55 0.444 0.997 0.994 1h8.75c0.001 0 0.003 0 0.004 0 0.368 0 0.69-0.199 0.863-0.495l0.003-0.005c0.084-0.143 0.134-0.316 0.134-0.5s-0.050-0.357-0.137-0.505l0.003 0.005zM6.1 20.81h-4.38l2.19-3.81 0.33-0.56h-1.86l1.86-3.22 0.76-1.28h-1.84l2.94-5.080 1.47 2.54 1.43 2.54h-1.79l0.79 1.3 1.86 3.22h-1.86l0.33 0.56 2.18 3.79z"></path>
<path fill="#09c" d="M27.48 12c0.049-0.255 0.078-0.549 0.080-0.849v-0.001c-0.121-2.598-2.258-4.659-4.875-4.659s-4.754 2.061-4.875 4.648l-0 0.011c0 0.2 0 0.41 0 0.61-2.44 0.288-4.314 2.344-4.314 4.838 0 2.69 2.18 4.87 4.87 4.87 1.442 0 2.738-0.627 3.63-1.624l0.004-0.005v8.63c0 0.276 0.224 0.5 0.5 0.5v0c0.276 0 0.5-0.224 0.5-0.5v0-8.47c0.897 1.021 2.206 1.662 3.665 1.662 2.69 0 4.87-2.18 4.87-4.87 0-2.384-1.713-4.367-3.974-4.788l-0.030-0.005zM26.6 20.66c-1.655-0.014-3.060-1.070-3.592-2.543l-0.008-0.027v-0.090l3-2.42c0.111-0.092 0.181-0.231 0.181-0.385 0-0.12-0.042-0.229-0.112-0.316l0.001 0.001c-0.092-0.114-0.232-0.186-0.389-0.186-0.122 0-0.235 0.044-0.321 0.117l0.001-0.001-2.36 1.86v-4c0-0.276-0.224-0.5-0.5-0.5v0c-0.274 0.005-0.494 0.226-0.5 0.499v4.071l-2.57-1.74c-0.081-0.056-0.18-0.089-0.288-0.089-0.169 0-0.318 0.082-0.411 0.208l-0.001 0.001c-0.058 0.081-0.093 0.182-0.093 0.291 0 0.169 0.084 0.318 0.212 0.408l0.002 0.001 3.090 2.18c-0.564 1.484-1.974 2.52-3.627 2.52-2.137 0-3.87-1.733-3.87-3.87 0-2.136 1.731-3.868 3.867-3.87h0v-0.46l0.13 0.47c0.007 0 0.014 0.001 0.022 0.001 0.154 0 0.291-0.074 0.377-0.189l0.001-0.001c0.065-0.088 0.104-0.199 0.104-0.318 0-0.043-0.005-0.085-0.015-0.125l0.001 0.004c-0.083-0.29-0.13-0.622-0.13-0.966 0-0.012 0-0.024 0-0.036v0.002c-0-0.011-0-0.024-0-0.037 0-2.143 1.737-3.88 3.88-3.88s3.88 1.737 3.88 3.88c0 0.417-0.066 0.819-0.188 1.195l0.008-0.027c-0.013 0.042-0.020 0.091-0.020 0.142 0 0.268 0.206 0.487 0.468 0.508l0.002 0c2.015 0.148 3.594 1.82 3.594 3.86 0 2.125-1.712 3.85-3.832 3.87h-0.002z"></path>
<path fill="#003359" d="M12.39 8.51c0.081 0.062 0.185 0.1 0.297 0.1 0.001 0 0.002 0 0.004 0h-0c0.017 0.002 0.036 0.004 0.055 0.004 0.096 0 0.184-0.031 0.256-0.084l-0.001 0.001 1.78-1.14c0.141-0.088 0.233-0.242 0.233-0.417 0-0.102-0.031-0.196-0.084-0.275l0.001 0.002c-0.090-0.139-0.245-0.229-0.42-0.229-0.1 0-0.194 0.029-0.272 0.080l0.002-0.001-1.48 1-1.48-1.15c-0.088-0.077-0.203-0.124-0.329-0.124-0.276 0-0.5 0.224-0.5 0.5 0 0.171 0.086 0.323 0.218 0.413l0.002 0.001z"></path>
<path fill="#003359" d="M16.55 5.22c0.081 0.056 0.182 0.089 0.29 0.090h0c0.096-0.003 0.185-0.029 0.263-0.072l-0.003 0.002 1.8-1.1c0.146-0.087 0.243-0.244 0.243-0.423 0-0.095-0.027-0.184-0.074-0.259l0.001 0.002c-0.089-0.147-0.248-0.243-0.429-0.243-0.096 0-0.187 0.027-0.263 0.075l0.002-0.001-1.52 0.92-1.31-0.91c-0.080-0.054-0.178-0.086-0.283-0.086-0.171 0-0.323 0.085-0.416 0.214l-0.001 0.002c-0.056 0.080-0.090 0.179-0.090 0.286 0 0.172 0.086 0.323 0.218 0.413l0.002 0.001z"></path>
<path fill="#003359" d="M31.5 28h-31c-0.274 0.006-0.494 0.226-0.5 0.499v0.001c0 0.276 0.224 0.5 0.5 0.5v0h31c0.276 0 0.5-0.224 0.5-0.5v0c0-0.276-0.224-0.5-0.5-0.5v0z"></path>
</svg>
