<!-- Generated by IcoMoon.io -->
<svg version="1.1" xmlns="http://www.w3.org/2000/svg" width="32" height="32" viewBox="0 0 32 32">
<title>paper-certificate</title>
<path fill="#003359" d="M25.28 0h-13.53c-0.014-0.001-0.030-0.002-0.047-0.002-0.114 0-0.22 0.038-0.304 0.103l0.001-0.001-4.83 4.82c-0.092 0.092-0.15 0.219-0.15 0.36v20.51c0 0.276 0.224 0.5 0.5 0.5v0h18.36c0.274-0.006 0.494-0.226 0.5-0.499v-25.331c-0.021-0.258-0.236-0.46-0.498-0.46-0.001 0-0.001 0-0.002 0h0zM11.28 1.86v3.14h-3.15zM24.78 25.29h-17.36v-19.29h4.4c0.276 0 0.5-0.224 0.5-0.5v0-4.5h12.46z"></path>
<path fill="#09c" d="M20.15 25.68v2.93l-2.19 2.85v-6.91z"></path>
<path fill="#09c" d="M18 32h-0.16c-0.196-0.071-0.335-0.254-0.34-0.469v-6.981c0-0.276 0.224-0.5 0.5-0.5v0c0.276 0 0.5 0.224 0.5 0.5v0 5.45l1.19-1.54v-2.78c0-0.276 0.224-0.5 0.5-0.5v0c0.276 0 0.5 0.224 0.5 0.5v0 2.93c0 0.003 0 0.006 0 0.010 0 0.11-0.038 0.211-0.101 0.291l0.001-0.001-2.19 2.85c-0.083 0.139-0.23 0.232-0.399 0.24l-0.001 0z"></path>
<path fill="#09c" d="M20.81 25.68v2.93l2.19 2.85v-6.91z"></path>
<path fill="#09c" d="M23 32c-0.002 0-0.003 0-0.005 0-0.162 0-0.305-0.078-0.394-0.199l-0.001-0.001-2.19-2.85c-0.062-0.079-0.1-0.18-0.1-0.29 0-0.004 0-0.007 0-0.011v0.001-2.97c0-0.276 0.224-0.5 0.5-0.5v0c0.276 0 0.5 0.224 0.5 0.5v0 2.76l1.19 1.56v-5.45c0-0.276 0.224-0.5 0.5-0.5v0c0.276 0 0.5 0.224 0.5 0.5v0 6.91c-0.005 0.216-0.144 0.399-0.336 0.469l-0.004 0.001z"></path>
<path fill="#09c" d="M20.56 25.93c-2.596 0-4.7-2.104-4.7-4.7s2.104-4.7 4.7-4.7c2.596 0 4.7 2.104 4.7 4.7v0c-0.006 2.593-2.107 4.694-4.699 4.7h-0.001zM20.56 17.53c-2.043 0-3.7 1.657-3.7 3.7s1.657 3.7 3.7 3.7c2.043 0 3.7-1.657 3.7-3.7v0c0-2.043-1.657-3.7-3.7-3.7v0z"></path>
</svg>
