<!-- Generated by IcoMoon.io -->
<svg version="1.1" xmlns="http://www.w3.org/2000/svg" width="32" height="32" viewBox="0 0 32 32">
<title>paper-check</title>
<path fill="#003359" d="M14.29 27.26h4.53c0.276 0 0.5-0.224 0.5-0.5v0c0-0.276-0.224-0.5-0.5-0.5v0h-4.53c-0.276 0-0.5 0.224-0.5 0.5v0c0 0.276 0.224 0.5 0.5 0.5v0z"></path>
<path fill="#003359" d="M27.15 0h-16.56c-0.002-0-0.004-0-0.006-0-0.136 0-0.258 0.058-0.344 0.15l-0 0-5.91 5.9c-0.090 0.090-0.147 0.213-0.15 0.349v25.101c0 0.276 0.224 0.5 0.5 0.5v0h22.47c0.276 0 0.5-0.224 0.5-0.5v0-31c0-0.276-0.224-0.5-0.5-0.5v0zM10.15 1.71v4.29h-4.26zM26.65 31h-21.47v-24h5.5c0.276 0 0.5-0.224 0.5-0.5v0-5.5h15.47z"></path>
<path fill="#003359" d="M14.29 22h8.71c0.276 0 0.5-0.224 0.5-0.5s-0.224-0.5-0.5-0.5v0h-8.71c-0.276 0-0.5 0.224-0.5 0.5s0.224 0.5 0.5 0.5v0z"></path>
<path fill="#003359" d="M14.29 16.78h8.71c0.274-0.006 0.494-0.226 0.5-0.499v-0.001c0-0.276-0.224-0.5-0.5-0.5v0h-8.71c-0.276 0-0.5 0.224-0.5 0.5v0c0 0.276 0.224 0.5 0.5 0.5v0z"></path>
<path fill="#003359" d="M14.29 11.53h8.71c0.276 0 0.5-0.224 0.5-0.5v0c-0.006-0.274-0.226-0.495-0.499-0.5h-8.711c-0.276 0-0.5 0.224-0.5 0.5v0c0 0.276 0.224 0.5 0.5 0.5v0z"></path>
<path fill="#09c" d="M10.19 11.060c0 0.619-0.501 1.12-1.12 1.12s-1.12-0.501-1.12-1.12c0-0.619 0.501-1.12 1.12-1.12s1.12 0.501 1.12 1.12z"></path>
<path fill="#09c" d="M10.19 16.28c0 0.619-0.501 1.12-1.12 1.12s-1.12-0.501-1.12-1.12c0-0.619 0.501-1.12 1.12-1.12s1.12 0.501 1.12 1.12z"></path>
<path fill="#09c" d="M10.19 21.52c0 0.619-0.501 1.12-1.12 1.12s-1.12-0.501-1.12-1.12c0-0.619 0.501-1.12 1.12-1.12s1.12 0.501 1.12 1.12z"></path>
<path fill="#09c" d="M10.19 26.76c0 0.619-0.501 1.12-1.12 1.12s-1.12-0.501-1.12-1.12c0-0.619 0.501-1.12 1.12-1.12s1.12 0.501 1.12 1.12z"></path>
</svg>
