<svg id="Layer_1" data-name="Layer 1" xmlns="http://www.w3.org/2000/svg" viewBox="0 0 32 32"><defs><style>.cls-1{fill:#003359;}</style></defs><path class="cls-1" d="M26.61-.11H10a.56.56,0,0,0-.3.14L3.81,5.93a.49.49,0,0,0-.15.36V31.37a.5.5,0,0,0,.5.5H26.61a.5.5,0,0,0,.5-.5V.39A.51.51,0,0,0,26.61-.11Zm-17,1.69V5.85H5.37ZM26.11,30.87H4.66v-24h5.49a.5.5,0,0,0,.5-.5V.89H26.11Z"/><path class="cls-1" d="M15.46,26.14H7.83a.5.5,0,0,0-.5.5.51.51,0,0,0,.5.5h7.63a.5.5,0,0,0,.5-.5A.5.5,0,0,0,15.46,26.14Z"/><path class="cls-1" d="M22.41,20.9H7.83a.5.5,0,0,0-.5.5.51.51,0,0,0,.5.5H22.41a.5.5,0,0,0,.5-.5A.5.5,0,0,0,22.41,20.9Z"/><path class="cls-1" d="M22.41,15.66H7.83a.5.5,0,0,0-.5.5.51.51,0,0,0,.5.5H22.41a.5.5,0,0,0,.5-.5A.5.5,0,0,0,22.41,15.66Z"/><path class="cls-1" d="M7.83,10.42a.5.5,0,0,0-.5.5.51.51,0,0,0,.5.5H22.41a.5.5,0,0,0,.5-.5.5.5,0,0,0-.5-.5Z"/></svg>