<!-- Generated by IcoMoon.io -->
<svg version="1.1" xmlns="http://www.w3.org/2000/svg" width="32" height="32" viewBox="0 0 32 32">
<title>papers</title>
<path fill="#003359" d="M28.1 9.44h-3.89v-3.92c0-0.276-0.224-0.5-0.5-0.5v0h-3.6v-4.49c0-0.276-0.224-0.5-0.5-0.5v0h-11.61l-0.1 0.030c-0.077 0.024-0.144 0.062-0.201 0.111l0.001-0.001-4.080 4.080c-0.042 0.047-0.073 0.104-0.089 0.167l-0.001 0.003c-0.002 0.017-0.004 0.036-0.004 0.055s0.001 0.038 0.004 0.057l-0-0.002c-0.002 0.012-0.003 0.026-0.003 0.040s0.001 0.028 0.004 0.041l-0-0.001v17.5c0 0.276 0.224 0.5 0.5 0.5v0h3.6v4.5c0.005 0.274 0.226 0.494 0.499 0.5h3.871v3.92c0 0.276 0.224 0.5 0.5 0.5v0h15.6c0.276 0 0.5-0.224 0.5-0.5v0-21.59c0-0.276-0.224-0.5-0.5-0.5v0zM7.55 1.77v2.33h-2.34zM4.47 5.1h3.58c0.276 0 0.5-0.224 0.5-0.5v0-3.6h10.56v20.61h-14.64zM8.57 22.61h11c0.276 0 0.5-0.224 0.5-0.5v0-16.11h3.1v20.61h-14.6zM27.6 31h-14.6v-3.39h10.71c0.276 0 0.5-0.224 0.5-0.5v0-16.67h3.39z"></path>
</svg>
