<!-- Generated by IcoMoon.io -->
<svg version="1.1" xmlns="http://www.w3.org/2000/svg" width="32" height="32" viewBox="0 0 32 32">
<title>paper</title>
<path fill="#003359" d="M26.84-0.11h-16.6c-0.092 0.017-0.174 0.056-0.241 0.111l0.001-0.001-6 5.93c-0.087 0.093-0.14 0.218-0.14 0.355 0 0.002 0 0.004 0 0.005v-0 25.080c0 0.276 0.224 0.5 0.5 0.5v0h22.48c0.276 0 0.5-0.224 0.5-0.5v0-30.98c0-0.276-0.224-0.5-0.5-0.5v0zM9.89 1.58v4.27h-4.29zM26.34 30.87h-21.44v-24h5.49c0.276 0 0.5-0.224 0.5-0.5v0-5.48h15.45z"></path>
</svg>
