<!-- Generated by IcoMoon.io -->
<svg version="1.1" xmlns="http://www.w3.org/2000/svg" width="32" height="32" viewBox="0 0 32 32">
<title>paper-clipboard</title>
<path fill="#003359" d="M26.38 2.49h-8c-0.304-1.425-1.551-2.478-3.045-2.478s-2.741 1.053-3.041 2.457l-0.004 0.020h-7.7c-0.276 0-0.5 0.224-0.5 0.5v0 28.51c0 0.276 0.224 0.5 0.5 0.5v0h21.79c0.276 0 0.5-0.224 0.5-0.5v0-28.5c0-0.003 0-0.006 0-0.010 0-0.276-0.224-0.5-0.5-0.5-0 0-0 0-0 0v0zM12.75 3.49c0 0 0 0 0 0 0.269 0 0.489-0.213 0.5-0.479l0-0.001c0.078-1.101 0.991-1.965 2.105-1.965s2.027 0.864 2.105 1.958l0 0.007c0.011 0.267 0.23 0.48 0.5 0.48 0 0 0 0 0 0h2.7v3.45h-10.61v-3.45zM25.88 31h-20.79v-27.51h4v4c0 0.276 0.224 0.5 0.5 0.5v0h11.57c0.276 0 0.5-0.224 0.5-0.5v0-4h4.22z"></path>
<path fill="#003359" d="M22.51 25h-8.21c-0.276 0-0.5 0.224-0.5 0.5s0.224 0.5 0.5 0.5v0h8.21c0.276 0 0.5-0.224 0.5-0.5s-0.224-0.5-0.5-0.5v0z"></path>
<path fill="#003359" d="M22.51 19h-8.21c-0.274 0.006-0.495 0.226-0.5 0.499v0.001c0 0.276 0.224 0.5 0.5 0.5v0h8.21c0.276 0 0.5-0.224 0.5-0.5v0c-0.006-0.274-0.226-0.494-0.499-0.5h-0.001z"></path>
<path fill="#003359" d="M14.3 13c-0.276 0-0.5 0.224-0.5 0.5v0c0.005 0.274 0.226 0.495 0.499 0.5h8.211c0.274-0.005 0.494-0.226 0.5-0.499v-0.001c0-0.276-0.224-0.5-0.5-0.5v0z"></path>
<path fill="#09c" d="M9.53 27.060c-0.034 0.009-0.074 0.015-0.115 0.015s-0.081-0.005-0.118-0.015l0.003 0.001-1.050-0.55c-0.191-0.070-0.324-0.25-0.324-0.461 0-0.096 0.028-0.185 0.075-0.261l-0.001 0.002c0.084-0.166 0.253-0.277 0.448-0.277 0.085 0 0.165 0.021 0.235 0.059l-0.003-0.001 0.71 0.37 1.47-1.62c0.092-0.089 0.217-0.144 0.355-0.144s0.263 0.055 0.355 0.144l-0-0c0.091 0.091 0.148 0.216 0.148 0.355s-0.057 0.264-0.148 0.355l-0 0-1.67 1.87c-0.090 0.099-0.219 0.16-0.362 0.16-0.003 0-0.005-0-0.008-0h0z"></path>
<path fill="#09c" d="M9.53 21.1c-0.088-0.012-0.167-0.048-0.231-0.101l0.001 0.001-1.050-0.55c-0.17-0.079-0.286-0.249-0.286-0.446 0-0.067 0.013-0.13 0.037-0.188l-0.001 0.003c0.087-0.164 0.257-0.274 0.452-0.274 0.083 0 0.162 0.020 0.231 0.055l-0.003-0.001 0.71 0.37 1.47-1.62c0.092-0.089 0.217-0.144 0.355-0.144s0.263 0.055 0.355 0.144l-0-0c0.091 0.091 0.148 0.216 0.148 0.355s-0.057 0.264-0.148 0.355l-0 0-1.67 1.87c-0.091 0.103-0.223 0.168-0.37 0.17h-0z"></path>
<path fill="#09c" d="M9.53 15.12c-0.034 0.009-0.074 0.015-0.115 0.015s-0.081-0.005-0.118-0.015l0.003 0.001-1.050-0.55c-0.191-0.070-0.324-0.25-0.324-0.461 0-0.096 0.028-0.185 0.075-0.261l-0.001 0.002c0.087-0.164 0.257-0.274 0.452-0.274 0.083 0 0.162 0.020 0.231 0.055l-0.003-0.001 0.71 0.37 1.47-1.62c0.092-0.089 0.217-0.144 0.355-0.144s0.263 0.055 0.355 0.144l-0-0c0.091 0.091 0.148 0.216 0.148 0.355s-0.057 0.264-0.148 0.355l-0 0-1.67 1.91c-0.086 0.076-0.199 0.122-0.324 0.122-0.016 0-0.032-0.001-0.048-0.002l0.002 0z"></path>
</svg>
