<svg id="Layer_1" data-name="Layer 1" xmlns="http://www.w3.org/2000/svg" viewBox="0 0 32 32"><defs><style>.cls-1{fill:#003359;}.cls-2{fill:#09c;}</style></defs><path class="cls-1" d="M14.29,27.26h4.53a.5.5,0,0,0,.5-.5.5.5,0,0,0-.5-.5H14.29a.5.5,0,0,0-.5.5A.5.5,0,0,0,14.29,27.26Z"/><path class="cls-1" d="M27.15,0H10.59a.47.47,0,0,0-.35.15L4.33,6.05a.51.51,0,0,0-.15.35V31.5a.5.5,0,0,0,.5.5H27.15a.5.5,0,0,0,.5-.5V.5A.5.5,0,0,0,27.15,0Zm-17,1.71V6H5.89ZM26.65,31H5.18V7h5.5a.5.5,0,0,0,.5-.5V1H26.65Z"/><path class="cls-1" d="M14.29,22H23a.5.5,0,0,0,0-1H14.29a.5.5,0,0,0,0,1Z"/><path class="cls-1" d="M14.29,16.78H23a.51.51,0,0,0,.5-.5.5.5,0,0,0-.5-.5H14.29a.5.5,0,0,0-.5.5A.5.5,0,0,0,14.29,16.78Z"/><path class="cls-1" d="M14.29,11.53H23a.5.5,0,0,0,.5-.5.51.51,0,0,0-.5-.5H14.29a.5.5,0,0,0-.5.5A.5.5,0,0,0,14.29,11.53Z"/><circle class="cls-2" cx="9.07" cy="11.06" r="1.12"/><circle class="cls-2" cx="9.07" cy="16.28" r="1.12"/><circle class="cls-2" cx="9.07" cy="21.52" r="1.12"/><circle class="cls-2" cx="9.07" cy="26.76" r="1.12"/></svg>