<svg id="Layer_1" data-name="Layer 1" xmlns="http://www.w3.org/2000/svg" viewBox="0 0 32 32"><defs><style>.cls-1{fill:#003359;}.cls-2{fill:#09c;}</style></defs><path class="cls-1" d="M25.28,0H11.75A.5.5,0,0,0,11.4.1L6.57,4.92a.51.51,0,0,0-.15.36V25.79a.5.5,0,0,0,.5.5H25.28a.51.51,0,0,0,.5-.5V.46A.5.5,0,0,0,25.28,0Zm-14,1.86V5H8.13ZM24.78,25.29H7.42V6h4.4a.5.5,0,0,0,.5-.5V1H24.78Z"/><polyline class="cls-2" points="20.15 25.68 20.15 28.61 17.96 31.46 17.96 24.55"/><path class="cls-2" d="M18,32l-.16,0a.51.51,0,0,1-.34-.47V24.55a.5.5,0,0,1,.5-.5.5.5,0,0,1,.5.5V30l1.19-1.54V25.68a.5.5,0,0,1,.5-.5.5.5,0,0,1,.5.5v2.93a.47.47,0,0,1-.1.3l-2.19,2.85A.49.49,0,0,1,18,32Z"/><polyline class="cls-2" points="20.81 25.68 20.81 28.61 23 31.46 23 24.55"/><path class="cls-2" d="M23,32a.49.49,0,0,1-.4-.2l-2.19-2.85a.47.47,0,0,1-.1-.3V25.68a.5.5,0,0,1,.5-.5.5.5,0,0,1,.5.5v2.76L22.5,30V24.55a.5.5,0,0,1,.5-.5.5.5,0,0,1,.5.5v6.91a.51.51,0,0,1-.34.47Z"/><path class="cls-2" d="M20.56,25.93a4.7,4.7,0,1,1,4.7-4.7A4.71,4.71,0,0,1,20.56,25.93Zm0-8.4a3.7,3.7,0,1,0,3.7,3.7A3.7,3.7,0,0,0,20.56,17.53Z"/></svg>