<!-- Generated by IcoMoon.io -->
<svg version="1.1" xmlns="http://www.w3.org/2000/svg" width="32" height="32" viewBox="0 0 32 32">
<title>paper-checkbox</title>
<path fill="#003359" d="M26.75-0.11h-16.6c-0.117 0.016-0.219 0.067-0.3 0.14l0-0-5.85 5.9c-0.093 0.089-0.15 0.214-0.15 0.353 0 0.003 0 0.005 0 0.007v-0 25.080c0 0.276 0.224 0.5 0.5 0.5v0h22.4c0.276 0 0.5-0.224 0.5-0.5v0-30.98c0-0.276-0.224-0.5-0.5-0.5v0zM9.75 1.58v4.27h-4.24zM26.25 30.87h-21.45v-24h5.49c0.276 0 0.5-0.224 0.5-0.5v0-5.48h15.46z"></path>
<path fill="#003359" d="M18.43 26.14h-4.53c-0.276 0-0.5 0.224-0.5 0.5v0c0.005 0.274 0.226 0.494 0.499 0.5h4.531c0.276 0 0.5-0.224 0.5-0.5v0c0-0.276-0.224-0.5-0.5-0.5v0z"></path>
<path fill="#003359" d="M13.9 21.9h8.65c0.276 0 0.5-0.224 0.5-0.5v0c0-0.276-0.224-0.5-0.5-0.5v0h-8.65c-0.276 0-0.5 0.224-0.5 0.5v0c0.005 0.274 0.226 0.494 0.499 0.5h0.001z"></path>
<path fill="#003359" d="M13.9 16.66h8.65c0.276 0 0.5-0.224 0.5-0.5v0c0-0.276-0.224-0.5-0.5-0.5v0h-8.65c-0.276 0-0.5 0.224-0.5 0.5v0c0.005 0.274 0.226 0.494 0.499 0.5h0.001z"></path>
<path fill="#003359" d="M13.9 11.42h8.65c0.276 0 0.5-0.224 0.5-0.5v0c0-0.276-0.224-0.5-0.5-0.5v0h-8.65c-0.276 0-0.5 0.224-0.5 0.5v0c0.005 0.274 0.226 0.495 0.499 0.5h0.001z"></path>
<path fill="#09c" d="M8.82 28.17c-0.006 0-0.013 0-0.021 0-0.076 0-0.149-0.019-0.212-0.052l0.003 0.001-1.25-0.65c-0.162-0.085-0.271-0.252-0.271-0.445 0-0.277 0.224-0.501 0.501-0.501 0.084 0 0.163 0.021 0.233 0.057l-0.003-0.001 0.91 0.47 1.81-2c0.090-0.088 0.214-0.143 0.35-0.143 0.276 0 0.5 0.224 0.5 0.5 0 0.119-0.042 0.228-0.111 0.314l0.001-0.001-2.070 2.28c-0.090 0.104-0.222 0.17-0.37 0.17h-0z"></path>
<path fill="#09c" d="M8.82 23c-0.034 0.009-0.074 0.015-0.115 0.015s-0.081-0.005-0.118-0.015l0.003 0.001-1.25-0.65c-0.163-0.084-0.273-0.252-0.273-0.446 0-0.082 0.020-0.159 0.054-0.227l-0.001 0.003c0.087-0.164 0.257-0.274 0.452-0.274 0.083 0 0.162 0.020 0.231 0.055l-0.003-0.001 0.91 0.48 1.81-2c0.089-0.091 0.213-0.147 0.35-0.147s0.261 0.056 0.35 0.147l0 0c0.089 0.092 0.144 0.217 0.144 0.355s-0.055 0.263-0.144 0.355l0-0-2.030 2.22c-0.091 0.081-0.212 0.131-0.345 0.131-0.009 0-0.018-0-0.027-0.001l0.001 0z"></path>
<path fill="#09c" d="M8.82 17.79c-0.001 0-0.002 0-0.003 0-0.084 0-0.162-0.022-0.229-0.061l0.002 0.001-1.25-0.65c-0.163-0.084-0.273-0.252-0.273-0.446 0-0.082 0.020-0.159 0.054-0.227l-0.001 0.003c0.087-0.164 0.257-0.274 0.452-0.274 0.083 0 0.162 0.020 0.231 0.055l-0.003-0.001 0.91 0.48 1.81-2c0.089-0.091 0.213-0.147 0.35-0.147s0.261 0.056 0.35 0.147l0 0c0.089 0.092 0.144 0.217 0.144 0.355s-0.055 0.263-0.144 0.355l0-0-2.030 2.25c-0.094 0.097-0.225 0.158-0.37 0.16h-0z"></path>
<path fill="#09c" d="M8.82 12.55c-0.001 0-0.002 0-0.003 0-0.084 0-0.162-0.022-0.229-0.061l0.002 0.001-1.25-0.65c-0.163-0.085-0.273-0.252-0.273-0.446 0-0.082 0.020-0.159 0.054-0.227l-0.001 0.003c0.092-0.143 0.25-0.236 0.43-0.236 0.092 0 0.178 0.024 0.253 0.067l-0.003-0.001 0.91 0.48 1.81-2c0.089-0.091 0.213-0.147 0.35-0.147s0.261 0.056 0.35 0.147l0 0c0.089 0.092 0.144 0.217 0.144 0.355s-0.055 0.263-0.144 0.355l0-0-2.030 2.2c-0.094 0.097-0.225 0.158-0.37 0.16h-0z"></path>
</svg>
