<!-- Generated by IcoMoon.io -->
<svg version="1.1" xmlns="http://www.w3.org/2000/svg" width="32" height="32" viewBox="0 0 32 32">
<title>paper-words</title>
<path fill="#003359" d="M26.61-0.11h-16.61c-0.117 0.016-0.219 0.067-0.3 0.14l0-0-5.89 5.9c-0.093 0.089-0.15 0.214-0.15 0.353 0 0.003 0 0.005 0 0.007v-0 25.080c0 0.276 0.224 0.5 0.5 0.5v0h22.45c0.276 0 0.5-0.224 0.5-0.5v0-30.98c-0.006-0.274-0.226-0.494-0.499-0.5h-0.001zM9.61 1.58v4.27h-4.24zM26.11 30.87h-21.45v-24h5.49c0.276 0 0.5-0.224 0.5-0.5v0-5.48h15.46z"></path>
<path fill="#003359" d="M15.46 26.14h-7.63c-0.276 0-0.5 0.224-0.5 0.5v0c0.005 0.274 0.226 0.494 0.499 0.5h7.631c0.276 0 0.5-0.224 0.5-0.5v0c0-0.276-0.224-0.5-0.5-0.5v0z"></path>
<path fill="#003359" d="M22.41 20.9h-14.58c-0.276 0-0.5 0.224-0.5 0.5v0c0.005 0.274 0.226 0.494 0.499 0.5h14.581c0.276 0 0.5-0.224 0.5-0.5v0c0-0.276-0.224-0.5-0.5-0.5v0z"></path>
<path fill="#003359" d="M22.41 15.66h-14.58c-0.276 0-0.5 0.224-0.5 0.5v0c0.005 0.274 0.226 0.494 0.499 0.5h14.581c0.276 0 0.5-0.224 0.5-0.5v0c0-0.276-0.224-0.5-0.5-0.5v0z"></path>
<path fill="#003359" d="M7.83 10.42c-0.276 0-0.5 0.224-0.5 0.5v0c0.005 0.274 0.226 0.495 0.499 0.5h14.581c0.276 0 0.5-0.224 0.5-0.5v0c0-0.276-0.224-0.5-0.5-0.5v0z"></path>
</svg>
