<svg id="Layer_1" data-name="Layer 1" xmlns="http://www.w3.org/2000/svg" viewBox="0 0 32 32"><defs><style>.cls-1{fill:#003359;}.cls-2{fill:#09c;}</style></defs><path class="cls-1" d="M26.75-.11H10.15a.56.56,0,0,0-.3.14L4,5.93a.49.49,0,0,0-.15.36V31.37a.5.5,0,0,0,.5.5H26.75a.5.5,0,0,0,.5-.5V.39A.5.5,0,0,0,26.75-.11Zm-17,1.69V5.85H5.51ZM26.25,30.87H4.8v-24h5.49a.5.5,0,0,0,.5-.5V.89H26.25Z"/><path class="cls-1" d="M18.43,26.14H13.9a.5.5,0,0,0-.5.5.51.51,0,0,0,.5.5h4.53a.5.5,0,0,0,.5-.5A.5.5,0,0,0,18.43,26.14Z"/><path class="cls-1" d="M13.9,21.9h8.65a.5.5,0,0,0,.5-.5.5.5,0,0,0-.5-.5H13.9a.5.5,0,0,0-.5.5A.51.51,0,0,0,13.9,21.9Z"/><path class="cls-1" d="M13.9,16.66h8.65a.5.5,0,0,0,.5-.5.5.5,0,0,0-.5-.5H13.9a.5.5,0,0,0-.5.5A.51.51,0,0,0,13.9,16.66Z"/><path class="cls-1" d="M13.9,11.42h8.65a.5.5,0,0,0,.5-.5.5.5,0,0,0-.5-.5H13.9a.5.5,0,0,0-.5.5A.51.51,0,0,0,13.9,11.42Z"/><path class="cls-2" d="M8.82,28.17a.46.46,0,0,1-.23-.05l-1.25-.65a.5.5,0,1,1,.46-.89l.91.47,1.81-2a.5.5,0,0,1,.74.67L9.19,28A.49.49,0,0,1,8.82,28.17Z"/><path class="cls-2" d="M8.82,23A.46.46,0,0,1,8.59,23l-1.25-.65a.5.5,0,0,1-.22-.67.51.51,0,0,1,.68-.22l.91.48,1.81-2a.49.49,0,0,1,.7,0,.51.51,0,0,1,0,.71L9.19,22.87A.52.52,0,0,1,8.82,23Z"/><path class="cls-2" d="M8.82,17.79a.46.46,0,0,1-.23-.06l-1.25-.65a.5.5,0,0,1-.22-.67.51.51,0,0,1,.68-.22l.91.48,1.81-2a.49.49,0,0,1,.7,0,.51.51,0,0,1,0,.71L9.19,17.63A.52.52,0,0,1,8.82,17.79Z"/><path class="cls-2" d="M8.82,12.55a.46.46,0,0,1-.23-.06l-1.25-.65a.5.5,0,0,1-.22-.67A.51.51,0,0,1,7.8,11l.91.48,1.81-2a.49.49,0,0,1,.7,0,.51.51,0,0,1,0,.71L9.19,12.39A.52.52,0,0,1,8.82,12.55Z"/></svg>