<svg id="Layer_1" data-name="Layer 1" xmlns="http://www.w3.org/2000/svg" viewBox="0 0 32 32"><defs><style>.cls-1{fill:#003359;}.cls-2{fill:#09c;}</style></defs><path class="cls-1" d="M26.38,2.49h-8a3.11,3.11,0,0,0-6.09,0H4.59a.5.5,0,0,0-.5.5V31.5a.5.5,0,0,0,.5.5H26.38a.5.5,0,0,0,.5-.5V3A.5.5,0,0,0,26.38,2.49Zm-13.63,1a.5.5,0,0,0,.5-.48,2.11,2.11,0,0,1,4.21,0,.5.5,0,0,0,.5.48h2.7V6.94H10.05V3.49ZM25.88,31H5.09V3.49h4v4a.5.5,0,0,0,.5.5H21.16a.5.5,0,0,0,.5-.5V3.49h4.22Z"/><path class="cls-1" d="M22.51,25H14.3a.5.5,0,0,0,0,1h8.21a.5.5,0,0,0,0-1Z"/><path class="cls-1" d="M22.51,19H14.3a.51.51,0,0,0-.5.5.5.5,0,0,0,.5.5h8.21a.5.5,0,0,0,.5-.5A.51.51,0,0,0,22.51,19Z"/><path class="cls-1" d="M14.3,13a.5.5,0,0,0-.5.5.51.51,0,0,0,.5.5h8.21a.51.51,0,0,0,.5-.5.5.5,0,0,0-.5-.5Z"/><path class="cls-2" d="M9.53,27.06a.46.46,0,0,1-.23,0l-1.05-.55A.49.49,0,0,1,8,25.79a.5.5,0,0,1,.68-.22l.71.37,1.47-1.62a.51.51,0,0,1,.71,0,.5.5,0,0,1,0,.71L9.9,26.9A.49.49,0,0,1,9.53,27.06Z"/><path class="cls-2" d="M9.53,21.1A.46.46,0,0,1,9.3,21l-1.05-.55A.49.49,0,0,1,8,19.82a.51.51,0,0,1,.68-.22l.71.37,1.47-1.62a.51.51,0,0,1,.71,0,.5.5,0,0,1,0,.71L9.9,20.93A.5.5,0,0,1,9.53,21.1Z"/><path class="cls-2" d="M9.53,15.12a.46.46,0,0,1-.23,0l-1.05-.55A.49.49,0,0,1,8,13.85a.51.51,0,0,1,.68-.22l.71.37,1.47-1.62a.51.51,0,0,1,.71,0,.5.5,0,0,1,0,.71L9.9,15A.49.49,0,0,1,9.53,15.12Z"/></svg>