<!-- Generated by IcoMoon.io -->
<svg version="1.1" xmlns="http://www.w3.org/2000/svg" width="32" height="32" viewBox="0 0 32 32">
<title>pencil</title>
<path fill="#003359" d="M5.8 10.32l4.2-4.19 16.67 16.67c0.091 0.091 0.216 0.148 0.355 0.148s0.264-0.057 0.355-0.148l0-0c0.088-0.090 0.143-0.214 0.143-0.35s-0.055-0.26-0.143-0.35l-17-17c-0.091-0.091-0.216-0.148-0.355-0.148s-0.264 0.057-0.355 0.148l-0 0-4.93 4.9c-0.090 0.090-0.147 0.213-0.15 0.349v0.001c0.003 0.14 0.059 0.267 0.15 0.36l17 17c0.093 0.087 0.218 0.14 0.355 0.14s0.262-0.053 0.355-0.14l-0 0c0.089-0.092 0.144-0.217 0.144-0.355s-0.055-0.263-0.144-0.355l0 0z"></path>
<path fill="#003359" d="M3.2 1.91c0.323-0.321 0.769-0.519 1.26-0.519s0.937 0.198 1.26 0.519l-0-0 1.67 1.68c0.091 0.091 0.216 0.147 0.355 0.147 0.277 0 0.502-0.225 0.502-0.502 0-0.139-0.056-0.264-0.147-0.355v0l-1.68-1.67c-0.502-0.505-1.197-0.818-1.965-0.818s-1.463 0.313-1.965 0.818l-1.67 1.67c-0.506 0.498-0.82 1.19-0.82 1.955 0 0.016 0 0.032 0 0.047l-0-0.002c-0 0.010-0 0.021-0 0.032 0 0.769 0.314 1.465 0.82 1.967l0 0 1.67 1.61c0.085 0.087 0.204 0.14 0.335 0.14 0.005 0 0.011-0 0.016-0l-0.001 0c0.004 0 0.008 0 0.013 0 0.135 0 0.257-0.053 0.347-0.14l-0 0c0.089-0.092 0.144-0.217 0.144-0.355s-0.055-0.263-0.144-0.355l0 0-1.68-1.67c-0.319-0.324-0.517-0.769-0.52-1.259v-0.001c0-0.001 0-0.002 0-0.003 0-0.491 0.199-0.935 0.52-1.257l-0 0z"></path>
<path fill="#003359" d="M32 31.2l-2.21-7.45c-0.058-0.21-0.248-0.363-0.473-0.363-0.052 0-0.103 0.008-0.15 0.023l0.003-0.001c-0.209 0.067-0.358 0.259-0.358 0.487 0 0.047 0.006 0.093 0.019 0.137l-0.001-0.004 2 6.64-6.73-1.49c-0.032-0.007-0.068-0.011-0.105-0.011-0.282 0-0.511 0.229-0.511 0.511 0 0.245 0.172 0.45 0.403 0.499l0.003 0.001 7.55 1.67h0.11c0.145-0.002 0.276-0.063 0.37-0.16l0-0c0.070-0.085 0.112-0.195 0.112-0.315 0-0.063-0.012-0.123-0.033-0.178l0.001 0.003z"></path>
</svg>
