<svg id="Layer_1" data-name="Layer 1" xmlns="http://www.w3.org/2000/svg" viewBox="0 0 32 32"><defs><style>.cls-1{fill:#003359;}.cls-2{fill:#09c;}</style></defs><path class="cls-1" d="M16,1A15,15,0,1,1,1,16,15,15,0,0,1,16,1m0-1h0A16,16,0,0,0,0,16H0A16,16,0,0,0,16,32h0A16,16,0,0,0,32,16h0A16,16,0,0,0,16,0Z"/><path class="cls-2" d="M14,14a.47.47,0,0,1-.35-.15.48.48,0,0,1,0-.7,1.17,1.17,0,0,0,.17-1.08,3.52,3.52,0,0,0-1-1.64,3.63,3.63,0,0,0-1.64-1,1.21,1.21,0,0,0-1.08.18.5.5,0,0,1-.71,0,.5.5,0,0,1,0-.7,2.08,2.08,0,0,1,2-.45,4.52,4.52,0,0,1,2.12,1.24,4.52,4.52,0,0,1,1.24,2.12,2.06,2.06,0,0,1-.45,2A.47.47,0,0,1,14,14Z"/><path class="cls-2" d="M20.07,24.58a8.09,8.09,0,0,1-1.84-.22A13.55,13.55,0,0,1,12,20.67C8,16.73,6.88,11.48,9.4,9a.5.5,0,0,1,.71,0,.51.51,0,0,1,0,.71C8,11.8,9.12,16.42,12.66,20a12.43,12.43,0,0,0,5.79,3.42A4.67,4.67,0,0,0,23,22.52a.49.49,0,1,1,.7.7A4.9,4.9,0,0,1,20.07,24.58Z"/><path class="cls-2" d="M17.8,19.67a4.87,4.87,0,0,1-3.27-1.57,5.36,5.36,0,0,1-1.48-2.52,2.42,2.42,0,0,1,.51-2.34.5.5,0,0,1,.71.71A1.55,1.55,0,0,0,14,15.36a4.47,4.47,0,0,0,1.21,2c1.2,1.19,2.77,1.63,3.44,1a.51.51,0,0,1,.71,0,.5.5,0,0,1,0,.71A2.17,2.17,0,0,1,17.8,19.67Z"/><path class="cls-2" d="M23.35,23.33a.5.5,0,0,1-.35-.15.51.51,0,0,1,0-.71c.46-.45.24-1.68-.79-2.72S19.94,18.5,19.49,19a.51.51,0,0,1-.71,0,.5.5,0,0,1,0-.71c.93-.94,2.75-.59,4.13.79s1.73,3.2.8,4.14A.51.51,0,0,1,23.35,23.33Z"/></svg>