<!-- Generated by IcoMoon.io -->
<svg version="1.1" xmlns="http://www.w3.org/2000/svg" width="32" height="32" viewBox="0 0 32 32">
<title>phone-cirlce</title>
<path fill="#003359" d="M16 1c8.284 0 15 6.716 15 15s-6.716 15-15 15c-8.284 0-15-6.716-15-15v0c0-8.284 6.716-15 15-15v0zM16 0v0c-8.837 0-16 7.163-16 16v0 0c0 8.837 7.163 16 16 16v0 0c8.837 0 16-7.163 16-16v0 0c0-8.837-7.163-16-16-16v0z"></path>
<path fill="#09c" d="M14 14c-0.002 0-0.004 0-0.006 0-0.136 0-0.258-0.058-0.344-0.15l-0-0c-0.093-0.088-0.152-0.212-0.152-0.35s0.058-0.262 0.151-0.35l0-0c0.146-0.193 0.233-0.437 0.233-0.701 0-0.136-0.023-0.266-0.066-0.387l0.002 0.008c-0.185-0.651-0.533-1.207-0.998-1.638l-0.002-0.002c-0.436-0.463-0.99-0.81-1.614-0.993l-0.026-0.007c-0.108-0.035-0.233-0.056-0.363-0.056-0.27 0-0.519 0.088-0.721 0.238l0.003-0.002c-0.091 0.091-0.216 0.148-0.355 0.148s-0.264-0.057-0.355-0.148l-0-0c-0.088-0.090-0.143-0.214-0.143-0.35s0.055-0.26 0.143-0.35l-0 0c0.368-0.334 0.859-0.539 1.397-0.539 0.215 0 0.422 0.033 0.617 0.093l-0.015-0.004c0.838 0.222 1.556 0.655 2.119 1.239l0.001 0.001c0.585 0.564 1.018 1.282 1.233 2.088l0.007 0.032c0.058 0.182 0.092 0.391 0.092 0.608 0 0.537-0.206 1.027-0.543 1.394l0.001-0.001c-0.072 0.094-0.177 0.16-0.297 0.18l-0.003 0z"></path>
<path fill="#09c" d="M20.070 24.58c-0.654-0.003-1.288-0.083-1.895-0.231l0.055 0.011c-2.463-0.68-4.57-1.965-6.226-3.686l-0.004-0.004c-4-3.94-5.12-9.19-2.6-11.67 0.091-0.091 0.216-0.148 0.355-0.148s0.264 0.057 0.355 0.148l0 0c0.089 0.092 0.144 0.217 0.144 0.355s-0.055 0.263-0.144 0.355l0-0c-2.11 2.090-0.99 6.71 2.55 10.29 1.539 1.607 3.499 2.799 5.703 3.4l0.087 0.020c0.444 0.154 0.956 0.244 1.488 0.244 1.174 0 2.247-0.433 3.067-1.148l-0.006 0.005c0.090-0.090 0.213-0.145 0.35-0.145 0.273 0 0.495 0.222 0.495 0.495 0 0.137-0.055 0.26-0.145 0.35v0c-0.879 0.845-2.076 1.366-3.394 1.366-0.083 0-0.166-0.002-0.248-0.006l0.012 0z"></path>
<path fill="#09c" d="M17.8 19.67c-1.3-0.088-2.447-0.674-3.267-1.566l-0.003-0.004c-0.698-0.669-1.215-1.523-1.471-2.483l-0.009-0.037c-0.070-0.216-0.11-0.464-0.11-0.722 0-0.623 0.235-1.191 0.622-1.62l-0.002 0.002c0.091-0.091 0.216-0.147 0.355-0.147 0.277 0 0.502 0.225 0.502 0.502 0 0.139-0.056 0.264-0.147 0.355v0c-0.209 0.262-0.336 0.598-0.336 0.963 0 0.159 0.024 0.313 0.069 0.458l-0.003-0.011c0.232 0.791 0.651 1.466 1.208 1.998l0.002 0.002c1.2 1.19 2.77 1.63 3.44 1 0.092-0.089 0.217-0.144 0.355-0.144s0.263 0.055 0.355 0.144l-0-0c0.091 0.091 0.148 0.216 0.148 0.355s-0.057 0.264-0.148 0.355l-0 0c-0.389 0.372-0.917 0.601-1.499 0.601-0.021 0-0.043-0-0.064-0.001l0.003 0z"></path>
<path fill="#09c" d="M23.35 23.33c-0.137-0.002-0.261-0.059-0.35-0.15l-0-0c-0.089-0.092-0.144-0.217-0.144-0.355s0.055-0.263 0.144-0.355l-0 0c0.46-0.45 0.24-1.68-0.79-2.72s-2.27-1.25-2.72-0.75c-0.092 0.089-0.217 0.144-0.355 0.144s-0.263-0.055-0.355-0.144l0 0c-0.091-0.091-0.148-0.216-0.148-0.355s0.057-0.264 0.148-0.355l0-0c0.93-0.94 2.75-0.59 4.13 0.79s1.73 3.2 0.8 4.14c-0.086 0.070-0.198 0.112-0.319 0.112-0.015 0-0.029-0.001-0.043-0.002l0.002 0z"></path>
</svg>
