<!-- Generated by IcoMoon.io -->
<svg version="1.1" xmlns="http://www.w3.org/2000/svg" width="32" height="32" viewBox="0 0 32 32">
<title>phone</title>
<path fill="#003359" d="M11.68 10.39c-0.141-0-0.268-0.058-0.36-0.15v0c-0.089-0.092-0.144-0.217-0.144-0.355s0.055-0.263 0.144-0.355l-0 0c1.27-1.26 0.52-4.14-1.62-6.28-0.955-0.997-2.17-1.739-3.535-2.117l-0.055-0.013c-0.27-0.095-0.581-0.15-0.906-0.15-0.685 0-1.312 0.246-1.799 0.654l0.004-0.004c-0.088 0.093-0.212 0.152-0.35 0.152s-0.262-0.058-0.35-0.151l-0-0c-0.093-0.088-0.152-0.212-0.152-0.35s0.058-0.262 0.151-0.35l0-0c0.654-0.589 1.524-0.95 2.479-0.95 0.408 0 0.8 0.066 1.167 0.187l-0.026-0.008c1.614 0.428 2.996 1.262 4.077 2.387l0.003 0.003c2.61 2.61 3.32 6 1.62 7.7-0.089 0.092-0.213 0.149-0.35 0.15h-0z"></path>
<path fill="#003359" d="M24 32c-5 0-11.14-2.76-16.19-7.81-7.81-7.84-10.14-18.19-5.2-23.19 0.091-0.091 0.216-0.148 0.355-0.148s0.264 0.057 0.355 0.148l0 0c0.093 0.088 0.152 0.212 0.152 0.35s-0.058 0.262-0.151 0.35l-0 0c-2.17 2.19-2.85 5.63-1.91 9.69 1.3 4.774 3.784 8.859 7.121 12.061l0.009 0.009c3.211 3.346 7.296 5.83 11.888 7.087l0.182 0.043c4.060 0.94 7.5 0.26 9.68-1.91 0.088-0.093 0.212-0.152 0.35-0.152s0.262 0.058 0.35 0.151l0 0c0.091 0.091 0.148 0.216 0.148 0.355s-0.057 0.264-0.148 0.355l-0 0c-1.715 1.622-4.036 2.618-6.589 2.618-0.141 0-0.281-0.003-0.421-0.009l0.020 0.001z"></path>
<path fill="#003359" d="M19.4 22c-0.505-0.018-0.985-0.094-1.444-0.22l0.044 0.010c-1.93-0.519-3.582-1.52-4.877-2.867l-0.003-0.003c-1.371-1.305-2.386-2.971-2.893-4.847l-0.017-0.073c-0.137-0.407-0.216-0.875-0.216-1.362 0-1.127 0.423-2.154 1.12-2.933l-0.004 0.004c0.091-0.091 0.216-0.148 0.355-0.148s0.264 0.057 0.355 0.148l0 0c0.089 0.092 0.144 0.217 0.144 0.355s-0.055 0.263-0.144 0.355l0-0c-0.512 0.601-0.824 1.387-0.824 2.245 0 0.399 0.067 0.783 0.191 1.139l-0.007-0.024c0.478 1.739 1.383 3.227 2.597 4.397l0.003 0.003c1.173 1.217 2.661 2.122 4.333 2.584l0.067 0.016c0.331 0.115 0.713 0.181 1.111 0.181 0.859 0 1.646-0.311 2.254-0.826l-0.005 0.004c0.092-0.089 0.217-0.144 0.355-0.144s0.263 0.055 0.355 0.144l-0-0c0.091 0.091 0.148 0.216 0.148 0.355s-0.057 0.264-0.148 0.355l-0 0c-0.708 0.711-1.688 1.151-2.77 1.151-0.028 0-0.056-0-0.084-0.001l0.004 0z"></path>
<path fill="#003359" d="M30.73 29.44c-0.273-0.004-0.493-0.226-0.493-0.5 0-0.136 0.055-0.26 0.143-0.35l-0 0c0.405-0.482 0.651-1.11 0.651-1.794 0-0.324-0.055-0.636-0.157-0.925l0.006 0.020c-0.391-1.42-1.133-2.635-2.127-3.587l-0.003-0.003c-2.14-2.14-5-2.89-6.28-1.62-0.092 0.089-0.217 0.144-0.355 0.144s-0.263-0.055-0.355-0.144l0 0c-0.091-0.091-0.148-0.216-0.148-0.355s0.057-0.264 0.148-0.355l0-0c1.7-1.7 5.090-1 7.7 1.62 1.128 1.084 1.962 2.466 2.376 4.019l0.014 0.061c0.114 0.341 0.18 0.733 0.18 1.141 0 0.955-0.36 1.825-0.953 2.482l0.003-0.003c-0.086 0.092-0.208 0.15-0.344 0.15-0.002 0-0.004 0-0.006-0h0z"></path>
</svg>
