<!-- Generated by IcoMoon.io -->
<svg version="1.1" xmlns="http://www.w3.org/2000/svg" width="32" height="32" viewBox="0 0 32 32">
<title>piggy-bank</title>
<path fill="#09c" d="M23.9 13.71c0.552 0 1-0.448 1-1s-0.448-1-1-1c-0.552 0-1 0.448-1 1v0c0 0.552 0.448 1 1 1v0z"></path>
<path fill="#09c" d="M14.13 2c-1.945 0.006-3.52 1.584-3.52 3.53 0 1.95 1.58 3.53 3.53 3.53s3.53-1.58 3.53-3.53v0c0 0 0 0 0 0 0-1.95-1.58-3.53-3.53-3.53-0.004 0-0.007 0-0.011 0h0.001zM15.010 7c-0.178 0.162-0.41 0.269-0.666 0.29l-0.004 0v0.51h-0.34v-0.45c-0.264-0.025-0.499-0.135-0.681-0.301l0.001 0.001c-0.197-0.183-0.321-0.444-0.321-0.734 0-0.013 0-0.025 0.001-0.038l-0 0.002h0.55c-0.002 0.020-0.004 0.044-0.004 0.068 0 0.16 0.062 0.305 0.164 0.412l-0-0c0.113 0.081 0.253 0.129 0.405 0.129s0.292-0.048 0.407-0.13l-0.002 0.001c0.085-0.090 0.138-0.211 0.138-0.345s-0.053-0.255-0.138-0.345l0 0c-0.122-0.112-0.269-0.197-0.432-0.248l-0.008-0.002c-0.285-0.089-0.532-0.226-0.743-0.403l0.003 0.003c-0.155-0.157-0.251-0.373-0.251-0.611 0-0.014 0-0.027 0.001-0.041l-0 0.002c0.003-0.245 0.093-0.469 0.241-0.641l-0.001 0.001c0.175-0.164 0.41-0.266 0.669-0.27h0.001v-0.51h0.38v0.51c0.25 0.036 0.465 0.16 0.619 0.339l0.001 0.001c0.144 0.195 0.231 0.439 0.231 0.704 0 0.016-0 0.032-0.001 0.048l0-0.002h-0.55c0.001-0.011 0.001-0.024 0.001-0.037 0-0.161-0.049-0.311-0.133-0.435l0.002 0.003c-0.087-0.104-0.217-0.17-0.362-0.17-0.003 0-0.006 0-0.009 0h0c-0.010-0.001-0.021-0.001-0.032-0.001-0.124 0-0.236 0.050-0.318 0.131v0c-0.076 0.079-0.122 0.186-0.122 0.304 0 0.016 0.001 0.032 0.003 0.047l-0-0.002c-0.001 0.009-0.001 0.019-0.001 0.029 0 0.114 0.046 0.217 0.121 0.291l0 0c0.125 0.112 0.276 0.198 0.442 0.248l0.008 0.002c0.286 0.088 0.534 0.229 0.742 0.412l-0.002-0.002c0.138 0.149 0.223 0.35 0.223 0.57 0 0.025-0.001 0.049-0.003 0.073l0-0.003c0.001 0.017 0.002 0.036 0.002 0.056 0 0.231-0.092 0.441-0.242 0.594l0-0z"></path>
<path fill="#003359" d="M30.62 14c-0.784-0.054-1.512-0.229-2.187-0.507l0.047 0.017c-0.642-1.816-1.866-3.292-3.444-4.24l-0.036-0.020c0.735-0.886 1.292-1.949 1.597-3.113l0.013-0.057c0.011-0.039 0.017-0.084 0.017-0.13 0-0.275-0.222-0.498-0.497-0.5h-0.11c-2.601 0.098-5.008 0.847-7.088 2.088l0.068-0.038c-0.121 0.073-0.207 0.195-0.23 0.337l-0 0.003c-0.329 2.297-2.283 4.043-4.645 4.043-1.818 0-3.394-1.034-4.173-2.546l-0.012-0.026c-0.083-0.159-0.247-0.265-0.435-0.265-0.074 0-0.145 0.017-0.208 0.046l0.003-0.001c-1.712 0.734-3.090 1.974-3.979 3.529l-0.021 0.041c-0.589-0.19-1.101-0.462-1.552-0.809l0.012 0.009c1.235-0.275 2.158-1.324 2.24-2.602l0-0.008c0-0.005 0-0.011 0-0.017 0-0.53-0.328-0.984-0.792-1.17l-0.008-0.003c-0.188-0.073-0.406-0.116-0.633-0.116-0.505 0-0.961 0.209-1.286 0.545l-0 0.001c-0.531 0.541-0.859 1.283-0.859 2.101 0 0.19 0.018 0.377 0.052 0.557l-0.003-0.019c-0.597-0.014-1.124-0.299-1.467-0.736l-0.003-0.004c-0.066-0.119-0.191-0.198-0.334-0.198-0.060 0-0.118 0.014-0.168 0.039l0.002-0.001c-0.123 0.062-0.206 0.187-0.206 0.332 0 0.065 0.017 0.127 0.047 0.18l-0.001-0.002c0.503 0.716 1.326 1.178 2.256 1.178 0.072 0 0.143-0.003 0.213-0.008l-0.009 0.001c0.579 0.65 1.323 1.141 2.165 1.41l0.035 0.010c-0.258 0.547-0.466 1.184-0.592 1.85l-0.008 0.050c-0.069 0.381-0.109 0.819-0.109 1.266 0 2.476 1.218 4.668 3.087 6.009l0.022 0.015c0.264 1.9 0.705 3.61 1.315 5.237l-0.055-0.167c0.144 0.323 0.461 0.545 0.829 0.55h3.351c0.014 0.001 0.031 0.001 0.047 0.001 0.475 0 0.86-0.385 0.86-0.86 0-0.101-0.017-0.197-0.049-0.287l0.002 0.006c-0.16-0.56-0.31-1.1-0.45-1.65 1.044 0.239 2.243 0.377 3.475 0.377 1.074 0 2.123-0.104 3.138-0.303l-0.103 0.017c0.19 0.71 0.42 1.42 0.68 2.12 0.128 0.329 0.442 0.559 0.81 0.56h3.33c0.288-0.001 0.544-0.137 0.708-0.348l0.002-0.002c0.109-0.145 0.174-0.328 0.174-0.526 0-0.087-0.013-0.171-0.036-0.25l0.002 0.006c-0.34-1.14-0.62-2.3-0.86-3.44 1.302-0.801 2.363-1.875 3.127-3.148l0.023-0.042c0.559-0.005 1.095-0.096 1.598-0.261l-0.038 0.011c1.75-0.67 2.28-3 2.42-4.92 0-0.013 0.001-0.028 0.001-0.043 0-0.613-0.475-1.115-1.077-1.157l-0.004-0zM3.24 11.12c-0.041-0.163-0.065-0.351-0.065-0.544 0-0.611 0.238-1.166 0.626-1.578l-0.001 0.001c0.203-0.203 0.481-0.332 0.788-0.34l0.002-0c0.007-0 0.015-0 0.023-0 0.104 0 0.202 0.022 0.291 0.062l-0.005-0.002c0.19 0.077 0.321 0.26 0.321 0.474 0 0.009-0 0.019-0.001 0.028l0-0.001c-0.105 1.041-0.949 1.854-1.995 1.91l-0.005 0c0.006-0.004 0.012-0.008 0.020-0.010l0-0zM29 19.23c-0.381 0.125-0.82 0.201-1.276 0.21l-0.004 0c-0.306 0.013-0.57 0.181-0.718 0.426l-0.002 0.004c-0.773 1.202-1.779 2.188-2.96 2.917l-0.040 0.023c-0.263 0.165-0.436 0.454-0.436 0.782 0 0.077 0.009 0.152 0.027 0.224l-0.001-0.006c0.23 1.14 0.51 2.29 0.84 3.42h-3.080c-0.24-0.66-0.45-1.34-0.63-2-0.105-0.396-0.458-0.685-0.879-0.69h-0.181c-0.886 0.187-1.904 0.294-2.947 0.294-1.193 0-2.353-0.14-3.464-0.404l0.101 0.020h-0.2c-0.508 0-0.92 0.412-0.92 0.92v0c-0.002 0.031-0.004 0.068-0.004 0.105s0.001 0.074 0.004 0.11l-0-0.005c0.14 0.57 0.28 1.11 0.45 1.66h-3.090c-0.53-1.402-0.947-3.042-1.177-4.742l-0.013-0.118c-0.029-0.241-0.151-0.448-0.328-0.589l-0.002-0.001c-1.681-1.197-2.764-3.14-2.764-5.335 0-0.369 0.031-0.731 0.089-1.083l-0.005 0.038c0.44-2.293 1.89-4.177 3.859-5.201l0.041-0.019c1.024 1.607 2.797 2.657 4.814 2.657 2.777 0 5.090-1.99 5.59-4.622l0.006-0.036c1.668-0.946 3.636-1.567 5.733-1.727l0.047-0.003c-0.31 0.842-0.741 1.568-1.278 2.2l0.008-0.010c-0.133 0.155-0.215 0.358-0.215 0.58 0 0.032 0.002 0.063 0.005 0.094l-0-0.004c0.018 0.247 0.138 0.464 0.318 0.609l0.002 0.001 0.12 0.090c1.44 0.867 2.529 2.192 3.075 3.77l0.015 0.050c0.083 0.248 0.263 0.445 0.494 0.548l0.006 0.002c0.739 0.334 1.597 0.553 2.499 0.609l0.021 0.001c0.087 0.010 0.155 0.081 0.16 0.17l0 0c-0.080 1.070-0.41 3.55-1.71 4.060z"></path>
</svg>
