<svg id="Layer_1" data-name="Layer 1" xmlns="http://www.w3.org/2000/svg" viewBox="0 0 32 32"><defs><style>.cls-1{fill:#09c;}.cls-2{fill:#003359;}</style></defs><path id="_Path_" data-name=" Path " class="cls-1" d="M23.9,13.71a1,1,0,1,0-1-1,1,1,0,0,0,1,1Z"/><path class="cls-1" d="M14.13,2a3.53,3.53,0,1,0,3.54,3.53A3.53,3.53,0,0,0,14.13,2Zm.88,5a1.13,1.13,0,0,1-.67.29V7.8H14V7.35a1.17,1.17,0,0,1-.68-.3A1,1,0,0,1,13,6.28h.55a.6.6,0,0,0,.16.48.7.7,0,0,0,.81,0,.5.5,0,0,0,0-.69,1.14,1.14,0,0,0-.44-.25,2.13,2.13,0,0,1-.74-.4.87.87,0,0,1-.25-.65,1,1,0,0,1,.24-.64A1,1,0,0,1,14,3.86V3.35h.38v.51A1,1,0,0,1,15,4.2a1.19,1.19,0,0,1,.23.75h-.55a.78.78,0,0,0-.13-.47.47.47,0,0,0-.37-.17.45.45,0,0,0-.35.13.44.44,0,0,0-.12.35.41.41,0,0,0,.12.32,1.18,1.18,0,0,0,.45.25,2,2,0,0,1,.74.41.84.84,0,0,1,.22.64A.85.85,0,0,1,15,7.06Z"/><path class="cls-2" d="M30.62,14a7,7,0,0,1-2.14-.49A8,8,0,0,0,25,9.25a8.15,8.15,0,0,0,1.61-3.17.5.5,0,0,0-.48-.63h-.11A14.93,14.93,0,0,0,19,7.5a.48.48,0,0,0-.23.34A4.69,4.69,0,0,1,9.94,9.31a.49.49,0,0,0-.64-.22,8.28,8.28,0,0,0-4,3.57l0,0a5.06,5.06,0,0,1-1.54-.8A2.85,2.85,0,0,0,6,9.25,1.26,1.26,0,0,0,5.2,8.06a1.79,1.79,0,0,0-1.92.43,3,3,0,0,0-.81,2.64A1.92,1.92,0,0,1,1,10.39a.38.38,0,0,0-.5-.16.37.37,0,0,0-.16.51A2.75,2.75,0,0,0,2.8,11.91,4.89,4.89,0,0,0,5,13.33a8.09,8.09,0,0,0-.6,1.9,7.39,7.39,0,0,0,3,7.29,24.27,24.27,0,0,0,1.26,5.07.92.92,0,0,0,.83.55h3.35A.86.86,0,0,0,13.7,27c-.16-.56-.31-1.1-.45-1.65a16.22,16.22,0,0,0,6.51.09c.19.71.42,1.42.68,2.12a.87.87,0,0,0,.81.56h0l3.33,0h0a.9.9,0,0,0,.71-.35.88.88,0,0,0,.14-.77c-.34-1.14-.62-2.3-.86-3.44a9.24,9.24,0,0,0,3.15-3.19,5.3,5.3,0,0,0,1.56-.25c1.75-.67,2.28-3,2.42-4.92A1.16,1.16,0,0,0,30.62,14ZM3.24,11.12A2.3,2.3,0,0,1,3.8,9a1.16,1.16,0,0,1,.79-.34.71.71,0,0,1,.31.06.51.51,0,0,1,.32.5,2.12,2.12,0,0,1-2,1.91A.06.06,0,0,1,3.24,11.12ZM29,19.23a4.51,4.51,0,0,1-1.28.21.88.88,0,0,0-.72.43,9.27,9.27,0,0,1-3,2.94.92.92,0,0,0-.41,1c.23,1.14.51,2.29.84,3.42l-3.08,0c-.24-.66-.45-1.34-.63-2a.92.92,0,0,0-.88-.69h-.18a14.92,14.92,0,0,1-6.31-.09h-.2a.92.92,0,0,0-.92.92,1.52,1.52,0,0,0,0,.21c.14.57.28,1.11.45,1.66H9.59A22.88,22.88,0,0,1,8.4,22.38a.88.88,0,0,0-.33-.59,6.53,6.53,0,0,1-2.68-6.38,7.39,7.39,0,0,1,3.9-5.22,5.69,5.69,0,0,0,10.41-2,14,14,0,0,1,5.78-1.73,7.17,7.17,0,0,1-1.27,2.19.89.89,0,0,0-.21.67.86.86,0,0,0,.32.61l.12.09a7.08,7.08,0,0,1,3.09,3.82.91.91,0,0,0,.5.55,7.33,7.33,0,0,0,2.52.61.18.18,0,0,1,.16.17C30.63,16.24,30.3,18.72,29,19.23Z"/></svg>