<!-- Generated by IcoMoon.io -->
<svg version="1.1" xmlns="http://www.w3.org/2000/svg" width="32" height="32" viewBox="0 0 32 32">
<title>pinterest</title>
<path fill="#bd081c" d="M16 0c-8.793 0.057-15.899 7.198-15.899 16 0 6.7 4.119 12.439 9.963 14.822l0.107 0.039c-0.091-0.628-0.143-1.354-0.143-2.091 0-0.879 0.074-1.741 0.216-2.579l-0.013 0.090c0.29-1.25 1.87-7.94 1.87-7.94-0.314-0.688-0.498-1.492-0.5-2.339v-0.001c0-2.21 1.29-3.88 2.89-3.88 0.005-0 0.010-0 0.016-0 1.105 0 2 0.895 2 2 0 0.088-0.006 0.175-0.017 0.26l0.001-0.010c0 1.37-0.87 3.42-1.33 5.32-0.046 0.172-0.072 0.37-0.072 0.573 0 1.281 1.039 2.32 2.32 2.32 0.043 0 0.085-0.001 0.128-0.003l-0.006 0c2.84 0 5-3 5-7.31 0.002-0.057 0.003-0.123 0.003-0.19 0-3.49-2.83-6.32-6.32-6.32-0.128 0-0.254 0.004-0.38 0.011l0.017-0.001c-0.069-0.002-0.149-0.004-0.23-0.004-3.816 0-6.911 3.089-6.92 6.903v0.001c0 0.001 0 0.001 0 0.002 0 1.37 0.442 2.637 1.192 3.666l-0.012-0.018c0.080 0.085 0.129 0.201 0.129 0.327 0 0.047-0.007 0.093-0.020 0.136l0.001-0.003c-0.12 0.5-0.39 1.6-0.44 1.82s-0.23 0.36-0.53 0.22c-2.020-0.92-3.25-3.82-3.25-6.2 0-5 3.67-9.67 10.56-9.67 5.54 0 9.86 4 9.86 9.23 0 5.52-3.48 10-8.31 10-0.042 0.001-0.092 0.002-0.141 0.002-1.458 0-2.747-0.722-3.53-1.829l-0.009-0.014-1 3.8c-0.523 1.601-1.201 2.991-2.041 4.266l0.041-0.066c1.36 0.418 2.924 0.659 4.544 0.659 8.837 0 16-7.163 16-16 0-8.768-7.052-15.888-15.794-15.999l-0.010-0z"></path>
</svg>
