<!-- Generated by IcoMoon.io -->
<svg version="1.1" xmlns="http://www.w3.org/2000/svg" width="32" height="32" viewBox="0 0 32 32">
<title>plus-circle</title>
<path fill="#003359" d="M16 1c8.284 0 15 6.716 15 15s-6.716 15-15 15c-8.284 0-15-6.716-15-15v0c0-8.284 6.716-15 15-15v0zM16 0v0c-8.837 0-16 7.163-16 16v0 0c0 8.837 7.163 16 16 16v0 0c8.837 0 16-7.163 16-16v0 0c0-8.837-7.163-16-16-16v0z"></path>
<path fill="#09c" d="M25.55 15.54h-9v-9c0-0.276-0.224-0.5-0.5-0.5s-0.5 0.224-0.5 0.5v0 9h-9c-0.015-0.002-0.033-0.003-0.051-0.003-0.263 0-0.479 0.203-0.498 0.461l-0 0.002c0 0.276 0.224 0.5 0.5 0.5v0h9v9.050c0 0.276 0.224 0.5 0.5 0.5s0.5-0.224 0.5-0.5v0-9h9.050c0.276 0 0.5-0.224 0.5-0.5v0c0-0.003 0-0.006 0-0.010 0-0.276-0.224-0.5-0.5-0.5-0 0-0 0-0 0v0z"></path>
</svg>
