<!-- Generated by IcoMoon.io -->
<svg version="1.1" xmlns="http://www.w3.org/2000/svg" width="32" height="32" viewBox="0 0 32 32">
<title>plus</title>
<path fill="#003359" d="M31.5 15.54h-15v-15c0-0.276-0.224-0.5-0.5-0.5s-0.5 0.224-0.5 0.5v0 15h-15c-0 0-0.001 0-0.002 0-0.262 0-0.477 0.202-0.498 0.458l-0 0.002c0 0.276 0.224 0.5 0.5 0.5v0h15v15c0 0.276 0.224 0.5 0.5 0.5s0.5-0.224 0.5-0.5v0-15h15c0.276 0 0.5-0.224 0.5-0.5v0c-0.021-0.258-0.236-0.46-0.498-0.46-0.001 0-0.001 0-0.002 0h0z"></path>
</svg>
