<!-- Generated by IcoMoon.io -->
<svg version="1.1" xmlns="http://www.w3.org/2000/svg" width="32" height="32" viewBox="0 0 32 32">
<title>pointer</title>
<path fill="#003359" d="M27.2 11.25c-0.821-0.563-1.836-0.9-2.93-0.9-0.254 0-0.504 0.018-0.748 0.053l0.028-0.003c-0.008-0.604-0.298-1.138-0.745-1.477l-0.005-0.003c-1.21-0.86-3.38-0.17-3.71-0.060-0.078-0.502-0.332-0.933-0.697-1.237l-0.003-0.003c-1.17-0.89-3.21-0.39-3.44-0.33v0-5.45c0.003-0.015 0.004-0.032 0.004-0.050s-0.001-0.035-0.004-0.052l0 0.002c-0.353-1.065-1.339-1.819-2.502-1.819-0.112 0-0.223 0.007-0.331 0.021l0.013-0.001c-0.075-0.008-0.162-0.012-0.251-0.012-1.296 0-2.37 0.947-2.567 2.187l-0.002 0.015v12.87l-2.22-1.8-0.090-0.1c-0.080 0-2-1-3.26 0.33-0.378 0.372-0.612 0.889-0.612 1.461 0 0.537 0.206 1.025 0.543 1.39l-0.001-0.001 2.33 3.77c0 0.070 3.53 6.7 4 8.24 1.080 3.36 2.85 3.63 3.1 3.65h9.9c2.26 0 3.25-3 3.3-3.11l1.79-6.46c0.002-0.021 0.004-0.045 0.004-0.070s-0.001-0.049-0.004-0.073l0 0.003v-8.74c0.003-0.051 0.005-0.11 0.005-0.17 0-0.815-0.343-1.55-0.894-2.068l-0.001-0.001zM27.14 22.16l-1.77 6.38s-0.8 2.4-2.34 2.4h-9.84s-1.33-0.23-2.21-3c-0.52-1.62-3.94-8.12-4.1-8.42l-2.41-3.83c-0.195-0.2-0.315-0.473-0.315-0.775s0.12-0.575 0.316-0.775l-0 0c0.318-0.222 0.712-0.355 1.138-0.355 0.329 0 0.64 0.079 0.914 0.22l-0.011-0.005 3 2.43c0.086 0.067 0.195 0.108 0.314 0.108 0.078 0 0.153-0.018 0.219-0.049l-0.003 0.001c0.172-0.078 0.29-0.249 0.29-0.447 0-0.001 0-0.002 0-0.003v0-13.84c0.153-0.731 0.792-1.272 1.558-1.272 0.068 0 0.134 0.004 0.2 0.012l-0.008-0.001c1.43 0 1.77 0.77 1.83 1v12c0 0.276 0.224 0.5 0.5 0.5s0.5-0.224 0.5-0.5v0-5.69c0.040 0.014 0.087 0.023 0.135 0.023s0.095-0.008 0.138-0.024l-0.003 0.001c0.319-0.099 0.686-0.155 1.067-0.155 0.544 0 1.061 0.116 1.527 0.325l-0.024-0.009c0.224 0.185 0.366 0.462 0.366 0.773 0 0.038-0.002 0.075-0.006 0.111l0-0.005v4.89c0 0.276 0.224 0.5 0.5 0.5v0c0.276 0 0.5-0.224 0.5-0.5v0-4.34c0.036 0.007 0.078 0.011 0.12 0.011s0.084-0.004 0.124-0.012l-0.004 0.001c0.52-0.18 2.14-0.58 2.84-0.090 0.213 0.17 0.348 0.429 0.348 0.72 0 0.042-0.003 0.084-0.008 0.124l0.001-0.005v5.18c0 0.276 0.224 0.5 0.5 0.5v0c0.276 0 0.5-0.224 0.5-0.5v0-4.39c0.023 0.005 0.048 0.007 0.075 0.007s0.052-0.003 0.077-0.008l-0.002 0c0.176-0.026 0.38-0.041 0.587-0.041 0.843 0 1.63 0.246 2.29 0.671l-0.017-0.010c0.371 0.338 0.604 0.823 0.604 1.363 0 0.041-0.001 0.082-0.004 0.123l0-0.005z"></path>
</svg>
