<!-- Generated by IcoMoon.io -->
<svg version="1.1" xmlns="http://www.w3.org/2000/svg" width="32" height="32" viewBox="0 0 32 32">
<title>prescription</title>
<path fill="#09c" d="M17.56 13.27h-11.66c-0.276 0-0.5 0.224-0.5 0.5v0c0 0.276 0.224 0.5 0.5 0.5v0h11.66c0.276 0 0.5-0.224 0.5-0.5v0c-0.006-0.274-0.226-0.495-0.499-0.5h-0.001z"></path>
<path fill="#09c" d="M14.58 17.11h-8.68c-0.276 0-0.5 0.224-0.5 0.5s0.224 0.5 0.5 0.5v0h8.68c0.276 0 0.5-0.224 0.5-0.5s-0.224-0.5-0.5-0.5v0z"></path>
<path fill="#09c" d="M14.58 21h-8.68c-0.276 0-0.5 0.224-0.5 0.5v0c0 0.276 0.224 0.5 0.5 0.5v0h8.68c0.276 0 0.5-0.224 0.5-0.5v0c0-0.276-0.224-0.5-0.5-0.5v0z"></path>
<path fill="#09c" d="M14.58 24.78h-8.68c-0.276 0-0.5 0.224-0.5 0.5v0c0 0.276 0.224 0.5 0.5 0.5v0h8.68c0.276 0 0.5-0.224 0.5-0.5v0c0-0.276-0.224-0.5-0.5-0.5v0z"></path>
<path fill="#003359" d="M27.85 0h-23.78c-0.012-0-0.026-0.001-0.040-0.001-0.417 0-0.788 0.195-1.028 0.498l-0.002 0.003c-0.119 0.162-0.19 0.366-0.19 0.587 0 0.050 0.004 0.1 0.011 0.149l-0.001-0.005v5c-0 0.009-0 0.020-0 0.031 0 0.663 0.537 1.2 1.2 1.2 0.018 0 0.035-0 0.053-0.001l-0.003 0h1.13v24c0 0.276 0.224 0.5 0.5 0.5v0h20.53c0.276 0 0.5-0.224 0.5-0.5v0-24h1.12c0.006 0 0.013 0 0.020 0 0.663 0 1.2-0.537 1.2-1.2 0-0.004-0-0.007-0-0.011v0.001-5.080c-0.017-0.65-0.547-1.17-1.2-1.17-0.007 0-0.014 0-0.021 0h0.001zM25.73 31h-19.53v-23.54h19.53zM28.070 6.25c0 0.003 0 0.007 0 0.011 0 0.11-0.090 0.2-0.2 0.2-0.007 0-0.014-0-0.021-0.001l0.001 0h-23.78c-0.006 0.001-0.014 0.001-0.021 0.001-0.105 0-0.19-0.085-0.19-0.19 0-0.007 0-0.015 0.001-0.022l-0 0.001v-5.14c0.053-0.060 0.126-0.1 0.208-0.11l0.002-0h23.78c0.006-0.001 0.013-0.001 0.020-0.001 0.11 0 0.2 0.090 0.2 0.2 0 0.004-0 0.008-0 0.012l0-0.001z"></path>
</svg>
