<svg id="Layer_1" data-name="Layer 1" xmlns="http://www.w3.org/2000/svg" viewBox="0 0 32 32"><defs><style>.cls-1{fill:#003359;}.cls-2{fill:#09c;}</style></defs><path class="cls-1" d="M16,1A15,15,0,1,1,1,16,15,15,0,0,1,16,1m0-1h0A16,16,0,0,0,0,16H0A16,16,0,0,0,16,32h0A16,16,0,0,0,32,16h0A16,16,0,0,0,16,0Z"/><path class="cls-2" d="M14.47,20.62a7.62,7.62,0,0,1,.35-2.42,6.14,6.14,0,0,1,1.31-2l1.69-1.74a3.86,3.86,0,0,0,1.09-2.62,3,3,0,0,0-.71-2.12A2.69,2.69,0,0,0,16.13,9a3.07,3.07,0,0,0-2.11.7,2.33,2.33,0,0,0-.8,1.87H10.83a4.33,4.33,0,0,1,1.49-3.37,5.56,5.56,0,0,1,3.81-1.29,5.27,5.27,0,0,1,3.8,1.31,4.73,4.73,0,0,1,1.36,3.59,6.45,6.45,0,0,1-2.09,4.44l-1.4,1.39a4.33,4.33,0,0,0-.94,3Zm-.11,4.1a1.41,1.41,0,0,1,.36-1,1.36,1.36,0,0,1,1-.4,1.37,1.37,0,0,1,1.06.4,1.41,1.41,0,0,1,.36,1,1.29,1.29,0,0,1-1.42,1.36,1.29,1.29,0,0,1-1.41-1.36Z"/></svg>