<!-- Generated by IcoMoon.io -->
<svg version="1.1" xmlns="http://www.w3.org/2000/svg" width="32" height="32" viewBox="0 0 32 32">
<title>question</title>
<path fill="#003359" d="M13.35 22.9c-0.001-0.069-0.002-0.151-0.002-0.233 0-1.346 0.213-2.641 0.607-3.856l-0.025 0.088c0.542-1.277 1.281-2.369 2.191-3.291l2.819-2.899c1.102-1.144 1.787-2.695 1.81-4.406l0-0.004c0.005-0.084 0.008-0.183 0.008-0.283 0-1.244-0.449-2.384-1.194-3.265l0.006 0.007c-0.807-0.792-1.915-1.281-3.136-1.281-0.11 0-0.22 0.004-0.328 0.012l0.015-0.001c-0.078-0.004-0.17-0.007-0.262-0.007-1.244 0-2.386 0.44-3.277 1.174l0.009-0.007c-0.82 0.72-1.334 1.771-1.334 2.942 0 0.063 0.001 0.125 0.004 0.187l-0-0.009h-4c-0.001-0.046-0.002-0.101-0.002-0.156 0-2.182 0.966-4.139 2.493-5.467l0.009-0.008c1.598-1.337 3.676-2.149 5.943-2.149 0.147 0 0.293 0.003 0.438 0.010l-0.021-0.001c0.158-0.010 0.342-0.016 0.528-0.016 2.233 0 4.271 0.832 5.822 2.204l-0.009-0.008c1.411 1.428 2.282 3.391 2.282 5.559 0 0.155-0.004 0.31-0.013 0.463l0.001-0.021q0 3.77-3.49 7.42l-2.34 2.3c-0.988 1.224-1.587 2.798-1.587 4.512 0 0.172 0.006 0.342 0.018 0.51l-0.001-0.023zM13.17 29.74c-0.001-0.021-0.001-0.046-0.001-0.070 0-0.604 0.228-1.155 0.603-1.572l-0.002 0.002c0.402-0.411 0.962-0.666 1.582-0.666 0.059 0 0.118 0.002 0.176 0.007l-0.008-0c0.047-0.004 0.103-0.006 0.158-0.006 0.626 0 1.192 0.254 1.602 0.665l0 0c0.379 0.412 0.611 0.963 0.611 1.569 0 0.025-0 0.050-0.001 0.075l0-0.004c0.001 0.023 0.001 0.051 0.001 0.078 0 0.597-0.233 1.14-0.612 1.543l0.001-0.001c-0.417 0.399-0.985 0.645-1.609 0.645-0.053 0-0.106-0.002-0.158-0.005l0.007 0c-0.064 0.007-0.139 0.011-0.214 0.011-1.182 0-2.14-0.958-2.14-2.14 0-0.046 0.001-0.092 0.004-0.137l-0 0.006z"></path>
</svg>
