<!-- Generated by IcoMoon.io -->
<svg version="1.1" xmlns="http://www.w3.org/2000/svg" width="32" height="32" viewBox="0 0 32 32">
<title>question-circle</title>
<path fill="#003359" d="M16 1c8.284 0 15 6.716 15 15s-6.716 15-15 15c-8.284 0-15-6.716-15-15v0c0-8.284 6.716-15 15-15v0zM16 0v0c-8.837 0-16 7.163-16 16v0 0c0 8.837 7.163 16 16 16v0 0c8.837 0 16-7.163 16-16v0 0c0-8.837-7.163-16-16-16v0z"></path>
<path fill="#09c" d="M14.47 20.62c-0.001-0.040-0.001-0.087-0.001-0.133 0-0.817 0.128-1.603 0.366-2.34l-0.015 0.054c0.319-0.777 0.762-1.441 1.311-2.001l-0.001 0.001 1.69-1.74c0.659-0.678 1.071-1.599 1.090-2.616l0-0.004c0.003-0.053 0.005-0.114 0.005-0.176 0-0.744-0.271-1.424-0.719-1.948l0.003 0.004c-0.48-0.452-1.129-0.73-1.842-0.73-0.080 0-0.16 0.004-0.238 0.010l0.010-0.001c-0.046-0.002-0.1-0.004-0.154-0.004-0.746 0-1.429 0.266-1.961 0.708l0.005-0.004c-0.493 0.43-0.803 1.058-0.803 1.76 0 0.039 0.001 0.077 0.003 0.116l-0-0.005h-2.39c-0.001-0.030-0.001-0.065-0.001-0.1 0-1.303 0.575-2.471 1.486-3.265l0.005-0.004c0.958-0.806 2.206-1.295 3.567-1.295 0.085 0 0.17 0.002 0.255 0.006l-0.012-0c0.093-0.006 0.202-0.009 0.312-0.009 1.34 0 2.563 0.5 3.493 1.324l-0.006-0.005c0.845 0.854 1.367 2.029 1.367 3.326 0 0.093-0.003 0.185-0.008 0.276l0.001-0.013c-0.090 1.763-0.876 3.327-2.085 4.436l-0.005 0.004-1.4 1.39c-0.592 0.734-0.95 1.678-0.95 2.706 0 0.103 0.004 0.206 0.011 0.307l-0.001-0.014zM14.36 24.72c-0.001-0.017-0.001-0.037-0.001-0.058 0-0.363 0.137-0.694 0.362-0.944l-0.001 0.001c0.246-0.247 0.587-0.4 0.964-0.4 0.013 0 0.025 0 0.038 0.001l-0.002-0c0.027-0.002 0.058-0.003 0.090-0.003 0.379 0 0.722 0.154 0.97 0.403l0 0c0.224 0.249 0.361 0.579 0.361 0.942 0 0.020-0 0.040-0.001 0.061l0-0.003c0.001 0.023 0.002 0.050 0.002 0.077 0 0.712-0.578 1.29-1.29 1.29-0.047 0-0.093-0.002-0.138-0.007l0.006 0c-0.037 0.004-0.079 0.006-0.122 0.006-0.712 0-1.29-0.578-1.29-1.29 0-0.027 0.001-0.053 0.002-0.079l-0 0.004z"></path>
</svg>
