<!-- Generated by IcoMoon.io -->
<svg version="1.1" xmlns="http://www.w3.org/2000/svg" width="32" height="32" viewBox="0 0 32 32">
<title>RX</title>
<path fill="#09c" d="M20.9 21.15c0.73-1.11 1.5-2.41 2.19-3.56s0.42-1.38-1.23-1.57v-1.020h7v1c-2.070 0.23-2.87 0.38-4.4 2.38-0.54 0.72-1.46 2-2.73 3.9zM19.86 24.73c-0.85 1.38-1.69 2.73-2.45 4.070s-0.66 1.65 1.34 1.91v1.080h-7.28v-1.060c2.42-0.3 2.92-0.57 4.33-2.45 1.080-1.49 2.070-3 3.22-4.71z"></path>
<path fill="#003359" d="M29.76 32c-0.49 0-0.92 0-1.41-0.070-0.045 0.001-0.099 0.002-0.152 0.002-2.468 0-4.631-1.31-5.831-3.272l-0.017-0.030c-1.42-2-7.54-11.16-8.77-13.11-0.76-1.23-1.26-1.46-3.21-1.46h-1.37v6c0 3.26 0.43 3.45 3.49 3.76v1.070h-10.19v-1.050c3.18-0.35 3.45-0.5 3.45-3.76v-15.29c0-3.26-0.42-3.37-3.45-3.72v-1.070h9.77c2.8 0 4.68 0.35 6.13 1.3 1.584 1.041 2.615 2.81 2.615 4.82 0 0.084-0.002 0.168-0.005 0.252l0-0.012c0 3.3-2.11 5.37-4.95 6.59 0.7 1.19 7.080 10.54 8.23 12.27 0.975 1.481 1.962 2.767 3.032 3.977l-0.032-0.037c0.715 0.846 1.671 1.468 2.762 1.761l0.038 0.009zM10.88 12.76c2 0 3.26-0.3 4.22-1.11 1.298-0.995 2.126-2.545 2.126-4.29 0-0.148-0.006-0.295-0.018-0.439l0.001 0.019c0-4.1-2.72-5.6-5.67-5.6-0.112-0.013-0.242-0.020-0.373-0.020-0.596 0-1.156 0.152-1.645 0.419l0.018-0.009c-0.38 0.27-0.54 0.65-0.54 1.64v9.39z"></path>
</svg>
