<!-- Generated by IcoMoon.io -->
<svg version="1.1" xmlns="http://www.w3.org/2000/svg" width="32" height="32" viewBox="0 0 32 32">
<title>search</title>
<path fill="#003359" d="M31.85 31.15l-13.66-13.67c1.693-1.847 2.731-4.318 2.731-7.033 0-2.887-1.174-5.5-3.071-7.387l-0-0c-1.893-1.891-4.506-3.060-7.393-3.060-5.777 0-10.46 4.683-10.46 10.46s4.683 10.46 10.46 10.46c0.001 0 0.002 0 0.003 0h-0c2.704-0 5.165-1.038 7.007-2.736l-0.007 0.006 13.69 13.66c0.088 0.093 0.212 0.152 0.35 0.152s0.262-0.058 0.35-0.151l0-0c0.093-0.088 0.152-0.212 0.152-0.35s-0.058-0.262-0.151-0.35l-0-0zM3.77 17.15c-1.712-1.712-2.772-4.077-2.772-6.69 0-5.225 4.235-9.46 9.46-9.46s9.46 4.235 9.46 9.46c0 5.224-4.235 9.459-9.458 9.46h-0c-2.612-0.001-4.977-1.059-6.69-2.77l0 0z"></path>
</svg>
