<!-- Generated by IcoMoon.io -->
<svg version="1.1" xmlns="http://www.w3.org/2000/svg" width="32" height="32" viewBox="0 0 32 32">
<title>settings</title>
<path fill="#09c" d="M16 17c1.657 0 3-1.343 3-3s-1.343-3-3-3c-1.657 0-3 1.343-3 3v0c0 1.657 1.343 3 3 3v0zM16 11.92c1.105 0 2 0.895 2 2s-0.895 2-2 2c-1.105 0-2-0.895-2-2v0c-0-0.003-0-0.006-0-0.010 0-1.105 0.895-2 2-2 0 0 0 0 0 0v0z"></path>
<path fill="#09c" d="M18.54 19.11h-5.080c-0.087-0.010-0.188-0.016-0.29-0.016-1.442 0-2.612 1.165-2.62 2.605v0.001c0 0.276 0.224 0.5 0.5 0.5v0c0.276 0 0.5-0.224 0.5-0.5v0c0-1.17 1-1.59 1.91-1.59h5.080c0.92 0 1.91 0.42 1.91 1.59 0 0.276 0.224 0.5 0.5 0.5v0c0.276 0 0.5-0.224 0.5-0.5v0c-0.008-1.441-1.178-2.606-2.62-2.606-0.102 0-0.203 0.006-0.302 0.017l0.012-0.001z"></path>
<path fill="#003359" d="M16.22 7.4h-0.44c-4.602 0.006-8.33 3.737-8.33 8.34v0 0.44c0 4.601 3.729 8.33 8.33 8.33h0.44c4.601 0 8.33-3.729 8.33-8.33v0-0.44c0-4.603-3.728-8.334-8.329-8.34h-0.001zM23.55 16.18c0 4.048-3.282 7.33-7.33 7.33v0h-0.44c-4.048 0-7.33-3.282-7.33-7.33v0-0.44c0 0 0 0 0 0 0-4.050 3.281-7.334 7.329-7.34h0.441c4.049 0.006 7.33 3.29 7.33 7.34 0 0 0 0 0 0v0z"></path>
<path fill="#003359" d="M30.090 12.37h-2.090c-0.255-0.907-0.576-1.694-0.971-2.434l0.031 0.064 1.38-1.4c0.343-0.347 0.555-0.824 0.555-1.35s-0.212-1.003-0.555-1.35l-2.25-2.25c-0.347-0.343-0.824-0.555-1.35-0.555s-1.003 0.212-1.35 0.555l0-0-1.25 1.26c-0.787-0.468-1.695-0.869-2.653-1.157l-0.087-0.023v-1.27c-0.006-1.053-0.857-1.904-1.909-1.91h-3.181c-1.053 0.006-1.904 0.857-1.91 1.909v1.271c-1.097 0.329-2.052 0.761-2.934 1.301l0.054-0.031-1.11-1.12c-0.347-0.343-0.824-0.555-1.35-0.555s-1.003 0.212-1.35 0.555l-2.25 2.25c-0.343 0.347-0.555 0.824-0.555 1.35s0.212 1.003 0.555 1.35l-0-0 1.3 1.31c-0.326 0.632-0.619 1.372-0.839 2.143l-0.021 0.087h-2.090c0 0-0 0-0 0-1.051 0-1.904 0.849-1.91 1.899v3.191c0.006 1.053 0.857 1.904 1.909 1.91h2.251c0.307 0.961 0.684 1.792 1.142 2.568l-0.032-0.058-1.71 1.7c-0.343 0.347-0.555 0.824-0.555 1.35s0.212 1.003 0.555 1.35l2.25 2.25c0.344 0.348 0.822 0.563 1.35 0.563s1.006-0.215 1.35-0.563l0-0 1.84-1.83c0.604 0.311 1.316 0.6 2.057 0.826l0.093 0.024v2c0.006 1.053 0.857 1.904 1.909 1.91h3.181c1.053-0.006 1.904-0.857 1.91-1.909v-2.001c0.779-0.234 1.442-0.499 2.076-0.814l-0.076 0.034 2 2c0.346 0.345 0.823 0.559 1.35 0.559s1.004-0.214 1.35-0.559l2.25-2.25c0.343-0.347 0.555-0.824 0.555-1.35s-0.212-1.003-0.555-1.35l0 0-1.8-1.82c0.467-0.761 0.871-1.638 1.166-2.564l0.024-0.086h2.25c1.046-0.006 1.893-0.846 1.91-1.888l0-0.002v-3.19c-0.006-1.051-0.859-1.9-1.91-1.9 0 0-0 0-0 0v0zM31 17.46c0 0.503-0.407 0.91-0.91 0.91h-2.62c-0.226 0-0.417 0.15-0.479 0.356l-0.001 0.004c-0.335 1.175-0.813 2.202-1.426 3.132l0.026-0.042c-0.049 0.077-0.078 0.17-0.078 0.271 0 0.14 0.056 0.267 0.148 0.359l2.070 2.070c0.168 0.162 0.272 0.389 0.272 0.64s-0.104 0.478-0.271 0.64l-2.25 2.25c-0.162 0.168-0.389 0.272-0.64 0.272s-0.478-0.104-0.64-0.271l-0-0-2.2-2.24c-0.091-0.092-0.216-0.148-0.355-0.148-0.086 0-0.167 0.022-0.237 0.060l0.003-0.001c-0.715 0.404-1.543 0.746-2.414 0.982l-0.076 0.018c-0.215 0.059-0.37 0.253-0.37 0.483 0 0.003 0 0.005 0 0.008v-0 2.37c0 0.503-0.407 0.91-0.91 0.91v0h-3.23c-0.503 0-0.91-0.407-0.91-0.91v0-2.41c0-0.002 0-0.005 0-0.007 0-0.23-0.155-0.424-0.367-0.482l-0.004-0.001c-1.002-0.246-1.881-0.589-2.7-1.030l0.060 0.030c-0.063-0.044-0.142-0.070-0.226-0.070-0.005 0-0.010 0-0.014 0l0.001-0c-0.137 0.001-0.261 0.058-0.35 0.15l-2.1 2.1c-0.164 0.163-0.39 0.263-0.64 0.263s-0.476-0.1-0.64-0.263l0 0-2.25-2.29c-0.168-0.162-0.272-0.389-0.272-0.64s0.104-0.478 0.271-0.64l2-2c0.092-0.089 0.15-0.214 0.15-0.352 0-0.1-0.030-0.192-0.081-0.269l0.001 0.002c-0.538-0.863-0.985-1.859-1.289-2.916l-0.021-0.084c-0.063-0.21-0.254-0.36-0.48-0.36h-2.64c-0.001 0-0.001 0-0.002 0-0.481 0-0.876-0.374-0.908-0.847l-0-0.003v-3.19c0-0 0-0 0-0 0-0.497 0.403-0.9 0.9-0.9 0.004 0 0.007 0 0.011 0h2.499c0.004 0 0.010 0 0.015 0 0.228 0 0.42-0.156 0.474-0.367l0.001-0.003c0.239-1.027 0.583-1.93 1.030-2.771l-0.030 0.061c0.035-0.066 0.055-0.145 0.055-0.228 0-0.137-0.055-0.262-0.145-0.352l0 0-1.54-1.58c-0.166-0.165-0.268-0.393-0.268-0.645s0.102-0.48 0.268-0.645l2.25-2.25c0.164-0.163 0.39-0.263 0.64-0.263s0.476 0.1 0.64 0.263l-0-0 1.39 1.41c0.086 0.068 0.196 0.109 0.315 0.109s0.229-0.041 0.316-0.11l-0.001 0.001c0.951-0.609 2.055-1.090 3.233-1.384l0.077-0.016c0.215-0.059 0.37-0.253 0.37-0.483 0-0.003-0-0.005-0-0.008v0-1.65c0-0.503 0.407-0.91 0.91-0.91v0h3.18c0.503 0 0.91 0.407 0.91 0.91v0 1.65c-0 0.002-0 0.005-0 0.007 0 0.23 0.155 0.424 0.367 0.482l0.003 0.001c1.208 0.328 2.266 0.807 3.225 1.427l-0.045-0.027c0.075 0.048 0.167 0.077 0.266 0.077 0.138 0 0.263-0.056 0.354-0.147v0l1.53-1.57c0.164-0.163 0.39-0.263 0.64-0.263s0.476 0.1 0.64 0.263l2.25 2.25c0.166 0.165 0.268 0.393 0.268 0.645s-0.102 0.48-0.268 0.645l-1.64 1.64c-0.091 0.087-0.147 0.21-0.147 0.346 0 0.090 0.025 0.175 0.068 0.247l-0.001-0.002c0.458 0.826 0.832 1.783 1.074 2.792l0.016 0.079c0.048 0.224 0.244 0.39 0.48 0.39 0.004 0 0.007-0 0.011-0h2.499c0.003-0 0.006-0 0.010-0 0.497 0 0.9 0.403 0.9 0.9 0 0 0 0 0 0v0z"></path>
</svg>
