<!-- Generated by IcoMoon.io -->
<svg version="1.1" xmlns="http://www.w3.org/2000/svg" width="32" height="32" viewBox="0 0 32 32">
<title>share</title>
<path fill="#003359" d="M10.8 13.53c0.001 0 0.002 0 0.003 0 0.084 0 0.162-0.022 0.229-0.061l-0.002 0.001 10.21-5.29c0.162-0.085 0.271-0.252 0.271-0.445 0-0.277-0.224-0.501-0.501-0.501-0.084 0-0.163 0.021-0.233 0.057l0.003-0.001-10.21 5.29c-0.16 0.088-0.266 0.256-0.266 0.448 0 0.085 0.021 0.165 0.057 0.235l-0.001-0.003c0.084 0.161 0.249 0.268 0.44 0.27h0z"></path>
<path fill="#003359" d="M21.85 22.64l-10.85-5.48c-0.057-0.024-0.123-0.038-0.192-0.038-0.276 0-0.5 0.224-0.5 0.5 0 0.181 0.096 0.339 0.24 0.427l0.002 0.001 10.81 5.49c0.068 0.029 0.146 0.047 0.229 0.050l0.001 0c0.194 0 0.362-0.108 0.449-0.267l0.001-0.003c0.036-0.069 0.057-0.151 0.057-0.237 0-0.186-0.098-0.35-0.245-0.441l-0.002-0.001z"></path>
<path fill="#09c" d="M5.91 9.4c-3.27 0-5.92 2.65-5.92 5.92s2.65 5.92 5.92 5.92c3.27 0 5.92-2.65 5.92-5.92v0c0-3.27-2.65-5.92-5.92-5.92v0zM5.91 20.23c-2.717 0-4.92-2.203-4.92-4.92s2.203-4.92 4.92-4.92c2.717 0 4.92 2.203 4.92 4.92 0 0.004 0 0.007 0 0.011v-0.001c0 0 0 0 0 0 0 2.712-2.198 4.91-4.91 4.91-0.004 0-0.007 0-0.011 0h0.001z"></path>
<path fill="#09c" d="M26.090 11.77c3.27 0 5.92-2.65 5.92-5.92s-2.65-5.92-5.92-5.92c-3.27 0-5.92 2.65-5.92 5.92 0 0.004 0 0.007 0 0.011v-0.001c0.006 3.265 2.654 5.91 5.92 5.91 0 0 0 0 0 0v0zM26.090 0.94c2.717 0 4.92 2.203 4.92 4.92s-2.203 4.92-4.92 4.92c-2.717 0-4.92-2.203-4.92-4.92v0c0-2.717 2.203-4.92 4.92-4.92v0z"></path>
<path fill="#09c" d="M26.090 20.23c-0.003 0-0.006 0-0.010 0-3.27 0-5.92 2.65-5.92 5.92s2.65 5.92 5.92 5.92c3.27 0 5.92-2.65 5.92-5.92 0-0.003 0-0.007 0-0.011v0.001c-0.006-3.262-2.648-5.904-5.909-5.91h-0.001zM26.090 31.060c-0.003 0-0.006 0-0.010 0-2.717 0-4.92-2.203-4.92-4.92s2.203-4.92 4.92-4.92c2.717 0 4.92 2.203 4.92 4.92v0c-0.006 2.711-2.199 4.909-4.909 4.92h-0.001z"></path>
</svg>
