<!-- Generated by IcoMoon.io -->
<svg version="1.1" xmlns="http://www.w3.org/2000/svg" width="32" height="32" viewBox="0 0 32 32">
<title>shish-kabob</title>
<path fill="#003359" d="M19.19 16c0 1.762-1.428 3.19-3.19 3.19s-3.19-1.428-3.19-3.19c0-1.762 1.428-3.19 3.19-3.19s3.19 1.428 3.19 3.19z"></path>
<path fill="#003359" d="M19.010 28.81c0 1.762-1.428 3.19-3.19 3.19s-3.19-1.428-3.19-3.19c0-1.762 1.428-3.19 3.19-3.19s3.19 1.428 3.19 3.19z"></path>
<path fill="#003359" d="M19.37 3.19c0 1.762-1.428 3.19-3.19 3.19s-3.19-1.428-3.19-3.19c0-1.762 1.428-3.19 3.19-3.19s3.19 1.428 3.19 3.19z"></path>
</svg>
