<!-- Generated by IcoMoon.io -->
<svg version="1.1" xmlns="http://www.w3.org/2000/svg" width="32" height="32" viewBox="0 0 32 32">
<title>shopping</title>
<path fill="#003359" d="M9.28 20.29l20.3-1.53c0.83-0.11 2.42-0.76 2.42-2.25s-0.27-8.7-0.28-9c0-0.004 0-0.009 0-0.014 0-0.255-0.191-0.466-0.438-0.496l-0.002-0-26.72-3.31-0.67-2.16c-0.053-0.169-0.188-0.297-0.357-0.339l-0.003-0.001-2.92-0.69c-0.033-0.008-0.071-0.012-0.11-0.012-0.283 0-0.512 0.229-0.512 0.512 0 0.244 0.17 0.448 0.399 0.499l0.003 0.001 2.61 0.6 5.4 17.66-2.5 5c-0.189 0.382-0.3 0.832-0.3 1.308 0 0.416 0.085 0.812 0.237 1.172l-0.007-0.020c0.257 0.362 0.674 0.595 1.145 0.595 0.040 0 0.080-0.002 0.12-0.005l-0.005 0h0.15c-0.513 0.397-0.84 1.013-0.84 1.705 0 1.187 0.963 2.15 2.15 2.15s2.15-0.963 2.15-2.15c0-0.692-0.327-1.308-0.835-1.701l-0.005-0.004h17.23c-0.522 0.398-0.855 1.021-0.855 1.721 0 1.193 0.967 2.16 2.16 2.16s2.16-0.967 2.16-2.16c0-0.7-0.333-1.323-0.85-1.717l-0.005-0.004h0.3v-1h-22.89c-0.33 0-0.41-0.11-0.43-0.14-0.2-0.3 0-1.090 0.15-1.49zM19.34 13.29h3.29v5l-3.2 0.24zM18.43 18.64l-2.58 0.2-0.7-5.55h3.19zM23.63 13.29h3.31v4.71l-3.3 0.24zM23.63 12.29v-5.21l3.37 0.41v4.75zM22.63 12.29h-3.31l-0.11-5.71 3.42 0.42zM18.32 12.29h-3.32l-0.8-6.33 4 0.49zM14.010 12.29h-3.26l-1.44-7 3.88 0.49zM14.14 13.29l0.71 5.62-2.69 0.21-1.16-5.88zM11.14 19.19l-1.83 0.14-1.85-6h2.47zM29.46 17.81l-1.54 0.12v-4.69h3c0 1.44 0.080 2.74 0.080 3.27 0 1.030-1.53 1.25-1.53 1.25zM30.88 12.29h-2.94v-4.67l2.8 0.38c0.030 0.75 0.090 2.5 0.15 4.24zM8.26 5.16l1.46 7.080h-2.55l-2.29-7.5zM8.57 30.67c-0.003 0-0.006 0-0.010 0-0.641 0-1.16-0.519-1.16-1.16s0.519-1.16 1.16-1.16c0.641 0 1.16 0.519 1.16 1.16v0c0 0.003 0 0.006 0 0.010 0 0.635-0.515 1.15-1.15 1.15 0 0-0 0-0 0v0zM28.4 30.67c-0.003 0-0.006 0-0.010 0-0.641 0-1.16-0.519-1.16-1.16s0.519-1.16 1.16-1.16c0.641 0 1.16 0.519 1.16 1.16v0c0 0 0 0 0 0 0 0.637-0.514 1.154-1.149 1.16h-0.001z"></path>
</svg>
