<!-- Generated by IcoMoon.io -->
<svg version="1.1" xmlns="http://www.w3.org/2000/svg" width="32" height="32" viewBox="0 0 32 32">
<title>star-bold</title>
<path fill="#003359" d="M32 12.1c-0.072-0.2-0.26-0.34-0.48-0.34h-11.52l-3.52-10.9c-0.075-0.208-0.27-0.354-0.5-0.354s-0.425 0.146-0.499 0.351l-0.001 0.004-3.48 10.9h-11.5c-0.006-0-0.012-0-0.019-0-0.221 0-0.409 0.14-0.48 0.337l-0.001 0.004c-0.014 0.044-0.021 0.094-0.021 0.146 0 0.17 0.083 0.32 0.21 0.412l0.001 0.001 9.27 6.75-3.46 10.93c-0.018 0.048-0.028 0.102-0.028 0.16 0 0.162 0.082 0.305 0.206 0.389l0.002 0.001c0.078 0.062 0.178 0.1 0.286 0.1 0.001 0 0.003 0 0.004 0h-0c0.003 0 0.006 0 0.010 0 0.11 0 0.211-0.038 0.291-0.101l-0.001 0.001 9.23-6.74 9.31 6.74c0.080 0.061 0.181 0.098 0.29 0.098s0.21-0.037 0.291-0.098l-0.001 0.001c0.126-0.086 0.208-0.228 0.208-0.39 0-0.057-0.010-0.112-0.029-0.163l0.001 0.003-3.55-10.94 9.27-6.74c0.138-0.093 0.228-0.248 0.228-0.425 0-0.048-0.007-0.094-0.019-0.139l0.001 0.004z"></path>
</svg>
