<svg id="Layer_1" data-name="Layer 1" xmlns="http://www.w3.org/2000/svg" viewBox="0 0 32 32"><defs><style>.cls-1{fill:#003359;}</style></defs><path class="cls-1" d="M25.6,31a.49.49,0,0,1-.3-.1L16,24.15,6.73,30.89a.49.49,0,0,1-.59,0A.47.47,0,0,1,6,30.34L9.48,19.41.21,12.66A.51.51,0,0,1,0,12.1a.51.51,0,0,1,.48-.34H12L15.52.86a.53.53,0,0,1,1,0L20,11.76H31.5a.49.49,0,0,1,.29.9L22.52,19.4l3.55,10.94a.47.47,0,0,1-.18.55A.46.46,0,0,1,25.6,31ZM16,23a.45.45,0,0,1,.29.1l8.36,6.05-3.19-9.81a.49.49,0,0,1,.18-.56l8.32-6H19.67a.5.5,0,0,1-.48-.35L16,2.63l-3.19,9.78a.5.5,0,0,1-.48.35H2l8.32,6a.49.49,0,0,1,.18.56L7.38,29.18l8.33-6.05A.45.45,0,0,1,16,23Z"/></svg>