<!-- Generated by IcoMoon.io -->
<svg version="1.1" xmlns="http://www.w3.org/2000/svg" width="32" height="32" viewBox="0 0 32 32">
<title>star</title>
<path fill="#003359" d="M25.6 31c-0.001 0-0.002 0-0.003 0-0.112 0-0.215-0.038-0.298-0.101l0.001 0.001-9.3-6.75-9.27 6.74c-0.081 0.062-0.184 0.099-0.295 0.099s-0.214-0.037-0.296-0.1l0.001 0.001c-0.108-0.087-0.177-0.219-0.177-0.367 0-0.066 0.014-0.129 0.038-0.186l-0.001 0.003 3.48-10.93-9.27-6.75c-0.138-0.093-0.228-0.248-0.228-0.425 0-0.048 0.007-0.094 0.019-0.139l-0.001 0.004c0.072-0.2 0.26-0.34 0.48-0.34h11.52l3.52-10.9c0.075-0.208 0.27-0.354 0.5-0.354s0.425 0.146 0.499 0.351l0.001 0.004 3.48 10.9h11.5c0.007-0 0.015-0.001 0.022-0.001 0.271 0 0.49 0.219 0.49 0.49 0 0.171-0.088 0.322-0.221 0.409l-0.002 0.001-9.27 6.74 3.55 10.94c0.018 0.048 0.028 0.102 0.028 0.16 0 0.162-0.082 0.305-0.206 0.389l-0.002 0.001c-0.078 0.067-0.179 0.108-0.29 0.11h-0zM16 23c0.002-0 0.005-0 0.007-0 0.108 0 0.206 0.038 0.284 0.101l-0.001-0.001 8.36 6.050-3.19-9.81c-0.017-0.048-0.027-0.103-0.027-0.16 0-0.165 0.081-0.31 0.205-0.399l0.002-0.001 8.32-6h-10.29c-0.001 0-0.002 0-0.003 0-0.223 0-0.411-0.145-0.476-0.346l-0.001-0.004-3.19-9.8-3.19 9.78c-0.066 0.205-0.254 0.35-0.477 0.35-0.001 0-0.002 0-0.003 0h-10.33l8.32 6c0.126 0.090 0.207 0.235 0.207 0.4 0 0.057-0.010 0.112-0.028 0.163l0.001-0.003-3.12 9.86 8.33-6.050c0.075-0.075 0.176-0.123 0.289-0.13l0.001-0z"></path>
</svg>
