<!-- Generated by IcoMoon.io -->
<svg version="1.1" xmlns="http://www.w3.org/2000/svg" width="32" height="32" viewBox="0 0 32 32">
<title>stethoscope</title>
<path fill="#003359" d="M27.19 9.35c-0.856 0-1.55 0.694-1.55 1.55s0.694 1.55 1.55 1.55c0.856 0 1.55-0.694 1.55-1.55v0c0-0.003 0-0.007 0-0.010 0-0.851-0.689-1.54-1.54-1.54-0.004 0-0.007 0-0.011 0h0.001z"></path>
<path fill="#003359" d="M27.69 14.32c0-0.276-0.224-0.5-0.5-0.5s-0.5 0.224-0.5 0.5v0 5.68c0 0.060 0.51 5.31-2.31 8.43-1.388 1.439-3.333 2.333-5.487 2.333-0.156 0-0.31-0.005-0.464-0.014l0.021 0.001c-0.131 0.008-0.284 0.013-0.439 0.013-2.155 0-4.102-0.894-5.489-2.33l-0.002-0.002c-2.83-3.12-2.36-8.38-2.35-8.43s0 0 0 0c7.22-0.34 8.1-7.29 8.11-7.42v-8.17c0.013-0.098 0.020-0.212 0.020-0.327 0-0.637-0.227-1.222-0.604-1.677l0.004 0.004c-0.483-0.546-1.157-0.914-1.916-0.999l-0.014-0.001c-0.182-0.704-0.812-1.216-1.561-1.216-0.889 0-1.61 0.721-1.61 1.61 0 0.020 0 0.039 0.001 0.058l-0-0.003c0 0.895 0.725 1.62 1.62 1.62 0.694 0 1.285-0.436 1.516-1.048l0.004-0.011c0.47 0.059 0.882 0.274 1.19 0.59l0 0c0.231 0.296 0.371 0.674 0.371 1.084 0 0.069-0.004 0.137-0.012 0.204l0.001-0.008v8.19c-0.432 3.691-3.541 6.528-7.313 6.528-0.122 0-0.243-0.003-0.364-0.009l0.017 0.001c-0.1 0.005-0.217 0.008-0.335 0.008-3.713 0-6.76-2.85-7.073-6.481l-0.002-0.027v-8.22c-0.003-0.040-0.005-0.087-0.005-0.135 0-0.477 0.197-0.907 0.515-1.215l0-0c0.275-0.23 0.615-0.393 0.987-0.458l0.013-0.002c0.256 0.593 0.835 1 1.51 1 0.004 0 0.007 0 0.011-0h-0.001c0.898-0.003 1.625-0.732 1.625-1.63 0-0.9-0.73-1.63-1.63-1.63-0.765 0-1.408 0.528-1.583 1.239l-0.002 0.011c-0.614 0.093-1.156 0.349-1.594 0.724l0.004-0.004c-0.526 0.487-0.854 1.182-0.854 1.953 0 0.052 0.001 0.103 0.004 0.154l-0-0.007v8.28c0 0.080 0.66 7.13 8 7.43-0.060 0.61-0.4 5.81 2.6 9.13 1.571 1.642 3.779 2.662 6.225 2.662 0.16 0 0.319-0.004 0.477-0.013l-0.022 0.001c0.139 0.008 0.302 0.013 0.466 0.013 2.44 0 4.642-1.021 6.201-2.659l0.003-0.004c3.12-3.46 2.59-9 2.57-9.15z"></path>
<path fill="#09c" d="M27.19 14.82c-2.209 0-4-1.791-4-4s1.791-4 4-4c2.209 0 4 1.791 4 4v0c0 2.209-1.791 4-4 4v0zM27.19 7.82c-1.657 0-3 1.343-3 3s1.343 3 3 3c1.657 0 3-1.343 3-3v0c-0.023-1.64-1.357-2.96-3-2.96-0 0-0 0-0 0v0z"></path>
</svg>
