<!-- Generated by IcoMoon.io -->
<svg version="1.1" xmlns="http://www.w3.org/2000/svg" width="32" height="32" viewBox="0 0 32 32">
<title>Time</title>
<path fill="#003359" d="M16 1c8.284 0 15 6.716 15 15s-6.716 15-15 15c-8.284 0-15-6.716-15-15v0c0-8.284 6.716-15 15-15v0zM16 0v0c-8.837 0-16 7.163-16 16s7.163 16 16 16v0 0c8.837 0 16-7.163 16-16s-7.163-16-16-16v0z"></path>
<path fill="#09c" d="M23 16.9h-7c-0.276 0-0.5-0.224-0.5-0.5v0-11c0-0.276 0.224-0.5 0.5-0.5s0.5 0.224 0.5 0.5v0 10.5h6.5c0.276 0 0.5 0.224 0.5 0.5s-0.224 0.5-0.5 0.5v0z"></path>
<path fill="#003359" d="M14.19 16.42c-0-0.013-0.001-0.027-0.001-0.042 0-0.468 0.175-0.895 0.462-1.22l-0.002 0.002c0.309-0.318 0.741-0.515 1.219-0.515 0.046 0 0.092 0.002 0.137 0.005l-0.006-0c0.038-0.003 0.082-0.005 0.127-0.005 0.479 0 0.912 0.197 1.223 0.514l0 0c0.292 0.319 0.471 0.745 0.471 1.214 0 0.016-0 0.033-0.001 0.049l0-0.002c0 0.015 0.001 0.032 0.001 0.050 0 0.461-0.179 0.88-0.472 1.191l0.001-0.001c-0.318 0.306-0.75 0.494-1.227 0.494-0.043 0-0.086-0.002-0.129-0.005l0.006 0c-0.049 0.005-0.106 0.008-0.163 0.008-0.906 0-1.64-0.734-1.64-1.64 0-0.035 0.001-0.069 0.003-0.103l-0 0.005z"></path>
</svg>
