<!-- Generated by IcoMoon.io -->
<svg version="1.1" xmlns="http://www.w3.org/2000/svg" width="32" height="32" viewBox="0 0 32 32">
<title>tooth</title>
<path fill="#003359" d="M21.76 32.080c-0.007 0-0.014 0-0.022 0-0.298 0-0.583-0.059-0.843-0.166l0.015 0.005c-1.26-0.42-1.32-2.27-1.4-4.61 0-0.006 0-0.014 0-0.021 0-1.875-0.215-3.7-0.622-5.451l0.032 0.162c-0.58-1.73-1.34-3.6-2.92-3.6-1.8 0.23-2.31 1.78-2.86 3.42l-0.060 0.21c-0.521 1.682-0.821 3.615-0.821 5.619 0 0.067 0 0.134 0.001 0.201l-0-0.010c-0.090 2.16-0.15 3.71-1.17 4.12-0.268 0.094-0.576 0.149-0.898 0.149-0.631 0-1.212-0.21-1.679-0.564l0.007 0.005c-1.47-1.030-3.22-3.66-3.22-10.55 0.007-0.153 0.011-0.333 0.011-0.514 0-2.264-0.644-4.377-1.76-6.166l0.029 0.049c-1.081-1.708-1.723-3.788-1.723-6.017 0-0.346 0.015-0.689 0.046-1.027l-0.003 0.044c0.002-2.384 1.224-4.482 3.074-5.704l0.026-0.016c3.14-2.030 8-1.9 11-0.75 3.050-1.15 7.86-1.28 11 0.75 1.873 1.237 3.094 3.33 3.1 5.709v0.001c0.030 0.316 0.047 0.682 0.047 1.053 0 2.313-0.662 4.472-1.806 6.297l0.029-0.050c-1.055 1.658-1.681 3.678-1.681 5.845 0 0.174 0.004 0.348 0.012 0.52l-0.001-0.024c0 6.91-1.75 9.54-3.22 10.53-0.479 0.342-1.075 0.547-1.719 0.55h-0.001zM11.15 1.080c-0.102-0.004-0.223-0.006-0.343-0.006-1.933 0-3.743 0.526-5.295 1.442l0.049-0.027c-1.61 1.046-2.66 2.836-2.66 4.871 0 0.014 0 0.027 0 0.041v-0.002c-0.026 0.275-0.040 0.594-0.040 0.917 0 2.057 0.592 3.976 1.616 5.596l-0.025-0.043c1.169 1.866 1.863 4.133 1.863 6.562 0 0.2-0.005 0.398-0.014 0.596l0.001-0.028c0 6.81 1.74 9 2.78 9.71 0.308 0.239 0.701 0.383 1.127 0.383 0.183 0 0.36-0.027 0.526-0.076l-0.013 0.003c0.42-0.17 0.49-1.87 0.54-3.24-0-0.051-0.001-0.112-0.001-0.173 0-2.114 0.318-4.153 0.909-6.073l-0.039 0.146 0.060-0.19c0.56-1.69 1.26-3.79 3.75-4.1v0c2.5 0 3.43 2.8 3.93 4.3 0.407 1.672 0.64 3.592 0.64 5.566 0 0.016 0 0.031-0 0.047v-0.002c0.060 1.8 0.12 3.5 0.75 3.71 0.161 0.051 0.347 0.081 0.539 0.081 0.424 0 0.814-0.143 1.125-0.384l-0.004 0.003c1.080-0.71 2.78-2.92 2.78-9.71-0.006-0.141-0.009-0.307-0.009-0.474 0-2.347 0.674-4.537 1.839-6.386l-0.029 0.050c1.035-1.636 1.649-3.627 1.649-5.761 0-0.362-0.018-0.72-0.052-1.074l0.004 0.045c0-0.012 0-0.025 0-0.039 0-2.035-1.050-3.825-2.638-4.857l-0.022-0.014c-2.8-1.82-7.44-1.73-10.25-0.59-0.056 0.024-0.121 0.038-0.19 0.038s-0.134-0.014-0.193-0.039l0.003 0.001c-1.345-0.52-2.902-0.821-4.529-0.821-0.046 0-0.092 0-0.138 0.001l0.007-0zM2.4 7.38v0z"></path>
</svg>
