<!-- Generated by IcoMoon.io -->
<svg version="1.1" xmlns="http://www.w3.org/2000/svg" width="32" height="32" viewBox="0 0 32 32">
<title>tooth-brush</title>
<path fill="#003359" d="M30.58 22c-0.13-0.634-0.493-1.166-0.992-1.515l-0.008-0.005s-3.48-2.61-7.9-6.24c-0.086-0.071-0.198-0.114-0.32-0.114-0.279 0-0.504 0.226-0.504 0.504 0 0.157 0.071 0.297 0.184 0.389l0.001 0.001c4.44 3.64 7.91 6.23 8 6.28 0.296 0.195 0.512 0.492 0.598 0.84l0.002 0.010c0 0.010 0 0.023 0 0.035 0 0.379-0.157 0.721-0.41 0.965l-0 0c-1.36 1.55-6.49 6.43-6.54 6.48l-0.080 0.090c-0.167 0.234-0.415 0.4-0.703 0.459l-0.007 0.001c-0.407-0.027-0.763-0.227-0.998-0.527l-0.002-0.003c-0.62-0.65-3.2-3.84-6.46-7.88l-0.13-0.16c-0.092-0.111-0.231-0.181-0.385-0.181-0.12 0-0.229 0.042-0.316 0.112l0.001-0.001c-0.113 0.091-0.186 0.229-0.186 0.384 0 0.121 0.044 0.231 0.116 0.317l-0.001-0.001 0.12 0.16c3.41 4.21 5.87 7.26 6.52 7.94 0.402 0.483 0.991 0.8 1.654 0.84l0.006 0h0.16c0.584-0.081 1.083-0.395 1.406-0.844l0.004-0.006c0.5-0.48 5.23-5 6.57-6.51 0.381-0.407 0.615-0.955 0.615-1.558 0-0.092-0.006-0.184-0.016-0.273l0.001 0.011z"></path>
<path fill="#003359" d="M4.36 9.4c-0.117-0.147-0.188-0.335-0.188-0.54s0.071-0.393 0.189-0.542l-0.001 0.002 3.41-3.5c0.17-0.137 0.388-0.22 0.626-0.22 0.285 0 0.541 0.119 0.724 0.31l0 0c0.51 0.51 4.2 3.65 8.69 7.34 0.085 0.069 0.195 0.111 0.315 0.111 0.155 0 0.293-0.070 0.385-0.181l0.001-0.001c0.072-0.086 0.116-0.198 0.116-0.321 0-0.157-0.072-0.297-0.185-0.389l-0.001-0.001c-4.69-3.86-8.18-6.83-8.61-7.26-0.344-0.382-0.84-0.622-1.393-0.622-0.195 0-0.384 0.030-0.561 0.086l0.013-0.004c-0.11-0.080-2.89-2-3.53-2.44-0.221-0.149-0.494-0.238-0.787-0.238-0.335 0-0.643 0.116-0.886 0.31l0.003-0.002s-0.81 0.7-1.47 1.37c-0.251 0.284-0.404 0.659-0.404 1.070s0.153 0.786 0.405 1.072l-0.002-0.002 2.14 3.050s0.060 0 0.080 0.070c-0.155 0.267-0.246 0.587-0.246 0.929 0 0.431 0.145 0.828 0.389 1.145l-0.003-0.004s3 4.24 7 9.2c0.094 0.11 0.233 0.18 0.389 0.18 0 0 0.001 0 0.001 0h-0c0.006 0 0.012 0 0.019 0 0.271 0 0.49-0.219 0.49-0.49 0-0.123-0.045-0.235-0.12-0.321l0.001 0.001c-3.99-4.91-6.93-9.080-7-9.17zM2 4.21c-0.096-0.114-0.155-0.263-0.155-0.425s0.059-0.311 0.156-0.426l-0.001 0.001c0.58-0.66 1.3-1.36 1.3-1.36 0.070-0.049 0.156-0.078 0.25-0.078s0.18 0.029 0.251 0.079l-0.001-0.001c0.48 0.33 2.4 1.69 3.2 2.22l-2.91 2.94z"></path>
<path fill="#09c" d="M31.4 5l-1.4-1.36c-0.179-0.172-0.422-0.279-0.69-0.28h-0.11s0 0 0-0.050l-2.99-2.9c-0.091-0.091-0.216-0.148-0.355-0.148s-0.264 0.057-0.355 0.148l-0 0c-0.091 0.091-0.148 0.216-0.148 0.355s0.057 0.264 0.148 0.355l0 0 2.82 2.78-1.41 1.45-0.050-0.090-2.95-2.91c-0.091-0.091-0.216-0.148-0.355-0.148s-0.264 0.057-0.355 0.148l-0 0c-0.089 0.092-0.144 0.217-0.144 0.355s0.055 0.263 0.144 0.355l-0-0 2.95 2.94 0.1 0.070-1.43 1.44c-0.010-0.116-0.058-0.22-0.13-0.3l0 0-3-2.91c-0.091-0.13-0.241-0.215-0.411-0.215-0.276 0-0.5 0.224-0.5 0.5 0 0.172 0.087 0.324 0.219 0.413l0.002 0.001 3 2.93c0.080 0.072 0.184 0.12 0.298 0.13l0.002 0-1.43 1.45-0.31 0.070c-0.020-0.098-0.066-0.183-0.13-0.25l0 0-2.95-2.91c-0.091-0.091-0.216-0.148-0.355-0.148s-0.264 0.057-0.355 0.148l-0 0c-0.091 0.091-0.148 0.216-0.148 0.355s0.057 0.264 0.148 0.355l0 0 2.73 2.68-1 0.23c-0.188 0.043-0.351 0.134-0.48 0.26l0-0-18.66 18.33c-0.183 0.181-0.296 0.432-0.296 0.71s0.113 0.529 0.296 0.71l1.42 1.42c0.18 0.178 0.427 0.289 0.7 0.29h0c0.006 0 0.013 0 0.021 0 0.267 0 0.508-0.111 0.679-0.29l0-0 18-17.71 2.41-0.53c0.197-0.050 0.366-0.147 0.5-0.28l-0 0 6.3-6.5c0.195-0.183 0.316-0.442 0.316-0.73 0-0.283-0.117-0.538-0.306-0.72l-0-0zM24.4 12.21l-2.69 0.59-18.23 17.96-1.42-1.41 18.65-18.35 2.67-0.59 5.89-6.060 1.44 1.4z"></path>
</svg>
