<svg id="Layer_1" data-name="Layer 1" xmlns="http://www.w3.org/2000/svg" viewBox="0 0 32 32"><defs><style>.cls-1{fill:#003359;}.cls-2{fill:#09c;}</style></defs><path class="cls-1" d="M30.58,22a2.43,2.43,0,0,0-1-1.52s-3.48-2.61-7.9-6.24a.5.5,0,0,0-.64.78c4.44,3.64,7.91,6.23,8,6.28a1.41,1.41,0,0,1,.6.85,1.34,1.34,0,0,1-.41,1c-1.36,1.55-6.49,6.43-6.54,6.48l-.08.09a1.14,1.14,0,0,1-.71.46,1.38,1.38,0,0,1-1-.53c-.62-.65-3.2-3.84-6.46-7.88l-.13-.16a.5.5,0,0,0-.7-.07.49.49,0,0,0-.07.7l.12.16c3.41,4.21,5.87,7.26,6.52,7.94a2.33,2.33,0,0,0,1.66.84H22a2.07,2.07,0,0,0,1.41-.85c.5-.48,5.23-5,6.57-6.51A2.28,2.28,0,0,0,30.58,22Z"/><path class="cls-1" d="M4.36,9.4a.87.87,0,0,1,0-1.08l3.41-3.5a1,1,0,0,1,1.35.09c.51.51,4.2,3.65,8.69,7.34a.5.5,0,0,0,.7-.07.5.5,0,0,0-.07-.71c-4.69-3.86-8.18-6.83-8.61-7.26a1.87,1.87,0,0,0-1.94-.54l0,0c-.11-.08-2.89-2-3.53-2.44a1.42,1.42,0,0,0-1.67.07S1.88,2,1.22,2.67a1.62,1.62,0,0,0,0,2.14L3.36,7.86s.06,0,.08.07A1.88,1.88,0,0,0,3.58,10s3,4.24,7,9.2a.51.51,0,0,0,.39.18.49.49,0,0,0,.39-.81C7.37,13.66,4.43,9.49,4.36,9.4ZM2,4.21a.66.66,0,0,1,0-.85C2.58,2.7,3.3,2,3.3,2a.44.44,0,0,1,.5,0C4.28,2.33,6.2,3.69,7,4.22L4.09,7.16Z"/><path class="cls-2" d="M31.4,5,30,3.64a1,1,0,0,0-.69-.28H29.2s0,0,0-.05L26.21.41a.5.5,0,0,0-.71,0,.5.5,0,0,0,0,.71L28.32,3.9,26.91,5.35l-.05-.09L23.91,2.35a.5.5,0,0,0-.71,0,.51.51,0,0,0,0,.71L26.15,6l.1.07L24.82,7.51a.51.51,0,0,0-.13-.3l-3-2.91A.5.5,0,1,0,21,5L24,7.93a.51.51,0,0,0,.3.13L22.87,9.51l-.31.07a.5.5,0,0,0-.13-.25L19.48,6.42a.5.5,0,0,0-.71,0,.5.5,0,0,0,0,.71L21.5,9.81l-1,.23a1,1,0,0,0-.48.26L1.36,28.63a1,1,0,0,0,0,1.42l1.42,1.42a1,1,0,0,0,.7.29.94.94,0,0,0,.7-.29l18-17.71,2.41-.53a1.08,1.08,0,0,0,.5-.28l6.3-6.5A1,1,0,0,0,31.4,5Zm-7,7.21-2.69.59L3.48,30.76,2.06,29.35,20.71,11l2.67-.59,5.89-6.06,1.44,1.4Z"/></svg>