<!-- Generated by IcoMoon.io -->
<svg version="1.1" xmlns="http://www.w3.org/2000/svg" width="32" height="32" viewBox="0 0 32 32">
<title>touch</title>
<path fill="#003359" d="M3.81 32.050c-1.69-0.005-3.062-1.363-3.090-3.047l-0-0.003v-25.86c0.006-1.704 1.386-3.084 3.089-3.090h12.321c1.704 0.006 3.084 1.386 3.090 3.089v8.521c0 0.276-0.224 0.5-0.5 0.5v0c-0.276 0-0.5-0.224-0.5-0.5v0-8.52c-0.006-1.152-0.938-2.084-2.089-2.090h-12.321c-1.152 0.006-2.084 0.938-2.090 2.089v25.861c0 0 0 0 0 0 0 1.156 0.934 2.094 2.089 2.1h12.321c0.010-0.001 0.021-0.001 0.032-0.001 0.264 0 0.482 0.201 0.507 0.459l0 0.002c0.001 0.009 0.001 0.020 0.001 0.031 0 0.266-0.208 0.483-0.47 0.499l-0.001 0z"></path>
<path fill="#09c" d="M11.090 21.93c-3.326-0.138-5.971-2.867-5.971-6.215s2.644-6.077 5.958-6.215l0.012-0c0.070 0 4.12 0.22 5.32 4 0.017 0.048 0.027 0.103 0.027 0.161 0 0.22-0.145 0.406-0.344 0.468l-0.003 0.001c-0.046 0.016-0.099 0.025-0.155 0.025-0.221 0-0.408-0.143-0.474-0.341l-0.001-0.004c-0.673-1.845-2.365-3.159-4.377-3.269l-0.013-0.001c-2.783 0.126-4.992 2.412-4.992 5.215s2.209 5.089 4.98 5.215l0.011 0c0.276 0 0.5 0.224 0.5 0.5v0c-0.021 0.252-0.226 0.45-0.479 0.46l-0.001 0z"></path>
<path fill="#09c" d="M16.93 19.21c-0.001 0-0.002 0-0.003 0-0.091 0-0.177-0.026-0.249-0.071l0.002 0.001c-0.149-0.091-0.247-0.252-0.247-0.437 0-0.093 0.025-0.18 0.068-0.255l-0.001 0.002c0.080-0.13 0.79-1.3 1.78-1.43 0.048-0.006 0.103-0.009 0.159-0.009 0.412 0 0.782 0.177 1.040 0.458l0.001 0.001c0.091 0.091 0.148 0.216 0.148 0.355s-0.057 0.264-0.148 0.355l-0 0c-0.090 0.088-0.214 0.143-0.35 0.143s-0.26-0.055-0.35-0.143l0 0c-0.081-0.11-0.21-0.181-0.355-0.181-0.009 0-0.017 0-0.026 0.001l0.001-0c-0.39 0-0.87 0.67-1 0.95-0.089 0.157-0.255 0.261-0.445 0.261-0.009 0-0.018-0-0.026-0.001l0.001 0z"></path>
<path fill="#09c" d="M19.41 18.1c-0.080-0.001-0.156-0.019-0.223-0.051l0.003 0.001c-0.168-0.083-0.281-0.253-0.281-0.45 0-0.080 0.019-0.156 0.052-0.223l-0.001 0.003c0.070-0.16 0.77-1.54 1.78-1.71 0.061-0.010 0.132-0.015 0.204-0.015 0.403 0 0.765 0.175 1.014 0.454l0.001 0.001c0.091 0.091 0.147 0.216 0.147 0.355 0 0.277-0.225 0.502-0.502 0.502-0.139 0-0.264-0.056-0.355-0.147v0c-0.18-0.19-0.3-0.17-0.34-0.16-0.36 0.060-0.84 0.72-1.050 1.15-0.083 0.17-0.252 0.286-0.449 0.29h-0.001z"></path>
<path fill="#09c" d="M25.52 30.49c-0.739-0.023-1.425-0.228-2.021-0.571l0.021 0.011c-0.72-0.37-4.050-1.43-5.27-1.81l-2.64-0.62c-0.756-0.049-1.35-0.674-1.35-1.437 0-0.005 0-0.009 0-0.014v0.001c0.072-0.822 0.632-1.496 1.386-1.736l0.014-0.004h0.11l1.33-0.14-5.27-5.27c-0.224-0.294-0.358-0.667-0.358-1.071 0-0.538 0.239-1.020 0.616-1.347l0.002-0.002c0.332-0.424 0.845-0.693 1.42-0.693 0.311 0 0.604 0.079 0.86 0.218l-0.009-0.005 2.72 2.57c0.128 0.092 0.21 0.24 0.21 0.408 0 0.276-0.224 0.5-0.5 0.5-0.157 0-0.298-0.073-0.39-0.187l-0.001-0.001-2.61-2.46c-0.11 0-0.48-0.14-1 0.35-0.201 0.145-0.33 0.378-0.33 0.642 0 0.155 0.045 0.299 0.122 0.421l-0.002-0.003 6 6c0.093 0.088 0.151 0.212 0.151 0.35 0 0.061-0.011 0.12-0.032 0.174l0.001-0.003c-0.065 0.179-0.225 0.309-0.418 0.33l-0.002 0-2.28 0.19c-0.16 0.060-0.68 0.31-0.68 0.77s0.35 0.45 0.5 0.47l2.75 0.63c0.22 0.070 4.53 1.41 5.47 1.89 1.43 0.74 2 0.35 2 0.34l4.24-4.24c0.55-0.55-0.050-1.81-0.060-1.82l-2-3.5-3.72-3.74c-0.184-0.203-0.448-0.33-0.742-0.33-0.003 0-0.005 0-0.008 0h0c-0.56 0.139-1.030 0.459-1.356 0.894l-0.004 0.006c-0.092 0.122-0.237 0.2-0.4 0.2-0.276 0-0.5-0.224-0.5-0.5 0-0.113 0.038-0.217 0.101-0.301l-0.001 0.001c0.495-0.67 1.227-1.14 2.070-1.287l0.020-0.003c0.035-0.002 0.077-0.004 0.118-0.004 0.559 0 1.061 0.24 1.411 0.622l0.001 0.001 3.79 3.78c0.035 0.032 0.065 0.068 0.089 0.108l2.001 3.572c0 0.1 1 1.93-0.11 3l-4.28 4.3c-0.298 0.22-0.672 0.353-1.077 0.353-0.036 0-0.072-0.001-0.108-0.003l0.005 0z"></path>
</svg>
