<!-- Generated by IcoMoon.io -->
<svg version="1.1" xmlns="http://www.w3.org/2000/svg" width="32" height="32" viewBox="0 0 32 32">
<title>travel</title>
<path fill="#003359" d="M32 15.85s0 0 0 0c-0.085-8.772-7.215-15.85-15.999-15.85-0 0-0 0-0.001 0h-0.29c-0.13 0-0.25 0-0.38 0-6.373 0.282-11.753 4.251-14.081 9.814l-0.039 0.106c-0.041 0.059-0.069 0.131-0.080 0.207l-0 0.003c-0.692 1.677-1.105 3.622-1.13 5.66l-0 0.010s0 0 0 0 0 0 0 0 0 0.2 0 0.2c0 0.004 0 0.009 0 0.014 0 8.601 6.787 15.617 15.297 15.985l0.033 0.001c0.13 0 0.25 0 0.38 0h0.29c8.837 0 16-7.163 16-16v0s0-0.080 0-0.12 0-0.020 0-0.030zM30.12 21h-5.88c0.267-1.393 0.43-3.006 0.45-4.652l0-0.018h6.31c-0.047 1.688-0.366 3.286-0.913 4.774l0.034-0.104zM1 16.35h5.7c0.029 1.663 0.199 3.267 0.498 4.825l-0.028-0.175h-5.29c-0.512-1.378-0.83-2.969-0.879-4.628l-0-0.022zM2 10.69h5.23c-0.282 1.382-0.462 2.988-0.499 4.629l-0.001 0.031h-5.73c0.086-1.698 0.446-3.287 1.035-4.76l-0.035 0.1zM16.36 9.69v-8.63c2.93 0.44 5.41 3.85 6.6 8.63zM23.18 10.69c0.291 1.384 0.475 2.99 0.51 4.632l0 0.028h-7.34v-4.66zM15.35 1v8.69h-6.88c1.22-4.93 3.83-8.4 6.88-8.69zM15.35 10.66v4.66h-7.62c0.041-1.674 0.224-3.279 0.54-4.836l-0.030 0.176zM7.72 16.35h7.63v4.65h-7.17c-0.27-1.385-0.436-2.99-0.46-4.629l-0-0.021zM15.35 22v9c-3.11-0.26-5.77-3.86-7-8.95zM16.35 22h6.65c-1.15 4.93-3.68 8.47-6.67 8.92zM16.35 21v-4.65h7.34c-0.019 1.656-0.185 3.261-0.487 4.818l0.027-0.168zM24.68 15.33c-0.038-1.672-0.218-3.278-0.529-4.836l0.029 0.176h5.82c0.554 1.373 0.914 2.962 0.999 4.625l0.001 0.035zM29.59 9.67h-5.59c-0.93-3.67-2.58-6.67-4.64-8.28 4.569 1.090 8.261 4.149 10.191 8.209l0.039 0.091zM11.8 1.61c-2.171 2.128-3.715 4.888-4.334 7.982l-0.016 0.098h-5c1.836-3.886 5.173-6.808 9.243-8.052l0.107-0.028zM2.27 22h5.11c0.84 3.67 2.43 6.65 4.42 8.37-4.297-1.293-7.717-4.334-9.492-8.275l-0.038-0.095zM19.36 30.59c2.11-1.68 3.8-4.77 4.67-8.59h5.7c-1.927 4.306-5.691 7.491-10.267 8.589l-0.103 0.021z"></path>
</svg>
