<!-- Generated by IcoMoon.io -->
<svg version="1.1" xmlns="http://www.w3.org/2000/svg" width="32" height="32" viewBox="0 0 32 32">
<title>triangle-circle</title>
<path fill="#003359" d="M16 1.080c8.284 0 15 6.716 15 15s-6.716 15-15 15c-8.284 0-15-6.716-15-15v0c0-8.284 6.716-15 15-15v0zM16 0.080v0c-8.837 0-16 7.163-16 16v0 0c0 8.837 7.163 16 16 16v0 0c8.837 0 16-7.163 16-16v0 0c0-8.837-7.163-16-16-16v0z"></path>
<path fill="#09c" d="M10.82 26.13c-0.083-0.001-0.162-0.019-0.234-0.052l0.004 0.002c-0.162-0.085-0.27-0.252-0.27-0.444 0-0.002 0-0.004 0-0.006v0-19.1c0.002-0.191 0.11-0.356 0.267-0.439l0.003-0.001c0.072-0.047 0.16-0.075 0.255-0.075s0.183 0.028 0.257 0.076l-0.002-0.001 14.090 9.55c0.127 0.093 0.209 0.242 0.21 0.41v0c-0.001 0.171-0.082 0.323-0.209 0.419l-0.001 0.001-14.090 9.58c-0.080 0.050-0.176 0.079-0.28 0.080h-0zM11.32 7.48v17.21l12.68-8.61z"></path>
</svg>
