<!-- Generated by IcoMoon.io -->
<svg version="1.1" xmlns="http://www.w3.org/2000/svg" width="32" height="32" viewBox="0 0 32 32">
<title>triangle</title>
<path fill="#003359" d="M5.53 32.080c-0.036 0.007-0.078 0.011-0.12 0.011s-0.084-0.004-0.124-0.011l0.004 0.001c-0.174-0.084-0.292-0.259-0.292-0.461 0-0.014 0.001-0.027 0.002-0.041l-0 0.002v-31c0.008-0.194 0.123-0.359 0.287-0.439l0.003-0.001c0.074-0.045 0.164-0.071 0.26-0.071s0.186 0.026 0.262 0.073l-0.002-0.001 22.85 15.5c0.133 0.089 0.22 0.239 0.22 0.409 0 0 0 0.001 0 0.001v-0c0 0 0 0 0 0 0 0.173-0.086 0.326-0.218 0.418l-0.002 0.001-22.85 15.53c-0.080 0.048-0.176 0.078-0.279 0.080h-0.001zM6 1.53v29.11l21.49-14.56z"></path>
</svg>
