<svg id="Layer_1" data-name="Layer 1" xmlns="http://www.w3.org/2000/svg" viewBox="0 0 32 32"><defs><style>.cls-1{fill:#003359;}.cls-2{fill:#09c;}</style></defs><path class="cls-1" d="M16,1.08a15,15,0,1,1-15,15,15,15,0,0,1,15-15m0-1h0a16,16,0,0,0-16,16H0a16,16,0,0,0,16,16h0a16,16,0,0,0,16-16h0a16,16,0,0,0-16-16Z"/><path class="cls-2" d="M10.82,26.13a.59.59,0,0,1-.23-.05.5.5,0,0,1-.27-.45V6.53a.5.5,0,0,1,.27-.44.47.47,0,0,1,.51,0l14.09,9.55a.51.51,0,0,1,.21.41.53.53,0,0,1-.21.42L11.1,26.05A.54.54,0,0,1,10.82,26.13Zm.5-18.65V24.69L24,16.08Z"/></svg>