<!-- Generated by IcoMoon.io -->
<svg version="1.1" xmlns="http://www.w3.org/2000/svg" width="32" height="32" viewBox="0 0 32 32">
<title>twitter</title>
<path fill="#1da1f2" d="M31.94 6.090c-1.099 0.487-2.374 0.84-3.709 0.994l-0.061 0.006c1.345-0.817 2.361-2.062 2.866-3.543l0.014-0.047c-1.199 0.71-2.592 1.254-4.073 1.555l-0.087 0.015c-1.201-1.271-2.898-2.063-4.78-2.063-3.619 0-6.554 2.926-6.57 6.541v0.002c0 0 0 0.001 0 0.001 0 0.531 0.062 1.048 0.179 1.544l-0.009-0.045c-5.462-0.271-10.27-2.861-13.494-6.797l-0.026-0.033c-0.559 0.932-0.89 2.057-0.89 3.259 0 0.015 0 0.029 0 0.044v-0.002c-0 0.007-0 0.015-0 0.022 0 2.266 1.149 4.264 2.897 5.443l0.023 0.015c-1.106-0.033-2.135-0.333-3.033-0.837l0.033 0.017v0.080c0 0.002 0 0.005 0 0.008 0 3.161 2.239 5.799 5.218 6.414l0.042 0.007c-0.519 0.146-1.114 0.23-1.73 0.23-0 0-0 0-0 0v0c-0.432-0.001-0.854-0.041-1.263-0.117l0.043 0.007c0.88 2.627 3.302 4.493 6.166 4.53l0.004 0c-2.215 1.752-5.048 2.81-8.128 2.81-0.004 0-0.008 0-0.013 0h0.001c-0.55-0-1.092-0.033-1.624-0.096l0.064 0.006c2.844 1.844 6.321 2.94 10.054 2.94 0.009 0 0.018 0 0.028-0h-0.001c12.070 0 18.66-10 18.66-18.64 0-0.28 0-0.56 0-0.84 1.285-0.94 2.367-2.066 3.23-3.352l0.030-0.048z"></path>
</svg>
