<svg id="Layer_1" data-name="Layer 1" xmlns="http://www.w3.org/2000/svg" viewBox="0 0 32 32"><defs><style>.cls-1{fill:#003359;}</style></defs><path class="cls-1" d="M29.26,14A12.74,12.74,0,0,0,17,1.61V1.16a1.16,1.16,0,0,0-.35-.82A1.15,1.15,0,0,0,15.84,0h0a1.16,1.16,0,0,0-1.16,1.16V1.6A12.76,12.76,0,0,0,2.38,14v1.86a.51.51,0,0,0,0,.13,1.13,1.13,0,0,0,.53.7,1.17,1.17,0,0,0,.86.12A1.15,1.15,0,0,0,4.61,16a.51.51,0,0,0,0-.13v-.7c0-.49,1-1.22,2.46-1.22s2.47.67,2.47,1.14a.68.68,0,0,0,0,.29v.52a1.2,1.2,0,0,0,.48.74,1.11,1.11,0,0,0,.85.18,1.15,1.15,0,0,0,.93-1v-.55a4.39,4.39,0,0,1,2.84-1.12V28.39a1.35,1.35,0,0,1-1.35,1.35h0A1.34,1.34,0,0,1,12,28.39a.69.69,0,0,0,0-.13,1.14,1.14,0,0,0-2.21,0,.69.69,0,0,0,0,.13,3.61,3.61,0,0,0,7.22,0V14.06c2,.23,2.83,1,2.86,1.11V16a1.14,1.14,0,0,0,1.33.92,1.17,1.17,0,0,0,.93-1v-.45a2,2,0,0,0,0-.21c0-.49,1-1.22,2.46-1.22S27,14.65,27,15.14a.71.71,0,0,0,0,.21v.58a1.17,1.17,0,0,0,.48.74,1.11,1.11,0,0,0,.85.18,1.15,1.15,0,0,0,.93-1Z"/></svg>