<!-- Generated by IcoMoon.io -->
<svg version="1.1" xmlns="http://www.w3.org/2000/svg" width="32" height="32" viewBox="0 0 32 32">
<title>umbrella-bold</title>
<path fill="#003359" d="M29.26 14c-0.186-6.722-5.55-12.132-12.236-12.389l-0.024-0.001v-0.45c-0.003-0.322-0.136-0.612-0.35-0.82l-0-0c-0.207-0.209-0.493-0.338-0.81-0.34h-0c-0.641 0-1.16 0.519-1.16 1.16v0 0.44c-6.726 0.248-12.108 5.665-12.3 12.382l-0 0.018v1.86c-0.003 0.020-0.004 0.042-0.004 0.065s0.002 0.045 0.004 0.068l-0-0.003c0.078 0.301 0.27 0.548 0.525 0.697l0.005 0.003c0.167 0.097 0.367 0.154 0.58 0.154 0.099 0 0.196-0.012 0.288-0.036l-0.008 0.002c0.408-0.1 0.725-0.408 0.838-0.802l0.002-0.008c0.003-0.020 0.004-0.042 0.004-0.065s-0.002-0.045-0.004-0.068l0 0.003v-0.7c0-0.49 1-1.22 2.46-1.22s2.47 0.67 2.47 1.14c-0.010 0.044-0.016 0.094-0.016 0.145s0.006 0.101 0.017 0.15l-0.001-0.005v0.52c0.063 0.307 0.237 0.565 0.476 0.738l0.004 0.002c0.177 0.126 0.398 0.201 0.637 0.201 0.075 0 0.149-0.008 0.22-0.022l-0.007 0.001c0.494-0.095 0.871-0.496 0.929-0.995l0.001-0.005v-0.55c0.752-0.676 1.745-1.097 2.835-1.12l0.005-0v14.24c0 0.746-0.604 1.35-1.35 1.35v0c-0.718-0.028-1.29-0.617-1.29-1.339 0-0.004 0-0.008 0-0.012v0.001c0.002-0.020 0.003-0.042 0.003-0.065s-0.001-0.046-0.003-0.068l0 0.003c-0.129-0.498-0.575-0.86-1.105-0.86s-0.976 0.362-1.103 0.852l-0.002 0.008c-0.002 0.020-0.003 0.042-0.003 0.065s0.001 0.046 0.003 0.068l-0-0.003c0 1.994 1.616 3.61 3.61 3.61s3.61-1.616 3.61-3.61v0-14.33c2 0.23 2.83 1 2.86 1.11v0.83c0.099 0.537 0.564 0.939 1.122 0.939 0.073 0 0.145-0.007 0.215-0.020l-0.007 0.001c0.491-0.101 0.865-0.499 0.929-0.994l0.001-0.006v-0.45c0.002-0.031 0.003-0.068 0.003-0.105s-0.001-0.074-0.003-0.11l0 0.005c0-0.49 1-1.22 2.46-1.22s2.41 0.61 2.41 1.1c-0.005 0.032-0.008 0.068-0.008 0.105s0.003 0.073 0.008 0.109l-0-0.004v0.58c0.060 0.308 0.235 0.567 0.476 0.738l0.004 0.002c0.177 0.126 0.398 0.201 0.637 0.201 0.076 0 0.149-0.008 0.221-0.022l-0.007 0.001c0.494-0.095 0.871-0.496 0.929-0.995l0.001-0.005z"></path>
</svg>
