<!-- Generated by IcoMoon.io -->
<svg version="1.1" xmlns="http://www.w3.org/2000/svg" width="32" height="32" viewBox="0 0 32 32">
<title>umbrella</title>
<path fill="#003359" d="M29.84 13.84c-0.364-6.593-5.588-11.856-12.132-12.278l-0.038-0.002 0.080-0.15c0.044-0.068 0.070-0.152 0.070-0.241 0-0.003-0-0.006-0-0.009v0c0-0.641-0.519-1.16-1.16-1.16v0c-0.641 0-1.16 0.519-1.16 1.16v0c0 0.1 0.030 0.194 0.081 0.272l-0.001-0.002v0.14c-6.588 0.442-11.808 5.731-12.139 12.309l-0.001 0.031v1.87c-0.002 0.020-0.003 0.042-0.003 0.065s0.001 0.046 0.003 0.068l-0-0.003c0.002 0.028 0.004 0.062 0.004 0.095s-0.001 0.067-0.004 0.099l0-0.004c0.001 0.259 0.121 0.489 0.308 0.639l0.002 0.001c0.111 0.071 0.247 0.113 0.393 0.113 0.078 0 0.152-0.012 0.223-0.034l-0.005 0.001c0.457-0.096 0.824-0.408 0.997-0.821l0.003-0.009c0.003-0.020 0.004-0.042 0.004-0.065s-0.002-0.045-0.004-0.068l0 0.003v-0.7c0-0.49 1-1.22 2.46-1.22s2.47 0.67 2.48 1.14c-0.007 0.044-0.011 0.094-0.011 0.145s0.004 0.101 0.011 0.151l-0.001-0.006v0.52c0.055 0.308 0.226 0.568 0.466 0.738l0.004 0.002c0.18 0.126 0.403 0.201 0.643 0.201 0.077 0 0.152-0.008 0.224-0.022l-0.007 0.001c0.49-0.099 0.862-0.499 0.919-0.995l0.001-0.005v-0.55c0.742-0.804 1.802-1.305 2.978-1.305 0.213 0 0.421 0.016 0.625 0.048l-0.023-0.003v14.39c0 1.441-1.169 2.61-2.61 2.61s-2.61-1.169-2.61-2.61v0c0-0.276-0.224-0.5-0.5-0.5v0c-0.276 0-0.5 0.224-0.5 0.5v0c0 1.994 1.616 3.61 3.61 3.61s3.61-1.616 3.61-3.61v0-14.33c1.315 0.027 2.521 0.474 3.495 1.211l-0.015-0.011v0.74c0.099 0.537 0.564 0.939 1.122 0.939 0.073 0 0.145-0.007 0.215-0.020l-0.007 0.001c0.494-0.095 0.871-0.496 0.929-0.995l0.001-0.005v-0.45c0.007-0.032 0.011-0.068 0.011-0.105s-0.004-0.073-0.011-0.108l0.001 0.003c0-0.49 1-1.22 2.46-1.22s2.47 0.67 2.47 1.16c-0.005 0.032-0.008 0.068-0.008 0.105s0.003 0.073 0.008 0.109l-0-0.004v0.58c0.094 0.537 0.557 0.941 1.114 0.941 0.076 0 0.151-0.008 0.223-0.022l-0.007 0.001c0.57-0.1 0.63-0.68 0.66-0.92v-0.23zM7.9 12.94c-1.83 0-3.38 1-3.46 2.13v-1.14c0.313-5.764 4.65-10.427 10.235-11.242l0.065-0.008c-2.185 3.266-3.539 7.251-3.679 11.544l-0.001 0.036c-0.725-0.815-1.777-1.326-2.948-1.326-0.075 0-0.149 0.002-0.223 0.006l0.010-0zM16.68 13.020c-0.275-0.048-0.591-0.075-0.914-0.075-1.452 0-2.775 0.553-3.77 1.459l0.004-0.004c0.122-4.463 1.603-8.558 4.042-11.911l-0.042 0.061h0.99c2.254 3.407 3.777 7.487 4.25 11.881l0.010 0.119c-0.64-0.8-2.66-1.41-4.57-1.55zM28.82 15.82v0 0-0.62c0-1.2-1.59-2.22-3.47-2.22-0.054-0.003-0.117-0.004-0.18-0.004-1.126 0-2.142 0.465-2.869 1.213l-0.001 0.001c-0.5-4.328-1.908-8.243-4.030-11.671l0.070 0.121c5.734 0.708 10.176 5.394 10.499 11.179l0.001 0.031v1.76z"></path>
</svg>
