<!-- Generated by IcoMoon.io -->
<svg version="1.1" xmlns="http://www.w3.org/2000/svg" width="32" height="32" viewBox="0 0 32 32">
<title>upload</title>
<path fill="#003359" d="M26.72 23.5c-0.276 0-0.5 0.224-0.5 0.5v0 7h-21.55v-7c0-0.276-0.224-0.5-0.5-0.5s-0.5 0.224-0.5 0.5v0 7.5c0 0.276 0.224 0.5 0.5 0.5v0h22.55c0.276 0 0.5-0.224 0.5-0.5v0-7.5c0-0.276-0.224-0.5-0.5-0.5v0z"></path>
<path fill="#003359" d="M4.56 7.93c0.003 0 0.006 0 0.009 0 0.096 0 0.186-0.026 0.263-0.071l-0.002 0.001 10.35-6.44v21.63c0.005 0.274 0.226 0.494 0.499 0.5h0.001c0.276 0 0.5-0.224 0.5-0.5v0-21.65l9.87 6.45c0.078 0.051 0.173 0.081 0.275 0.081 0.28 0 0.506-0.227 0.506-0.506 0-0.177-0.091-0.333-0.229-0.424l-0.002-0.001-10.6-6.92h-0.2l-0.1-0.080c-0.137 0.001-0.261 0.058-0.35 0.15l-0 0-11.050 6.85c-0.139 0.090-0.229 0.245-0.229 0.42 0 0.272 0.218 0.494 0.488 0.5h0.001z"></path>
</svg>
