<!-- Generated by IcoMoon.io -->
<svg version="1.1" xmlns="http://www.w3.org/2000/svg" width="32" height="32" viewBox="0 0 32 32">
<title>user-circle</title>
<path fill="#09c" d="M16 17.47c3.17 0 5.74-2.57 5.74-5.74s-2.57-5.74-5.74-5.74c-3.17 0-5.74 2.57-5.74 5.74v0c0.006 3.168 2.572 5.734 5.739 5.74h0.001zM16 7c2.618 0 4.74 2.122 4.74 4.74s-2.122 4.74-4.74 4.74c-2.618 0-4.74-2.122-4.74-4.74v0c0-2.618 2.122-4.74 4.74-4.74v0z"></path>
<path fill="#09c" d="M21.46 20.23h-10.92c-2.84 0-5.71 2.070-5.71 6.7 0.005 0.274 0.226 0.494 0.499 0.5h0.001c0.276 0 0.5-0.224 0.5-0.5v0c0-3.46 1.85-5.7 4.71-5.7h10.92c2.86 0 4.71 2.24 4.71 5.7 0 0.276 0.224 0.5 0.5 0.5v0c0.274-0.006 0.494-0.226 0.5-0.499v-0.001c0-4.63-2.87-6.7-5.71-6.7z"></path>
<path fill="#003359" d="M16 1c8.284 0 15 6.716 15 15s-6.716 15-15 15c-8.284 0-15-6.716-15-15v0c0-8.284 6.716-15 15-15v0zM16 0v0c-8.837 0-16 7.163-16 16v0 0c0 8.837 7.163 16 16 16v0 0c8.837 0 16-7.163 16-16v0 0c0-8.837-7.163-16-16-16v0z"></path>
</svg>
