<!-- Generated by IcoMoon.io -->
<svg version="1.1" xmlns="http://www.w3.org/2000/svg" width="32" height="32" viewBox="0 0 32 32">
<title>users</title>
<path fill="#003359" d="M27.67 5.42c0-2.209-1.791-4-4-4s-4 1.791-4 4c0 2.209 1.791 4 4 4v0c2.209 0 4-1.791 4-4v0zM20.75 5.42c0-1.657 1.343-3 3-3s3 1.343 3 3c0 1.657-1.343 3-3 3v0c-1.657 0-3-1.343-3-3v0z"></path>
<path fill="#003359" d="M27.7 11.3h-4c-0.276 0-0.5 0.224-0.5 0.5s0.224 0.5 0.5 0.5v0h4c1.823 0 3.3 1.477 3.3 3.3v0 2.52c0 0.276 0.224 0.5 0.5 0.5s0.5-0.224 0.5-0.5v0-2.52c-0.006-2.373-1.927-4.294-4.299-4.3h-0.001z"></path>
<path fill="#003359" d="M8.29 1.46c-2.209 0-4 1.791-4 4s1.791 4 4 4c2.209 0 4-1.791 4-4v0c0-2.209-1.791-4-4-4v0zM8.29 8.38c-1.657 0-3-1.343-3-3s1.343-3 3-3c1.657 0 3 1.343 3 3v0c0 1.657-1.343 3-3 3v0z"></path>
<path fill="#003359" d="M8.29 11.3h-4c-2.368 0.011-4.284 1.931-4.29 4.299v2.521c0 0.276 0.224 0.5 0.5 0.5s0.5-0.224 0.5-0.5v0-2.52c0-1.823 1.477-3.3 3.3-3.3v0h4c0.276 0 0.5-0.224 0.5-0.5s-0.224-0.5-0.5-0.5v0z"></path>
<path fill="#09c" d="M21.080 22.32h-10.16c-2.944 0-5.33 2.386-5.33 5.33v0 3.2c0 0.276 0.224 0.5 0.5 0.5s0.5-0.224 0.5-0.5v0-3.2c0-2.391 1.939-4.33 4.33-4.33h10.16c2.391 0 4.33 1.939 4.33 4.33v0 3.2c0 0.276 0.224 0.5 0.5 0.5s0.5-0.224 0.5-0.5v0-3.2c0-2.944-2.386-5.33-5.33-5.33v0z"></path>
<path fill="#09c" d="M16 19.6c2.706 0 4.9-2.194 4.9-4.9s-2.194-4.9-4.9-4.9c-2.706 0-4.9 2.194-4.9 4.9v0c0.006 2.704 2.196 4.894 4.899 4.9h0.001zM16 10.8c2.154 0 3.9 1.746 3.9 3.9s-1.746 3.9-3.9 3.9c-2.154 0-3.9-1.746-3.9-3.9v0c0.006-2.152 1.748-3.894 3.899-3.9h0.001z"></path>
</svg>
