<svg id="Layer_1" data-name="Layer 1" xmlns="http://www.w3.org/2000/svg" viewBox="0 0 32 32"><defs><style>.cls-1{fill:#09c;}.cls-2{fill:#003359;}</style></defs><path class="cls-1" d="M16,17.47a5.74,5.74,0,1,0-5.74-5.74A5.75,5.75,0,0,0,16,17.47ZM16,7a4.74,4.74,0,1,1-4.74,4.74A4.74,4.74,0,0,1,16,7Z"/><path class="cls-1" d="M21.46,20.23H10.54c-2.84,0-5.71,2.07-5.71,6.7a.51.51,0,0,0,.5.5.5.5,0,0,0,.5-.5c0-3.46,1.85-5.7,4.71-5.7H21.46c2.86,0,4.71,2.24,4.71,5.7a.5.5,0,0,0,.5.5.51.51,0,0,0,.5-.5C27.17,22.3,24.3,20.23,21.46,20.23Z"/><path class="cls-2" d="M16,1A15,15,0,1,1,1,16,15,15,0,0,1,16,1m0-1h0A16,16,0,0,0,0,16H0A16,16,0,0,0,16,32h0A16,16,0,0,0,32,16h0A16,16,0,0,0,16,0Z"/></svg>