<!-- Generated by IcoMoon.io -->
<svg version="1.1" xmlns="http://www.w3.org/2000/svg" width="32" height="32" viewBox="0 0 32 32">
<title>user-bold</title>
<path fill="#003359" d="M16 15.13c3.943 0 7.14-3.197 7.14-7.14s-3.197-7.14-7.14-7.14c-3.943 0-7.14 3.197-7.14 7.14 0 0.004 0 0.007 0 0.011v-0.001c0.006 3.939 3.2 7.13 7.14 7.13v0z"></path>
<path fill="#003359" d="M23.66 19.74h-15.32c-4.3 0.006-7.784 3.49-7.79 7.789v4.831c0.005 0.274 0.226 0.495 0.499 0.5h0.001c0.276 0 0.5-0.224 0.5-0.5v0h28.9c0 0.276 0.224 0.5 0.5 0.5v0c0.274-0.005 0.494-0.226 0.5-0.499v-4.831c-0.006-4.3-3.49-7.784-7.789-7.79h-0.001z"></path>
</svg>
