<!-- Generated by IcoMoon.io -->
<svg version="1.1" xmlns="http://www.w3.org/2000/svg" width="32" height="32" viewBox="0 0 32 32">
<title>user</title>
<path fill="#003359" d="M16 14.77c3.943 0 7.14-3.197 7.14-7.14s-3.197-7.14-7.14-7.14c-3.943 0-7.14 3.197-7.14 7.14 0 0.004 0 0.007 0 0.011v-0.001c0.006 3.939 3.2 7.13 7.14 7.13v0zM16 1.5c3.391 0 6.14 2.749 6.14 6.14s-2.749 6.14-6.14 6.14c-3.391 0-6.14-2.749-6.14-6.14v0c0.006-3.389 2.751-6.134 6.139-6.14h0.001z"></path>
<path fill="#003359" d="M23.66 19.38h-15.32c-4.3 0.006-7.784 3.49-7.79 7.789v4.831c0 0.276 0.224 0.5 0.5 0.5v0c0.276 0 0.5-0.224 0.5-0.5v0-4.83c0.006-3.748 3.042-6.784 6.789-6.79h15.321c3.748 0.006 6.784 3.042 6.79 6.789v4.831c0 0.276 0.224 0.5 0.5 0.5v0c0.276 0 0.5-0.224 0.5-0.5v0-4.83c-0.006-4.3-3.49-7.784-7.789-7.79h-0.001z"></path>
</svg>
