<svg id="Layer_1" data-name="Layer 1" xmlns="http://www.w3.org/2000/svg" viewBox="0 0 32 32"><defs><style>.cls-1{fill:#003359;}.cls-2{fill:#09c;}</style></defs><path class="cls-1" d="M16,25.61c-6.45,0-10.44-2.47-12.65-4.55A13.52,13.52,0,0,1,.06,16.47.51.51,0,0,1,.13,16c.28-.37,6.94-8.92,16.64-8.92S31.9,15.94,32,16a.52.52,0,0,1,0,.44,13.7,13.7,0,0,1-3.32,4.59C26.46,23.14,22.47,25.61,16,25.61ZM1.1,16.37c.66,1.45,4.3,8.24,14.93,8.24S30.35,17.72,31,16.34C30.1,15,25.11,8.07,16.77,8.07S2.22,15,1.1,16.37Z"/><path class="cls-2" d="M29.7,30.09l-8.19-8.84a7.14,7.14,0,0,0-9.69-10.44L2.93,1.23a.5.5,0,0,0-.7,0,.5.5,0,0,0,0,.71l8.9,9.59a7.13,7.13,0,0,0,9.67,10.43L29,30.77a.49.49,0,0,0,.37.16.49.49,0,0,0,.36-.84ZM16.34,22.48a6.13,6.13,0,0,1-4.56-10.24l8.31,9A6.08,6.08,0,0,1,16.34,22.48ZM12.5,11.55a6.14,6.14,0,0,1,8.33,9Z"/></svg>