<!-- Generated by IcoMoon.io -->
<svg version="1.1" xmlns="http://www.w3.org/2000/svg" width="32" height="32" viewBox="0 0 32 32">
<title>visible</title>
<path fill="#09c" d="M16.34 23.48c-3.943 0-7.14-3.197-7.14-7.14s3.197-7.14 7.14-7.14c3.943 0 7.14 3.197 7.14 7.14v0c-0.006 3.941-3.199 7.134-7.139 7.14h-0.001zM16.34 10.2c-3.391 0-6.14 2.749-6.14 6.14s2.749 6.14 6.14 6.14c3.391 0 6.14-2.749 6.14-6.14v0c0-3.391-2.749-6.14-6.14-6.14v0z"></path>
<path fill="#003359" d="M16 25.61c-6.45 0-10.44-2.47-12.65-4.55-1.38-1.26-2.491-2.787-3.256-4.504l-0.034-0.086c-0.018-0.050-0.029-0.108-0.029-0.169 0-0.113 0.037-0.218 0.1-0.303l-0.001 0.001c0.28-0.37 6.94-8.92 16.64-8.92s15.13 8.86 15.23 8.92c0.031 0.064 0.049 0.14 0.049 0.22s-0.018 0.156-0.050 0.223l0.001-0.003c-0.812 1.802-1.933 3.329-3.309 4.58l-0.011 0.010c-2.22 2.11-6.21 4.58-12.68 4.58zM1.1 16.37c0.66 1.45 4.3 8.24 14.93 8.24s14.32-6.89 14.97-8.27c-0.9-1.34-5.89-8.27-14.23-8.27s-14.55 6.93-15.67 8.3z"></path>
</svg>
