<!-- Generated by IcoMoon.io -->
<svg version="1.1" xmlns="http://www.w3.org/2000/svg" width="32" height="32" viewBox="0 0 32 32">
<title>visible-not</title>
<path fill="#003359" d="M16 25.61c-6.45 0-10.44-2.47-12.65-4.55-1.38-1.26-2.491-2.787-3.256-4.504l-0.034-0.086c-0.018-0.050-0.029-0.108-0.029-0.169 0-0.113 0.037-0.218 0.1-0.303l-0.001 0.001c0.28-0.37 6.94-8.92 16.64-8.92s15.13 8.86 15.23 8.92c0.031 0.064 0.049 0.14 0.049 0.22s-0.018 0.156-0.050 0.223l0.001-0.003c-0.812 1.802-1.933 3.329-3.309 4.58l-0.011 0.010c-2.22 2.11-6.21 4.58-12.68 4.58zM1.1 16.37c0.66 1.45 4.3 8.24 14.93 8.24s14.32-6.89 14.97-8.27c-0.9-1.34-5.89-8.27-14.23-8.27s-14.55 6.93-15.67 8.3z"></path>
<path fill="#09c" d="M29.7 30.090l-8.19-8.84c1.192-1.273 1.923-2.988 1.923-4.875 0-3.943-3.197-7.14-7.14-7.14-1.7 0-3.261 0.594-4.487 1.586l0.013-0.011-8.89-9.58c-0.090-0.088-0.214-0.143-0.35-0.143s-0.26 0.055-0.35 0.143l0-0c-0.091 0.091-0.148 0.216-0.148 0.355s0.057 0.264 0.148 0.355l0 0 8.9 9.59c-1.189 1.271-1.919 2.983-1.919 4.866 0 3.938 3.192 7.13 7.13 7.13 1.694 0 3.249-0.59 4.472-1.577l-0.014 0.011 8.2 8.81c0.090 0.099 0.219 0.16 0.362 0.16 0.003 0 0.005-0 0.008-0h-0c0.005 0 0.011 0 0.017 0 0.271 0 0.49-0.219 0.49-0.49 0-0.137-0.056-0.261-0.147-0.35l-0-0zM16.34 22.48c-0.004 0-0.008 0-0.012 0-3.386 0-6.13-2.744-6.13-6.13 0-1.584 0.601-3.027 1.587-4.115l-0.005 0.005 8.31 9c-1.010 0.774-2.29 1.24-3.68 1.24-0.024 0-0.049-0-0.073-0l0.004 0zM12.5 11.55c1.057-0.885 2.431-1.423 3.93-1.423 3.391 0 6.14 2.749 6.14 6.14 0 1.666-0.664 3.178-1.741 4.284l0.001-0.001z"></path>
</svg>
