<!-- Generated by IcoMoon.io -->
<svg version="1.1" xmlns="http://www.w3.org/2000/svg" width="32" height="32" viewBox="0 0 32 32">
<title>webcam</title>
<path fill="#003359" d="M28.76 31h-2.67c-4.84 0-5.42-5.2-5.49-6.43 5.062-1.712 8.641-6.419 8.641-11.962 0-6.959-5.641-12.6-12.6-12.6s-12.6 5.641-12.6 12.6c0 5.238 3.197 9.73 7.746 11.631l0.083 0.031s0 0 0 0c0 0.27-0.14 6.69-5.51 6.69h-1.82c-0.276 0-0.5 0.224-0.5 0.5s0.224 0.5 0.5 0.5v0h24.22c0.276 0 0.5-0.224 0.5-0.5s-0.224-0.5-0.5-0.5v0zM5 12.61c0-6.412 5.198-11.61 11.61-11.61s11.61 5.198 11.61 11.61c0 6.398-5.175 11.587-11.568 11.61h-0.002c-0.006 0-0.013 0-0.020 0-6.416 0-11.619-5.196-11.63-11.609v-0.001zM9.76 31c2.56-1.76 3-5.31 3.080-6.37 1.128 0.374 2.427 0.59 3.776 0.59 1.067 0 2.102-0.135 3.090-0.389l-0.086 0.019c0.12 1.26 0.66 4.5 3.060 6.15z"></path>
<path fill="#09c" d="M17.18 8c2.32 0.28 4.1 2.236 4.1 4.608 0 2.563-2.077 4.64-4.64 4.64s-4.639-2.077-4.64-4.638v-0c-0-0.006-0-0.014-0-0.022 0-0.372 0.047-0.734 0.137-1.078l-0.007 0.030c0.175 0.032 0.377 0.050 0.583 0.050 0.020 0 0.040-0 0.060-0.001l-0.003 0c0.003 0 0.007 0 0.011 0 2.161 0 3.966-1.527 4.394-3.561l0.005-0.029zM16.65 7c-0.13 0-0.26 0-0.38 0v0.1c0 1.927-1.563 3.49-3.49 3.49v0c-0 0-0 0-0.001 0-0.465 0-0.908-0.092-1.312-0.258l0.023 0.008c-0.303 0.668-0.483 1.447-0.49 2.267l-0 0.003c-0 0.009-0 0.019-0 0.030 0 3.115 2.525 5.64 5.64 5.64s5.64-2.525 5.64-5.64c0-3.111-2.519-5.634-5.629-5.64h-0.001z"></path>
</svg>
