<!-- Generated by IcoMoon.io -->
<svg version="1.1" xmlns="http://www.w3.org/2000/svg" width="32" height="32" viewBox="0 0 32 32">
<title>weight</title>
<path fill="#09c" d="M15.44 8.52c-0.276 0-0.5-0.224-0.5-0.5v0-4.76c0.005-0.274 0.226-0.494 0.499-0.5h0.001c0.276 0 0.5 0.224 0.5 0.5v0 4.74c0 0.006 0 0.013 0 0.020 0 0.276-0.224 0.5-0.5 0.5-0 0-0 0-0 0h0z"></path>
<path fill="#003359" d="M26.12 6.61c-1.043-1.046-2.469-1.709-4.050-1.76l-0.010-0c-0.911-2.831-3.52-4.845-6.599-4.85h-0.001c-3.073 0.028-5.67 2.031-6.586 4.801l-0.014 0.049h-0.11c-3.209 0.133-5.76 2.766-5.76 5.995 0 0.121 0.004 0.242 0.011 0.361l-0.001-0.016 0.88 15c0.1 3.235 2.747 5.82 5.997 5.82 0.001 0 0.002 0 0.003 0h11.12c0.001 0 0.001 0 0.002 0 3.261 0 5.914-2.601 5.998-5.842l0-0.008 0.84-15.070v-0.21c0-0.019 0-0.042 0-0.065 0-1.638-0.657-3.123-1.721-4.206l0.001 0.001zM15.46 1c3.27 0 5.92 2.65 5.92 5.92s-2.65 5.92-5.92 5.92c-3.27 0-5.92-2.65-5.92-5.92 0-0.004 0-0.007 0-0.011v0.001c0.006-3.265 2.654-5.91 5.92-5.91 0 0 0 0 0 0v0zM26 26.11c-0.062 2.714-2.276 4.89-4.999 4.89-0 0-0.001 0-0.001 0h-11.070c-0.001 0-0.001 0-0.002 0-2.716 0-4.926-2.165-4.998-4.863l-0-0.007-0.93-15c-0.005-0.079-0.007-0.172-0.007-0.265 0-2.623 2.020-4.774 4.589-4.983l0.018-0.001c-0.051 0.296-0.084 0.642-0.090 0.994l-0 0.006c-0.003 0.078-0.005 0.17-0.005 0.263 0 3.822 3.098 6.92 6.92 6.92s6.92-3.098 6.92-6.92c0-0.093-0.002-0.185-0.005-0.276l0 0.013c-0.006-0.358-0.038-0.703-0.096-1.040l0.006 0.040c2.584 0.214 4.6 2.363 4.6 4.984 0 0.006 0 0.011-0 0.017v-0.001z"></path>
<path fill="#003359" d="M15.45 9.91c0.867 0 1.57-0.703 1.57-1.57s-0.703-1.57-1.57-1.57c-0.867 0-1.57 0.703-1.57 1.57v0c-0 0.003-0 0.007-0 0.010 0 0.862 0.698 1.56 1.56 1.56 0.004 0 0.007 0 0.011-0h-0.001z"></path>
</svg>
