<svg id="Layer_1" data-name="Layer 1" xmlns="http://www.w3.org/2000/svg" viewBox="0 0 32 32"><defs><style>.cls-1{fill:#003359;}.cls-2{fill:#09c;}</style></defs><path class="cls-1" d="M8.76,19.51a3,3,0,1,0,3,3A3,3,0,0,0,8.76,19.51Zm0,5a2,2,0,1,1,2-2A2,2,0,0,1,8.76,24.56Z"/><path class="cls-1" d="M31.5,23.77H29.07l-3-5.16a.52.52,0,0,0-.44-.25H23.57V12.42A3.85,3.85,0,0,0,22.4,9.35a3.71,3.71,0,0,0-2.7-.8H9V3.62a2.61,2.61,0,0,0-.71-2A1.89,1.89,0,0,0,7,1.14H.5a.5.5,0,0,0-.5.5.5.5,0,0,0,.5.5H7a.86.86,0,0,1,.58.23A1.68,1.68,0,0,1,8,3.62V14.94a.5.5,0,1,0,1,0V9.55H19.77a2.71,2.71,0,0,1,2,.56,2.93,2.93,0,0,1,.82,2.31v5.94H15.4a.5.5,0,0,0-.5.5.5.5,0,0,0,.5.5h7.17V27.5a.5.5,0,0,0,1,0V19.36h1.79l3,5.16a.52.52,0,0,0,.43.25H31.5a.5.5,0,0,0,0-1Z"/><path class="cls-2" d="M8.76,14.44a8.1,8.1,0,1,0,8.09,8.1A8.1,8.1,0,0,0,8.76,14.44Zm0,15.19a7.1,7.1,0,1,1,7.09-7.1A7.11,7.11,0,0,1,8.76,29.63Z"/><path class="cls-2" d="M25,25.84a2.4,2.4,0,1,0,2.4,2.39A2.4,2.4,0,0,0,25,25.84Zm0,3.79a1.4,1.4,0,1,1,1.4-1.4A1.4,1.4,0,0,1,25,29.63Z"/></svg>