<!-- Generated by IcoMoon.io -->
<svg version="1.1" xmlns="http://www.w3.org/2000/svg" width="32" height="32" viewBox="0 0 32 32">
<title>wheel-chair</title>
<path fill="#003359" d="M8.76 19.51c-1.657 0-3 1.343-3 3s1.343 3 3 3c1.657 0 3-1.343 3-3v0c0-1.657-1.343-3-3-3v0zM8.76 24.51c-1.105 0-2-0.895-2-2s0.895-2 2-2c1.105 0 2 0.895 2 2v0c0 0.015 0.001 0.032 0.001 0.050 0 1.105-0.895 2-2 2-0 0-0 0-0.001 0h0z"></path>
<path fill="#003359" d="M31.5 23.77h-2.43l-3-5.16c-0.092-0.15-0.254-0.248-0.44-0.25h-2.060v-5.94c0.007-0.088 0.011-0.191 0.011-0.295 0-1.090-0.453-2.073-1.18-2.774l-0.001-0.001c-0.63-0.51-1.442-0.819-2.325-0.819-0.132 0-0.262 0.007-0.391 0.020l0.016-0.001h-10.7v-4.93c0.005-0.061 0.008-0.131 0.008-0.202 0-0.697-0.273-1.331-0.719-1.799l0.001 0.001c-0.333-0.298-0.774-0.48-1.259-0.48-0.011 0-0.022 0-0.033 0l0.002-0h-6.5c-0.276 0-0.5 0.224-0.5 0.5v0c0 0.276 0.224 0.5 0.5 0.5v0h6.5c0.224 0.001 0.428 0.089 0.581 0.23l-0.001-0c0.264 0.295 0.425 0.687 0.425 1.117 0 0.047-0.002 0.093-0.006 0.139l0-0.006v11.32c0 0.276 0.224 0.5 0.5 0.5s0.5-0.224 0.5-0.5v0-5.39h10.77c0.098-0.012 0.21-0.020 0.325-0.020 0.635 0 1.219 0.218 1.681 0.584l-0.006-0.004c0.515 0.527 0.832 1.249 0.832 2.045 0 0.093-0.004 0.185-0.013 0.276l0.001-0.012v5.94h-7.19c-0.276 0-0.5 0.224-0.5 0.5v0c0 0.276 0.224 0.5 0.5 0.5v0h7.17v8.14c0 0.276 0.224 0.5 0.5 0.5s0.5-0.224 0.5-0.5v0-8.14h1.79l3 5.16c0.090 0.147 0.248 0.245 0.429 0.25l0.001 0h2.71c0.276 0 0.5-0.224 0.5-0.5s-0.224-0.5-0.5-0.5v0z"></path>
<path fill="#09c" d="M8.76 14.44c-0.003 0-0.007 0-0.010 0-4.473 0-8.1 3.626-8.1 8.1s3.627 8.1 8.1 8.1c4.473 0 8.1-3.627 8.1-8.1v0c0-4.47-3.621-8.094-8.089-8.1h-0.001zM8.76 29.63c-0.003 0-0.006 0-0.010 0-3.921 0-7.1-3.179-7.1-7.1s3.179-7.1 7.1-7.1c3.921 0 7.1 3.179 7.1 7.1v0c-0.006 3.915-3.175 7.089-7.089 7.1h-0.001z"></path>
<path fill="#09c" d="M25 25.84c-1.325 0-2.4 1.075-2.4 2.4s1.075 2.4 2.4 2.4c1.325 0 2.4-1.075 2.4-2.4 0-0.003 0-0.007-0-0.011v0.001c-0.006-1.321-1.078-2.39-2.4-2.39 0 0 0 0-0 0v0zM25 29.63c-0.773 0-1.4-0.627-1.4-1.4s0.627-1.4 1.4-1.4c0.773 0 1.4 0.627 1.4 1.4v0c0 0.773-0.627 1.4-1.4 1.4v0z"></path>
</svg>
