<!-- Generated by IcoMoon.io -->
<svg version="1.1" xmlns="http://www.w3.org/2000/svg" width="32" height="32" viewBox="0 0 32 32">
<title>word</title>
<path fill="#2b579a" d="M28.92 7.1v17.81c0 0.002 0 0.005 0 0.008 0 0.145-0.066 0.275-0.169 0.361l-0.001 0.001c-0.088 0.093-0.212 0.151-0.349 0.151-0.011 0-0.021-0-0.032-0.001l0.001 0h-9.21v-2.43h7.51v-1.16h-7.52v-1.38h7.51v-1.12h-7.51v-1.34h7.52v-1.16h-7.52v-1.39h7.52v-1.13h-7.52v-1.32h7.52v-1.18h-7.52v-1.4h7.52v-1.070h-7.52v-2.79h9.22c0.009-0.001 0.020-0.001 0.030-0.001 0.14 0 0.265 0.062 0.349 0.16l0 0.001c0.104 0.092 0.17 0.226 0.17 0.376 0 0.002 0 0.003-0 0.005v-0zM17.78 3.77v24.46l-14.7-2.54v-19.3l14.7-2.62zM15.56 11l-1.84 0.12-1.18 7.3c0-0.35-0.27-1.56-0.66-3.62l-0.69-3.52-1.72 0.090-0.69 3.43c-0.41 2-0.63 3.15-0.69 3.48h-0.090l-1-6.74-1.58 0.090 1.7 8.48 1.75 0.11 0.67-3.3c0.38-1.94 0.61-3.060 0.66-3.37h0.050c0.060 0.33 0.27 1.48 0.66 3.46l0.66 3.39 1.91 0.12 2.12-9.52z"></path>
</svg>
