<!-- Generated by IcoMoon.io -->
<svg version="1.1" xmlns="http://www.w3.org/2000/svg" width="32" height="32" viewBox="0 0 32 32">
<title>youtube</title>
<path fill="#f00" d="M31.23 8.27c-0.383-1.341-1.413-2.378-2.722-2.763l-0.028-0.007c-2.48-0.68-12.56-0.68-12.56-0.68s-10 0-12.53 0.67c-1.343 0.385-2.381 1.419-2.763 2.732l-0.007 0.028c-0.445 2.263-0.7 4.866-0.7 7.527 0 0.022 0 0.044 0 0.066v-0.003 0.29c-0 0.016-0 0.036-0 0.055 0 2.764 0.266 5.465 0.773 8.080l-0.043-0.266v-0.26c0.38 1.331 1.397 2.361 2.692 2.753l0.028 0.007c2.49 0.67 12.53 0.67 12.53 0.67s10 0 12.53-0.67c1.347-0.382 2.389-1.416 2.773-2.732l0.007-0.028c0.426-2.192 0.67-4.713 0.67-7.292 0-0.045-0-0.090-0-0.135l0 0.007v-0.62c0-0.051 0-0.111 0-0.171 0-2.662-0.251-5.265-0.731-7.787l0.041 0.258v0.25zM12.72 20.8v-9.59l8.35 4.79z"></path>
</svg>
