<?xml version="1.0" standalone="no"?>
<!DOCTYPE svg PUBLIC "-//W3C//DTD SVG 1.1//EN" "http://www.w3.org/Graphics/SVG/1.1/DTD/svg11.dtd" >
<svg xmlns="http://www.w3.org/2000/svg">
<metadata>Generated by IcoMoon</metadata>
<defs>
<font id="icomoon" horiz-adv-x="1024">
<font-face units-per-em="1024" ascent="960" descent="-64" />
<missing-glyph horiz-adv-x="1024" />
<glyph unicode="&#x20;" horiz-adv-x="512" d="" />
<glyph unicode="&#xe900;" d="M512 605.76c51.605 0 93.44 41.835 93.44 93.44s-41.835 93.44-93.44 93.44c-51.605 0-93.44-41.835-93.44-93.44v0c0-51.605 41.835-93.44 93.44-93.44v0zM759.68 583.040l-256-27.52-239.040 27.52c-1.104 0.134-2.383 0.211-3.68 0.211-17.79 0-32.211-14.421-32.211-32.211 0-16.493 12.396-30.091 28.379-31.985l0.152-0.015 224-25.6v-87.040l-15.040-49.6-104.32-232c-1.735-3.816-2.746-8.275-2.746-12.97 0-12.992 7.742-24.175 18.864-29.188l0.202-0.081c3.755-1.755 8.146-2.809 12.775-2.88h0.025c0.033 0 0.072 0 0.111 0 13.043 0 24.264 7.804 29.248 18.997l0.081 0.204 91.52 204.16 91.52-207.040c5.135-11.224 16.267-18.881 29.187-18.881 0.089 0 0.178 0 0.266 0.001h-0.014c0.076-0.001 0.166-0.001 0.256-0.001 4.532 0 8.844 0.942 12.75 2.641l-0.207-0.080c11.324 5.094 19.066 16.278 19.066 29.27 0 4.695-1.011 9.155-2.828 13.172l0.081-0.201-103.040 230.080-15.040 50.56v92.8l224 24c16.176 1.748 28.658 15.329 28.658 31.825 0 1.189-0.065 2.363-0.191 3.518l0.013-0.143c-1.649 16.273-15.277 28.866-31.846 28.866-1.749 0-3.465-0.14-5.137-0.41l0.184 0.024z" />
<glyph unicode="&#xe901;" d="M512 954.88v0c-282.77 0-512-229.23-512-512s229.23-512 512-512v0c282.77 0 512 229.23 512 512s-229.23 512-512 512v0zM512-37.12c-265.097 0-480 214.903-480 480s214.903 480 480 480c265.097 0 480-214.903 480-480v0c0-265.097-214.903-480-480-480v0z" />
<glyph unicode="&#xe902;" glyph-name="accrobat" d="M1006.72 304.64v0c-30.4 32-92.48 50.88-180.16 50.88-56.778-0.303-112.036-5.996-165.531-16.594l5.531 0.914c-35.295 35.014-67.559 72.964-96.436 113.495l-1.804 2.665c-19.951 27.305-40.075 58.668-58.335 91.218l-2.465 4.782c28.289 76.798 46.78 165.577 51.433 258.004l0.087 2.156c0 71.36-25.6 145.92-99.84 145.92-24.464-0.955-45.611-14.311-57.424-33.924l-0.176-0.316c-32-60.16-18.24-192 39.040-321.6-21.44-64-44.16-128-72.32-196.48-24.32-58.56-52.8-117.76-80.32-174.4-168-67.84-275.84-146.56-286.080-208.64-0.706-3.719-1.11-7.996-1.11-12.368 0-19.32 7.89-36.797 20.624-49.385l0.007-0.006c16.727-14.519 38.717-23.368 62.774-23.368 0.431 0 0.862 0.003 1.291 0.009l-0.065-0.001c110.4 0 226.88 182.72 286.080 292.8 45.44 15.36 90.88 29.44 136.32 43.2 37.648 11.009 86.654 22.133 136.519 30.748l8.761 1.252c116.48-106.56 219.52-123.52 271.040-123.52 64 0 86.4 26.24 94.080 47.68 3.43 8.221 5.422 17.772 5.422 27.788 0 17.951-6.399 34.407-17.040 47.213l0.098-0.121zM65.92-24.96c-0.011 0-0.023 0-0.036 0-8.621 0-16.538 3.017-22.752 8.053l0.068-0.053c-7.017 5.91-11.445 14.7-11.445 24.525 0 2.653 0.323 5.23 0.931 7.694l-0.046-0.22c8.96 46.72 95.36 112.96 230.080 170.56-77.44-129.92-151.36-210.56-196.8-210.56zM429.12 906.56v0c5.168 10.978 16.098 18.461 28.787 18.56h0.013c32 0 38.080-37.12 38.080-66.56-4.743-77.255-19.372-149.463-42.684-217.644l1.724 5.804c-45.44 121.28-48.64 220.8-25.92 259.84zM502.080 301.44c-34.88-9.28-71.36-20.16-107.52-32 19.52 38.4 36.16 75.52 51.52 111.040 18.24 43.52 32 88.32 48.32 129.92 15.040-25.92 32-52.48 48.32-75.84 27.901-38.385 55.394-71.97 84.639-103.925l-0.799 0.885c-39.040-8.64-80.96-18.24-124.48-30.080zM950.080 258.24c-6.81-22.818-27.608-39.169-52.224-39.169-2.459 0-4.881 0.163-7.254 0.479l0.278-0.030c-9.87 0.685-19.042 2.278-27.864 4.712l0.984-0.232c-64.843 17.051-120.931 48.24-167.038 90.205l0.318-0.285c38.301 6.719 82.402 10.56 127.4 10.56 0.211 0 0.423 0 0.634 0h-0.033c3.608 0.138 7.845 0.216 12.1 0.216 23.003 0 45.472-2.292 67.188-6.66l-2.168 0.364c20.8-4.48 54.080-18.56 46.72-58.88z" />
<glyph unicode="&#xe903;" d="M364.48 519.36l-151.36 10.24-178.56 32c-0.899 0.187-1.932 0.294-2.99 0.294-3.889 0-7.441-1.445-10.147-3.828l0.017 0.015c-3.591-2.898-5.869-7.299-5.869-12.232 0-0.651 0.040-1.294 0.117-1.924l-0.008 0.076v-213.12c-0.001-0.068-0.002-0.149-0.002-0.23 0-7.358 4.966-13.555 11.729-15.424l0.112-0.026 173.12-47.36h4.16c7.32 0.042 13.472 4.994 15.333 11.728l0.027 0.112c0.386 1.296 0.608 2.785 0.608 4.325 0 7.284-4.967 13.409-11.699 15.17l-0.109 0.024-160 44.48v182.72l160-28.48 153.6-10.56c0.483-0.054 1.043-0.085 1.61-0.085 8.288 0 15.042 6.564 15.349 14.777l0.001 0.028c0.034 0.391 0.053 0.846 0.053 1.306 0 8.518-6.656 15.481-15.050 15.972l-0.043 0.002zM793.92 340.48c-0.784 0.831-1.747 1.485-2.828 1.902l-0.052 0.018-283.52 147.2c-2.137 1.128-4.671 1.79-7.36 1.79-8.853 0-16.030-7.177-16.030-16.030 0-6.164 3.48-11.516 8.582-14.198l0.088-0.042 281.6-145.92c3.302-3.309 5.443-7.778 5.757-12.743l0.003-0.057c-0.628-7.352-4.357-13.725-9.857-17.874l-0.063-0.046c-15.040-14.4-43.2-4.16-43.2-4.16v0l-112.32 56c-2.058 1.033-4.485 1.639-7.053 1.639-6.289 0-11.73-3.628-14.345-8.905l-0.042-0.093c-1.143-2.122-1.815-4.644-1.815-7.323 0-6.177 3.572-11.52 8.763-14.076l0.092-0.041 101.12-51.52c-2.953-7.814-7.671-14.385-13.69-19.463l-0.070-0.057c-15.36-15.68-28.48-10.56-29.12-10.24l-111.040 56.32c-2.125 1.115-4.642 1.769-7.313 1.769-6.088 0-11.381-3.4-14.085-8.404l-0.042-0.085c-1.086-2.126-1.722-4.636-1.722-7.296 0-6.25 3.514-11.68 8.673-14.421l0.088-0.043 100.8-51.2c-2.155-11.297-7.885-20.995-15.946-28.114l-0.054-0.046c-4.703-4.3-10.992-6.934-17.896-6.934-5.228 0-10.103 1.51-14.212 4.118l0.108-0.064-104.32 57.6c-2.254 1.288-4.954 2.047-7.831 2.047-5.943 0-11.128-3.24-13.888-8.049l-0.041-0.078c-1.172-2.195-1.861-4.801-1.861-7.569 0-6.050 3.292-11.331 8.182-14.149l0.079-0.042 96-53.76c0.136-0.887 0.214-1.911 0.214-2.953 0-4.973-1.773-9.533-4.721-13.081l0.027 0.034c-4.728-2.911-10.456-4.635-16.587-4.635-2.978 0-5.862 0.407-8.598 1.168l0.225-0.053-71.68 36.16c-2.091 1.073-4.563 1.702-7.181 1.702-6.188 0-11.555-3.513-14.217-8.653l-0.042-0.089c-1.143-2.122-1.815-4.644-1.815-7.323 0-6.177 3.572-11.52 8.763-14.076l0.092-0.041 73.6-37.44h3.2c5.412-1.653 11.632-2.605 18.074-2.605 0.846 0 1.688 0.016 2.526 0.049l-0.121-0.004c0.653-0.027 1.42-0.043 2.19-0.043 13.566 0 26 4.852 35.659 12.915l-0.089-0.072c7.663 7.509 12.731 17.641 13.747 28.941l0.013 0.179c2.617-0.51 5.626-0.801 8.704-0.801 14.226 0 26.996 6.23 35.732 16.11l0.044 0.051c11.461 10.906 19.869 24.92 23.873 40.691l0.127 0.589c17.974 0.435 34.049 8.215 45.403 20.44l0.037 0.040c9.245 8.666 16.462 19.382 20.935 31.431l0.185 0.569c4.998-1.007 10.748-1.589 16.631-1.6h0.009c0.675-0.026 1.468-0.041 2.264-0.041 16.343 0 31.203 6.348 42.25 16.712l-0.033-0.031c11.981 10.33 19.52 25.529 19.52 42.488 0 0.025 0 0.051 0 0.076v-0.004c-0.89 14.276-7.36 26.887-17.234 35.799l-0.046 0.041z" />
<glyph unicode="&#xe904;" d="M998.080 563.84v1.6l-3.2 3.84h-1.6l-3.84 1.92h-8l-174.72-36.8c-12.133-3.299-26.064-5.194-40.438-5.194-33.932 0-65.397 10.563-91.286 28.58l0.524-0.345c-2.691 1.874-5.995 3.049-9.563 3.199l-0.037 0.001h-211.2c-2.452-0.041-4.758-0.627-6.814-1.642l0.094 0.042-150.4-69.12c-3.563-1.783-6.35-4.673-7.957-8.213l-0.043-0.107c-3.547-6.532-5.632-14.302-5.632-22.56s2.085-16.028 5.758-22.814l-0.126 0.254c10.434-14.194 26.319-23.856 44.509-25.894l0.291-0.026c0.913-0.227 1.961-0.357 3.040-0.357s2.127 0.13 3.13 0.376l-0.090-0.019 162.88 48.96c6.711 2.003 11.52 8.12 11.52 15.36 0 1.596-0.234 3.138-0.669 4.593l0.029-0.113c-2.114 6.732-8.297 11.53-15.601 11.53-1.624 0-3.194-0.237-4.674-0.679l0.116 0.030-160-48c-7.334 1.043-13.677 4.657-18.209 9.883l-0.031 0.037c-0.641 1.664-1.012 3.588-1.012 5.6s0.371 3.936 1.049 5.71l-0.037-0.11 140.8 66.56h201.28c29.203-20.122 65.344-32.14 104.291-32.14 17.782 0 34.978 2.505 51.256 7.181l-1.308-0.321 153.6 32v-198.72l-78.4-12.8c-7.76-1.356-13.582-8.043-13.582-16.089 0-0.759 0.052-1.505 0.152-2.236l-0.010 0.085c0.989-7.794 7.579-13.76 15.562-13.76 0.041 0 0.083 0 0.124 0h2.234v2.24h4.16l88.64 12.8c3.722 0.614 6.932 2.462 9.265 5.103l0.015 0.017c0.999 1.106 1.854 2.371 2.518 3.745l0.042 0.095s0 0 0 0c0.158 0.818 0.248 1.758 0.248 2.72s-0.090 1.902-0.263 2.814l0.015-0.094v234.88c0.979 1.859 1.566 4.057 1.6 6.389v0.011zM440 203.52c-5.766 3.962-12.779 6.519-20.353 7.033l-0.127 0.007c0.23 1.491 0.361 3.21 0.361 4.96s-0.131 3.469-0.385 5.149l0.023-0.189c-2.019 12.080-8.846 22.267-18.407 28.703l-0.153 0.097-7.68 5.12c-6.747 4.633-15.090 7.4-24.080 7.4-0.647 0-1.291-0.014-1.931-0.043l0.091 0.003c-2.285 12.058-9.172 22.192-18.726 28.701l-0.154 0.099-7.36 5.12c-7.44 5.533-16.809 8.857-26.954 8.857-2.459 0-4.873-0.195-7.226-0.571l0.259 0.034c-10.101-2.161-18.702-7.53-24.903-14.969l-0.057-0.071c-3.209 5.589-7.514 10.201-12.656 13.668l-0.144 0.092-7.36 5.12c-7.007 4.959-15.729 7.927-25.144 7.927-3.107 0-6.138-0.323-9.061-0.938l0.286 0.050c-12.080-2.019-22.267-8.846-28.703-18.407l-0.097-0.153-5.12-8.32c-4.767-6.979-7.613-15.6-7.613-24.885 0-2.512 0.208-4.976 0.609-7.375l-0.036 0.26c2.175-12.098 9.093-22.268 18.722-28.7l0.158-0.1 7.36-5.12c7.028-5.004 15.788-8 25.248-8 0.011 0 0.023 0 0.034 0h-0.002c1.148-0.073 2.489-0.115 3.84-0.115s2.692 0.042 4.022 0.124l-0.182-0.009c2.251-11.902 9.017-21.914 18.411-28.383l0.149-0.097 7.36-5.12c7.105-4.794 15.856-7.66 25.275-7.68h0.005c1.539-0.234 3.314-0.368 5.12-0.368s3.581 0.134 5.316 0.392l-0.196-0.024c2.909-8.853 8.391-16.198 15.555-21.354l0.125-0.086 7.36-5.12c7.178-4.928 16.032-7.904 25.576-8h8.344l3.84 1.6c3.027-8.255 8.233-15.111 14.924-20.078l0.116-0.082 7.68-5.12c7.028-5.004 15.788-8 25.248-8 0.011 0 0.023 0 0.034 0h-0.002c15.693 0.34 29.348 8.756 37.009 21.246l0.111 0.194 5.12 7.36c5.357 7.328 8.572 16.518 8.572 26.458 0 15.591-7.908 29.335-19.931 37.44l-0.161 0.102zM256 258.24l-5.12-7.36c-2.391-3.508-6.368-5.782-10.876-5.782-2.749 0-5.301 0.845-7.409 2.291l0.045-0.029-8.64 5.12c-2.778 1.932-4.754 4.849-5.426 8.237l-0.014 0.083c-0.161 0.78-0.253 1.676-0.253 2.593 0 2.724 0.811 5.26 2.204 7.377l-0.031-0.051 5.12 7.36c2.069 2.769 5.080 4.735 8.55 5.425l0.090 0.015h2.24c2.737-0.119 5.26-0.937 7.426-2.278l-0.066 0.038 7.36-5.12c3.948-2.311 6.557-6.531 6.557-11.361 0-2.415-0.653-4.678-1.791-6.621l0.034 0.062zM335.040 247.36l-2.88-4.48-18.88-27.52-3.52-4.8c-2.391-3.508-6.368-5.782-10.876-5.782-2.749 0-5.301 0.845-7.409 2.291l0.045-0.029-7.36 5.12c-2.829 1.882-4.826 4.823-5.429 8.245l-0.011 0.075c-0.169 0.76-0.265 1.632-0.265 2.527 0 2.794 0.942 5.368 2.526 7.421l-0.021-0.028 24.96 36.8c2.069 2.769 5.080 4.735 8.55 5.425l0.090 0.015c0.612 0.101 1.318 0.159 2.037 0.159 2.834 0 5.458-0.899 7.603-2.426l-0.040 0.027 7.36-5.12c2.93-1.853 5.030-4.791 5.746-8.237l0.014-0.083c0.014-0.227 0.023-0.493 0.023-0.76 0-3.431-1.35-6.546-3.547-8.845l0.005 0.005zM387.52 204.8l-18.88-27.52c-1.932-2.778-4.849-4.754-8.237-5.426l-0.083-0.014c-0.667-0.117-1.436-0.185-2.22-0.185-2.883 0-5.554 0.908-7.743 2.453l0.042-0.028-7.36 5.12c-3.425 2.401-5.636 6.33-5.636 10.776 0 2.656 0.789 5.128 2.146 7.194l-0.031-0.050 15.040 22.080 3.84 5.44c2.393 3.496 6.362 5.76 10.861 5.76 0.007 0 0.013 0 0.020 0h-0.001c0.066 0.001 0.145 0.002 0.223 0.002 2.671 0 5.146-0.839 7.176-2.268l-0.040 0.026 7.36-4.16c2.778-1.932 4.754-4.849 5.426-8.237l0.014-0.083c0.095-0.602 0.15-1.295 0.15-2.002 0-3.41-1.27-6.523-3.362-8.893l0.013 0.014zM433.92 153.92l-5.12-7.36c-2.391-3.508-6.368-5.782-10.876-5.782-2.749 0-5.301 0.845-7.409 2.291l0.045-0.029-7.36 5.12c-2.778 1.932-4.754 4.849-5.426 8.237l-0.014 0.083c-0.161 0.78-0.253 1.676-0.253 2.593 0 2.724 0.811 5.26 2.204 7.377l-0.031-0.051 5.12 7.36c2.466 3.444 6.454 5.662 10.961 5.662 2.705 0 5.223-0.799 7.331-2.174l-0.052 0.032 7.36-5.12c3.025-2.424 4.945-6.119 4.945-10.262 0-3.015-1.017-5.793-2.727-8.009l0.023 0.030z" />
<glyph unicode="&#xe905;" d="M371.84 599.36h-83.84v83.2c0 8.837-7.163 16-16 16v0c-8.765-0.176-15.824-7.235-16-15.983v-83.217h-83.52c-8.837 0-16-7.163-16-16v0c0-8.837 7.163-16 16-16v0h83.52v-83.2c0-8.837 7.163-16 16-16v0c8.837 0 16 7.163 16 16v0 83.2h83.84c8.837 0 16 7.163 16 16v0c-0.176 8.765-7.235 15.824-15.983 16h-0.017z" />
<glyph unicode="&#xe906;" d="M1024 386.24c-7.715 26.47-23.632 48.508-44.77 63.76l-0.35 0.24c-36.516 23.164-78.656 44.661-122.806 62.182l-5.194 1.818c-0.866 0.146-1.863 0.229-2.88 0.229s-2.014-0.083-2.986-0.243l0.106 0.014h-4.48c1.13 2.137 1.793 4.671 1.793 7.36s-0.663 5.223-1.835 7.447l0.042-0.087-87.040 167.68c-2.96 4.463-7.963 7.366-13.644 7.366-0.153 0-0.306-0.002-0.458-0.006h-78.378v51.84c-0.176 8.765-7.235 15.824-15.983 16h-0.017c-8.837 0-16-7.163-16-16v0-51.84h-85.12v123.52c0 8.837-7.163 16-16 16v0h-512c-8.837 0-16-7.163-16-16v0-594.88c0-8.837 7.163-16 16-16v0h128c0-61.856 50.144-112 112-112s112 50.144 112 112v0h340.16c0-61.856 50.144-112 112-112s112 50.144 112 112v0h75.84c8.837 0 16 7.163 16 16v0 149.44c0.085 0.625 0.133 1.347 0.133 2.080s-0.048 1.455-0.142 2.163l0.009-0.083zM544 672h185.6l81.28-157.12h-266.88v157.12zM256 141.12c-0.095 0-0.207-0.001-0.32-0.001-44.006 0-79.68 35.674-79.68 79.68 0 0 0 0 0 0.001v0c0 3.2 0 6.4 0 9.6v0c1.604 15.056 7.374 28.522 16.119 39.515l-0.119-0.155c2.608 3.459 5.445 6.499 8.568 9.219l0.072 0.061c0.598 0.694 1.349 1.239 2.201 1.586l0.039 0.014c3.095 2.71 6.554 5.149 10.256 7.205l0.304 0.155 3.84 2.24c2.454 1.498 5.301 2.898 8.276 4.037l0.364 0.123 7.040 2.24c1.963 0.741 4.325 1.405 6.757 1.874l0.283 0.046c4.569 1.018 9.816 1.601 15.2 1.601s10.631-0.583 15.683-1.69l-0.483 0.089c2.715-0.515 5.077-1.179 7.352-2.021l-0.312 0.101 7.040-2.24c3.339-1.262 6.186-2.661 8.876-4.293l-0.236 0.133 4.16-2.24c3.376-2.083 6.305-4.3 9.007-6.762l-0.047 0.042 1.92-1.6c3.195-2.781 6.032-5.821 8.531-9.13l0.109-0.15c8.555-10.789 14.395-24.096 16.278-38.644l0.042-0.396c0-3.2 0-6.4 0-9.6 0.004-0.298 0.006-0.649 0.006-1.001 0-43.108-34.233-78.22-76.996-79.636l-0.13-0.003zM820.16 141.12c-44.006 0-79.68 35.674-79.68 79.68v0c0 3.2 0 6.4 0 9.6v0c1.999 15.040 7.825 28.437 16.458 39.544l-0.138-0.184c2.89 3.317 5.816 6.344 8.889 9.214l0.071 0.066 2.24 2.56c2.808 2.31 5.951 4.432 9.287 6.244l0.313 0.156 3.84 2.24c2.566 1.578 5.526 2.984 8.639 4.063l0.321 0.097 6.72 2.24c1.954 0.672 4.424 1.335 6.948 1.85l0.412 0.070c4.502 0.975 9.69 1.555 15.006 1.6h0.034c5.473-0.063 10.771-0.643 15.898-1.692l-0.538 0.092 7.040-1.92 7.040-2.24c3.339-1.262 6.186-2.661 8.876-4.293l-0.236 0.133 3.84-2.24c3.376-2.083 6.305-4.3 9.007-6.762l-0.047 0.042 2.24-1.6c2.999-2.908 5.822-5.933 8.488-9.096l0.152-0.184c8.555-10.789 14.395-24.096 16.278-38.644l0.042-0.396c0.15-1.439 0.236-3.11 0.236-4.8s-0.086-3.361-0.253-5.007l0.017 0.207c0.007-0.384 0.010-0.837 0.010-1.29 0-43.383-34.811-78.635-78.023-79.349l-0.067-0.001zM992 248.64h-64c-4.681 17.747-13.105 33.123-24.42 45.875l0.1-0.115-2.24 2.56c-2.74 3.005-5.668 5.73-8.805 8.203l-0.155 0.117-6.080 5.12c-2.612 2.091-5.548 4.004-8.663 5.62l-0.297 0.14c-2.473 1.689-5.308 3.291-8.277 4.651l-0.363 0.149c-2.88 0-5.76 2.88-8.64 3.84s-7.68 2.56-11.84 3.84l-7.36 1.92c-6.2 1.221-13.328 1.92-20.62 1.92-0.063 0-0.126 0-0.19 0h0.010c-0.048 0-0.104 0-0.16 0-7.187 0-14.211-0.699-21.007-2.032l0.687 0.112-7.68-1.92c-3.84 0-8-2.24-11.52-3.84-3.574-1.271-6.531-2.567-9.382-4.038l0.422 0.198-8.32-4.48-9.28-6.080-5.76-4.8c-3.349-2.81-6.375-5.633-9.247-8.606l-0.033-0.034-1.6-1.92c-11.599-12.735-20.263-28.351-24.791-45.64l-0.169-0.76h-349.12c-4.802 17.761-13.327 33.13-24.733 45.866l0.093-0.106-1.92 2.56c-2.827 2.989-5.859 5.716-9.097 8.186l-0.183 0.134-5.76 5.12c-2.697 2.083-5.738 3.999-8.957 5.613l-0.323 0.147c-2.484 1.532-5.347 2.838-8.375 3.77l-0.265 0.070c-2.437 1.383-5.29 2.679-8.261 3.724l-0.379 0.116c-3.84 1.6-7.68 2.56-11.52 3.84l-7.68 1.92c-5.811 1.469-12.602 2.497-19.569 2.868l-0.271 0.012c-0.053 0-0.117 0-0.18 0-7.292 0-14.42-0.699-21.323-2.033l0.702 0.113-7.36-1.92c-4.16 0-8-2.24-11.84-3.84s-5.76-2.56-8.64-3.84c-3.332-1.509-6.167-3.111-8.843-4.93l0.203 0.13c-3.412-1.756-6.348-3.669-9.067-5.842l0.107 0.082-6.080-5.12c-3.35-2.498-6.286-5.232-8.901-8.251l-0.059-0.069-2.24-2.56c-11.215-12.638-19.639-28.013-24.145-44.985l-0.175-0.775h-116.16v562.88h480v-311.36c0-8.837 7.163-16 16-16v0h312c46.328-18.355 85.822-38.552 123.087-61.97l-3.087 1.81c14.754-10.97 25.899-26.042 31.814-43.526l0.186-0.634z" />
<glyph unicode="&#xe907;" glyph-name="arrow---down-2" d="M1015.68 352c-8.564 13.131-23.182 21.69-39.8 21.69-8.931 0-17.284-2.472-24.413-6.769l0.213 0.119-404.48-250.24v749.44c0.102 1.161 0.16 2.512 0.16 3.876 0 25.979-21.061 47.040-47.040 47.040s-47.040-21.061-47.040-47.040c0-1.364 0.058-2.715 0.172-4.050l-0.012 0.174v-747.2l-380.48 248.32c-7.269 4.782-16.182 7.628-25.76 7.628-26.128 0-47.308-21.181-47.308-47.308 0-16.55 8.498-31.115 21.369-39.57l0.179-0.11 454.72-296.64 5.12-2.24c3.813-1.837 8.237-3.186 12.891-3.815l0.229-0.025h12.48c5.284 0.925 10.009 2.482 14.399 4.62l-0.319-0.14 480 297.92c13.14 8.49 21.714 23.064 21.714 39.64 0 9.135-2.604 17.661-7.109 24.878l0.115-0.198z" />
<glyph unicode="&#xe908;" glyph-name="arrow---down" d="M1016.64 589.44c-8.354 12.634-22.498 20.854-38.562 20.854-8.678 0-16.796-2.399-23.726-6.57l0.208 0.116-454.080-283.84-431.040 283.2c-7.040 4.76-15.718 7.599-25.059 7.599-3.136 0-6.197-0.32-9.152-0.929l0.292 0.050c-12.054-2.684-22.128-9.73-28.696-19.359l-0.104-0.161c-4.889-7.172-7.807-16.027-7.807-25.564 0-16.043 8.256-30.159 20.752-38.328l0.175-0.107 455.36-296c7.072-4.547 15.689-7.279 24.939-7.36h0.021c0.078 0 0.17-0.001 0.262-0.001 8.679 0 16.773 2.504 23.599 6.828l-0.181-0.107 480 297.6c12.17 8.209 20.067 21.945 20.067 37.525 0 9.129-2.711 17.625-7.372 24.726l0.105-0.171z" />
<glyph unicode="&#xe909;" glyph-name="arrow---left-2" d="M930.56 505.6h-748.16l248.96 381.12c4.678 7.123 7.462 15.853 7.462 25.234 0 16.134-8.235 30.345-20.731 38.659l-0.17 0.107c-7.113 4.605-15.808 7.342-25.142 7.342-16.134 0-30.358-8.179-38.753-20.616l-0.105-0.166-298.24-454.72-2.88-6.4c-0.813-2.338-1.588-5.239-2.17-8.209l-0.070-0.431v-8.96c-0.007-0.282-0.010-0.615-0.010-0.948 0-10.757 3.875-20.61 10.304-28.238l-0.054 0.066 291.2-470.4c8.223-13.377 22.779-22.164 39.388-22.164 9.129 0 17.638 2.655 24.797 7.234l-0.185-0.111c13.131 8.564 21.69 23.182 21.69 39.8 0 8.931-2.472 17.284-6.769 24.413l0.119-0.213-249.6 403.52h749.12c25.979 0 47.040 21.061 47.040 47.040s-21.061 47.040-47.040 47.040v0z" />
<glyph unicode="&#xe90a;" glyph-name="arrow---left" d="M416 458.88l281.6 431.36c2.778 5.686 4.402 12.372 4.402 19.438 0 24.919-20.201 45.12-45.12 45.12-13.454 0-25.534-5.889-33.8-15.23l-0.041-0.048-297.6-455.36c-4.426-6.889-7.056-15.297-7.056-24.32s2.63-17.432 7.165-24.501l-0.109 0.181 297.6-478.080c8.007-12.945 22.125-21.44 38.228-21.44 0.061 0 0.121 0 0.182 0h-0.009c0.078 0 0.17-0.001 0.262-0.001 8.679 0 16.773 2.504 23.599 6.828l-0.181-0.107c12.965 8.153 21.455 22.382 21.455 38.594 0 8.81-2.507 17.034-6.847 23.998l0.112-0.192z" />
<glyph unicode="&#xe90b;" glyph-name="arrow---right-2" d="M968.32 461.44l-296.32 475.2c-8.584 13-23.129 21.459-39.65 21.459-8.992 0-17.399-2.506-24.56-6.858l0.21 0.118c-13.314-8.311-22.041-22.882-22.041-39.492 0-9.078 2.607-17.548 7.114-24.7l-0.113 0.192 251.2-404.16h-748.16c-1.161 0.102-2.512 0.16-3.876 0.16-25.979 0-47.040-21.061-47.040-47.040s21.061-47.040 47.040-47.040c1.364 0 2.715 0.058 4.050 0.172l-0.174-0.012h745.28l-247.68-379.52c-4.474-7.068-7.13-15.673-7.13-24.899 0-16.23 8.22-30.541 20.724-38.996l0.166-0.106c7.234-4.736 16.075-7.588 25.576-7.68h0.024c0.014 0 0.031 0 0.047 0 16.106 0 30.335 8.040 38.891 20.325l0.102 0.155 295.36 452.16c4.889 7.332 7.801 16.346 7.801 26.040 0 9.062-2.545 17.529-6.959 24.726l0.118-0.206z" />
<glyph unicode="&#xe90c;" glyph-name="arrow---right" d="M650.88 460.48l-298.88 478.4c-8.376 11.124-21.557 18.241-36.4 18.241-25.096 0-45.44-20.344-45.44-45.44 0-7.596 1.864-14.758 5.16-21.051l-0.119 0.25 282.24-453.76-280.32-431.36c-6.552-7.78-10.533-17.912-10.533-28.975 0-24.919 20.201-45.12 45.12-45.12 17.514 0 32.697 9.979 40.175 24.561l0.118 0.254 297.6 455.36c4.762 7.137 7.599 15.912 7.599 25.349 0 8.585-2.348 16.622-6.436 23.503l0.117-0.212z" />
<glyph unicode="&#xe90d;" glyph-name="arrow---up-2" d="M997.44 605.76v0l-453.44 296.96-5.12 2.24c-3.813 1.837-8.237 3.186-12.891 3.815l-0.229 0.025h-6.080c-7.5-0.225-14.513-2.091-20.762-5.249l0.282 0.129-480-297.92c-13.252-8.397-21.921-22.984-21.921-39.595 0-9.028 2.561-17.459 6.996-24.604l-0.115 0.199c8.644-13.073 23.279-21.578 39.901-21.578 8.883 0 17.199 2.429 24.319 6.659l-0.22-0.121 403.84 251.2v-749.76c2.066-24.257 22.265-43.164 46.88-43.164s44.814 18.906 46.868 42.99l0.012 0.174v747.52l380.48-248.32c7.131-4.874 15.941-7.783 25.431-7.783 3.462 0 6.833 0.387 10.074 1.12l-0.304-0.058c21.533 4.454 37.489 23.263 37.489 45.799 0 16.431-8.483 30.882-21.307 39.211l-0.181 0.11z" />
<glyph unicode="&#xe90e;" glyph-name="arrow---up" d="M1003.52 305.92l-455.36 297.6c-6.889 4.426-15.297 7.056-24.32 7.056s-17.432-2.63-24.501-7.165l0.181 0.109-478.080-296.96c-12.965-8.153-21.455-22.382-21.455-38.594 0-8.81 2.507-17.034 6.847-23.998l-0.112 0.192c8.359-13.053 22.786-21.581 39.204-21.581 9.198 0 17.77 2.676 24.982 7.292l-0.186-0.111 452.16 282.24 431.040-281.6c7.056-4.595 15.686-7.336 24.954-7.36h9.286c12.064 2.416 22.127 9.546 28.375 19.344l0.105 0.176c4.861 7.092 7.762 15.858 7.762 25.303 0 15.923-8.248 29.919-20.704 37.95l-0.178 0.107z" />
<glyph unicode="&#xe90f;" d="M498.24 303.36c-0.835 0.155-1.797 0.243-2.779 0.243-7.905 0-14.471-5.733-15.768-13.268l-0.014-0.095-32-182.080-200.32-124.8 66.56 377.28c0.146 0.818 0.23 1.759 0.23 2.72 0 8.963-7.266 16.23-16.23 16.23-8.002 0-14.652-5.792-15.986-13.412l-0.014-0.097-72.64-412.48c-0.169-0.882-0.266-1.896-0.266-2.933 0-5.519 2.74-10.399 6.934-13.353l0.052-0.035c1.965-0.843 4.252-1.333 6.654-1.333 0.474 0 0.943 0.019 1.407 0.056l-0.061-0.004c1.379-0.523 2.974-0.826 4.64-0.826s3.261 0.303 4.733 0.857l-0.093-0.031 237.12 147.52c3.72 2.496 6.388 6.313 7.34 10.767l0.020 0.113 32 189.12c0.377 1.294 0.594 2.781 0.594 4.319 0 7.456-5.101 13.722-12.003 15.497l-0.111 0.024zM741.76 380.48c-1.467 7.63-8.090 13.316-16.041 13.316-0.889 0-1.762-0.071-2.612-0.208l0.093 0.012-3.84-1.6h1.92v-14.4h-10.88s0-1.92 0-2.56l69.44-391.68-200.64 124.8-32 182.080c-1.348 7.718-7.998 13.51-16 13.51-8.963 0-16.23-7.266-16.23-16.23 0-0.961 0.084-1.902 0.244-2.817l-0.014 0.097 33.92-188.8c0.704-4.591 3.313-8.462 6.979-10.843l0.061-0.037 237.12-149.12c2.186-1.604 4.931-2.567 7.9-2.567 0.148 0 0.295 0.002 0.442 0.007l-0.021-0.001c3.318 0.018 6.411 0.969 9.033 2.602l-0.073-0.042c4.398 3.039 7.242 8.053 7.242 13.732 0 0.914-0.074 1.81-0.215 2.683l0.013-0.096z" />
<glyph unicode="&#xe910;" d="M845.44 574.4c0.118 1.072 0.185 2.315 0.185 3.573 0 11.736-5.85 22.106-14.793 28.353l-0.112 0.074c9.244 6.087 15.261 16.418 15.261 28.154 0 1.355-0.080 2.692-0.236 4.005l0.015-0.159c-1.299 12.468-9.118 22.845-19.945 27.753l-0.215 0.087c6.331 6.119 10.261 14.686 10.261 24.171 0 15.955-11.121 29.313-26.035 32.745l-0.226 0.044c3.802 5.371 6.077 12.056 6.077 19.273 0 5.454-1.299 10.604-3.605 15.158l0.088-0.192c-5.168 10.978-16.098 18.461-28.787 18.56h-0.013c2.683 4.582 4.267 10.089 4.267 15.966 0 17.673-14.327 32-32 32-1.505 0-2.986-0.104-4.435-0.305l0.168 0.019h-4.48c0.497 2.196 0.781 4.718 0.781 7.306 0 9.671-3.973 18.415-10.375 24.688l-0.006 0.006c-5.812 5.041-13.407 8.164-21.728 8.32h-0.032c-1.634 0.233-3.522 0.366-5.44 0.366s-3.806-0.133-5.653-0.39l0.213 0.024c0.030 0.529 0.046 1.149 0.046 1.772 0 11.982-6.212 22.513-15.592 28.547l-0.134 0.081c-3.377 1.324-7.287 2.091-11.377 2.091-1.973 0-3.904-0.179-5.779-0.52l0.196 0.030c-6.201-0.131-12.017-1.653-17.189-4.265l0.229 0.105c-1.198 12.602-9.546 22.988-20.898 27.129l-0.222 0.071c-3.507 1.295-7.558 2.105-11.779 2.238l-0.061 0.002c-8.417-0.065-16.119-3.075-22.14-8.048l0.060 0.048c-3.808 11.613-13.458 20.306-25.386 22.684l-0.214 0.036c-0.914 0.142-1.967 0.223-3.040 0.223s-2.126-0.081-3.155-0.238l0.115 0.014c-10.471-0.115-19.83-4.784-26.203-12.117l-0.037-0.043c-5.621 11.183-16.952 18.751-30.063 18.88h-0.017c-12.699-0.203-23.728-7.162-29.67-17.432l-0.090-0.168c-6.209 7.649-15.611 12.497-26.146 12.497-0.371 0-0.74-0.006-1.108-0.018l0.054 0.001-7.040-0.64c-12.211-2.438-21.941-11.106-25.848-22.479l-0.072-0.241c-5.938 4.971-13.655 7.992-22.078 8h-0.002c-0.023 0-0.050 0-0.078 0-4.235 0-8.277-0.823-11.977-2.317l0.215 0.077c-11.271-4.637-19.411-14.799-21.1-27.021l-0.020-0.179c-4.305 2.022-9.349 3.202-14.669 3.202-0.131 0-0.261-0.001-0.391-0.002h0.020c-0.058 0-0.126 0.001-0.194 0.001-17.673 0-32-14.327-32-32 0-1.24 0.071-2.464 0.208-3.668l-0.014 0.147c-3.904 2.050-8.502 3.33-13.38 3.518l-0.060 0.002c-0.156 0.003-0.34 0.004-0.525 0.004-8.468 0-16.168-3.289-21.892-8.66l0.017 0.016c-6.598-6.203-10.707-14.989-10.707-24.733 0-2.575 0.287-5.083 0.83-7.493l-0.043 0.227h-4.8c-0.074 0.001-0.161 0.001-0.249 0.001-10.909 0-20.626-5.101-26.896-13.048l-0.055-0.073c-4.162-5.674-6.66-12.795-6.66-20.5 0-4.965 1.038-9.688 2.908-13.964l-0.087 0.224c-0.59 0.039-1.28 0.061-1.974 0.061-17.673 0-32-14.327-32-32 0-7.989 2.928-15.295 7.769-20.902l-0.035 0.041c-12.057-2.856-21.485-11.859-24.899-23.44l-0.061-0.24c-0.631-2.459-0.994-5.282-0.994-8.19 0-9.257 3.674-17.656 9.643-23.819l-0.009 0.009c-13.061-4.229-22.34-16.284-22.34-30.507 0-12.773 7.484-23.798 18.306-28.93l0.194-0.083c-9.061-6.252-14.924-16.577-14.924-28.271 0-1.314 0.074-2.61 0.218-3.885l-0.014 0.156c1.16-12.518 9.033-22.954 19.945-27.755l0.215-0.085c-6.114-6.182-9.89-14.686-9.89-24.072 0-2.813 0.339-5.547 0.979-8.162l-0.048 0.235c3.708-11.682 13.030-20.581 24.715-23.626l0.245-0.054c-4.807-5.566-7.734-12.872-7.734-20.861 0-17.673 14.327-32 32-32 0.695 0 1.384 0.022 2.068 0.066l-0.093-0.005c-1.783-4.051-2.82-8.774-2.82-13.74 0-7.705 2.498-14.826 6.729-20.598l-0.068 0.098c5.887-8.009 15.272-13.148 25.857-13.148 0.472 0 0.942 0.010 1.409 0.030l-0.067-0.002h4.48c-0.462-2.119-0.727-4.553-0.727-7.049 0-9.801 4.080-18.65 10.635-24.939l0.012-0.011c6.013-5.359 13.983-8.635 22.719-8.64h0.001c1.634-0.233 3.522-0.366 5.44-0.366s3.806 0.133 5.653 0.39l-0.213-0.024c-0.018-0.419-0.029-0.911-0.029-1.405 0-12.159 6.338-22.838 15.89-28.913l0.139-0.083c4.881-3.195 10.856-5.103 17.275-5.12h0.005c6.236 0.041 12.076 1.698 17.134 4.571l-0.174-0.091c1.839-12.349 9.928-22.456 20.892-27.114l0.228-0.086c3.485-1.417 7.527-2.24 11.762-2.24 0.027 0 0.055 0 0.082 0h-0.004c8.425 0.008 16.142 3.029 22.134 8.044l-0.054-0.044c3.86-11.691 13.647-20.413 25.711-22.687l0.209-0.033c0.914-0.159 1.966-0.251 3.040-0.251s2.126 0.091 3.15 0.266l-0.11-0.016c9.594 0.398 18.096 4.76 23.966 11.48l0.034 0.040c5.786-10.531 16.788-17.559 29.434-17.6h0.006c12.573 0.045 23.529 6.924 29.352 17.114l0.088 0.166c6.286-7.596 15.693-12.417 26.229-12.48h5.771c12.439 1.944 22.389 10.824 25.862 22.494l0.058 0.226c5.961-4.925 13.663-7.935 22.066-8h0.014c0.032 0 0.070 0 0.108 0 4.198 0 8.232 0.703 11.991 1.998l-0.259-0.077c11.872 4.581 20.463 15.2 22.063 27.991l0.017 0.169c4.877-2.808 10.724-4.469 16.957-4.48h0.003c6.424 0.017 12.399 1.925 17.402 5.195l-0.122-0.075c9.691 6.158 16.029 16.836 16.029 28.995 0 0.494-0.010 0.986-0.031 1.474l0.002-0.070c3.248-1.217 7.002-1.921 10.921-1.921 0.098 0 0.196 0 0.294 0.001h-0.015c0.156-0.003 0.34-0.004 0.525-0.004 8.468 0 16.168 3.289 21.892 8.66l-0.017-0.016c6.598 6.203 10.707 14.989 10.707 24.733 0 2.575-0.287 5.083-0.83 7.493l0.043-0.227h4.8c0.401-0.018 0.87-0.028 1.343-0.028 10.585 0 19.97 5.14 25.795 13.059l0.062 0.089c4.162 5.674 6.66 12.795 6.66 20.5 0 4.965-1.038 9.688-2.908 13.964l0.087-0.224c12.524 0.42 23.271 7.633 28.712 18.054l0.088 0.186c2.236 4.473 3.545 9.744 3.545 15.322 0 7.165-2.16 13.825-5.865 19.365l0.080-0.127c15.954 1.973 28.182 15.444 28.182 31.771 0 10.015-4.601 18.955-11.803 24.823l-0.058 0.046c11.084 4.941 18.93 15.347 20.149 27.7l0.011 0.14zM813.44 579.2s1.6 0 1.6-1.92c-0.289-0.062-0.62-0.097-0.96-0.097s-0.671 0.035-0.991 0.102l0.031-0.005c-9.35-4.295-16.172-12.7-18.206-22.835l-0.034-0.205c-0.331-1.728-0.52-3.715-0.52-5.747 0-8.73 3.496-16.644 9.165-22.418l-0.005 0.005s0-1.6 0-2.24c-0.333-0.128-0.718-0.202-1.12-0.202s-0.787 0.074-1.142 0.21l0.022-0.007c-10.059-2.704-18.020-9.927-21.685-19.302l-0.075-0.218c-1.417-3.484-2.239-7.525-2.239-11.759 0-6.452 1.909-12.458 5.194-17.483l-0.075 0.123s0-1.92 0-2.56-1.6 0-2.24 0c-10.621-0.576-19.803-6.248-25.204-14.595l-0.076-0.125c-3.019-4.794-4.811-10.625-4.811-16.874 0-4.54 0.946-8.86 2.651-12.772l-0.080 0.206s0-1.92 0-2.56h-6.4c-9.385-0.023-17.817-4.082-23.656-10.533l-0.024-0.027c-5.129-5.653-8.268-13.193-8.268-21.466 0-1.458 0.097-2.892 0.286-4.298l-0.018 0.164c0-4.48-2.88-4.16-4.8-3.84h-5.76c-17.673 0-32-14.327-32-32v0c0.169-0.377 0.267-0.817 0.267-1.28s-0.098-0.903-0.275-1.3l0.008 0.020h-1.92c-4.274 2.26-9.342 3.587-14.72 3.587s-10.446-1.327-14.895-3.671l0.175 0.084c-9.106-4.636-15.612-13.254-17.256-23.497l-0.024-0.183s0-2.24-1.6-2.24c-0.287-0.093-0.617-0.147-0.96-0.147s-0.673 0.054-0.983 0.154l0.023-0.006c-5.432 4.527-12.466 7.296-20.146 7.36h-0.014c-1.296 0.148-2.798 0.232-4.32 0.232s-3.024-0.084-4.502-0.249l0.182 0.016c-10.053-2.921-17.925-10.372-21.37-19.937l-0.070-0.223s0 0-1.6-1.92c-0.286-0.104-0.616-0.165-0.96-0.165s-0.674 0.060-0.98 0.171l0.020-0.006c-5.904 6.873-14.606 11.2-24.318 11.2-0.001 0-0.001 0-0.002 0h-2.88c-10.656-0.904-19.739-6.908-24.879-15.533l-0.081-0.147s0 0-1.6 0 0 0-1.92 0c-5.162 8.693-14.109 14.671-24.51 15.67l-0.13 0.010h-5.76c-9.594-0.099-18.163-4.405-23.964-11.157l-0.036-0.043s0 0-2.24 0v0s0 0 0 1.92c-3.453 9.722-11.198 17.151-20.893 20.101l-0.227 0.059c-1.347 0.223-2.898 0.351-4.48 0.351s-3.133-0.127-4.646-0.373l0.166 0.022c-7.542-0.045-14.456-2.692-19.901-7.088l0.061 0.048h-2.24s0 1.6 0 2.24c-1.668 10.426-8.174 19.044-17.099 23.596l-0.181 0.084c-4.185 2.19-9.137 3.487-14.39 3.52h-0.010c-5.515-0.028-10.692-1.447-15.206-3.924l0.166 0.084h-2.24s0 1.6 0 2.24c0.001 0.079 0.001 0.173 0.001 0.267 0 10.85-5.4 20.438-13.658 26.225l-0.103 0.068c-5.615 3.989-12.606 6.383-20.156 6.4h-0.004c-1.491 0.232-3.21 0.365-4.96 0.365s-3.469-0.133-5.148-0.388l0.188 0.024s0 1.6 0 2.24c0.5 2.118 0.786 4.551 0.786 7.050 0 17.673-14.327 32-32 32-0.276 0-0.552-0.004-0.827-0.010l0.041 0.001h-7.68s0 0-1.6 0 0 1.6 0 2.24c1.623 3.704 2.567 8.021 2.567 12.558 0 16.887-13.081 30.719-29.664 31.916l-0.103 0.006s-2.24 0-2.56 0c-0.116 0.334-0.183 0.719-0.183 1.12s0.067 0.786 0.19 1.145l-0.007-0.025c3.333 4.97 5.319 11.087 5.319 17.668 0 4.118-0.778 8.054-2.195 11.67l0.075-0.217c-3.801 9.661-11.89 16.907-21.858 19.472l-0.222 0.048s-1.92 0-2.24 0c-0.163 0.327-0.258 0.712-0.258 1.12s0.095 0.793 0.265 1.135l-0.007-0.015c4.905 5.594 7.898 12.972 7.898 21.049 0 11.478-6.043 21.545-15.122 27.192l-0.136 0.079c-0.784 0.367-1.432 0.911-1.91 1.585l-0.010 0.015s0 1.6 0 1.92c8.187 5.873 13.457 15.361 13.457 26.080s-5.27 20.207-13.361 26.015l-0.096 0.065s0 0 0 1.92 0 1.6 0 1.92c9.35 4.295 16.172 12.7 18.206 22.835l0.034 0.205c0.331 1.728 0.52 3.715 0.52 5.747 0 8.73-3.496 16.644-9.165 22.418l0.005-0.005s0 0 0 2.24 0 0 1.92 0c13.995 3.622 24.164 16.136 24.164 31.026 0 6.558-1.973 12.656-5.357 17.731l0.073-0.117s0 0 0 2.24 0 0 2.56 0c10.549 0.757 19.607 6.522 24.882 14.907l0.078 0.133c3.137 4.863 5.002 10.803 5.002 17.179 0 4.424-0.898 8.638-2.521 12.471l0.079-0.21s0 1.92 0 2.24 0 0 1.92 0h4.48c0.213-0.005 0.464-0.008 0.715-0.008 17.673 0 32 14.327 32 32 0 2.383-0.261 4.706-0.755 6.94l0.039-0.212c-0.075 0.385-0.117 0.827-0.117 1.28s0.043 0.895 0.124 1.324l-0.007-0.044h2.56c2.859-0.974 6.154-1.556 9.579-1.6h0.021c0.107-0.001 0.234-0.002 0.361-0.002 7.172 0 13.752 2.537 18.891 6.763l-0.052-0.041c7.811 5.9 12.806 15.169 12.806 25.605 0 0.223-0.002 0.446-0.007 0.668l0.001-0.033s0 2.24 0 2.56l1.6 2.24c4.348-2.393 9.525-3.812 15.031-3.84h0.009c0.502-0.028 1.089-0.044 1.679-0.044 5.601 0 10.866 1.439 15.445 3.968l-0.165-0.083c9.106 4.636 15.612 13.254 17.256 23.497l0.024 0.183s0 1.92 0 2.24c0.281 0.136 0.611 0.216 0.96 0.216s0.679-0.080 0.973-0.222l-0.013 0.006c5.431-4.386 12.418-7.040 20.025-7.040 0.047 0 0.095 0 0.142 0h-0.007c1.299-0.222 2.794-0.349 4.32-0.349s3.021 0.127 4.477 0.371l-0.157-0.022c10.053 2.921 17.925 10.372 21.37 19.937l0.070 0.223c0.393 0.856 1.064 1.527 1.896 1.91l0.024 0.010s0 0 1.92 0c5.837-6.795 14.406-11.101 23.983-11.2h3.217c10.585 1.081 19.545 7.179 24.558 15.846l0.082 0.154v1.6h2.88s0 0 0 0c5.154-8.9 14.249-15.023 24.835-15.991l0.125-0.009h2.88c0.083-0.001 0.181-0.001 0.278-0.001 9.564 0 18.148 4.195 24.011 10.846l0.030 0.035c0.286 0.104 0.616 0.165 0.96 0.165s0.674-0.060 0.98-0.171l-0.020 0.006s0 0 1.6-1.92c3.515-9.788 11.387-17.239 21.214-20.104l0.226-0.056c1.299-0.222 2.794-0.349 4.32-0.349s3.021 0.127 4.477 0.371l-0.157-0.022c0.040 0 0.087 0 0.135 0 7.607 0 14.595 2.655 20.086 7.088l-0.061-0.048c0.286 0.104 0.616 0.165 0.96 0.165s0.674-0.060 0.98-0.171l-0.020 0.006s0-1.6 0-2.24c2.414-15.489 15.658-27.202 31.638-27.202 0.127 0 0.254 0.001 0.381 0.002h-0.019c1.326-0.174 2.859-0.273 4.416-0.273 4.747 0 9.278 0.923 13.425 2.599l-0.24-0.086c0.379 0.153 0.819 0.241 1.28 0.241s0.901-0.088 1.304-0.249l-0.024 0.008c0.068-0.385 0.107-0.828 0.107-1.28s-0.039-0.895-0.114-1.326l0.007 0.046c-0.001-0.079-0.001-0.173-0.001-0.267 0-10.85 5.4-20.438 13.658-26.225l0.103-0.068c5.532-4.002 12.453-6.401 19.934-6.401 0.080 0 0.159 0 0.238 0.001h-0.012c1.491-0.232 3.21-0.365 4.96-0.365s3.469 0.133 5.148 0.388l-0.188-0.024s0 0 0-2.24c-0.5-2.118-0.786-4.551-0.786-7.050 0-17.673 14.327-32 32-32 0.276 0 0.552 0.004 0.827 0.010l-0.041-0.001h3.84s0 0 1.92 0c0.163-0.327 0.258-0.712 0.258-1.12s-0.095-0.793-0.265-1.135l0.007 0.015c-1.625-3.706-2.571-8.026-2.571-12.566 0-6.249 1.791-12.080 4.889-17.007l-0.078 0.133c5.413-8.599 14.606-14.389 25.19-15.036l0.090-0.004s1.92 0 2.24 0 0-1.92 0-2.56c-3.34-4.974-5.331-11.097-5.331-17.685 0-14.79 10.034-27.237 23.667-30.904l0.224-0.051c0.333 0.128 0.718 0.202 1.12 0.202s0.787-0.074 1.142-0.21l-0.022 0.007c0.098-0.336 0.154-0.721 0.154-1.12s-0.056-0.784-0.161-1.149l0.007 0.029c-5.664-5.769-9.16-13.683-9.16-22.413 0-2.032 0.189-4.019 0.551-5.945l-0.031 0.199c2.001-10.283 8.701-18.67 17.726-22.957l0.194-0.083s1.92 0 1.92-1.92 0 0 0-1.92c-8.262-5.785-13.631-15.212-13.76-25.9v-0.020c-0.090-0.899-0.141-1.942-0.141-2.998 0-9.479 4.121-17.995 10.67-23.855l0.031-0.027z" />
<glyph unicode="&#xe911;" d="M666.56 96h-142.4l12.48-32h129.92c8.765 0.176 15.824 7.235 16 15.983v0.017c0 8.837-7.163 16-16 16v0zM1024 514.88c0 405.44-424 416-428.16 416-0.108 0.003-0.235 0.004-0.362 0.004-4.391 0-8.352-1.843-11.152-4.797l-0.007-0.007c-2.957-2.754-4.801-6.67-4.801-11.017 0-0.064 0-0.129 0.001-0.193v0.010-384h-394.88c-3.2 57.6-4.8 96-4.16 103.36 0.135 0.818 0.211 1.76 0.211 2.72s-0.077 1.902-0.225 2.821l0.013-0.101c0.326 3.553 0.512 7.684 0.512 11.858 0 40.428-17.435 76.784-45.196 101.959l-0.115 0.103c-24.704 16.39-55.042 26.15-87.66 26.15-12.716 0-25.086-1.483-36.946-4.287l1.086 0.216c-7.087-1.746-12.26-8.047-12.26-15.557 0-1.292 0.153-2.549 0.442-3.752l-0.022 0.109c1.867-7.109 8.235-12.268 15.809-12.268 1.316 0 2.596 0.156 3.822 0.45l-0.111-0.023c8.462 1.993 18.178 3.136 28.16 3.136 25.139 0 48.586-7.247 68.364-19.766l-0.525 0.31c20.088-19.306 32.568-46.401 32.568-76.41 0-3.857-0.206-7.666-0.608-11.416l0.040 0.466c-2.56-16.64 0-66.24 11.2-253.44 3.218-97.311 45.454-184.167 111.48-245.895l0.2-0.185h33.6c0.705 1.7 1.114 3.674 1.114 5.744 0 4.762-2.167 9.018-5.569 11.835l-0.026 0.021c-64.176 56.969-105.189 138.806-107.829 230.26l-0.011 0.46c-2.24 40.64-4.48 77.44-6.4 109.44h800c0.865-0.214 1.858-0.337 2.88-0.337s2.015 0.123 2.965 0.354l-0.085-0.018c-2.56-149.12-38.4-265.92-105.6-338.24-2.599-2.791-4.195-6.546-4.195-10.675 0-2.274 0.484-4.434 1.354-6.385l-0.040 0.1c5.461-12.33 8.64-26.711 8.64-41.834 0-0.030 0-0.060 0-0.090v0.005c0-8.837 7.163-16 16-16v0c8.837 0 16 7.163 16 16v0c-0.027 16.038-2.719 31.439-7.657 45.795l0.297-0.995c71.68 82.56 107.84 205.12 107.84 368zM985.92 530.88h-374.4v367.040c67.537-5.751 129.681-23.439 186.147-50.967l-3.107 1.367c128-62.080 192-169.6 196.48-320-1.433 1.174-3.15 2.060-5.029 2.54l-0.091 0.020z" />
<glyph unicode="&#xe912;" d="M404.48 240.96c-75.48-0.904-136.32-62.302-136.32-137.911 0-76.171 61.749-137.92 137.92-137.92 76.168 0 137.915 61.744 137.92 137.91v0.001c-0.179 76.213-62.002 137.926-138.24 137.926-0.45 0-0.9-0.002-1.349-0.006l0.069 0.001zM404.48-2.88c-57.806 0.901-104.32 47.972-104.32 105.908 0 58.498 47.422 105.92 105.92 105.92 58.494 0 105.913-47.415 105.92-105.907v-0.001c-0.178-58.54-47.675-105.928-106.24-105.928-0.45 0-0.9 0.003-1.349 0.008l0.068-0.001zM786.24 240.96c-0.095 0-0.208 0-0.32 0-76.171 0-137.92-61.749-137.92-137.92s61.749-137.92 137.92-137.92c76.171 0 137.92 61.749 137.92 137.92v0c-0.181 75.986-61.64 137.557-137.565 137.92h-0.035zM786.24-2.88c-0.095 0-0.207 0-0.32 0-58.498 0-105.92 47.422-105.92 105.92s47.422 105.92 105.92 105.92c58.498 0 105.92-47.422 105.92-105.919v0c0 0 0 0 0 0 0-58.385-47.24-105.738-105.583-105.919h-0.017z" />
<glyph unicode="&#xe913;" d="M320 224c-17.673 0-32-14.327-32-32s14.327-32 32-32c17.673 0 32 14.327 32 32v0c0 17.673-14.327 32-32 32v0zM149.76 224c-17.673 0-32-14.327-32-32s14.327-32 32-32c17.673 0 32 14.327 32 32v0c0 17.673-14.327 32-32 32v0zM234.88 138.88c-17.673 0-32-14.327-32-32s14.327-32 32-32c17.673 0 32 14.327 32 32v0c-0.359 17.396-14.546 31.36-31.994 31.36-0.002 0-0.005 0-0.007 0v0zM234.88 308.8c-17.673 0-32-14.327-32-32s14.327-32 32-32c17.673 0 32 14.327 32 32v0c-0.359 17.396-14.546 31.36-31.994 31.36-0.002 0-0.005 0-0.007 0v0zM758.080 832c-17.673 0-32-14.327-32-32s14.327-32 32-32c17.673 0 32 14.327 32 32v0c0 17.673-14.327 32-32 32v0zM843.2 747.2c-17.673 0-32-14.327-32-32s14.327-32 32-32c17.673 0 32 14.327 32 32v0c-0.534 17.255-14.65 31.040-31.986 31.040-0.005 0-0.010 0-0.015 0h0.001zM464.96 571.84l-77.44-77.44c-21.62-21.62-34.993-51.489-34.993-84.48 0-65.983 53.49-119.473 119.473-119.473 32.991 0 62.86 13.372 84.48 34.993v0l77.44 77.44c21.62 21.62 34.993 51.489 34.993 84.48 0 65.983-53.49 119.473-119.473 119.473-32.991 0-62.86-13.372-84.48-34.993v0zM611.2 425.6l-77.44-77.44c-16.009-15.354-37.78-24.808-61.76-24.808s-45.751 9.454-61.791 24.838l0.031-0.030c-15.801 15.808-25.574 37.643-25.574 61.76s9.773 45.952 25.575 61.76l77.44 77.44c15.923 16.567 38.27 26.86 63.020 26.86 48.248 0 87.36-39.112 87.36-87.36 0-24.75-10.293-47.097-26.831-62.992l-0.029-0.028zM758.080 661.12c-17.673 0-32-14.327-32-32s14.327-32 32-32v0c17.673 0 32 14.327 32 32s-14.327 32-32 32v0zM672 746.24c-17.673 0-32-14.327-32-32s14.327-32 32-32v0c17.673 0 32 14.327 32 32s-14.327 32-32 32v0z" />
<glyph unicode="&#xe914;" d="M986.56 292.48l-160 160-22.72-22.4 160-160c16.823-16.653 27.24-39.75 27.24-65.28s-10.417-48.627-27.233-65.272l-139.528-139.528c-16.81-16.611-39.927-26.871-65.44-26.871s-48.63 10.26-65.449 26.88l-159.991 159.991 444.48 444.48c22.573 22.437 36.545 53.507 36.545 87.84s-13.971 65.403-36.539 87.834l-139.846 139.846c-22.508 22.419-53.556 36.279-87.84 36.279s-65.332-13.86-87.844-36.283l-444.476-444.476-151.68 151.36c-16.611 16.81-26.871 39.927-26.871 65.44s10.26 48.63 26.88 65.449l-0.009-0.009 139.84 138.24c16.892 16.295 39.914 26.334 65.28 26.334s48.388-10.039 65.308-26.361l-0.028 0.027 151.68-151.36 23.68 23.36-152.96 152c-22.848 21.521-53.72 34.746-87.68 34.746s-64.832-13.225-87.745-34.807l0.065 0.060-139.84-139.84c-22.419-22.508-36.279-53.556-36.279-87.84s13.86-65.332 36.283-87.844l151.676-151.676-160-160c-22.555-22.386-36.518-53.402-36.518-87.68s13.962-65.294 36.51-87.672l0.008-0.008 139.52-139.84c22.543-22.342 53.579-36.148 87.84-36.148s65.297 13.806 87.849 36.157l159.991 159.991 160-160c22.543-22.342 53.579-36.148 87.84-36.148s65.297 13.806 87.849 36.157l139.831 139.831c22.324 22.492 36.12 53.475 36.12 87.68s-13.796 65.188-36.128 87.688l0.008-0.008zM328 0c-16.759-16.592-39.822-26.843-65.28-26.843s-48.521 10.251-65.288 26.85l0.008-0.008-139.84 139.52c-16.745 16.689-27.106 39.774-27.106 65.28s10.361 48.591 27.104 65.277l0.003 0.003 627.2 625.92c16.689 16.745 39.774 27.106 65.28 27.106s48.591-10.361 65.277-27.104l0.003-0.003 139.84-139.52c16.764-16.74 27.134-39.879 27.134-65.44s-10.37-48.7-27.133-65.439l-0.001-0.001z" />
<glyph unicode="&#xe915;" d="M622.72 75.84c-8.837 0-16-7.163-16-16v0c0-50.56-51.2-91.84-113.6-91.84s-113.6 41.28-113.6 91.84c0 8.837-7.163 16-16 16v0c-8.837 0-16-7.163-16-16v0c0-68.16 64-123.84 145.6-123.84s146.88 55.68 146.88 123.84c0 0.015 0 0.033 0 0.051 0 8.837-7.163 16-16 16-0.451 0-0.897-0.019-1.338-0.055l0.058 0.004z" />
<glyph unicode="&#xe916;" d="M950.080 196.16c-1.585 4.987-5.51 8.806-10.452 10.214l-0.108 0.026c-3.52 0-86.080 27.52-86.080 167.68 0 152.32-2.56 236.16-57.92 331.84-72.64 125.12-152.96 128-152.64 128-28.8 6.080-66.88 21.76-66.88 37.76 0.179 2.028 0.282 4.388 0.282 6.772 0 44.040-34.888 79.932-78.535 81.543l-0.147 0.004h-9.28c-43.059-2.486-77.036-38.011-77.036-81.472 0-2.185 0.086-4.349 0.254-6.491l-0.018 0.283c0-16-39.68-32-65.92-36.8-3.2 0-82.88-4.48-154.88-128-55.36-96-58.24-179.52-58.24-331.84 0-140.16-82.56-166.4-85.76-167.68-5.181-1.339-9.237-5.183-10.849-10.131l-0.031-0.109c-0.495-1.474-0.78-3.172-0.78-4.936 0-3.701 1.257-7.109 3.367-9.82l-0.027 0.036c4.48-5.76 112.32-141.12 451.84-142.4h5.44c339.52 0 448 136.64 452.16 142.4 1.739 2.522 2.777 5.644 2.777 9.009 0 1.462-0.196 2.878-0.563 4.223l0.026-0.112zM493.12 71.040c-256 0-376.32 81.28-416 115.2 32 19.2 86.080 68.8 86.080 187.84 0 150.72 2.56 226.88 53.76 315.52 62.4 108.16 128 113.28 130.88 113.6 15.68 2.88 94.4 19.84 94.4 68.48-0.306 2.075-0.48 4.47-0.48 6.906 0 27.57 22.35 49.92 49.92 49.92s49.92-22.35 49.92-49.92c0-2.436-0.174-4.831-0.512-7.174l0.032 0.268c0-48.64 78.72-65.6 96-68.8 0 0 66.24-5.12 128-112.96 51.52-88.96 53.76-165.12 53.76-315.84 0-119.040 54.080-168.64 86.080-187.84-35.84-33.92-154.56-114.88-411.84-115.2z" />
<glyph unicode="&#xe917;" d="M500.16-60.16c-206.918 0.364-374.538 168.097-374.72 375.023v0.017c0.041 23.209 2.135 45.899 6.109 67.936l-0.349-2.336c-0.234 0.961-0.368 2.065-0.368 3.2s0.134 2.239 0.388 3.296l-0.019-0.096c28.874 111.814 84.64 208.052 160.092 284.894l-0.092-0.094c5.44 5.44 11.2 10.56 17.28 16l2.88 2.56c1.047 1.518 2.322 2.793 3.791 3.808l0.049 0.032 9.6 8 1.28 1.92 4.16 3.84c44.824 45.874 85.496 96.204 121.166 150.132l2.354 3.788c16.292 24.371 27.633 53.411 31.883 84.704l0.117 1.056c0 8.837 7.163 16 16 16v0c8.837 0 16-7.163 16-16v0c4.189-32.692 15.554-62.086 32.467-87.465l-0.467 0.745c37.604-57.512 77.865-107.635 122.468-153.515l-0.228 0.235 3.84-3.2 2.56-2.24 9.6-8c1.521-1.15 2.798-2.528 3.802-4.097l0.038-0.063 2.88-2.56c5.76-5.12 11.84-10.24 17.28-15.68 75.589-76.607 131.407-172.905 159.063-280.502l0.937-4.298c0.152-1.010 0.24-2.175 0.24-3.36s-0.087-2.35-0.255-3.489l0.016 0.129c3.548-19.176 5.638-41.301 5.76-63.893v-0.107c0-0.191 0.001-0.418 0.001-0.645 0-207.482-168.198-375.68-375.68-375.68-0.675 0-1.35 0.002-2.024 0.005h0.104zM163.84 386.24c0.153-0.77 0.24-1.655 0.24-2.56s-0.087-1.79-0.254-2.647l0.014 0.087c-3.968-19.865-6.293-42.747-6.4-66.153v-0.087c-0.102-3.122-0.16-6.792-0.16-10.476 0-189.456 153.584-343.040 343.040-343.040s343.040 153.584 343.040 343.040c0 3.684-0.058 7.354-0.173 11.010l0.013-0.534c-0.091 23.484-2.416 46.367-6.774 68.522l0.374-2.282c-0.226 0.865-0.356 1.857-0.356 2.88s0.13 2.015 0.374 2.962l-0.018-0.082c-28.055 102.715-79.707 191.057-148.932 262.217l0.132-0.137c-4.8 5.12-10.24 9.6-15.68 14.4l-6.72 5.76-2.24 2.88-7.36 6.080-3.52 3.2-2.56 2.24c-47.491 48.182-90.39 101.146-127.831 158.023l-2.409 3.897c-7.68 14.4-14.080 27.84-19.52 40-5.12-11.84-11.2-24.96-18.88-39.040-39.647-61.041-82.24-114.208-129.511-162.799l0.231 0.239-3.52-2.88c-1.165-1.101-2.417-2.15-3.73-3.122l-0.11-0.078-7.68-5.76c-0.587-1.012-1.335-1.862-2.22-2.545l-0.020-0.015-6.4-5.76c-5.44-4.48-10.88-9.28-16-14.4-69.008-71.353-120.56-160.016-147.502-258.831l-0.978-4.209z" />
<glyph unicode="&#xe918;" d="M553.28 37.44c-0.582-0.005-1.269-0.007-1.957-0.007-112.318 0-208.489 69.136-248.279 167.173l-0.644 1.794c-0.896 1.935-1.419 4.2-1.419 6.587 0 8.837 7.163 16 16 16 7.425 0 13.669-5.058 15.474-11.916l0.025-0.111c34.616-87.11 118.184-147.572 215.874-147.572 1.732 0 3.46 0.019 5.183 0.057l-0.257-0.004c8.837 0 16-7.163 16-16v0c0-8.837-7.163-16-16-16v0z" />
<glyph unicode="&#xe919;" d="M815.040 935.040c0.054 0.24 0.084 0.517 0.084 0.8s-0.031 0.56-0.089 0.825l0.005-0.025c-15.274 14.473-35.956 23.372-58.716 23.372-0.508 0-1.014-0.004-1.52-0.013l0.076 0.001h-530.88c-25.6-0.714-46.080-21.637-46.080-47.343 0-0.006 0-0.012 0-0.018v0.001-854.080c0-0.005 0-0.011 0-0.017 0-25.706 20.48-46.629 46.014-47.341l0.066-0.001h530.88c0.032 0 0.070 0 0.108 0 22.099 0 42.209 8.518 57.225 22.449l-0.054-0.049c10.88 5.44 27.84 30.080 27.84 163.84v677.12c-0.038 23.596-9.564 44.959-24.966 60.486l0.006-0.006zM209.92 912.64c0 0.016 0 0.035 0 0.053 0 8.033 6.166 14.625 14.023 15.303l0.057 0.004h530.56c0.341 0.008 0.743 0.013 1.146 0.013 14.396 0 27.387-6.017 36.595-15.673l0.019-0.020c8.727-9.391 14.083-22.021 14.083-35.901 0-0.204-0.001-0.407-0.003-0.61v0.031-651.84c0 0 0-0.001 0-0.001 0-29.337-23.783-53.12-53.12-53.12-0.113 0-0.225 0-0.337 0.001h-528.943c-0.080 0.001-0.175 0.001-0.27 0.001-5.434 0-10.62-1.058-15.364-2.979l0.275 0.098v744.64zM792.32 58.56c-9.593-9.495-22.793-15.361-37.363-15.361-0.139 0-0.279 0.001-0.418 0.002h-530.539c-0.096-0.002-0.21-0.003-0.323-0.003-8.306 0-15.040 6.734-15.040 15.040 0 0.114 0.001 0.227 0.004 0.34v-0.017 65.6c-0.002 0.095-0.003 0.207-0.003 0.32 0 8.483 6.877 15.36 15.36 15.36 0.001 0 0.002 0 0.004 0h530.56c0.023 0 0.051 0 0.079 0 20.032 0 38.429 6.999 52.88 18.684l-0.159-0.124c0.314-4.746 0.493-10.289 0.493-15.873 0-29.484-4.984-57.805-14.157-84.164l0.544 1.797z" />
<glyph unicode="&#xe91a;" d="M488.64 139.52v-181.44c0-0.040 0.001-0.088 0.001-0.136 0-6.586-4.061-12.224-9.815-14.546l-0.105-0.038c-0.913-0.216-1.962-0.34-3.040-0.34s-2.127 0.124-3.133 0.358l0.093-0.018c-0.029 0-0.062 0-0.096 0-4.315 0-8.231 1.708-11.109 4.485l-63.995 63.995-64-64c-2.881-2.812-6.824-4.547-11.173-4.547-2.325 0-4.535 0.496-6.528 1.388l0.101-0.041c-5.689 2.437-9.602 7.989-9.602 14.454 0 0.093 0.001 0.187 0.002 0.28v-0.014 180.16z" />
<glyph unicode="&#xe91b;" glyph-name="book---open" d="M437.44 277.12l-232.96 74.88c-1.479 0.498-3.182 0.786-4.953 0.786-7.058 0-13.049-4.57-15.174-10.913l-0.033-0.113c-0.448-1.421-0.707-3.055-0.707-4.75 0-7.088 4.519-13.121 10.833-15.375l0.114-0.036 232.96-75.52c0.722-0.148 1.551-0.233 2.4-0.233s1.678 0.085 2.48 0.246l-0.080-0.013c0.77-0.129 1.656-0.204 2.56-0.204 8.949 0 16.204 7.255 16.204 16.204 0 8.045-5.863 14.721-13.549 15.987l-0.094 0.013zM437.44 451.84l-232.96 75.52c-1.479 0.498-3.182 0.786-4.953 0.786-7.058 0-13.049-4.57-15.174-10.913l-0.033-0.113c-0.448-1.421-0.707-3.055-0.707-4.75 0-7.088 4.519-13.121 10.833-15.375l0.114-0.036 232.96-75.52h4.8c0.77-0.129 1.656-0.204 2.56-0.204 8.949 0 16.204 7.255 16.204 16.204 0 8.045-5.863 14.721-13.549 15.987l-0.094 0.013zM437.44 626.56l-232.96 75.52c-1.479 0.498-3.182 0.786-4.953 0.786-7.058 0-13.049-4.57-15.174-10.913l-0.033-0.113c-0.394-1.336-0.621-2.872-0.621-4.46 0-7.056 4.478-13.067 10.748-15.344l0.114-0.036 232.96-75.52h4.8c0.77-0.129 1.656-0.204 2.56-0.204 8.949 0 16.204 7.255 16.204 16.204 0 8.045-5.863 14.721-13.549 15.987l-0.094 0.013zM637.44 242.56h273.28c0.442-0.043 0.956-0.068 1.475-0.068 7.957 0 14.557 5.808 15.792 13.416l0.012 0.092c0 8.837-7.163 16-16 16v0h-274.56c-8.765-0.176-15.824-7.235-16-15.983v-0.017c0.521-8.414 7.472-15.040 15.971-15.040 0.010 0 0.020 0 0.030 0h-0.002zM1016.32 736c-5.894 6.686-14.478 10.881-24.042 10.881-0.098 0-0.196 0-0.293-0.001h-470.385l-413.76 125.76c-2.995 0.969-6.44 1.528-10.017 1.528-7.56 0-14.536-2.497-20.15-6.71l0.087 0.062c-8.361-5.855-13.761-15.444-13.761-26.293 0-0.094 0-0.187 0.001-0.281v0.014-94.080h-28.8c-17.673 0-32-14.327-32-32v0-614.4c-0.025-0.478-0.040-1.037-0.040-1.6 0-17.673 14.327-32 32-32 0.014 0 0.028 0 0.042 0h956.798c0.49-0.027 1.065-0.042 1.642-0.042 17.673 0 32 14.327 32 32 0 0.578-0.015 1.152-0.046 1.722l0.003-0.080v612.8c0 0.055 0.001 0.12 0.001 0.185 0 8.791-3.545 16.753-9.283 22.537l0.002-0.002zM33.92 100.48v614.4h46.4c1.058-0.23 2.274-0.362 3.52-0.362s2.462 0.132 3.633 0.383l-0.113-0.020v-484.16c-0.003-0.163-0.004-0.355-0.004-0.547 0-15.967 10.535-29.473 25.033-33.946l0.252-0.067 312.64-96zM515.52 109.44l-4.8-2.56-388.8 120c-1.504 0.423-2.588 1.782-2.588 3.394 0 0.157 0.010 0.312 0.030 0.463l-0.002-0.018v595.84c0 2.121 1.719 3.84 3.84 3.84v0l388.8-119.68c1.516-0.644 2.56-2.12 2.56-3.84v0zM992.32 98.88h-448s0 0 0 0c0.225 1.586 0.353 3.418 0.353 5.28s-0.128 3.694-0.376 5.488l0.024-0.208v597.12c0.159 1.249 0.249 2.694 0.249 4.16s-0.090 2.911-0.266 4.33l0.017-0.17h448zM637.44 414.080h273.28c8.837 0 16 7.163 16 16v0c0 8.837-7.163 16-16 16v0h-273.28c-8.765-0.176-15.824-7.235-16-15.983v-0.017c0-8.837 7.163-16 16-16v0zM637.44 587.2h273.28c8.837 0 16 7.163 16 16v0c0 8.837-7.163 16-16 16v0h-273.28c-8.765-0.176-15.824-7.235-16-15.983v-0.017c0-8.837 7.163-16 16-16v0z" />
<glyph unicode="&#xe91c;" glyph-name="bookmark" d="M759.68 960h-501.76c-8.837 0-16-7.163-16-16v0-992c-0.007-0.182-0.011-0.395-0.011-0.609 0-7.068 4.493-13.086 10.778-15.355l0.114-0.036c1.548-0.549 3.332-0.866 5.191-0.866 5.175 0 9.776 2.457 12.701 6.268l0.028 0.038 232.32 302.4h11.84l232.32-302.4c2.756-3.892 7.241-6.401 12.311-6.401 0.059 0 0.119 0 0.178 0.001h-0.009c0.818-0.145 1.759-0.228 2.72-0.228s1.902 0.083 2.817 0.242l-0.097-0.014c6.209 2.292 10.557 8.158 10.56 15.040v0 993.92c0 8.837-7.163 16-16 16v0zM743.68 0l-208.32 271.68c-2.956 3.719-7.48 6.082-12.555 6.082-0.086 0-0.172-0.001-0.258-0.002h-27.507c-0.024 0-0.053 0-0.082 0-5.027 0-9.502-2.366-12.372-6.045l-0.026-0.035-208.64-271.68v928h469.76z" />
<glyph unicode="&#xe91d;" glyph-name="box" d="M958.080 752s0 0 0 2.56c-0.208 2.018-0.776 3.861-1.64 5.525l0.040-0.085c-0.673 0.832-1.408 1.567-2.212 2.218l-0.028 0.022c-0.91 1.118-1.966 2.072-3.148 2.848l-0.052 0.032-435.52 194.88c-1.948 0.758-4.203 1.198-6.56 1.198s-4.612-0.44-6.687-1.241l0.127 0.043-432.96-192c-1.234-0.808-2.29-1.762-3.18-2.855l-0.020-0.025-2.24-5.12c-0.824-1.579-1.392-3.422-1.594-5.374l-0.006-0.066s0 0 0-2.56v0-604.48c0.145-6.494 3.987-12.056 9.499-14.677l0.101-0.043 430.4-196.8c0.961-0.229 2.065-0.36 3.2-0.36s2.239 0.131 3.297 0.379l-0.097-0.019c1.010-0.218 2.17-0.343 3.36-0.343s2.35 0.125 3.469 0.362l-0.109-0.019 432.96 195.52c5.613 2.664 9.455 8.226 9.6 14.701v605.459zM510.080 926.4l395.52-176.32-396.8-211.52-396.48 211.52zM94.080 724.8l398.72-212.8v-535.36l-400.96 181.12zM926.080 157.76l-401.28-181.12v535.36l402.88 214.080z" />
<glyph unicode="&#xe91e;" glyph-name="boxes" d="M346.56 301.76h-332.48c-8.837 0-16-7.163-16-16v0-332.48c0-8.837 7.163-16 16-16v0h332.48c8.837 0 16 7.163 16 16v0 332.48c0 8.837-7.163 16-16 16v0zM330.56-32h-300.48v301.76h300.48zM1004.8 960h-332.8c-8.837 0-16-7.163-16-16v0-331.2c0-8.837 7.163-16 16-16v0h332.8c8.765 0.176 15.824 7.235 16 15.983v332.497c-0.683 8.268-7.563 14.72-15.949 14.72-0.018 0-0.036 0-0.054 0h0.003zM988.8 627.52h-300.48v300.48h300.48zM1004.8 300.48h-332.8c-8.837 0-16-7.163-16-16v0-331.2c0-8.837 7.163-16 16-16v0h332.8c8.837 0 16 7.163 16 16v0 332.48c0 8.837-7.163 16-16 16v0zM988.8-32h-300.48v301.76h300.48zM346.56 960h-332.48c-8.837 0-16-7.163-16-16v0-331.2c0.176-8.765 7.235-15.824 15.983-16h332.497c8.837 0 16 7.163 16 16v0 332.48c-0.683 8.268-7.563 14.72-15.949 14.72-0.018 0-0.036 0-0.054 0h0.003zM330.56 627.52h-300.48v300.48h300.48z" />
<glyph unicode="&#xe91f;" glyph-name="brain" d="M359.36 846.72c-2.506 1.706-5.599 2.724-8.931 2.724-5.426 0-10.222-2.701-13.115-6.833l-0.034-0.052c-1.787-2.58-2.854-5.775-2.854-9.221 0-5.394 2.617-10.176 6.65-13.148l0.045-0.032c17.625-12.079 30.25-30.348 34.782-51.613l0.098-0.547c-0.294-16.832-8.616-31.661-21.291-40.857l-0.149-0.103c-11.52-10.24-27.84-21.44-40.96-17.6s-20.8 22.4-22.72 29.44c-1.911 7.173-8.348 12.372-16 12.372-9.13 0-16.532-7.402-16.532-16.532 0-1.479 0.194-2.912 0.558-4.275l-0.026 0.115c6.108-23.739 22.961-42.593 44.934-51.342l0.506-0.178c4.226-1.423 9.094-2.244 14.153-2.244 0.2 0 0.399 0.001 0.598 0.004h-0.030c11.879 0.675 22.815 4.155 32.332 9.781l-0.332-0.181c2.986-19.928 18.291-35.558 37.801-38.999l0.279-0.041h2.24c0.335-0.025 0.726-0.039 1.12-0.039 8.858 0 16.039 7.181 16.039 16.039 0 8.464-6.556 15.397-14.867 15.997l-0.052 0.003c-11.52 0-13.12 20.8-13.44 29.76 16.718 14.681 27.214 36.099 27.214 59.968 0 0.518-0.005 1.034-0.015 1.549l0.001-0.077c-5.356 31.693-22.941 58.509-47.634 75.915l-0.366 0.245zM288 350.080h18.56c-0.233-1.873-0.366-4.041-0.366-6.24s0.133-4.367 0.391-6.496l-0.025 0.256c2.977-22.605 14.79-41.994 31.796-54.892l0.204-0.148c2.793-2.195 6.359-3.52 10.235-3.52 0.002 0 0.004 0 0.005 0v0c8.797 0.052 15.908 7.196 15.908 16 0 5.033-2.324 9.523-5.957 12.456l-0.030 0.024c-10.682 7.474-18.321 18.666-21.061 31.664l-0.059 0.336c-0.078 0.91-0.122 1.968-0.122 3.037 0 8.502 2.81 16.348 7.552 22.66l-0.070-0.097c25.92 18.88 50.88 59.84 50.88 146.24 0.205 2.259 0.323 4.887 0.323 7.541 0 27.452-12.525 51.979-32.172 68.178l-0.151 0.121c-18.485 10.642-40.649 16.92-64.28 16.92-13.249 0-26.036-1.973-38.085-5.642l0.925 0.242c-6.58-2.204-11.237-8.312-11.237-15.508 0-1.659 0.247-3.259 0.707-4.767l-0.030 0.116c2.097-6.56 8.139-11.226 15.271-11.226 1.629 0 3.201 0.243 4.682 0.696l-0.113-0.030c8.499 2.625 18.27 4.136 28.394 4.136 16.247 0 31.584-3.893 45.131-10.797l-0.564 0.261c12.018-10.877 19.535-26.534 19.535-43.947 0-2.217-0.122-4.405-0.359-6.558l0.024 0.266c0-81.92-25.28-130.88-67.84-130.88h-8c-35.84 0-89.6 0-120-29.76-13.312-13.557-21.529-32.155-21.529-52.673 0-1.283 0.032-2.558 0.096-3.825l-0.007 0.178c0-8.837 7.163-16 16-16v0c8.765 0.176 15.824 7.235 16 15.983v0.017c-0.058 0.868-0.091 1.881-0.091 2.902 0 12.742 5.172 24.276 13.531 32.618l0.001 0.001c20.16 22.080 66.24 20.48 96 20.16zM268.48 454.080h2.24c0.335-0.025 0.726-0.039 1.12-0.039 8.858 0 16.039 7.181 16.039 16.039 0 8.464-6.556 15.397-14.867 15.997l-0.052 0.003c-33.394 1.912-62.466 18.881-80.745 44.167l-0.215 0.313c-6.755 14.393-10.698 31.257-10.698 49.041 0 14.199 2.513 27.812 7.119 40.417l-0.261-0.818c0.977 2.009 1.548 4.371 1.548 6.867 0 8.837-7.163 16-16 16-7.176 0-13.249-4.725-15.278-11.233l-0.030-0.113c-5.846-15.264-9.231-32.919-9.231-51.366 0-23.586 5.535-45.879 15.377-65.651l-0.386 0.857c23.404-34.355 61.204-57.408 104.524-60.455l0.436-0.025zM385.92 195.52c-0.607 0.082-1.308 0.128-2.021 0.128-8.205 0-14.968-6.176-15.892-14.134l-0.007-0.075c-1.566-16.751-10.216-31.213-22.883-40.53l-0.157-0.11c-4.28-1.107-9.194-1.742-14.256-1.742-14.027 0-26.915 4.879-37.059 13.032l0.115-0.090s-24 16-24 80c0 8.837-7.163 16-16 16s-16-7.163-16-16v0c0-83.52 36.16-105.6 39.68-107.52 15.61-10.534 34.612-17.199 55.1-18.23l0.26-0.010c0.148-0.001 0.323-0.002 0.498-0.002 9.493 0 18.46 2.246 26.401 6.236l-0.339-0.154c21.866 14.117 37.042 36.99 40.59 63.541l0.050 0.459c0.226 1.008 0.355 2.165 0.355 3.353 0 8.059-5.958 14.726-13.71 15.837l-0.086 0.010zM854.080 483.52c2.895-3.744 7.387-6.132 12.438-6.132 3.796 0 7.276 1.349 9.989 3.593l-0.026-0.021c3.67 2.957 5.999 7.451 5.999 12.489 0 3.758-1.296 7.213-3.464 9.944l0.025-0.033c-5.12 6.4-117.76 144.96-200.32 99.2-12.813 2.155-23.866 8.498-31.953 17.547l-0.047 0.053c-4.561 7.3-7.266 16.166-7.266 25.665 0 5.115 0.784 10.047 2.24 14.682l-0.094-0.347c0.172 0.889 0.27 1.91 0.27 2.955 0 7.748-5.399 14.235-12.64 15.903l-0.11 0.021c-0.963 0.206-2.069 0.324-3.202 0.324-7.705 0-14.138-5.447-15.659-12.7l-0.018-0.104c-1.815-6.302-2.859-13.54-2.859-21.022 0-16.798 5.262-32.368 14.227-45.15l-0.168 0.252c6.91-8.603 15.439-15.599 25.165-20.597l0.435-0.203c-7.295-6.127-13.795-12.729-19.63-19.893l-0.21-0.267c-1.805-1.532-3.223-3.464-4.124-5.662l-0.036-0.098c-16.591-23.531-26.516-52.797-26.516-84.382 0-5.784 0.333-11.491 0.981-17.102l-0.064 0.684v-7.68c4.549-45.443 28.59-84.488 63.522-109.121l0.478-0.319c16.664-13.048 37.701-21.221 60.609-22.074l0.191-0.006c0.063 0 0.138 0 0.213 0 8.287 0 16.246 1.406 23.65 3.993l-0.503-0.153c8.932 2.896 16.661 6.474 23.858 10.841l-0.498-0.281c9.447-48.091 47.47-85.143 95.324-93.028l0.676-0.092h2.88c7.794 0.030 14.272 5.627 15.664 13.021l0.016 0.099c0.19 0.915 0.298 1.967 0.298 3.044 0 7.862-5.786 14.372-13.332 15.505l-0.086 0.011c-41.889 8.513-72.971 45.044-72.971 88.835 0 0.494 0.004 0.987 0.012 1.479l-0.001-0.074c1.177 1.661 2.248 3.554 3.12 5.554l0.080 0.206c3.198 8.311 5.051 17.926 5.051 27.975 0 13.139-3.167 25.538-8.78 36.476l0.21-0.45c-2.667 5.366-8.11 8.989-14.4 8.989-8.852 0-16.029-7.176-16.029-16.029 0-2.563 0.601-4.985 1.671-7.133l-0.042 0.093c3.534-6.445 5.612-14.121 5.612-22.282 0-5.665-1.001-11.095-2.836-16.125l0.104 0.327c-7.071-13.46-19.587-23.247-34.542-26.498l-0.338-0.062c-4.241-1.001-9.11-1.576-14.114-1.576-15.907 0-30.458 5.803-41.652 15.407l0.086-0.072c-27.11 19.164-45.704 48.827-49.863 82.947l-0.057 0.573v7.68c-0.121 2.843-0.189 6.179-0.189 9.531 0 11.196 0.767 22.212 2.25 33.001l-0.141-1.251c3.445-7.604 7.733-14.146 12.869-19.919l-0.069 0.079c12.314-12.854 29.618-20.843 48.787-20.843 0.848 0 1.693 0.016 2.534 0.047l-0.122-0.004c8.837 0 16 7.163 16 16s-7.163 16-16 16v0c-0.652-0.043-1.414-0.067-2.182-0.067-9.919 0-18.889 4.066-25.333 10.622l-0.005 0.005c-9.014 11.635-14.449 26.438-14.449 42.51 0 0.918 0.018 1.831 0.053 2.741l-0.004-0.131c10.785 12.070 22.863 22.624 36.118 31.567l0.682 0.433c48.32 32.96 134.080-53.76 163.2-89.92zM979.2 434.88c-6.746 9.701-12.026 21.016-15.197 33.183l-0.163 0.737c-1.244 4.365-1.96 9.377-1.96 14.557 0 10.592 2.992 20.484 8.176 28.879l-0.136-0.237c6.925 13.284 10.987 29.011 10.987 45.687 0 4.312-0.272 8.56-0.799 12.729l0.051-0.496c-2.716 26.458-14.433 49.765-31.993 67.193l-0.007 0.007c-8.175 9.394-15.592 19.871-21.908 31.053l-0.492 0.947c-6.687 12.622-11.337 27.353-13.070 42.965l-0.050 0.555c-2.427 22.697-9.49 43.317-20.228 61.51l0.388-0.71c-9.13 19.174-24.58 34.106-43.605 42.346l-0.555 0.214c-11.626 5.027-21.648 11.252-30.597 18.72l0.197-0.16c-11.591 7.73-19.728 19.858-22.040 33.947l-0.040 0.293c-3.051 16.279-10.541 30.454-21.154 41.636l0.034-0.036c-10.436 11.891-25.666 19.358-42.639 19.358-4.974 0-9.798-0.641-14.395-1.845l0.394 0.088c-4.802-1.291-10.314-2.032-16-2.032s-11.198 0.741-16.447 2.133l0.447-0.101c-7.772 1.726-14.323 6.087-18.821 12.077l-0.059 0.083c-9.006 12.274-23.377 20.153-39.589 20.153-1.949 0-3.871-0.114-5.761-0.335l0.229 0.022c-0.36 0.004-0.785 0.006-1.211 0.006-30.858 0-58.866-12.2-79.464-32.041l0.036 0.034c-2.579-2.741-4.164-6.443-4.164-10.516 0-0.128 0.002-0.256 0.005-0.383v0.019-925.44c-0.075-0.576-0.118-1.243-0.118-1.92s0.043-1.343 0.126-1.998l-0.008 0.078c1.6-5.12 15.68-50.24 106.24-50.24 2.517-0.201 5.45-0.315 8.41-0.315 42.449 0 79.398 23.548 98.497 58.293l0.293 0.582c31.548 2.534 60.584 11.001 86.761 24.288l-1.321-0.608c32.013 12.087 55.972 38.897 63.86 71.945l0.14 0.695c2.223 8.448 4.846 15.686 8.031 22.612l-0.351-0.852c2.645 7.648 7.436 13.989 13.65 18.484l0.11 0.076c16.189 13.203 28.412 30.696 34.981 50.748l0.219 0.772c9.093 16.42 14.444 36.003 14.444 56.836 0 8.771-0.949 17.321-2.749 25.551l0.144-0.787c-1.684 8.484-2.725 18.309-2.878 28.349l-0.002 0.131c0 12.8 2.24 15.040 7.68 20.16 13.459 12.897 21.823 31.018 21.823 51.092 0 1.051-0.023 2.096-0.068 3.136l0.005-0.148c0.613 4 0.963 8.616 0.963 13.312 0 19.813-6.23 38.17-16.839 53.22l0.195-0.292zM963.2 370.88c-1.6-22.4-6.72-27.52-12.48-32-10.731-9.596-17.454-23.482-17.454-38.938 0-1.5 0.063-2.985 0.187-4.453l-0.013 0.192c0.113-12.070 1.39-23.773 3.722-35.090l-0.202 1.17c1.241-5.662 1.952-12.166 1.952-18.836 0-16.601-4.405-32.174-12.109-45.612l0.237 0.448c-4.695-15.742-13.628-29.023-25.474-38.938l-0.126-0.102c-10.664-8.016-18.771-18.91-23.216-31.529l-0.144-0.471c-3.84-8.96-6.4-16.96-8.96-24.96-5.030-25.139-22.839-45.178-46.223-53.29l-0.497-0.15c-22.993-12.694-50.404-20.163-79.559-20.163-0.38 0-0.76 0.001-1.139 0.004h0.058c-0.563 0.069-1.215 0.108-1.876 0.108-7.457 0-13.746-5.002-15.695-11.833l-0.028-0.115s-12.16-48.32-80-48.32c-57.28 0-72 20.48-74.56 25.28v915.84c14.257 11.735 32.695 18.858 52.795 18.88h0.005c16 0 17.6-1.92 21.44-6.72 8.417-10.562 19.927-18.336 33.151-21.975l0.449-0.105c8.735-2.819 18.785-4.444 29.214-4.444 5.503 0 10.901 0.453 16.157 1.322l-0.571-0.078c13.76 1.92 18.88 2.56 29.44-8.96 7.004-7.301 11.831-16.74 13.406-27.244l0.034-0.276c4.015-21.201 15.604-39.17 31.788-51.367l0.212-0.153c10.7-8.894 22.931-16.509 36.131-22.331l0.989-0.389c12.16-5.76 18.24-8.32 32-32 8.594-14.122 14.327-30.883 15.967-48.828l0.033-0.452c2.129-20.108 8.041-38.433 17.020-54.839l-0.38 0.759c7.868-13.944 16.45-25.993 26.135-37.050l-0.215 0.25c13.135-13.003 21.838-30.461 23.656-49.919l0.024-0.321c0.305-2.457 0.48-5.3 0.48-8.185 0-12.247-3.141-23.76-8.662-33.777l0.183 0.362c-6.437-11.797-10.222-25.84-10.222-40.767 0-8.271 1.162-16.27 3.332-23.843l-0.149 0.61c4.297-16.413 10.887-30.809 19.526-43.717l-0.326 0.517c7.302-9.912 11.687-22.364 11.687-35.841 0-2.707-0.177-5.373-0.52-7.987l0.033 0.307zM398.72 960c-2.727 0.536-5.864 0.842-9.071 0.842-15.065 0-28.55-6.76-37.59-17.411l-0.059-0.071c-4.557-6.073-11.108-10.434-18.667-12.12l-0.213-0.040c-4.802-1.291-10.314-2.032-16-2.032s-11.198 0.741-16.447 2.133l0.447-0.101c-3.868 0.943-8.31 1.483-12.877 1.483-17.585 0-33.297-8.013-43.686-20.588l-0.077-0.096c-10.479-11.681-17.779-26.417-20.415-42.715l-0.065-0.485c-2.351-14.309-10.35-26.403-21.587-34.127l-0.173-0.113c-9.214-7.327-19.77-13.566-31.133-18.244l-0.867-0.316c-18.945-9.187-33.725-24.484-42.022-43.285l-0.218-0.555c-10.207-17.511-17.251-38.104-19.772-60.073l-0.068-0.727c-1.45-16.156-6.138-30.938-13.41-44.093l0.29 0.573c-6.713-12.138-14.028-22.616-22.294-32.255l0.214 0.255c-17.677-17.364-29.426-40.71-31.965-66.755l-0.035-0.445c-0.368-3.222-0.577-6.955-0.577-10.738 0-16.765 4.119-32.568 11.4-46.452l-0.263 0.55c4.57-7.85 7.268-17.277 7.268-27.335 0-5.424-0.785-10.664-2.246-15.614l0.099 0.389c-3.245-12.89-8.419-24.209-15.278-34.291l0.238 0.371c-10.627-14.652-17-32.992-17-52.821 0-4.736 0.363-9.386 1.064-13.926l-0.064 0.506c-0.040-0.892-0.063-1.937-0.063-2.988 0-20.075 8.364-38.196 21.798-51.068l0.025-0.024c5.44-5.12 7.68-7.36 7.68-20.16 0-0.082 0-0.18 0-0.277 0-9.985-1.049-19.725-3.042-29.116l0.162 0.913c-1.651-7.494-2.597-16.103-2.597-24.932 0-20.991 5.347-40.734 14.753-57.94l-0.316 0.631c6.858-20.861 19.193-38.362 35.311-51.357l0.209-0.163c6.237-4.654 11.001-10.966 13.672-18.284l0.088-0.276c3.2-7.68 5.44-14.72 7.68-21.76 7.806-33.852 31.854-60.754 63.302-72.413l0.698-0.227c24.856-12.679 53.892-21.146 84.619-23.627l0.821-0.053c19.32-36.163 56.816-60.353 99.962-60.353 2.321 0 4.626 0.070 6.912 0.208l-0.314-0.015c90.56 0 104.96 45.12 106.24 50.24 0.075 0.576 0.118 1.243 0.118 1.92s-0.043 1.343-0.126 1.998l0.008-0.078v925.76c0.090 0.649 0.141 1.398 0.141 2.159 0 3.772-1.255 7.251-3.371 10.042l0.030-0.041c-20.749 19.814-48.922 32.008-79.944 32.008-0.47 0-0.939-0.003-1.407-0.008l0.071 0.001zM451.52-6.72c-2.88-5.44-17.92-25.28-74.56-25.28-3.065-0.439-6.604-0.689-10.202-0.689-31.76 0-58.96 19.523-70.255 47.222l-0.183 0.507c-1.895 6.876-8.093 11.842-15.45 11.842-0.081 0-0.161-0.001-0.242-0.002h0.012c-0.701-0.011-1.527-0.017-2.356-0.017-28.835 0-55.924 7.478-79.433 20.601l0.828-0.424c-23.881 8.262-41.69 28.301-46.644 52.988l-0.076 0.452c-3.004 10.617-6.601 19.751-10.974 28.427l0.414-0.907c-4.589 13.090-12.696 23.984-23.188 31.876l-0.172 0.124c-11.972 10.017-20.905 23.298-25.454 38.474l-0.146 0.566c-7.402 12.754-11.771 28.064-11.771 44.394 0 6.949 0.791 13.714 2.288 20.209l-0.117-0.603c2.016 10.189 3.179 21.912 3.2 33.903v0.017c0.135 1.397 0.213 3.020 0.213 4.661 0 15.341-6.747 29.105-17.435 38.489l-0.058 0.050c-5.76 5.44-10.88 10.56-12.16 32-0.364 2.501-0.572 5.387-0.572 8.323 0 13.336 4.294 25.669 11.574 35.692l-0.121-0.175c8.455 12.365 15.061 26.782 18.998 42.264l0.202 0.936c2.094 7.016 3.299 15.078 3.299 23.422 0 14.877-3.831 28.859-10.56 41.013l0.221-0.435c-5.295 9.83-8.407 21.512-8.407 33.922 0 2.705 0.148 5.375 0.436 8.003l-0.029-0.325c1.513 20.097 10.151 37.929 23.363 51.203l-0.003-0.003c9.594 10.817 18.278 22.865 25.68 35.744l0.56 1.056c8.599 15.647 14.511 33.972 16.585 53.443l0.055 0.637c1.834 18.392 7.546 35.125 16.305 49.833l-0.305-0.553c12.8 22.4 18.88 24.96 32 32 14.181 5.816 26.421 13.019 37.452 21.692l-0.332-0.252c16.612 12.157 28.28 30.218 31.93 51.038l0.070 0.482c1.611 10.833 6.565 20.295 13.762 27.522l-0.002-0.002c10.24 11.52 15.36 10.88 29.44 8.96 4.672-0.806 10.052-1.266 15.54-1.266 10.336 0 20.291 1.633 29.62 4.656l-0.679-0.19c13.048 4.051 23.972 11.767 31.893 21.937l0.107 0.143c5.44 5.12 8.32 5.12 23.040 5.12 20.311-0.417 38.749-8.106 52.891-20.559l-0.091 0.079zM637.12 786.88c6.4 5.76 18.24 14.4 25.92 12.16 18.24-6.4 32-64 38.4-101.76l3.84-19.52c2.308-20.48 15.826-37.311 34.192-44.356l0.368-0.124c4.034-1.422 8.686-2.244 13.53-2.244 0.193 0 0.386 0.001 0.579 0.004h-0.029c30.961 5.024 57.833 19.751 78.029 40.907l0.051 0.053c2.923 2.9 4.733 6.919 4.733 11.36s-1.81 8.46-4.732 11.359l-0.001 0.001c-2.9 2.923-6.919 4.733-11.36 4.733s-8.46-1.81-11.359-4.732l-0.001-0.001c-15.36-14.4-44.8-32-59.52-29.12-5.76 1.92-10.24 8.96-12.8 20.8l-4.16 17.6c-11.84 57.28-23.68 114.88-60.8 128-3.953 0.952-8.491 1.497-13.157 1.497-17.569 0-33.331-7.737-44.065-19.99l-0.058-0.067c-3.412-2.895-5.563-7.186-5.563-11.98 0-4.007 1.503-7.664 3.977-10.436l-0.014 0.015c3.004-4.067 7.78-6.675 13.165-6.675 4.166 0 7.967 1.561 10.851 4.13l-0.016-0.014zM765.12 195.2c-0.401-0.036-0.867-0.057-1.338-0.057-2.799 0-5.426 0.733-7.7 2.018l0.078-0.041c-1.852 2.577-2.961 5.795-2.961 9.273 0 0.566 0.029 1.125 0.087 1.676l-0.006-0.069c0 13.44-9.92 27.2-32 27.52-48.071-3.016-86.378-40.992-89.901-88.643l-0.019-0.317c-0.345-3.136-0.542-6.772-0.542-10.454 0-40.859 24.233-76.057 59.11-92.008l0.631-0.259c0.866-0.146 1.863-0.229 2.88-0.229s2.014 0.083 2.986 0.243l-0.106-0.014c0.071-0.001 0.154-0.002 0.238-0.002 6.648 0 12.31 4.224 14.448 10.135l0.034 0.107c0.653 1.678 1.031 3.62 1.031 5.651 0 6.671-4.082 12.388-9.885 14.79l-0.106 0.039c-23.457 11.749-39.279 35.601-39.279 63.148 0 3.121 0.203 6.194 0.597 9.207l-0.038-0.355c0.601 20.766 12.044 38.731 28.843 48.491l0.277 0.149c8.193 5.552 18.228 8.975 29.043 9.278l0.077 0.002c0.017-12.71 5.561-24.122 14.357-31.963l0.043-0.037c7.604-5.751 17.219-9.212 27.643-9.212 2.555 0 5.062 0.208 7.504 0.608l-0.267-0.036c7.718 1.348 13.51 7.998 13.51 16 0 8.963-7.266 16.23-16.23 16.23-0.961 0-1.902-0.084-2.817-0.244l0.097 0.014z" />
<glyph unicode="&#xe920;" d="M870.72 728.96v0c-0.029 0-0.062 0-0.096 0-4.315 0-8.231-1.708-11.109-4.485l0.005 0.005c-2.956-2.946-4.789-7.018-4.8-11.518v-695.682c0.176-8.765 7.235-15.824 15.983-16h0.017c84.547 0.542 152.919 69.027 153.28 153.565v421.155c-0.542 84.371-68.883 152.6-153.246 152.96h-0.034zM992 154.88c-0.238-61.274-45.64-111.871-104.632-120.245l-0.648-0.075v661.44c59.533-8.433 104.877-58.86 105.28-119.958v-0.042zM783.36 729.28h-41.6v38.72c-0.181 65.848-53.512 119.179-119.343 119.36h-202.897c-65.848-0.181-119.179-53.512-119.36-119.343v-38.737h-44.16c-8.837 0-16-7.163-16-16v0-696c-0.033-0.383-0.051-0.83-0.051-1.28 0-8.837 7.163-16 16-16 0.018 0 0.036 0 0.054 0h527.357c8.837 0 16 7.163 16 16v0 697.28c0 8.837-7.163 16-16 16v0zM332.16 768c0.181 48.175 39.185 87.179 87.343 87.36h202.897c48.175-0.181 87.179-39.185 87.36-87.343v-38.737h-377.6zM768 32h-495.36v665.28h495.36zM168.96 729.28h-15.36c-84.646-0.181-153.237-68.66-153.6-153.245v-421.155c-0.002-0.285-0.003-0.623-0.003-0.96 0-84.896 68.732-153.739 153.586-153.92h15.377c8.837 0 16 7.163 16 16v0 697.28c0 8.837-7.163 16-16 16v0zM152.96 32c-66.922 0.542-120.964 54.918-120.964 121.916 0 0.339 0.001 0.678 0.004 1.016v-0.052 421.12c0.359 66.724 54.262 120.739 120.908 121.28h0.052z" />
<glyph unicode="&#xe921;" d="M656 352h-119.040v119.040c0 8.837-7.163 16-16 16v0c-8.765-0.176-15.824-7.235-16-15.983v-119.057h-119.040c-8.837 0-16-7.163-16-16v0c0-8.837 7.163-16 16-16v0h119.040v-119.040c0-8.837 7.163-16 16-16v0c8.837 0 16 7.163 16 16v0 119.040h119.040c8.837 0 16 7.163 16 16v0c0 8.837-7.163 16-16 16v0z" />
<glyph unicode="&#xe922;" glyph-name="briefcase" d="M785.6 729.28h-41.6v38.72c-0.181 65.848-53.512 119.179-119.343 119.36h-202.577c-65.848-0.181-119.179-53.512-119.36-119.343v-38.737h-43.84c-8.765-0.176-15.824-7.235-16-15.983v-696.017c0.176-8.765 7.235-15.824 15.983-16h526.737c8.837 0 16 7.163 16 16v0 696c0 8.837-7.163 16-16 16v0zM334.72 768c0 48.248 39.112 87.36 87.36 87.36v0h202.56c48.248 0 87.36-39.112 87.36-87.36v-38.72h-377.28zM769.6 32h-494.72v665.28h494.72zM171.52 729.28h-15.36c-84.711-0.18-153.376-68.621-153.92-153.228v-421.172c-0.001-0.19-0.001-0.415-0.001-0.64 0-85.072 68.874-154.058 153.904-154.24h15.377c8.765 0.176 15.824 7.235 16 15.983v697.297c-0.176 8.765-7.235 15.824-15.983 16h-0.017zM155.52 32c-66.947 0.362-121.1 54.627-121.28 121.583v422.417c0.361 66.835 54.445 120.919 121.245 121.28h0.035zM873.28 728.96v0c-0.029 0-0.062 0-0.096 0-4.315 0-8.231-1.708-11.109-4.485l0.005 0.005c-2.961-2.806-4.804-6.767-4.804-11.158 0-0.127 0.002-0.254 0.005-0.381v0.019-695.68c-0.001-0.055-0.001-0.119-0.001-0.183 0-4.347 1.844-8.263 4.792-11.008l0.009-0.008c2.872-2.884 6.815-4.699 11.181-4.8h0.019c84.483 0.544 152.78 69.066 152.96 153.583v421.137c-0.362 84.331-68.628 152.598-152.925 152.96h-0.035zM994.24 154.88c-0.071-61.232-45.388-111.858-104.312-120.244l-0.648-0.076v661.44c59.396-8.578 104.58-58.955 104.96-119.96v-0.040z" />
<glyph unicode="&#xe923;" d="M240.32 536.32h-121.28v-120.32h121.28zM119.040 50.56h121.28v120.96h-121.28zM121.6 232.96h120.96v120.96h-120.96zM460.16 536.32h-120.96v-120.32h120.96zM900.16 536.32h-120.96v-120.32h120.96zM680.32 536.32h-121.28v-120.32h121.28zM559.040 50.56h121.28v120.96h-121.28zM779.2 50.56h120.96v120.96h-120.96zM339.2 50.56h120.96v120.96h-120.96zM781.44 353.92v-120.96h120.96v120.96zM341.44 232.96h120.96v120.96h-120.96zM561.6 232.96h120.96v120.96h-120.96z" />
<glyph unicode="&#xe924;" d="M1024 623.68v0 198.080h-210.56v100.16c0 8.837-7.163 16-16 16s-16-7.163-16-16v0-100.16h-544v100.16c0 8.837-7.163 16-16 16s-16-7.163-16-16v0-100.16h-205.44v-880h1024v681.92zM206.72 789.76v-76.16c0-8.837 7.163-16 16-16s16 7.163 16 16v0 76.16h544v-76.16c0-8.837 7.163-16 16-16s16 7.163 16 16v0 76.16h177.28v-149.76h-960v149.76zM32-26.24v634.24h960v-634.24z" />
<glyph unicode="&#xe925;" d="M851.84 92.16c-0.055-0.001-0.119-0.001-0.183-0.001-4.347 0-8.263 1.844-11.008 4.792l-0.008 0.009-680.64 680c-2.866 2.866-4.639 6.826-4.639 11.2 0 8.748 7.091 15.839 15.839 15.839 4.374 0 8.334-1.773 11.2-4.639v0l681.6-680c2.829-2.884 4.575-6.839 4.575-11.202 0-8.758-7.036-15.872-15.763-15.998h-0.012z" />
<glyph unicode="&#xe926;" d="M512 928c265.097 0 480-214.903 480-480s-214.903-480-480-480c-265.097 0-480 214.903-480 480v0c0 265.097 214.903 480 480 480v0zM512 960v0c-282.77 0-512-229.23-512-512v0 0c0-282.77 229.23-512 512-512v0 0c282.77 0 512 229.23 512 512v0 0c0 282.77-229.23 512-512 512v0z" />
<glyph unicode="&#xe927;" glyph-name="cancer" d="M783.68 77.76l-155.52 265.92c5.177 0.711 9.491 3.861 11.799 8.234l0.041 0.086c44.8 83.84 102.080 193.92 106.56 204.48 0.142 0.914 0.223 1.967 0.223 3.040s-0.081 2.126-0.238 3.155l0.014-0.115v1.92c9.822 30.662 15.483 65.933 15.483 102.526 0 41.597-7.315 81.486-20.729 118.45l0.766-2.416c-3.2 11.52-6.72 22.4-10.24 32-1.086 2.361-2.724 4.307-4.755 5.73l-0.045 0.030c-2.948 46.193-27.454 86.099-63.476 110.072l-0.524 0.328c-7.702 4.454-16.769 8.761-26.189 12.354l-1.331 0.446c-27.925 10.135-60.157 15.997-93.758 16h-13.762c-33.127-0.329-64.761-6.282-94.135-16.947l1.975 0.627c-10.586-3.972-19.656-8.496-28.174-13.821l0.654 0.381c-36.444-23.848-60.953-63.331-63.977-108.694l-0.023-0.426c-1.901-1.53-3.419-3.458-4.44-5.663l-0.040-0.097c-3.52-10.56-7.040-21.44-10.24-32-12.791-34.661-20.191-74.693-20.191-116.453 0-36.797 5.745-72.251 16.388-105.516l-0.677 2.449v-1.92c-0.086-0.529-0.135-1.139-0.135-1.76s0.049-1.231 0.144-1.826l-0.009 0.066c12.814-30.4 26.42-56.163 41.94-80.589l-1.3 2.189c13.76-26.56 49.28-92.8 58.56-110.4l6.080-11.2c-1.518-1.047-2.793-2.322-3.808-3.791l-0.032-0.049c-72.96-128-147.2-256-174.080-299.52-1.653-2.478-2.637-5.524-2.637-8.8s0.985-6.322 2.674-8.859l-0.037 0.059 70.4-94.4c2.822-3.897 7.357-6.403 12.478-6.403 0.113 0 0.226 0.001 0.338 0.004h-0.017c5.517 0.314 10.282 3.271 13.080 7.614l163.88 270.466 163.52-269.76c2.838-4.409 7.603-7.366 13.076-7.678l0.044-0.002c0.055-0.001 0.119-0.001 0.183-0.001 5.493 0 10.34 2.768 13.221 6.986l0.036 0.055 78.4 116.8c2.324 2.839 3.733 6.506 3.733 10.503 0 2.21-0.431 4.32-1.213 6.249l0.040-0.111zM492.8 576c-27.84 47.040-42.88 72.96-51.52 86.72s-16 26.56-23.040 38.72c-9.189 15.939-18.939 35.494-27.621 55.617l-1.499 3.903c42.479 24.222 93.273 38.653 147.406 39.039l0.114 0.001c53.824-0.394 104.106-15.201 147.284-40.747l-1.364 0.747c-10.013-24.058-20.196-44.146-31.651-63.389l1.251 2.269q-9.92-17.6-22.080-37.44c-7.805-10.795-15.156-23.067-21.43-35.959l-0.65-1.481c-5.44-10.56-12.16-22.4-19.52-35.52l-49.6-91.84zM716.8 571.84c-0.149-0.77-0.235-1.655-0.235-2.56s0.085-1.79 0.249-2.648l-0.014 0.088c-7.68-15.68-56.32-111.36-100.8-195.2l-24.32 40.96-32 53.12 57.92 109.12 18.24 33.28c7.36 13.44 15.68 28.48 17.6 32 1.226 1.016 2.283 2.174 3.163 3.463l0.037 0.057 23.36 39.36c12.472 20.778 24.808 45.293 35.385 70.722l1.415 3.838c8.487-27.144 13.376-58.354 13.376-90.707 0-34.247-5.479-67.215-15.607-98.075l0.631 2.221zM425.28 903.36c6.387 3.637 13.883 7.090 21.682 9.912l1.038 0.328c23.764 8.733 51.204 13.975 79.811 14.398l0.189 0.002h13.44c0.554 0.005 1.209 0.007 1.865 0.007 29.055 0 56.905-5.163 82.681-14.622l-1.666 0.535c8.434-3.333 15.489-6.771 22.246-10.669l-0.806 0.429c30.385-19.854 50.183-53.707 50.183-92.184 0-7.12-0.678-14.082-1.973-20.825l0.11 0.688c-45.333 25.401-99.449 40.44-157.060 40.64h-0.060c-0.403 0.002-0.88 0.003-1.358 0.003-58.225 0-112.903-15.186-160.289-41.813l1.647 0.851c-1.164 6.009-1.829 12.919-1.829 19.984 0 38.513 19.778 72.407 49.732 92.079l0.417 0.257zM335.36-19.52l-49.92 66.56c28.8 48.96 98.56 168.96 162.56 281.28l48.64-79.68zM692.16-17.6l-209.6 345.92-29.76 55.68c-9.6 17.6-44.8 83.52-58.56 110.080-21.44 40.32-33.92 64-36.8 70.080v0c0.16 0.77 0.252 1.654 0.252 2.56s-0.092 1.79-0.267 2.645l0.014-0.085c-9.419 28.602-14.852 61.523-14.852 95.713 0 32.282 4.843 63.432 13.842 92.765l-0.591-2.237c11.342-28.592 23.157-52.6 36.597-75.541l-1.397 2.581c7.040-12.48 15.040-25.6 23.68-39.36s23.36-39.68 50.88-86.4l285.76-488.64z" />
<glyph unicode="&#xe928;" glyph-name="carrot---down" d="M1023.36 581.12l-524.48-381.76-499.2 381.76h1023.68z" />
<glyph unicode="&#xe929;" glyph-name="carrot---left" d="M686.72-64l-381.44 524.48 381.44 499.52v-1024z" />
<glyph unicode="&#xe92a;" glyph-name="carrot---right" d="M337.28 960l381.44-524.48-381.44-499.52v1024z" />
<glyph unicode="&#xe92b;" glyph-name="carrot---up" d="M0 231.36l524.48 381.76 499.52-381.76h-1024z" />
<glyph unicode="&#xe92c;" d="M704-64h-416c0 0 0 0-0.001 0-48.312 0-87.498 39.073-87.679 87.343v849.297c0.163 47.512 38.091 86.112 85.324 87.358l0.116 0.002h418.24c48.248 0 87.36-39.112 87.36-87.36v0-849.28c0-48.248-39.112-87.36-87.36-87.36v0zM285.76 928c0 0-0.001 0-0.001 0-30.639 0-55.498-24.747-55.679-55.343v-849.297c0.182-30.613 25.040-55.36 55.679-55.36 0 0 0.001 0 0.001 0h418.24c30.574 0 55.36 24.786 55.36 55.36v0 849.28c0 30.574-24.786 55.36-55.36 55.36v0z" />
<glyph unicode="&#xe92d;" d="M550.72 111.040c0-31.281-25.359-56.64-56.64-56.64s-56.64 25.359-56.64 56.64c0 31.281 25.359 56.64 56.64 56.64s56.64-25.359 56.64-56.64z" />
<glyph unicode="&#xe92e;" d="M185.6 499.84c-19.656-0.181-35.52-16.157-35.52-35.839 0-19.794 16.046-35.84 35.84-35.84s35.839 16.045 35.84 35.838v0c0 0 0 0.001 0 0.001 0 19.794-16.046 35.84-35.84 35.84-0.113 0-0.225-0.001-0.337-0.002h0.017zM330.24 497.92c-18.454-1.793-32.762-17.226-32.762-36s14.308-34.207 32.614-35.988l0.148-0.012c1.019-0.102 2.201-0.16 3.398-0.16 19.971 0 36.16 16.189 36.16 36.16s-16.189 36.16-36.16 36.16c-1.196 0-2.379-0.058-3.546-0.172l0.148 0.012zM474.88 496c-19.553-0.536-35.2-16.514-35.2-36.147 0-19.971 16.189-36.16 36.16-36.16 19.966 0 36.153 16.182 36.16 36.147v0.001c0 0.004 0 0.008 0 0.013 0 19.971-16.189 36.16-36.16 36.16-0.338 0-0.674-0.005-1.009-0.014l0.049 0.001zM1024 528c0 151.040-149.44 273.92-333.44 273.92-1.518 0.022-3.31 0.035-5.105 0.035-86.814 0-166.674-29.777-229.923-79.674l0.787 0.599c-3.69-3.016-6.026-7.567-6.026-12.664 0-3.809 1.305-7.314 3.493-10.091l-0.026 0.035c3.067-3.508 7.55-5.711 12.548-5.711 3.848 0 7.391 1.306 10.21 3.499l-0.037-0.028c56.954 44.914 129.755 72.040 208.892 72.040 1.824 0 3.645-0.014 5.462-0.043l-0.274 0.003c166.4 0 301.44-108.48 301.44-241.92 0-85.44-57.6-165.76-150.080-208.96-5.473-2.712-9.17-8.259-9.17-14.67 0-0.921 0.076-1.825 0.223-2.705l-0.013 0.095c5.824-35.965 15.746-68.23 29.46-98.408l-0.98 2.408c-42.941 17.141-78.98 43.722-106.848 77.324l-0.352 0.436c-3.133 3.964-7.942 6.486-13.339 6.486-0.599 0-1.191-0.031-1.774-0.092l0.073 0.006c-14.611-2.24-31.468-3.52-48.624-3.52-0.005 0-0.011 0-0.016 0v0c-0.313-0.001-0.684-0.002-1.055-0.002-33.766 0-66.467 4.555-97.524 13.085l2.578-0.604c-0.989 0.217-2.125 0.342-3.29 0.342-7.131 0-13.172-4.665-15.239-11.109l-0.031-0.113c-0.339-1.23-0.534-2.642-0.534-4.099 0-7.318 4.913-13.489 11.621-15.393l0.113-0.027c30.982-8.535 66.556-13.44 103.276-13.44 0.029 0 0.059 0 0.088 0h-0.005c4.539-0.207 9.862-0.325 15.213-0.325 10.641 0 21.172 0.467 31.576 1.381l-1.348-0.096c41.403-45.264 94.933-78.788 155.45-95.457l2.31-0.543h2.24c0.010 0 0.023 0 0.035 0 5.443 0 10.237 2.773 13.049 6.983l0.036 0.057c1.803 2.485 2.884 5.596 2.884 8.96s-1.081 6.475-2.915 9.005l0.031-0.045c-20.176 31.531-35.038 68.536-42.276 108.202l-0.284 1.878c90.576 41.609 153.233 129.809 157.423 233.075l0.017 0.525z" />
<glyph unicode="&#xe92f;" d="M128 93.44c-0.010 0-0.023 0-0.035 0-5.443 0-10.237 2.773-13.049 6.983l-0.036 0.057c-1.786 2.546-2.854 5.708-2.854 9.12s1.068 6.574 2.888 9.171l-0.034-0.051c20.231 31.42 35.101 68.326 42.282 107.911l0.278 1.849c-90.257 41.524-152.782 129.255-157.419 232.062l-0.021 0.578c0 151.040 149.44 274.88 333.44 274.88s333.44-122.88 333.44-273.92-149.76-273.92-333.44-273.92c-15.594 0.121-30.82 1.048-45.815 2.741l1.975-0.181c-41.403-45.264-94.933-78.788-155.45-95.457l-2.31-0.543zM333.44 704c-166.4 0-301.44-109.44-301.44-242.88 0-85.44 57.6-165.76 150.080-208.96 5.484-2.616 9.206-8.116 9.206-14.486 0-0.987-0.089-1.954-0.261-2.892l0.015 0.098c-5.824-35.965-15.746-68.23-29.46-98.408l0.98 2.408c42.888 17.259 78.902 43.816 106.853 77.332l0.347 0.428c2.956 4.492 7.975 7.417 13.678 7.417 0.48 0 0.954-0.021 1.423-0.061l-0.061 0.004c14.611-2.24 31.468-3.52 48.624-3.52 0.005 0 0.011 0 0.016 0v0c166.080 0 301.44 108.48 301.44 241.92s-135.36 241.6-301.44 241.6z" />
<glyph unicode="&#xe930;" d="M451.84 228.48c-3.467 0.017-6.68 1.091-9.336 2.917l0.056-0.037-215.36 146.56c-5.153 2.727-8.603 8.055-8.603 14.188 0 8.837 7.163 16 16 16 4.038 0 7.726-1.496 10.542-3.963l-0.018 0.016 204.48-138.88 345.28 355.84c2.884 2.828 6.838 4.574 11.2 4.574s8.316-1.746 11.203-4.576l-0.003 0.003c2.923-2.9 4.733-6.919 4.733-11.36s-1.81-8.46-4.732-11.359l-0.001-0.001-354.24-364.8c-2.77-3.089-6.75-5.045-11.187-5.12h-0.013z" />
<glyph unicode="&#xe931;" d="M512 928c265.097 0 480-214.903 480-480s-214.903-480-480-480c-265.097 0-480 214.903-480 480v0c0 265.097 214.903 480 480 480v0zM512 960v0c-282.77 0-512-229.23-512-512v0 0c0-282.77 229.23-512 512-512v0 0c282.77 0 512 229.23 512 512v0 0c0 282.77-229.23 512-512 512v0z" />
<glyph unicode="&#xe932;" glyph-name="check" d="M1019.2 803.52c-2.934 2.847-6.942 4.603-11.36 4.603s-8.426-1.755-11.364-4.607l0.004 0.004-634.24-653.76-337.28 229.12c-2.511 1.783-5.638 2.85-9.015 2.85-5.43 0-10.215-2.76-13.030-6.954l-0.036-0.056c-1.977-2.596-3.167-5.884-3.167-9.45 0-5.563 2.897-10.449 7.264-13.232l0.063-0.038 348.48-236.8c2.449-1.8 5.524-2.88 8.851-2.88 0.038 0 0.076 0 0.115 0h-0.006c4.502 0.011 8.574 1.844 11.52 4.8v0l643.52 663.68c2.829 2.884 4.575 6.839 4.575 11.201 0 4.521-1.875 8.604-4.89 11.514l-0.005 0.005z" />
<glyph unicode="&#xe933;" d="M512 928c265.097 0 480-214.903 480-480s-214.903-480-480-480c-265.097 0-480 214.903-480 480v0c0 265.097 214.903 480 480 480v0zM512 960v0c-282.77 0-512-229.23-512-512v0 0c0-282.77 229.23-512 512-512v0 0c282.77 0 512 229.23 512 512v0 0c0 282.77-229.23 512-512 512v0z" />
<glyph unicode="&#xe934;" d="M534.72 445.76l204.8 204.8c2.828 2.884 4.574 6.838 4.574 11.2s-1.746 8.316-4.576 11.203l0.003-0.003c-2.9 2.923-6.919 4.733-11.36 4.733s-8.46-1.81-11.359-4.732l-204.801-204.801-204.8 203.84c-2.9 2.923-6.919 4.733-11.36 4.733s-8.46-1.81-11.359-4.732l-0.001-0.001c-2.828-2.884-4.574-6.838-4.574-11.2s1.746-8.316 4.576-11.203l204.797-204.797-204.8-204.8c-2.847-2.934-4.603-6.942-4.603-11.36s1.755-8.426 4.607-11.364l-0.004 0.004c2.946-2.956 7.018-4.789 11.518-4.8h0.002c4.399 0.026 8.364 1.86 11.195 4.795l204.805 204.805 204.8-204.8c2.836-2.94 6.801-4.774 11.195-4.8h0.005c4.502 0.011 8.574 1.844 11.52 4.8v0c2.847 2.934 4.603 6.942 4.603 11.36s-1.755 8.426-4.607 11.364l0.004-0.004z" />
<glyph unicode="&#xe935;" glyph-name="close" d="M576 448l434.88 434.88c8.19 8.19 13.255 19.503 13.255 32 0 24.994-20.261 45.255-45.255 45.255-12.497 0-23.81-5.065-32-13.255l-434.88-434.88-434.88 434.88c-8.19 8.19-19.503 13.255-32 13.255-24.994 0-45.255-20.261-45.255-45.255 0-12.497 5.065-23.81 13.255-32l434.88-434.88-434.88-434.88c-8.145-8.21-13.179-19.517-13.179-32s5.034-23.79 13.182-32.003l-0.003 0.003c8.339-7.853 19.606-12.679 32-12.679s23.661 4.826 32.024 12.702l-0.024-0.022 434.88 434.88 434.88-434.88c8.19-8.19 19.503-13.255 32-13.255 24.994 0 45.255 20.261 45.255 45.255 0 12.497-5.065 23.81-13.255 32v0z" />
<glyph unicode="&#xe936;" d="M736 392c-8.837 0-16 7.163-16 16s7.163 16 16 16v0c3.167-0.244 6.859-0.383 10.583-0.383 80.943 0 146.56 65.617 146.56 146.56 0 0.922-0.009 1.842-0.025 2.76l0.002-0.138c0.002 0.287 0.003 0.626 0.003 0.965 0 89.154-71.911 161.512-160.894 162.235h-0.069c-2.154 0.152-4.667 0.238-7.2 0.238s-5.046-0.087-7.537-0.257l0.337 0.018c-0.265-0.015-0.575-0.024-0.887-0.024-8.181 0-14.983 5.903-16.378 13.683l-0.015 0.101c-14.403 102.606-101.602 180.699-207.040 180.699-115.405 0-208.96-93.555-208.96-208.96 0-0.077 0-0.154 0-0.231v0.012-9.28c0.019-0.289 0.030-0.627 0.030-0.967 0-4.247-1.724-8.092-4.51-10.873v0c-2.828-2.784-6.712-4.503-10.997-4.503-0.297 0-0.591 0.008-0.884 0.024l0.041-0.002h-3.52c-71.698-3.601-128.468-62.611-128.468-134.88s56.77-131.279 128.148-134.867l0.321-0.013c8.837 0 16-7.163 16-16s-7.163-16-16-16v0c-86.104 7.373-153.2 79.084-153.2 166.466 0 83.189 60.812 152.175 140.406 164.928l0.954 0.126c3.591 130.281 110.059 234.524 240.874 234.524 115.731 0 212.405-81.588 235.643-190.384l0.283-1.579h2.56c107.026-0.182 193.738-86.894 193.92-193.903v-0.017c0.022-1.057 0.035-2.304 0.035-3.553 0-98.793-80.087-178.88-178.88-178.88-3.953 0-7.876 0.128-11.765 0.381l0.529-0.028z" />
<glyph unicode="&#xe937;" d="M770.24 118.4c-2.954 4.506-7.981 7.44-13.693 7.44-3.097 0-5.993-0.863-8.46-2.361l0.072 0.041-226.88-141.12v482.88c0 8.837-7.163 16-16 16v0c-8.837 0-16-7.163-16-16v0-485.44l-219.52 143.36c-2.474 1.645-5.513 2.625-8.781 2.625-5.52 0-10.387-2.796-13.263-7.048l-0.036-0.056c-1.601-2.481-2.553-5.511-2.553-8.764 0-5.675 2.897-10.674 7.293-13.598l0.060-0.038 241.6-157.76c2.456-1.552 5.431-2.497 8.623-2.56h2.577c5.108 0.054 9.625 2.542 12.45 6.358l0.030 0.042 247.36 153.6c4.585 2.941 7.581 8.012 7.581 13.783 0 3.192-0.916 6.17-2.5 8.685l0.040-0.068z" />
<glyph unicode="&#xe938;" d="M741.12 406.080c-8.837 0-16 7.163-16 16v0c0 8.837 7.163 16 16 16v0c2.975-0.221 6.445-0.348 9.944-0.348 78.645 0 142.4 63.755 142.4 142.4 0 0.91-0.009 1.818-0.026 2.723l0.002-0.136c0 0 0 0 0 0 0 86.775-70.345 157.12-157.12 157.12-0.113 0-0.225 0-0.337 0h0.017c-2.106 0.157-4.563 0.246-7.040 0.246s-4.934-0.089-7.366-0.265l0.326 0.019c-0.588-0.075-1.268-0.118-1.959-0.118-7.808 0-14.336 5.484-15.942 12.81l-0.020 0.108c-14.166 99.429-98.733 175.036-200.96 175.036-111.934 0-202.695-90.648-202.88-202.539v-8.978c0.048-0.482 0.075-1.043 0.075-1.609 0-3.99-1.353-7.665-3.624-10.59l0.029 0.039c-2.921-2.78-6.882-4.491-11.243-4.491-0.21 0-0.419 0.004-0.627 0.012l0.030-0.001h-3.84c-72.283 0-130.88-58.597-130.88-130.88s58.597-130.88 130.88-130.88v0c8.837 0 16-7.163 16-16v0c0-8.837-7.163-16-16-16v0c-1.765-0.069-3.838-0.108-5.92-0.108-90.016 0-162.988 72.972-162.988 162.988 0 87.934 69.636 159.603 156.77 162.871l0.298 0.009c3.615 126.901 107.35 228.396 234.79 228.396 113.154 0 207.619-80.014 229.902-186.549l0.267-1.527h1.92c104.375-0.182 188.938-84.745 189.12-189.103v-0.017c0.009-0.644 0.013-1.405 0.013-2.167 0-96.495-78.225-174.72-174.72-174.72-3.269 0-6.517 0.090-9.742 0.267l0.448-0.020z" />
<glyph unicode="&#xe939;" d="M768 290.88l-221.44 144.64s0 0-2.56 0h-6.4c-4.502-0.011-8.574-1.844-11.52-4.8v0l-229.76-139.52c-4.561-2.878-7.547-7.89-7.547-13.6 0-8.852 7.176-16.027 16.027-16.027 3.142 0 6.072 0.904 8.546 2.466l-0.066-0.039 207.040 128v-440c0-8.837 7.163-16 16-16s16 7.163 16 16v0 441.28l197.44-128c2.719-2.205 6.222-3.54 10.037-3.54 8.837 0 16 7.163 16 16 0 6.067-3.377 11.345-8.353 14.058l-0.084 0.042z" />
<glyph unicode="&#xe93a;" glyph-name="cloud" d="M786.24 573.44h-6.080c-25.311 140.102-146.327 244.989-291.84 244.989-163.653 0-296.32-132.667-296.32-296.32 0-0.066 0-0.133 0-0.199v0.011c-107.562-6.213-192.435-94.955-192.435-203.521 0-112.393 90.963-203.541 203.286-203.839h589.468c135.68 0 231.68 93.12 231.68 221.44-0.182 131.174-106.561 237.44-237.76 237.44v0zM792.32 146.56h-588.48c-94.905 0-171.84 76.935-171.84 171.84s76.935 171.84 171.84 171.84v0h4.48c0.083-0.002 0.18-0.002 0.278-0.002 4.518 0 8.607 1.836 11.562 4.802v0c2.969 3.051 4.8 7.223 4.8 11.823 0 0.006 0 0.012 0 0.018v-0.001 5.12c-0.080 0.958-0.126 2.074-0.126 3.2s0.046 2.242 0.136 3.345l-0.009-0.145c-0.004 0.563-0.007 1.228-0.007 1.894 0 145.803 118.197 264 264 264 133.721 0 244.222-99.42 261.617-228.375l0.15-1.359c1.108-7.851 7.782-13.824 15.851-13.824 0.503 0 1.001 0.023 1.492 0.069l-0.063-0.005h18.24c0.001 0 0.001 0 0.002 0 113.301 0 205.213-91.575 205.758-204.748v-0.052c0-112-81.92-189.44-199.68-189.44z" />
<glyph unicode="&#xe93b;" glyph-name="cursor" d="M841.6 366.72l-573.12 588.48c-2.898 3.537-7.265 5.775-12.156 5.775-1.955 0-3.826-0.358-5.552-1.011l0.108 0.036c-5.894-2.447-9.964-8.157-9.964-14.818 0-0.416 0.016-0.828 0.047-1.237l-0.003 0.054v-853.76c0-0.032 0-0.070 0-0.108 0-5.912 3.34-11.044 8.236-13.612l0.084-0.040c2.348-1.345 5.161-2.138 8.16-2.138s5.812 0.793 8.242 2.181l-0.082-0.043 182.4 117.44 119.040-248.96c1.593-4.148 4.811-7.367 8.855-8.924l0.105-0.036c0.77-0.146 1.655-0.229 2.56-0.229s1.79 0.083 2.649 0.243l-0.089-0.014c0.027 0 0.059 0 0.091 0 2.673 0 5.18 0.713 7.341 1.958l-0.071-0.038 163.2 85.12c5.179 2.805 8.637 8.198 8.637 14.399 0 2.56-0.589 4.982-1.64 7.138l0.043-0.097-121.92 240 197.76 55.68c5.426 1.588 9.612 5.774 11.171 11.085l0.029 0.115c0.331 1.216 0.521 2.611 0.521 4.051 0 4.416-1.789 8.414-4.681 11.309v0zM608 309.76c-4.624-1.358-8.306-4.621-10.199-8.858l-0.041-0.102c-0.903-2.027-1.429-4.392-1.429-6.88s0.526-4.853 1.472-6.99l-0.044 0.11 123.52-242.88-134.4-70.4-118.080 250.24c-2.101 4.135-5.727 7.24-10.12 8.608l-0.12 0.032h-4.16c-3.212-0.009-6.2-0.962-8.701-2.598l0.061 0.038-172.8-111.040v785.6l527.040-540.8z" />
<glyph unicode="&#xe93c;" d="M373.44 480c1.664-0.093 3.612-0.146 5.572-0.146 56.989 0 103.53 44.737 106.418 101.008l0.011 0.258c0.153 1.963 0.24 4.251 0.24 6.56s-0.087 4.597-0.259 6.861l0.018-0.301c0.163 2.198 0.255 4.762 0.255 7.347 0 55.66-42.932 101.292-97.487 105.589l-0.368 0.023c-2.154 0.153-4.667 0.24-7.2 0.24s-5.046-0.087-7.536-0.258l0.336 0.019c-1.68 0.096-3.646 0.15-5.625 0.15-56.122 0-102.019-43.781-105.4-99.053l-0.015-0.297c0-4.8 0-9.6 0-14.4-0.281-2.878-0.441-6.221-0.441-9.602 0-54.906 42.287-99.934 96.070-104.294l0.372-0.024c1.71-0.122 3.705-0.192 5.716-0.192 3.285 0 6.526 0.186 9.714 0.548l-0.39-0.036zM330.88 594.24c0 40.64 16 61.44 42.56 61.44s41.6-18.56 41.6-61.44-16-60.16-42.24-60.16v0c-25.92-1.28-41.92 18.88-41.92 59.2zM641.92 707.2l-337.28-518.4h72.32l336.96 518.4zM755.52 303.040c0.229 2.605 0.36 5.637 0.36 8.699 0 55.004-42.182 100.157-95.962 104.873l-0.398 0.028c-2.159 0.229-4.664 0.359-7.2 0.359s-5.041-0.13-7.509-0.385l0.309 0.026c-1.579 0.084-3.427 0.132-5.287 0.132-56.406 0-102.513-44.090-105.74-99.687l-0.013-0.285c0-4.48 0-9.28 0-14.080-0.263-2.789-0.414-6.031-0.414-9.309 0-54.96 42.241-100.053 96.029-104.585l0.384-0.026c2.35-0.23 5.080-0.362 7.84-0.362s5.49 0.131 8.183 0.388l-0.343-0.026c1.56-0.082 3.386-0.129 5.223-0.129 56.855 0 103.248 44.796 105.809 101.018l0.008 0.23c-0.116 4.723-0.577 9.248-1.36 13.662l0.080-0.542zM644.16 242.24c-27.2 0-42.56 20.48-42.56 60.8s16 61.12 42.88 61.12 43.52-20.48 43.52-61.12-18.24-60.48-43.84-60.8z" />
<glyph unicode="&#xe93d;" d="M13.44 598.4c8.837 0 16 7.163 16 16v0 166.4c0 8.837-7.163 16-16 16v0c-8.837 0-16-7.163-16-16v0-166.4c0-8.837 7.163-16 16-16v0zM343.040-32h-166.4c-8.837 0-16-7.163-16-16s7.163-16 16-16v0h166.4c8.837 0 16 7.163 16 16s-7.163 16-16 16v0zM592.64-32h-166.4c-8.837 0-16-7.163-16-16s7.163-16 16-16v0h166.4c8.837 0 16 7.163 16 16s-7.163 16-16 16v0zM343.040 960h-166.4c-0.191 0.008-0.415 0.013-0.64 0.013-8.837 0-16-7.163-16-16 0-0.004 0-0.009 0-0.013v0.001c0-8.837 7.163-16 16-16v0h166.4c8.837 0 16 7.163 16 16s-7.163 16-16 16v0zM93.44 960h-80c-8.837 0-16-7.163-16-16v0-80c0-8.837 7.163-16 16-16v0c8.837 0 16 7.163 16 16v0 64h64c8.837 0 16 7.163 16 16s-7.163 16-16 16v0zM13.44 348.8c8.837 0 16 7.163 16 16v0 166.4c0 8.837-7.163 16-16 16v0c-8.837 0-16-7.163-16-16v0-166.4c0-8.837 7.163-16 16-16v0zM13.44 99.2c8.837 0 16 7.163 16 16v0 166.4c0 8.837-7.163 16-16 16v0c-8.837 0-16-7.163-16-16v0-166.4c0-8.837 7.163-16 16-16v0zM93.44-32h-64v64c0 8.837-7.163 16-16 16v0c-8.837 0-16-7.163-16-16v0-80c0-8.837 7.163-16 16-16v0h80c8.837 0 16 7.163 16 16s-7.163 16-16 16v0zM842.24-32h-166.4c-8.837 0-16-7.163-16-16s7.163-16 16-16v0h166.4c8.837 0 16 7.163 16 16s-7.163 16-16 16v0zM1005.44 796.8c-8.837 0-16-7.163-16-16v0-166.4c0-8.837 7.163-16 16-16v0c8.837 0 16 7.163 16 16v0 166.4c0 8.837-7.163 16-16 16v0zM1005.44 960h-80c-8.837 0-16-7.163-16-16v0c0-8.837 7.163-16 16-16v0h64v-64c0-8.837 7.163-16 16-16v0c8.837 0 16 7.163 16 16v0 80c0 8.837-7.163 16-16 16v0zM1005.44 547.2c-8.837 0-16-7.163-16-16v0-166.4c0-8.837 7.163-16 16-16v0c8.837 0 16 7.163 16 16v0 166.4c0 8.837-7.163 16-16 16v0zM842.24 960h-166.4c-8.837 0-16-7.163-16-16v0c0-8.837 7.163-16 16-16v0h166.4c8.837 0 16 7.163 16 16s-7.163 16-16 16v0zM1005.44 297.6c-8.837 0-16-7.163-16-16v0-166.4c0-8.837 7.163-16 16-16v0c8.837 0 16 7.163 16 16v0 166.4c0 8.837-7.163 16-16 16v0zM592.64 960h-166.4c-8.837 0-16-7.163-16-16v0c0-8.837 7.163-16 16-16v0h166.4c8.837 0 16 7.163 16 16s-7.163 16-16 16v0zM1005.44 48c-8.837 0-16-7.163-16-16v0-64h-64c-8.837 0-16-7.163-16-16s7.163-16 16-16v0h80c8.837 0 16 7.163 16 16v0 80c0 8.837-7.163 16-16 16v0z" />
<glyph unicode="&#xe93e;" d="M334.72 596.8c66.451 0 120.32 53.869 120.32 120.32s-53.869 120.32-120.32 120.32c-66.451 0-120.32-53.869-120.32-120.32v0c0.182-66.378 53.942-120.138 120.303-120.32h0.017zM334.72 805.44c48.778 0 88.32-39.542 88.32-88.32s-39.542-88.32-88.32-88.32c-48.778 0-88.32 39.542-88.32 88.32v0c0 48.778 39.542 88.32 88.32 88.32v0zM443.52 515.52h-217.6c-71.68 0-119.68-42.56-119.68-105.92 0-8.837 7.163-16 16-16s16 7.163 16 16v0c0 54.4 45.12 73.92 87.68 73.92h217.6c42.24 0 87.68-19.52 87.68-73.92 0-8.837 7.163-16 16-16s16 7.163 16 16v0c0 63.36-48 105.92-119.68 105.92z" />
<glyph unicode="&#xe93f;" d="M1019.2-36.8l-437.12 437.44c53.943 59.164 86.981 138.204 86.981 224.96 0 184.663-149.682 334.366-334.337 334.4h-0.003c-184.861 0-334.72-149.859-334.72-334.72s149.859-334.72 334.72-334.72v0c86.515 0.002 165.274 33.208 224.229 87.568l-0.229-0.208 438.080-437.12c2.809-2.988 6.787-4.849 11.2-4.849s8.391 1.861 11.193 4.841l0.007 0.008c2.988 2.809 4.849 6.787 4.849 11.2s-1.861 8.391-4.841 11.193l-0.008 0.007zM120.64 411.2c-54.796 54.784-88.689 130.474-88.689 214.080s33.893 159.296 88.689 214.079l0.001 0.001c54.788 54.788 130.477 88.675 214.080 88.675 167.207 0 302.755-135.548 302.755-302.755 0-83.603-33.887-159.292-88.675-214.080v0c-54.784-54.796-130.474-88.689-214.080-88.689s-159.296 33.893-214.079 88.689l-0.001 0.001z" />
<glyph unicode="&#xe940;" d="M677.12 337.6c11.2 34.88 51.2 174.080-14.72 218.24-2.514 1.661-5.598 2.649-8.914 2.649-5.581 0-10.507-2.801-13.45-7.074l-0.036-0.055c-1.645-2.474-2.625-5.513-2.625-8.781 0-5.52 2.796-10.387 7.048-13.263l0.056-0.036c40.96-27.52 16.64-135.68 2.56-180.8-8.332 2.124-17.896 3.343-27.745 3.343-45.174 0-84.359-25.646-103.788-63.172l-0.307-0.651-38.72-96c-3.345-6.148-5.311-13.464-5.311-21.239 0-4.872 0.772-9.564 2.201-13.96l-0.090 0.319c1.932-5.152 4.528-9.602 7.746-13.522l-0.066 0.082c-0.069-0.786-0.108-1.701-0.108-2.625 0-13.084 7.853-24.335 19.103-29.295l0.205-0.081c4.094-2.041 8.918-3.235 14.021-3.235 17.673 0 32 14.327 32 32s-14.327 32-32 32c-3.881 0-7.601-0.691-11.042-1.956l0.222 0.071c0.354 2.622 1.027 4.996 1.988 7.216l-0.068-0.176 38.72 97.92c14.99 26.908 43.27 44.809 75.73 44.809 12.913 0 25.163-2.833 36.165-7.91l-0.536 0.222c32.964-11.101 56.283-41.73 56.283-77.805 0-8.43-1.273-16.562-3.638-24.215l0.154 0.58-39.68-99.2c-0.801-1.833-1.766-3.413-2.912-4.841l0.032 0.041c-3.444 5.501-8.359 9.798-14.197 12.399l-0.203 0.081c-4.775 2.987-10.575 4.758-16.789 4.758-17.673 0-32-14.327-32-32 0-15.346 10.803-28.17 25.219-31.28l0.211-0.038c3.258-1.224 7.023-1.933 10.954-1.933 10.579 0 19.958 5.133 25.784 13.045l0.062 0.088c1.153-0.147 2.487-0.231 3.84-0.231s2.687 0.084 3.996 0.247l-0.156-0.016c12.137 4.712 21.494 14.279 25.823 26.252l0.097 0.308 40 100.48c3.514 10.452 5.542 22.488 5.542 34.997 0 45.67-27.026 85.028-65.958 102.952l-0.704 0.29zM375.040 376s0 0 0 2.24c-8.64 64-7.36 130.24 0 138.88 1.255-0.37 2.698-0.582 4.189-0.582 7.329 0 13.459 5.133 14.991 12l0.019 0.102c0.314 1.184 0.494 2.544 0.494 3.946 0 7.536-5.21 13.855-12.225 15.552l-0.109 0.022c-2.121 0.559-4.556 0.88-7.066 0.88-7.529 0-14.383-2.889-19.514-7.618l0.020 0.018c-28.48-25.6-18.56-125.76-12.8-167.36-0.088-0.816-0.138-1.762-0.138-2.72s0.050-1.904 0.148-2.836l-0.010 0.116c-17.81-10.109-29.63-28.945-29.63-50.541 0-31.988 25.932-57.92 57.92-57.92s57.92 25.932 57.92 57.92c0 31.471-25.1 57.080-56.374 57.9l-0.076 0.002z" />
<glyph unicode="&#xe941;" d="M512 832c-101.444 0-183.68-82.236-183.68-183.68s82.236-183.68 183.68-183.68c101.444 0 183.68 82.236 183.68 183.68v0c0 101.444-82.236 183.68-183.68 183.68v0zM512 496.64c-83.771 0-151.68 67.909-151.68 151.68s67.909 151.68 151.68 151.68c83.771 0 151.68-67.909 151.68-151.68v0c-0.363-83.56-68.095-151.179-151.663-151.36h-0.017zM512 960c-282.77 0-512-229.23-512-512s229.23-512 512-512c282.77 0 512 229.23 512 512v0c0 282.77-229.23 512-512 512v0zM869.44 128v184.32c0 96-73.28 160-182.72 160-8.837 0-16-7.163-16-16s7.163-16 16-16v0c69.44 0 150.72-33.6 150.72-128v-216.32c-85.054-79.302-199.562-127.984-325.44-127.984s-240.386 48.682-325.724 128.246l0.284-0.262v216.32c0 96 81.28 128 150.72 128 8.837 0 16 7.163 16 16s-7.163 16-16 16v0c-109.44 0-182.72-64-182.72-160v-184.32c-76.049 84.578-122.56 197.042-122.56 320.37 0 265.097 214.903 480 480 480s480-214.903 480-480c0-123.327-46.511-235.792-122.948-320.809l0.388 0.439z" />
<glyph unicode="&#xe942;" d="M876.48 240c-17.673 0-32-14.327-32-32v0-208h-657.6v208c0 17.673-14.327 32-32 32s-32-14.327-32-32v0-240c0-17.673 14.327-32 32-32v0h721.6c17.673 0 32 14.327 32 32v0 240c0 17.673-14.327 32-32 32v0z" />
<glyph unicode="&#xe943;" d="M888.32 445.12c-5.756 9.052-15.733 14.972-27.093 14.972-6.197 0-11.982-1.761-16.882-4.811l0.136 0.079-305.92-190.080v662.72c0 17.673-14.327 32-32 32s-32-14.327-32-32v0-663.68l-292.16 192c-4.906 3.214-10.916 5.127-17.373 5.127-17.673 0-32-14.327-32-32 0-1.81 0.15-3.586 0.439-5.314l-0.026 0.187c1.909-8.524 7.010-15.61 13.954-20.084l0.126-0.076 339.52-221.76c4.855-3.304 10.821-5.32 17.25-5.44h2.27c8.944 0.128 16.981 3.906 22.708 9.907l0.012 0.013 348.8 216.96c8.448 5.845 13.912 15.483 13.912 26.397 0 5.443-1.359 10.568-3.755 15.055l0.084-0.172z" />
<glyph unicode="&#xe944;" glyph-name="ellipses" d="M613.12 448c0-56.377-45.703-102.080-102.080-102.080s-102.080 45.703-102.080 102.080c0 56.377 45.703 102.080 102.080 102.080s102.080-45.703 102.080-102.080zM203.2 453.76c0-56.377-45.703-102.080-102.080-102.080s-102.080 45.703-102.080 102.080c0 56.377 45.703 102.080 102.080 102.080s102.080-45.703 102.080-102.080zM1023.040 442.24c0-56.377-45.703-102.080-102.080-102.080s-102.080 45.703-102.080 102.080c0 56.377 45.703 102.080 102.080 102.080s102.080-45.703 102.080-102.080z" />
<glyph unicode="&#xe945;" d="M681.6 605.12c0.001-0.157 0.001-0.343 0.001-0.529 0-29.533-9.348-56.884-25.246-79.253l0.285 0.422c-13.199-17.772-34.124-29.162-57.708-29.162-0.862 0-1.721 0.015-2.576 0.045l0.124-0.003c-1.326-0.133-2.866-0.208-4.424-0.208-21.731 0-40.020 14.735-45.421 34.759l-0.076 0.329c-6.634-10.694-15.328-19.49-25.593-26.045l-0.327-0.195c-8.451-5.352-18.723-8.56-29.738-8.64h-0.022c-0.682-0.034-1.482-0.053-2.285-0.053-17.957 0-33.686 9.543-42.391 23.834l-0.124 0.219c-7.96 14.331-12.646 31.43-12.646 49.623 0 6.096 0.526 12.069 1.535 17.876l-0.089-0.619c1.702 22.591 7.306 43.476 16.144 62.556l-0.464-1.116c7.462 16.863 18.324 31.008 31.804 42.084l0.196 0.156c11.312 9.435 25.896 15.293 41.837 15.678l0.083 0.002c0.32 0.004 0.698 0.006 1.077 0.006 10.359 0 20.335-1.641 29.683-4.677l-0.679 0.191c11.516-4.596 21.454-10.524 30.28-17.759l-0.2 0.159-10.88-115.52c-2.56-32 6.4-48.32 26.88-48.32 0.171-0.002 0.373-0.004 0.576-0.004 16.648 0 31.144 9.212 38.669 22.817l0.115 0.227c9.866 17.13 15.686 37.671 15.686 59.571 0 0.432-0.002 0.863-0.007 1.294l0.001-0.066c0.902 6.747 1.417 14.548 1.417 22.468 0 37.893-11.782 73.034-31.884 101.96l0.387-0.588c-23.061 26.398-56.786 42.981-94.383 42.981-3.61 0-7.185-0.153-10.717-0.453l0.461 0.031c-0.378 0.004-0.824 0.006-1.27 0.006-26.556 0-51.33-7.629-72.25-20.816l0.561 0.33c-22.295-14.86-39.822-35.264-50.837-59.277l-0.363-0.883c-12.486-26.439-20.172-57.329-21.112-89.909l-0.008-0.331c-0.357-4.66-0.56-10.093-0.56-15.572 0-26.563 4.781-52.009 13.529-75.526l-0.488 1.498c8.969-24.277 24.892-44.228 45.336-57.971l0.424-0.269c19.927-12.687 44.211-20.22 70.255-20.22 1.401 0 2.798 0.022 4.189 0.065l-0.204-0.005c12.832 0.247 25.16 1.866 37.008 4.717l-1.168-0.237c12.092 2.583 22.784 6.446 32.74 11.544l-0.74-0.344 7.68-23.68c-9.863-5.869-21.297-10.503-33.438-13.285l-0.802-0.155c-12.866-3.254-27.636-5.121-42.842-5.121-0.238 0-0.477 0-0.715 0.001h0.037c-1.359-0.040-2.958-0.063-4.562-0.063-31.389 0-60.744 8.708-85.781 23.84l0.743-0.417c-25.109 16.127-44.499 39.229-55.656 66.567l-0.344 0.953c-10.643 25.957-16.82 56.084-16.82 87.654 0 5.413 0.182 10.784 0.539 16.107l-0.039-0.721c1.054 38.183 10.511 73.919 26.575 105.752l-0.655-1.432c14.693 29.445 36.521 53.429 63.283 70.298l0.717 0.422c24.964 15.863 55.376 25.28 87.987 25.28 0.004 0 0.009 0 0.013 0h-0.001c1.454 0.047 3.164 0.073 4.88 0.073 31.070 0 60.104-8.717 84.791-23.838l-0.71 0.404c24.951-15.882 44.093-38.947 54.72-66.267l0.32-0.933c10.352-25.613 16.358-55.317 16.358-86.424 0-6.298-0.246-12.539-0.73-18.712l0.051 0.817zM467.84 587.52c-0.685-3.932-1.077-8.461-1.077-13.081 0-11.713 2.517-22.838 7.040-32.864l-0.204 0.504c4.611-9.379 14.097-15.72 25.063-15.72 0.526 0 1.049 0.015 1.569 0.043l-0.072-0.003c9.428 0.319 17.868 4.299 23.994 10.554l0.006 0.006c8.575 8.753 15.171 19.479 19.041 31.432l0.159 0.568v1.92l9.6 104.64c-7.183 3.832-15.709 6.083-24.761 6.083-0.182 0-0.365-0.001-0.547-0.003h0.028c-17.325-0.538-32.268-10.239-40.196-24.399l-0.124-0.241c-11.378-20.016-18.489-43.793-19.51-69.138l-0.010-0.302z" />
<glyph unicode="&#xe946;" d="M1020.16 455.36c0.075 0.385 0.117 0.827 0.117 1.28s-0.043 0.895-0.124 1.324l0.007-0.044c-0.446 1.1-0.984 2.049-1.625 2.916l0.025-0.036v2.24l-2.56 1.92h-5.12c-0.529 0.089-1.139 0.139-1.76 0.139s-1.231-0.051-1.825-0.148l0.065 0.009h-5.44l-73.92-21.44v444.48c-0.176 8.765-7.235 15.824-15.983 16h-806.097c-8.765-0.176-15.824-7.235-16-15.983v-441.937l-64 21.76h-10.88c-1.168-0.346-2.15-1.018-2.872-1.909l-0.008-0.011h-2.24v-2.24c-0.050-0.432-0.079-0.933-0.079-1.44s0.029-1.008 0.085-1.5l-0.006 0.060c-0.075-0.385-0.117-0.827-0.117-1.28s0.043-0.895 0.124-1.324l-0.007 0.044c-0.068-0.385-0.107-0.828-0.107-1.28s0.039-0.895 0.114-1.326l-0.007 0.046v-480c0-8.837 7.163-16 16-16v0h978.88c8.837 0 16 7.163 16 16v0 477.12s-0.64 1.6-0.64 2.56zM121.92 872h774.080v-439.36l-384-131.84-390.080 134.4zM37.12-9.6v440l470.72-161.6c0.77-0.16 1.654-0.252 2.56-0.252s1.79 0.092 2.645 0.267l-0.085-0.014c0.77-0.149 1.655-0.235 2.56-0.235s1.79 0.085 2.648 0.249l-0.088-0.014 470.72 161.6v-440z" />
</font>
</defs>
</svg>
