<?xml version="1.0" encoding="utf-8"?>
<!-- Generator: Adobe Illustrator 19.0.1, SVG Export Plug-In . SVG Version: 6.00 Build 0)  -->
<svg version="1.1" id="steamboat" xmlns="http://www.w3.org/2000/svg" xmlns:xlink="http://www.w3.org/1999/xlink" x="0px" y="0px"
	 viewBox="0 0 161.4 77.3" style="enable-background:new 0 0 161.4 77.3;" xml:space="preserve">
<style type="text/css">
	.st0{fill:#F1605C;}
	.st1{fill:#2B2C2B;}
	.st2{fill:#FFFFFF;}
</style>
<g>
	<g>
		
			<rect x="12.3" y="54.8" transform="matrix(-0.6707 -0.7418 0.7418 -0.6707 -26.8948 118.0505)" class="st0" width="0.8" height="20.5"/>
	</g>
	<g>
		
			<rect x="2.5" y="64.6" transform="matrix(-0.6706 -0.7418 0.7418 -0.6706 -26.8947 118.048)" class="st0" width="20.5" height="0.8"/>
	</g>
	<g>
		
			<rect x="2.5" y="64.6" transform="matrix(-0.9987 -5.026930e-02 5.026930e-02 -0.9987 22.2388 130.548)" class="st0" width="20.5" height="0.8"/>
	</g>
	<g>
		
			<rect x="12.3" y="54.7" transform="matrix(-0.9988 -4.853424e-02 4.853424e-02 -0.9988 22.3527 130.5315)" class="st0" width="0.8" height="20.5"/>
	</g>
	<g>
		<g>
			
				<rect x="2.5" y="64.6" transform="matrix(-0.9382 0.3461 -0.3461 -0.9382 47.2307 121.5509)" class="st0" width="20.5" height="0.8"/>
		</g>
		<g>
			
				<rect x="12.4" y="54.7" transform="matrix(-0.9388 0.3446 -0.3446 -0.9388 47.1374 121.6115)" class="st0" width="0.8" height="20.5"/>
		</g>
		<g>
			
				<rect x="2.5" y="64.6" transform="matrix(-0.9081 -0.4187 0.4187 -0.9081 -2.8658 129.3598)" class="st0" width="20.5" height="0.8"/>
		</g>
		<g>
			
				<rect x="12.4" y="54.7" transform="matrix(-0.9082 -0.4185 0.4185 -0.9082 -2.8473 129.3632)" class="st0" width="0.8" height="20.5"/>
		</g>
	</g>
	<g>
		<path class="st0" d="M7.2,58.8c3.4-3.1,8.6-2.8,11.7,0.6c3.1,3.4,2.8,8.6-0.6,11.7c-3.4,3.1-8.6,2.8-11.7-0.6
			C3.5,67.1,3.8,61.9,7.2,58.8z M7.7,59.4c-3,2.7-3.3,7.5-0.5,10.5c2.7,3,7.5,3.3,10.5,0.5c3-2.7,3.3-7.5,0.5-10.5
			C15.5,56.9,10.8,56.7,7.7,59.4z"/>
	</g>
	<g>
		<circle class="st0" cx="12.7" cy="65" r="2.1"/>
	</g>
</g>
<g>
	<rect x="2.7" y="68" class="st1" width="23.5" height="1"/>
	<path class="st1" d="M2.4,67.7h24v1.6h-24V67.7z M25.9,68.2H2.9v0.5h22.9V68.2z"/>
</g>
<g>
	<g>
		<ellipse class="st1" cx="129.3" cy="23.3" rx="1.4" ry="0.7"/>
	</g>
	<g>
		<rect x="128.4" y="23.4" class="st1" width="1.8" height="16.1"/>
	</g>
	<g>
		<rect x="128.1" y="37.3" class="st1" width="2.6" height="9"/>
	</g>
</g>
<g>
	<polygon class="st2" points="24.6,53.4 145,53.4 145,69.9 109.7,70.6 78.8,71.2 50.8,72 31.9,70.1 24.6,67.7 	"/>
</g>
<g>
	<path class="st1" d="M159.3,67.7c0,0-91.2,0-134.7,0c0,0,0.7,4.9,14.8,4.9c14.1,0,109.8,0,109.8,0S152.7,74.1,159.3,67.7z"/>
</g>
<g>
	<rect x="95.6" y="30" class="st2" width="24.3" height="16.2"/>
</g>
<g>
	<rect x="82.2" y="39.2" class="st2" width="1" height="7"/>
</g>
<g>
	<rect x="69.5" y="39.2" class="st2" width="1" height="7"/>
</g>
<g>
	<rect x="56.9" y="39.2" class="st2" width="1" height="7"/>
</g>
<g>
	<rect x="44.3" y="39.2" class="st2" width="1" height="7"/>
</g>
<g>
	<rect x="31.6" y="39.2" class="st2" width="1" height="7"/>
</g>
<g>
	<g>
		<rect x="134.5" y="57.6" class="st1" width="4.3" height="4.3"/>
	</g>
	<g>
		<rect x="127.9" y="57.6" class="st1" width="4.3" height="4.3"/>
	</g>
	<g>
		<rect x="121.3" y="57.6" class="st1" width="4.3" height="4.3"/>
	</g>
	<g>
		<rect x="114.7" y="57.6" class="st1" width="4.3" height="4.3"/>
	</g>
	<g>
		<rect x="108.2" y="57.6" class="st1" width="4.3" height="4.3"/>
	</g>
	<g>
		<rect x="101.6" y="57.6" class="st1" width="4.3" height="4.3"/>
	</g>
	<g>
		<rect x="95" y="57.6" class="st1" width="4.3" height="4.3"/>
	</g>
	<g>
		<rect x="88.4" y="57.6" class="st1" width="4.3" height="4.3"/>
	</g>
	<g>
		<rect x="81.8" y="57.6" class="st1" width="4.3" height="4.3"/>
	</g>
	<g>
		<rect x="75.3" y="57.6" class="st1" width="4.3" height="4.3"/>
	</g>
	<g>
		<rect x="68.7" y="57.6" class="st1" width="4.3" height="4.3"/>
	</g>
	<g>
		<rect x="62" y="57.6" class="st1" width="4.3" height="4.3"/>
	</g>
	<g>
		<rect x="55.5" y="57.6" class="st1" width="4.3" height="4.3"/>
	</g>
	<g>
		<rect x="48.9" y="57.6" class="st1" width="4.3" height="4.3"/>
	</g>
	<g>
		<rect x="42.3" y="57.6" class="st1" width="4.3" height="4.3"/>
	</g>
	<g>
		<rect x="35.7" y="57.6" class="st1" width="4.3" height="4.3"/>
	</g>
	<g>
		<rect x="29.2" y="57.6" class="st1" width="4.3" height="4.3"/>
	</g>
</g>
<g>
	<rect x="30.9" y="38.7" class="st1" width="65.2" height="1.2"/>
</g>
<g>
	<rect x="24.6" y="64.8" class="st1" width="120.4" height="0.8"/>
</g>
<g>
	<rect x="24.3" y="52.7" class="st0" width="121.9" height="1.2"/>
</g>
<g>
	<rect x="31.7" y="45.7" class="st2" width="111" height="7.1"/>
</g>
<g>
	<rect x="30.9" y="45.4" class="st1" width="112.7" height="1.2"/>
</g>
<g>
	<rect x="95.2" y="29.4" class="st1" width="25" height="1.2"/>
</g>
<g>
	<rect x="112.8" y="33" class="st1" width="3.1" height="6.2"/>
</g>
<g>
	<rect x="106.1" y="33" class="st1" width="3.1" height="6.2"/>
</g>
<g>
	<rect x="99.4" y="33" class="st1" width="3.1" height="6.2"/>
</g>
<g>
	<g>
		<g>
			<rect x="136.3" y="48.1" class="st1" width="0.5" height="4.8"/>
		</g>
		<g>
			<rect x="131.2" y="48.1" class="st1" width="0.5" height="4.8"/>
		</g>
		<g>
			<rect x="126.2" y="48.1" class="st1" width="0.5" height="4.8"/>
		</g>
		<g>
			<rect x="121.1" y="48.1" class="st1" width="0.6" height="4.8"/>
		</g>
	</g>
	<g>
		<g>
			<rect x="116.1" y="48.1" class="st1" width="0.5" height="4.8"/>
		</g>
		<g>
			<rect x="111.1" y="48.1" class="st1" width="0.6" height="4.8"/>
		</g>
		<g>
			<rect x="106" y="48.1" class="st1" width="0.6" height="4.8"/>
		</g>
		<g>
			<rect x="101" y="48.1" class="st1" width="0.5" height="4.8"/>
		</g>
	</g>
</g>
<g>
	<g>
		<g>
			<rect x="95.9" y="48.1" class="st1" width="0.5" height="4.8"/>
		</g>
		<g>
			<rect x="90.9" y="48.1" class="st1" width="0.5" height="4.8"/>
		</g>
		<g>
			<rect x="85.9" y="48.1" class="st1" width="0.5" height="4.8"/>
		</g>
		<g>
			<rect x="80.8" y="48.1" class="st1" width="0.5" height="4.8"/>
		</g>
	</g>
	<g>
		<g>
			<rect x="75.8" y="48.1" class="st1" width="0.5" height="4.8"/>
		</g>
		<g>
			<rect x="70.7" y="48.1" class="st1" width="0.6" height="4.8"/>
		</g>
		<g>
			<rect x="65.7" y="48.1" class="st1" width="0.6" height="4.8"/>
		</g>
		<g>
			<rect x="60.7" y="48.1" class="st1" width="0.6" height="4.8"/>
		</g>
	</g>
</g>
<g>
	<g>
		<g>
			<rect x="55.6" y="48.1" class="st1" width="0.5" height="4.8"/>
		</g>
		<g>
			<rect x="50.6" y="48.1" class="st1" width="0.5" height="4.8"/>
		</g>
		<g>
			<rect x="45.6" y="48.1" class="st1" width="0.5" height="4.8"/>
		</g>
		<g>
			<rect x="40.5" y="48.1" class="st1" width="0.5" height="4.8"/>
		</g>
	</g>
	<g>
		<g>
			<rect x="35.5" y="48.1" class="st1" width="0.5" height="4.8"/>
		</g>
	</g>
</g>
<circle class="st2" cx="122.4" cy="14.4" r="2.8"/>
<circle class="st2" cx="125.9" cy="14.4" r="3.5"/>
<circle class="st2" cx="115.3" cy="9.8" r="2.4"/>
<circle class="st2" cx="102.8" cy="7.2" r="2"/>
<circle class="st2" cx="129" cy="17.4" r="2.1"/>
</svg>
